<?xml version="1.0" encoding="UTF-8"?>
<svg version="1.1" xmlns="http://www.w3.org/2000/svg" width="1080" height="1080">
<path d="M0 0 C0.9909668 0.45487793 0.9909668 0.45487793 2.00195312 0.91894531 C3.53381249 1.6250686 5.06222659 2.33869427 6.58789062 3.05810547 C9.60922 4.48176562 12.64000298 5.88409075 15.671875 7.28515625 C19.84921101 9.2166001 24.02193387 11.1573256 28.18995667 13.10877991 C33.48207405 15.58425025 38.79244618 18.00757241 44.14453125 20.3515625 C45.22734375 20.83077148 46.31015625 21.30998047 47.42578125 21.80371094 C49.45253536 22.69783005 51.4848027 23.57960032 53.5234375 24.44628906 C60.41801792 27.50812277 65.97246423 31.08094206 69.625 37.8671875 C71.39265664 44.42961278 72.15852617 50.1798068 69.234375 56.51171875 C66.2440693 61.63119781 62.96763735 65.07721029 57.5 67.5625 C43.18534971 70.86588084 30.43976485 62.14509161 17.875 56.1875 C16.31652844 55.45156411 14.75793554 54.71588512 13.19921875 53.98046875 C1.08510546 48.2587641 1.08510546 48.2587641 -2.75 46.3125 C-2.09 48.6225 -1.43 50.9325 -0.75 53.3125 C-0.03320068 53.4256958 0.68359863 53.5388916 1.42211914 53.65551758 C4.42855118 54.35398159 6.75633392 55.4105731 9.49609375 56.82421875 C10.99027832 57.58641724 10.99027832 57.58641724 12.51464844 58.36401367 C13.56168945 58.90388916 14.60873047 59.44376465 15.6875 60 C36.21460697 71.72110014 36.21460697 71.72110014 58.75 71.75 C65.9802177 68.91733937 70.13841796 64.87954322 73.375 57.875 C76.47397241 52.04854084 81.3807156 49.66461136 87.0234375 46.55419922 C90.55533537 44.58454652 94.03188975 42.52148742 97.51855469 40.47314453 C100.62733521 38.64946625 103.7424232 36.83701663 106.859375 35.02734375 C111.02026582 32.6107095 115.17670702 30.18677709 119.328125 27.75390625 C125.29356795 24.25869634 131.26878348 20.78064087 137.25 17.3125 C138.82201172 16.39911865 138.82201172 16.39911865 140.42578125 15.46728516 C143.54972249 13.6569059 146.68001874 11.85805384 149.8125 10.0625 C150.75810791 9.51327881 151.70371582 8.96405762 152.67797852 8.39819336 C159.87851198 4.29578331 165.96945031 2.0277106 174.375 2 C175.55320312 1.98324219 176.73140625 1.96648438 177.9453125 1.94921875 C183.02258793 2.50735896 185.4651343 4.49112892 188.9375 8.125 C192.82560043 13.48427357 193.71988101 17.62733628 192.7890625 24.078125 C190.51523576 33.50297206 182.84090146 39.94169649 175.375 45.4375 C173.84261205 46.58572247 172.31138285 47.73549282 170.78125 48.88671875 C170.01683594 49.46083496 169.25242187 50.03495117 168.46484375 50.62646484 C165.21375405 53.10133538 162.04533877 55.67310024 158.875 58.25 C150.96354897 64.64495693 142.75823988 70.62300495 134.54736328 76.625 C131.09487657 79.16098174 127.67155882 81.73502617 124.25 84.3125 C110.00644302 95.02421251 95.63267178 105.5593394 81.14892578 115.94384766 C79.48561732 117.14267862 77.8336303 118.35718542 76.18359375 119.57421875 C69.12013178 124.71814449 63.26010642 127.84188207 54.25 127.3125 C51.650183 126.59048522 49.24383402 125.81896605 46.734375 124.8671875 C46.0092572 124.60163055 45.2841394 124.33607361 44.53704834 124.06246948 C34.46686283 120.34109728 24.48551784 116.37880591 14.5 112.4375 C6.7538293 109.38601711 -0.99573869 106.34336507 -8.75 103.3125 C-9.72864014 102.92896362 -10.70728027 102.54542725 -11.71557617 102.15026855 C-14.58400079 101.0287124 -17.45552975 99.91551151 -20.328125 98.8046875 C-21.18968201 98.4667215 -22.05123901 98.12875549 -22.93890381 97.7805481 C-30.08788088 95.03283989 -36.51512517 94.16929552 -44.17578125 94.03125 C-45.7923178 93.99349353 -47.40885426 93.955733 -49.02539062 93.91796875 C-51.55799933 93.86412025 -54.09063702 93.81192594 -56.62329102 93.76025391 C-59.07839418 93.70870691 -61.53331599 93.65143926 -63.98828125 93.59375 C-64.75175369 93.58017456 -65.51522614 93.56659912 -66.30183411 93.5526123 C-71.63706756 93.42543244 -71.63706756 93.42543244 -72.75 92.3125 C-72.86104964 89.70648934 -72.90739053 87.12673013 -72.91113281 84.51977539 C-72.91609772 83.70354202 -72.92106262 82.88730865 -72.92617798 82.04634094 C-72.94083627 79.33427095 -72.94760728 76.62225942 -72.953125 73.91015625 C-72.95887296 72.03307594 -72.96463073 70.15599566 -72.97039795 68.27891541 C-72.98091806 64.33869146 -72.98675426 60.39848798 -72.99023438 56.45825195 C-72.99572453 51.39927391 -73.01975939 46.3405643 -73.04820633 41.28167057 C-73.0667913 37.40330708 -73.07203607 33.52500881 -73.07357025 29.64660454 C-73.07660615 27.78100553 -73.084666 25.91540793 -73.09775543 24.04985237 C-73.11473161 21.44456429 -73.11295673 18.83993944 -73.10644531 16.23461914 C-73.1156601 15.4579187 -73.12487488 14.68121826 -73.1343689 13.88098145 C-73.11749268 11.73524475 -73.11749268 11.73524475 -72.75 8.3125 C-69.66678978 6.25702652 -68.06958305 5.84768972 -64.48754883 5.25927734 C-62.87490898 4.98922379 -62.87490898 4.98922379 -61.22969055 4.7137146 C-60.06721298 4.52717316 -58.90473541 4.34063171 -57.70703125 4.1484375 C-55.91068489 3.85303574 -55.91068489 3.85303574 -54.07804871 3.55166626 C-51.54081592 3.13633206 -49.00297839 2.72467808 -46.46459961 2.31640625 C-42.59378911 1.6925429 -38.72557159 1.05419233 -34.85742188 0.4140625 C-32.3907675 0.0121453 -29.92397475 -0.38892379 -27.45703125 -0.7890625 C-26.30467484 -0.9796524 -25.15231842 -1.17024231 -23.96504211 -1.36660767 C-15.26946463 -2.75148105 -8.21375144 -3.83742007 0 0 Z " fill="#0F265C" transform="translate(510.75,590.6875)"/>
<path d="M0 0 C1.49442627 0.01885254 1.49442627 0.01885254 3.01904297 0.03808594 C22.36494156 0.33353522 35.99983211 2.87233149 52.48046875 13.6171875 C55.22159171 15.12161778 57.71322504 15.84434376 60.75 16.5625 C63.671875 17.25390625 63.671875 17.25390625 66 18 C66.33 18.66 66.66 19.32 67 20 C66.67 20.99 66.34 21.98 66 23 C64.35 23 62.7 23 61 23 C61.87785156 23.75216797 61.87785156 23.75216797 62.7734375 24.51953125 C65.58152262 27.64783661 67.00814138 30.8409376 68.625 34.6875 C68.93058838 35.409375 69.23617676 36.13125 69.55102539 36.875 C73.97724853 47.55857202 76.4054408 59.63465009 73.125 71.04296875 C69.93034731 77.9892366 65.19673401 82.80846012 58.1875 85.875 C53.52136611 87.44260097 48.86504753 87.26917271 44 87 C43.5978125 88.3921875 43.5978125 88.3921875 43.1875 89.8125 C42.04142433 92.88880839 41.26517658 93.83330936 39 96 C38.7834375 96.90105469 38.7834375 96.90105469 38.5625 97.8203125 C37.92276775 100.29927498 36.91551776 102.08195968 35.5625 104.25 C35.13066406 104.95640625 34.69882812 105.6628125 34.25390625 106.390625 C33.63322266 107.18726563 33.63322266 107.18726563 33 108 C32.34 108 31.68 108 31 108 C31 101.07 31 94.14 31 87 C26.25411499 87.02356567 26.25411499 87.02356567 21.41235352 87.04760742 C10.9430192 87.09738125 0.47367957 87.13048017 -9.99574184 87.15543652 C-16.34154471 87.17107297 -22.68722605 87.19227462 -29.03295898 87.22631836 C-35.16025546 87.25898343 -41.28743524 87.27686821 -47.41481209 87.28463173 C-49.74911396 87.29016237 -52.08340965 87.30096233 -54.41766167 87.31719017 C-57.6945143 87.33905904 -60.97088853 87.34196292 -64.24780273 87.34057617 C-65.20662354 87.351362 -66.16544434 87.36214783 -67.15332031 87.3732605 C-75.64758351 87.33452186 -83.13029417 85.73129823 -89.49609375 79.80859375 C-96.03756247 71.94184046 -96.34053148 62.65637818 -95.5 52.91796875 C-93.50998636 37.32434624 -85.26541094 23.82412479 -73.36328125 13.7734375 C-61.03518612 4.38227801 -49.02632251 0.85082805 -33.75 0.375 C-32.70005859 0.33777832 -31.65011719 0.30055664 -30.56835938 0.26220703 C-20.37449852 -0.07113652 -10.19745071 -0.17022915 0 0 Z " fill="#0060FE" transform="translate(570,470)"/>
<path d="M0 0 C10.38526378 6.65763775 16.64414572 15.4057703 20.25 27.25 C22.67336017 39.46777417 20.6731858 51.79995679 13.9375 62.3125 C11.50787715 65.63884151 8.97504847 68.58150492 5.875 71.3125 C5.32457031 71.80492187 4.77414062 72.29734375 4.20703125 72.8046875 C-5.83041656 81.12438651 -17.48343916 82.41780786 -30.0703125 81.54003906 C-41.45200939 80.2796135 -51.09293833 73.34539199 -58.33203125 64.8203125 C-66.37942131 53.56448588 -67.17493756 41.68132343 -66.125 28.3125 C-63.89650819 17.29738335 -57.23399143 7.7774656 -48.125 1.3125 C-32.86149936 -7.72100038 -15.58641146 -8.6669894 0 0 Z " fill="#0061FF" transform="translate(582.125,379.6875)"/>
<path d="M0 0 C0.69351563 0.42410156 1.38703125 0.84820312 2.1015625 1.28515625 C9.74181307 6.42157938 14.23296177 13.61369801 16.53125 22.46484375 C18.42231549 32.69235629 16.34329953 42.49273651 10.50390625 51.12109375 C4.69748481 58.37535014 -2.85830946 63.16480134 -12 65 C-23.0130766 65.99821348 -32.56151674 63.75592487 -41.21875 56.6953125 C-48.58093822 49.68831758 -52.26810102 41.73958801 -52.99609375 31.640625 C-53.01199199 20.89341263 -49.49992396 12.47401039 -42.1875 4.6875 C-31.49694458 -5.45741271 -12.62738504 -8.27222571 0 0 Z M-20.125 21.375 C-21.09226479 22.57619568 -22.05048545 23.78472458 -23 25 C-24.03278029 26.2780656 -25.07434512 27.54908751 -26.125 28.8125 C-26.58132813 29.37582031 -27.03765625 29.93914062 -27.5078125 30.51953125 C-30.5352564 33.52319941 -33.58855324 34.25781352 -37.75 34.625 C-38.54921875 34.69976562 -39.3484375 34.77453125 -40.171875 34.8515625 C-41.07679688 34.92503906 -41.07679688 34.92503906 -42 35 C-39.62801884 39.74396231 -36.26151175 42.93945975 -32 46 C-26.02969064 47.99010312 -21.50164085 47.52592452 -15.875 44.9375 C-11.09466562 42.32143286 -8.14038722 39.3965421 -5 35 C-3.99259766 33.60201172 -3.99259766 33.60201172 -2.96484375 32.17578125 C-1.5741856 30.24501267 -0.19565535 28.30542432 1.16796875 26.35546875 C3 24 3 24 6 22 C5.66032174 18.82966958 5.00130809 18.00117393 2.5625 15.8125 C-6.07699063 9.70164078 -13.91467466 14.19177774 -20.125 21.375 Z M-33 14 C-34.485 15.98 -34.485 15.98 -36 18 C-35.01 18.495 -35.01 18.495 -34 19 C-33.01 20.485 -33.01 20.485 -32 22 C-31.67 21.01 -31.34 20.02 -31 19 C-30.34 18.34 -29.68 17.68 -29 17 C-30.32 16.01 -31.64 15.02 -33 14 Z M-2 41 C-2.66 41.66 -3.32 42.32 -4 43 C-3.91428339 45.09291157 -3.91428339 45.09291157 -3 47 C-2.01 47.33 -1.02 47.66 0 48 C0.66 47.67 1.32 47.34 2 47 C2 45.35 2 43.7 2 42 C0.10820797 41.3185177 0.10820797 41.3185177 -2 41 Z " fill="#0061FF" transform="translate(428,413)"/>
<path d="M0 0 C3.01633325 0.38601252 5.972885 1.14233799 8.9375 1.8125 C10.19336914 2.08030273 10.19336914 2.08030273 11.47460938 2.35351562 C12.27576172 2.53205078 13.07691406 2.71058594 13.90234375 2.89453125 C15.00823853 3.13973511 15.00823853 3.13973511 16.13647461 3.38989258 C18 4 18 4 20 6 C26.71170126 19.69250374 32.55610539 34.6330085 28.125 50.04296875 C24.93034731 56.9892366 20.19673401 61.80846012 13.1875 64.875 C8.52136611 66.44260097 3.86504753 66.26917271 -1 66 C-1.268125 66.928125 -1.53625 67.85625 -1.8125 68.8125 C-2.95857567 71.88880839 -3.73482342 72.83330936 -6 75 C-6.144375 75.60070312 -6.28875 76.20140625 -6.4375 76.8203125 C-7.07723225 79.29927498 -8.08448224 81.08195968 -9.4375 83.25 C-9.86933594 83.95640625 -10.30117188 84.6628125 -10.74609375 85.390625 C-11.15988281 85.92171875 -11.57367187 86.4528125 -12 87 C-12.66 87 -13.32 87 -14 87 C-14.80667784 58.31812127 -10.67782867 28.16833173 -1 1 C-0.67 0.67 -0.34 0.34 0 0 Z " fill="#0E265E" transform="translate(615,491)"/>
<path d="M0 0 C2.4375 1.1875 2.4375 1.1875 4 3 C4.75 6.1875 4.75 6.1875 5 9 C7.31 9.33 9.62 9.66 12 10 C12.95511124 13.7202601 12.96685467 16.23579241 11.99951172 19.94213867 C11.75530487 20.89630173 11.51109802 21.85046478 11.25949097 22.83354187 C10.84873825 24.36033318 10.84873825 24.36033318 10.4296875 25.91796875 C10.15158234 26.97156082 9.87347717 28.02515289 9.58694458 29.110672 C8.99568413 31.33370212 8.39852532 33.55517066 7.79589844 35.77514648 C6.87711126 39.17967682 5.99254362 42.59194059 5.109375 46.00585938 C4.53071739 48.16461885 3.95005589 50.32284238 3.3671875 52.48046875 C3.10549774 53.50440231 2.84380798 54.52833588 2.57418823 55.58329773 C2.31106842 56.5280043 2.04794861 57.47271088 1.77685547 58.44604492 C1.55399872 59.27923752 1.33114197 60.11243011 1.10153198 60.97087097 C-0.39840915 63.73390841 -2.0643186 64.12090066 -5 65 C-5.495 64.505 -5.495 64.505 -6 64 C-5.51100048 58.2112269 -4.29956207 52.81659702 -2.75 47.23046875 C-2.53182617 46.42764969 -2.31365234 45.62483063 -2.08886719 44.79768372 C-1.3976762 42.2595314 -0.69886718 39.72354808 0 37.1875 C0.4692321 35.46692828 0.93798652 33.74622621 1.40625 32.02539062 C4.78208224 19.65375328 4.78208224 19.65375328 6 16 C5.34 16 4.68 16 4 16 C3.90855713 16.58450928 3.81711426 17.16901855 3.72290039 17.77124023 C2.30434107 26.19635917 0.20880678 34.41254832 -1.94116211 42.67358398 C-2.56908485 45.08781737 -3.19022794 47.50372477 -3.81054688 49.91992188 C-4.20794129 51.45843465 -4.6057136 52.99684988 -5.00390625 54.53515625 C-5.18933487 55.25590836 -5.37476349 55.97666046 -5.56581116 56.71925354 C-6.88417518 61.76835037 -6.88417518 61.76835037 -8 64 C-10.75153071 63.38120598 -13.50108898 62.75523814 -16.25 62.125 C-17.02730469 61.95097656 -17.80460938 61.77695312 -18.60546875 61.59765625 C-19.35957031 61.42363281 -20.11367188 61.24960937 -20.890625 61.0703125 C-21.58188477 60.91320801 -22.27314453 60.75610352 -22.98535156 60.59423828 C-25.14830473 59.95625622 -26.99801354 59.02857311 -29 58 C-27.36950027 52.21847497 -25.73355026 46.43852896 -24.09277344 40.65991211 C-23.53662559 38.69841151 -22.98190752 36.7365049 -22.42871094 34.77416992 C-14.56658084 6.89482953 -14.56658084 6.89482953 -10 0 C-6.74331533 -1.62834234 -3.43345826 -0.75468092 0 0 Z " fill="#0F265C" transform="translate(646,422)"/>
<path d="M0 0 C0.9590625 0.7115625 0.9590625 0.7115625 1.9375 1.4375 C-0.89677629 4.48935208 -3.67807061 6.56831497 -7.296875 8.6171875 C-8.33344238 9.20894775 -9.37000977 9.80070801 -10.43798828 10.41040039 C-12.10837158 11.3519397 -12.10837158 11.3519397 -13.8125 12.3125 C-14.9833425 12.97897737 -16.15374623 13.64622609 -17.32373047 14.31420898 C-19.12637556 15.3432962 -20.9292628 16.37192774 -22.73348999 17.39823914 C-28.57668785 20.72248439 -34.3844895 24.1061415 -40.1875 27.5 C-41.15220215 28.06195068 -42.1169043 28.62390137 -43.11083984 29.20288086 C-48.36452386 32.2648359 -53.60319316 35.35014855 -58.828125 38.4609375 C-59.93397949 39.11570068 -61.03983398 39.77046387 -62.17919922 40.44506836 C-64.31496298 41.71010751 -66.44695674 42.98153817 -68.57470703 44.26000977 C-69.52716309 44.82260498 -70.47961914 45.3852002 -71.4609375 45.96484375 C-72.72429932 46.71882446 -72.72429932 46.71882446 -74.01318359 47.48803711 C-75.02759521 47.95802124 -75.02759521 47.95802124 -76.0625 48.4375 C-79.21128942 46.86310529 -79.60272492 43.72222275 -80.6875 40.5625 C-81.03167969 39.60537109 -81.03167969 39.60537109 -81.3828125 38.62890625 C-82.38736598 35.76473295 -83.0625 33.49499257 -83.0625 30.4375 C-82.56476074 30.20377686 -82.06702148 29.97005371 -81.55419922 29.72924805 C-71.11081335 24.81066745 -60.72540625 19.79461739 -50.42578125 14.58203125 C-49.58934082 14.15967697 -48.75290039 13.73732269 -47.89111328 13.3021698 C-43.68581807 11.17829935 -39.48500844 9.04627077 -35.29052734 6.90112305 C-10.82830747 -5.52464667 -10.82830747 -5.52464667 0 0 Z " fill="#0F265C" transform="translate(666.0625,587.5625)"/>
<path d="M0 0 C9.19522408 11.50073216 11.37837179 25.71375069 10 40 C8.00555129 46.93605153 4.09621585 52.15176375 -2 56 C-7.86700835 59.21463166 -13.41947324 59.36408652 -20 59 C-18.8914146 55.52867197 -17.67515327 52.12189075 -16.3359375 48.734375 C-11.13248513 35.54401075 -6.84110885 22.17773143 -2.78613281 8.59423828 C-1.91218128 5.71019823 -0.98116799 2.8493515 0 0 Z " fill="#0060FD" transform="translate(634,498)"/>
<path d="M0 0 C3.96396869 3.3793546 6.39221737 5.55620336 6.91015625 10.96484375 C7.06870395 16.99800111 6.96725316 20.84207554 2.671875 25.4765625 C-1.02801973 28.90573322 -3.9073599 29.77625999 -8.828125 29.9765625 C-15.24936474 29.71518232 -18.37378169 27.58519607 -22.703125 22.9140625 C-25.00192617 18.05121386 -24.98437351 13.76705971 -24.328125 8.4765625 C-22.52563311 3.87019432 -19.2389011 1.34978576 -15.328125 -1.5234375 C-10.07827421 -3.26983817 -4.6791521 -3.06186128 0 0 Z M-10.328125 10.4765625 C-11.194375 11.3634375 -12.060625 12.2503125 -12.953125 13.1640625 C-15.328125 15.4765625 -15.328125 15.4765625 -18.328125 16.4765625 C-17.63822113 19.71382321 -17.63822113 19.71382321 -14.640625 20.8515625 C-11.37045888 21.72051796 -11.37045888 21.72051796 -8.390625 20.6640625 C-4.11734714 17.61172117 -1.34451741 13.73342398 1.671875 9.4765625 C0.4230323 7.8932372 0.4230323 7.8932372 -1.328125 6.4765625 C-6.13330986 6.4765625 -6.8567549 7.34386265 -10.328125 10.4765625 Z " fill="#0061FF" transform="translate(639.328125,275.5234375)"/>
<path d="M0 0 C3.125 0.375 3.125 0.375 6 1 C6.02465288 5.68139254 6.04283739 10.36274759 6.05493164 15.04418945 C6.05997157 16.63794614 6.0668035 18.23169819 6.07543945 19.82543945 C6.08751999 22.11150253 6.09323155 24.39750467 6.09765625 26.68359375 C6.10281754 27.40026718 6.10797882 28.11694061 6.11329651 28.85533142 C6.11349263 30.57063672 6.06192007 32.28581266 6 34 C5 35 5 35 2.5625 35.1875 C0 35 0 35 -2 33 C-2.25878906 29.95898438 -2.25878906 29.95898438 -2.265625 26.09375 C-2.26753845 25.41324585 -2.2694519 24.7327417 -2.27142334 24.03161621 C-2.27278463 22.59252554 -2.26909205 21.15342256 -2.26074219 19.71435547 C-2.25004128 17.50850913 -2.26063872 15.30347719 -2.2734375 13.09765625 C-2.27211589 11.70051903 -2.26955348 10.30338232 -2.265625 8.90625 C-2.26336914 7.63072266 -2.26111328 6.35519531 -2.25878906 5.04101562 C-2 2 -2 2 0 0 Z " fill="#0061FF" transform="translate(409,368)"/>
<path d="M0 0 C3.70557271 1.64791094 6.81041123 3.97121504 10 6.4375 C10.56380371 6.87126953 11.12760742 7.30503906 11.70849609 7.75195312 C16.39711184 11.41505665 20.80364021 15.33665468 25.12890625 19.41967773 C27.34839129 21.5135098 29.45002399 23.300016 32 25 C31.34 26.32 30.68 27.64 30 29 C25.7906534 29 24.86040197 27.22721697 21.875 24.3125 C14.43449895 17.21181814 6.24305527 11.12941369 -2 5 C-1.34 3.35 -0.68 1.7 0 0 Z " fill="#99C0FF" transform="translate(742,266)"/>
<path d="M0 0 C9.85738678 9.66547305 17.57197095 20.43123986 25 32 C24.34 32.99 23.68 33.98 23 35 C20.56683743 34.62047724 19.30068535 34.31913071 17.5871582 32.50048828 C17.16265381 31.86353027 16.73814941 31.22657227 16.30078125 30.5703125 C15.81770508 29.86221436 15.33462891 29.15411621 14.83691406 28.42456055 C14.33385742 27.66570557 13.83080078 26.90685059 13.3125 26.125 C9.02368672 19.81547041 4.60859995 13.91609604 -0.453125 8.19921875 C-2 6 -2 6 -2 2 C-1.34 1.34 -0.68 0.68 0 0 Z " fill="#99C0FF" transform="translate(800,320)"/>
<path d="M0 0 C1.32 0.66 2.64 1.32 4 2 C3.41214475 5.02507358 2.56912285 6.86023112 0.59375 9.21484375 C0.10132813 9.81288818 -0.39109375 10.41093262 -0.8984375 11.02709961 C-1.69121094 11.9727478 -1.69121094 11.9727478 -2.5 12.9375 C-7.46084583 18.9494102 -11.88377217 25.10684598 -16.0625 31.68359375 C-16.701875 32.44800781 -17.34125 33.21242188 -18 34 C-19.32 34 -20.64 34 -22 34 C-22.495 32.515 -22.495 32.515 -23 31 C-21.52790795 28.45203115 -20.01904233 26.13446053 -18.3125 23.75 C-17.82225342 23.05068359 -17.33200684 22.35136719 -16.8269043 21.63085938 C-11.53270472 14.1716491 -5.81163908 7.0591637 0 0 Z " fill="#99C0FF" transform="translate(278,321)"/>
<path d="M0 0 C1.32 0.66 2.64 1.32 4 2 C4 2.99 4 3.98 4 5 C2.16125386 6.60966648 0.35448617 8.01983236 -1.625 9.4375 C-7.43120075 13.72794777 -12.92462926 18.27801522 -18.32861328 23.06420898 C-21.07503384 25.46922809 -23.60180673 27.60416511 -27 29 C-27.99 27.68 -28.98 26.36 -30 25 C-20.48877881 15.99395356 -10.50358864 7.8262033 0 0 Z " fill="#99C0FF" transform="translate(335,267)"/>
<path d="M0 0 C5.10490764 1.67790789 9.22849048 4.68558714 13.625 7.6875 C15.22856693 8.77041987 16.83273291 9.8524532 18.4375 10.93359375 C19.21480469 11.45808105 19.99210937 11.98256836 20.79296875 12.52294922 C25.14145471 15.43316383 29.56412511 18.22513553 34 21 C33.505 23.475 33.505 23.475 33 26 C28.60633846 24.70488526 25.14626479 23.01754032 21.33984375 20.48046875 C20.29892578 19.78759766 19.25800781 19.09472656 18.18554688 18.38085938 C17.11369141 17.65705078 16.04183594 16.93324219 14.9375 16.1875 C13.86177734 15.47529297 12.78605469 14.76308594 11.67773438 14.02929688 C6.64486094 10.65636682 2.20106093 7.39718978 -2 3 C-1.34 2.01 -0.68 1.02 0 0 Z " fill="#99C0FF" transform="translate(338,810)"/>
<path d="M0 0 C2.475 0.495 2.475 0.495 5 1 C3.60248763 5.60687495 1.72040735 9.77729087 -0.5625 14 C-0.90893555 14.64138916 -1.25537109 15.28277832 -1.61230469 15.94360352 C-4.20741382 20.67950405 -6.90921155 25.34474359 -9.75 29.9375 C-10.11424072 30.54658203 -10.47848145 31.15566406 -10.85375977 31.78320312 C-11.921875 33.46484375 -11.921875 33.46484375 -14 36 C-15.32 36 -16.64 36 -18 36 C-19 33 -19 33 -18.01538086 30.81445312 C-17.50370361 29.97849609 -16.99202637 29.14253906 -16.46484375 28.28125 C-15.90216797 27.34796875 -15.33949219 26.4146875 -14.75976562 25.453125 C-13.85774414 23.99132812 -13.85774414 23.99132812 -12.9375 22.5 C-11.77804705 20.59490558 -10.6204915 18.68865509 -9.46484375 16.78125 C-8.89233887 15.83765625 -8.31983398 14.8940625 -7.72998047 13.921875 C-5.02389487 9.35139342 -2.50086262 4.68518927 0 0 Z " fill="#99C0FF" transform="translate(840,691)"/>
<path d="M0 0 C1.32 0.66 2.64 1.32 4 2 C2.49598994 5.9210529 0.29266369 7.46557539 -3.1640625 9.75 C-4.20433594 10.4409375 -5.24460937 11.131875 -6.31640625 11.84375 C-7.40824219 12.5553125 -8.50007812 13.266875 -9.625 14 C-10.69363281 14.7115625 -11.76226563 15.423125 -12.86328125 16.15625 C-18.4332426 19.82845084 -23.9487824 23.18684315 -30 26 C-30.66 24.35 -31.32 22.7 -32 21 C-31.38592285 20.61255615 -30.7718457 20.2251123 -30.13916016 19.82592773 C-27.29951783 18.03228699 -24.46225533 16.234914 -21.625 14.4375 C-20.65949219 13.82841797 -19.69398438 13.21933594 -18.69921875 12.59179688 C-12.3426263 8.56026676 -6.12648728 4.37329952 0 0 Z " fill="#99C0FF" transform="translate(740,810)"/>
<path d="M0 0 C0.29132813 0.53778076 0.58265625 1.07556152 0.8828125 1.62963867 C6.21298552 11.4487644 11.55282971 21.19063337 17.63671875 30.56640625 C19 33 19 33 19 36 C17.02 36.495 17.02 36.495 15 37 C10.36432158 30.89072844 6.4713978 24.50663631 2.75 17.8125 C2.32605957 17.05275879 1.90211914 16.29301758 1.46533203 15.51025391 C-0.96079318 11.09395537 -3.09661536 6.66576431 -5 2 C-2 0 -2 0 0 0 Z " fill="#99C0FF" transform="translate(240,691)"/>
<path d="M0 0 C5.13250763 0.64285954 9.4572536 2.90759181 14.0625 5.125 C14.90143799 5.52517334 15.74037598 5.92534668 16.60473633 6.33764648 C23.28163326 9.56298695 29.69716366 13.08746087 36 17 C35.505 19.475 35.505 19.475 35 22 C29.55586488 20.42452681 24.83424121 17.9271694 19.875 15.25 C18.18931559 14.3505994 16.50311714 13.45216158 14.81640625 12.5546875 C13.9980127 12.11866211 13.17961914 11.68263672 12.33642578 11.23339844 C7.60189944 8.73404347 2.80550487 6.35958922 -2 4 C-1.34 2.68 -0.68 1.36 0 0 Z " fill="#99C0FF" transform="translate(674,227)"/>
<path d="M0 0 C0.6875 2.0625 0.6875 2.0625 1 4 C0.3608667 4.30180176 -0.2782666 4.60360352 -0.93676758 4.91455078 C-3.89693546 6.31469872 -6.85471542 7.7198248 -9.8125 9.125 C-10.81732422 9.599375 -11.82214844 10.07375 -12.85742188 10.5625 C-18.94987417 13.46180205 -24.87931441 16.52986044 -30.72924805 19.89404297 C-33 21 -33 21 -36 21 C-36.33 19.68 -36.66 18.36 -37 17 C-7.26206897 -2.42068966 -7.26206897 -2.42068966 0 0 Z " fill="#99C0FF" transform="translate(406,228)"/>
<path d="M0 0 C15 30.90681363 15 30.90681363 15 38 C12.525 38.495 12.525 38.495 10 39 C9.79431396 38.47269287 9.58862793 37.94538574 9.37670898 37.40209961 C8.40197747 34.91189975 7.4209626 32.42426504 6.4375 29.9375 C6.08051025 29.03459229 5.72352051 28.13168457 5.35571289 27.20141602 C2.58061145 20.26458152 -0.50438024 13.55033007 -3.84765625 6.87109375 C-5 4 -5 4 -4 1 C-2 0 -2 0 0 0 Z " fill="#99C0FF" transform="translate(845,386)"/>
<path d="M0 0 C0.495 1.98 0.495 1.98 1 4 C-2.94295591 5.54042143 -6.88996188 7.06984215 -10.84082031 8.58984375 C-12.18015817 9.10680373 -13.51840928 9.62658953 -14.85546875 10.14941406 C-22.45814274 13.11991992 -29.87366195 15.82334651 -38 17 C-38.33 15.35 -38.66 13.7 -39 12 C-37.88927124 11.62246582 -37.88927124 11.62246582 -36.75610352 11.23730469 C-33.35675859 10.07915485 -29.95963122 8.91462639 -26.5625 7.75 C-25.39783203 7.35425781 -24.23316406 6.95851563 -23.03320312 6.55078125 C-17.14058645 4.52571299 -11.4387424 2.44451746 -5.88256836 -0.38964844 C-3.56550612 -1.1408682 -2.27090292 -0.77917259 0 0 Z " fill="#99C0FF" transform="translate(675,850)"/>
<path d="M0 0 C13.45557264 1.52426409 27.15688062 4.71896021 40 9 C39.67 10.65 39.34 12.3 39 14 C32.39003648 13.23184068 26.01935443 11.64353834 19.5625 10.0625 C17.9218457 9.66514648 17.9218457 9.66514648 16.24804688 9.25976562 C10.49273634 7.86338384 4.74339437 6.44457185 -1 5 C-0.67 3.35 -0.34 1.7 0 0 Z " fill="#99C0FF" transform="translate(598,204)"/>
<path d="M0 0 C3.65794828 0.63885992 6.95589703 1.63499801 10.421875 2.9609375 C11.44796875 3.35023438 12.4740625 3.73953125 13.53125 4.140625 C14.5934375 4.54796875 15.655625 4.9553125 16.75 5.375 C23.79244039 8.06361641 30.82850338 10.6745147 38 13 C37.67 14.65 37.34 16.3 37 18 C28.71507134 16.74474356 21.26418743 14.02136546 13.5 10.9375 C12.32179688 10.47794922 11.14359375 10.01839844 9.9296875 9.54492188 C1.46056548 6.23028274 1.46056548 6.23028274 -1 5 C-0.67 3.35 -0.34 1.7 0 0 Z " fill="#99C0FF" transform="translate(406,849)"/>
<path d="M0 0 C1.1282554 1.1282554 2.25614956 2.25687314 3.3828125 3.38671875 C4.53917449 4.5402876 5.70129744 5.68809309 6.8671875 6.83203125 C10.82852898 10.7394245 14.56630242 14.74922961 18.19140625 18.96875 C21.30504645 22.46571091 24.65139835 25.72967735 28 29 C26.68 30.32 25.36 31.64 24 33 C20.95511903 29.98002368 17.9136786 26.9566347 14.87524414 23.93017578 C13.84328297 22.9032124 12.81042222 21.87715209 11.77661133 20.85205078 C10.28223298 19.36993918 8.79122777 17.88450178 7.30078125 16.3984375 C5.95753784 15.06304932 5.95753784 15.06304932 4.5871582 13.70068359 C1.88681805 10.88185159 -0.61611807 8.09122301 -3 5 C-2.9375 2.6875 -2.9375 2.6875 -2 1 C-1.34 0.67 -0.68 0.34 0 0 Z " fill="#99C0FF" transform="translate(282,756)"/>
<path d="M0 0 C1.32 0 2.64 0 4 0 C5.24993265 3.96375384 6.49482996 7.92904556 7.73535156 11.89575195 C8.15686716 13.2412233 8.57968762 14.58628666 9.00390625 15.9309082 C11.3066365 23.23284409 13.49855872 30.48454392 15 38 C13.35 38.66 11.7 39.32 10 40 C0.1139469 10.16260546 0.1139469 10.16260546 -1 1 C-0.67 0.67 -0.34 0.34 0 0 Z " fill="#99C0FF" transform="translate(209,618)"/>
<path d="M0 0 C1.65 0.33 3.3 0.66 5 1 C3.71025151 9.44480719 1.51149366 17.42610144 -1.0625 25.5625 C-1.42666016 26.73619141 -1.79082031 27.90988281 -2.16601562 29.11914062 C-4.83602151 37.67204301 -4.83602151 37.67204301 -6 40 C-7.65 39.67 -9.3 39.34 -11 39 C-9.54795861 31.98664009 -7.62740935 25.21119406 -5.5 18.375 C-4.88489139 16.38297462 -4.27029542 14.39079087 -3.65625 12.3984375 C-3.22699219 11.0077002 -3.22699219 11.0077002 -2.7890625 9.58886719 C-1.81813941 6.40332622 -0.89823967 3.20671562 0 0 Z " fill="#99C0FF" transform="translate(867,617)"/>
<path d="M0 0 C1.32 0.66 2.64 1.32 4 2 C3.41464695 5.40694936 2.55880651 8.30658129 1.109375 11.44140625 C0.73159912 12.26737305 0.35382324 13.09333984 -0.03540039 13.94433594 C-0.6366272 15.24032715 -0.6366272 15.24032715 -1.25 16.5625 C-2.06768633 18.34967529 -2.88409664 20.13743497 -3.69921875 21.92578125 C-4.09415527 22.79154785 -4.4890918 23.65731445 -4.89599609 24.54931641 C-7.04460208 29.31882257 -9.03860775 34.15072871 -11 39 C-12.65 38.67 -14.3 38.34 -16 38 C-13.8752509 30.00882651 -10.81317923 22.5990033 -7.4375 15.0625 C-6.94314453 13.94037109 -6.44878906 12.81824219 -5.93945312 11.66210938 C-2.2837208 3.4255812 -2.2837208 3.4255812 0 0 Z " fill="#99C0FF" transform="translate(235,387)"/>
<path d="M0 0 C0.495 2.475 0.495 2.475 1 5 C-6.00504174 7.02535389 -13.05550757 8.83764631 -20.125 10.625 C-21.38699219 10.94984375 -22.64898437 11.2746875 -23.94921875 11.609375 C-25.77259766 12.06957031 -25.77259766 12.06957031 -27.6328125 12.5390625 C-28.73512207 12.81959473 -29.83743164 13.10012695 -30.97314453 13.38916016 C-33.75281048 13.95011549 -36.17658732 14.12264301 -39 14 C-39.33 12.68 -39.66 11.36 -40 10 C-33.5451496 6.85725942 -26.85975268 5.42112434 -19.875 3.875 C-18.70839844 3.61074219 -17.54179687 3.34648437 -16.33984375 3.07421875 C-2.71652919 0 -2.71652919 0 0 0 Z " fill="#99C0FF" transform="translate(481,204)"/>
<path d="M0 0 C1.32 0.66 2.64 1.32 4 2 C3.53895645 6.36943544 0.64828371 8.91450999 -2.25 11.9375 C-3.04277344 12.77498779 -3.04277344 12.77498779 -3.8515625 13.62939453 C-4.97719479 14.81282777 -6.10687582 15.99242104 -7.24023438 17.16845703 C-9.02374634 19.02471491 -10.78509468 20.9004747 -12.546875 22.77734375 C-13.69654102 23.97788137 -14.84754458 25.17713981 -16 26.375 C-16.53915039 26.95241943 -17.07830078 27.52983887 -17.63378906 28.12475586 C-19.1875 29.7109375 -19.1875 29.7109375 -22 32 C-24.375 31.8515625 -24.375 31.8515625 -26 31 C-25.59527186 26.52668892 -22.45111592 24.16025145 -19.375 21.25 C-18.27421039 20.18026664 -17.17524518 19.10865266 -16.078125 18.03515625 C-15.54638672 17.5158252 -15.01464844 16.99649414 -14.46679688 16.46142578 C-11.46101642 13.46665184 -8.7299429 10.24397794 -6 7 C-4.85483156 5.66609556 -3.70902651 4.33273732 -2.5625 3 C-1.716875 2.01 -0.87125 1.02 0 0 Z " fill="#99C0FF" transform="translate(797,756)"/>
<path d="M0 0 C1.2065625 0.0309375 1.2065625 0.0309375 2.4375 0.0625 C2.31705322 0.77720459 2.19660645 1.49190918 2.07250977 2.22827148 C1.15805219 7.68105012 0.26161779 13.13589053 -0.59765625 18.59765625 C-0.76716797 19.67337891 -0.93667969 20.74910156 -1.11132812 21.85742188 C-1.45926371 24.07071552 -1.80556893 26.28426596 -2.15039062 28.49804688 C-2.31861328 29.56216797 -2.48683594 30.62628906 -2.66015625 31.72265625 C-2.88457397 33.15557007 -2.88457397 33.15557007 -3.11352539 34.61743164 C-3.5625 37.0625 -3.5625 37.0625 -4.5625 40.0625 C-6.2125 40.0625 -7.8625 40.0625 -9.5625 40.0625 C-8.6396858 30.11796276 -7.36979729 20.3147452 -5.5 10.5 C-5.3256543 9.57807861 -5.15130859 8.65615723 -4.97167969 7.70629883 C-3.47746893 0.08481632 -3.47746893 0.08481632 0 0 Z " fill="#99C0FF" transform="translate(210.5625,461.9375)"/>
<path d="M0 0 C1.65 0 3.3 0 5 0 C7.22010815 8.29944351 8.88344507 16.57345759 10.1875 25.0625 C10.36474609 26.17560547 10.54199219 27.28871094 10.72460938 28.43554688 C12 36.56554657 12 36.56554657 12 40 C10.35 40 8.7 40 7 40 C5.42652982 33.17692529 4.12437383 26.3376144 2.9375 19.4375 C2.76412109 18.44814453 2.59074219 17.45878906 2.41210938 16.43945312 C1.46486411 10.97010979 0.6360144 5.51431046 0 0 Z " fill="#99C0FF" transform="translate(867,461)"/>
<path d="M0 0 C2.5 -0.375 2.5 -0.375 5 0 C7.06935577 3.10403365 7.25517909 3.81900019 7.265625 7.34375 C7.26820313 8.17777344 7.27078125 9.01179688 7.2734375 9.87109375 C7.26570313 10.73863281 7.25796875 11.60617187 7.25 12.5 C7.25773437 13.36753906 7.26546875 14.23507812 7.2734375 15.12890625 C7.27085937 15.96292969 7.26828125 16.79695313 7.265625 17.65625 C7.26336914 18.41744141 7.26111328 19.17863281 7.25878906 19.96289062 C7 22 7 22 5 25 C2.5 25.375 2.5 25.375 0 25 C-2.06935577 21.89596635 -2.25517909 21.18099981 -2.265625 17.65625 C-2.26820313 16.82222656 -2.27078125 15.98820312 -2.2734375 15.12890625 C-2.26570313 14.26136719 -2.25796875 13.39382813 -2.25 12.5 C-2.25773437 11.63246094 -2.26546875 10.76492188 -2.2734375 9.87109375 C-2.26957031 8.62005859 -2.26957031 8.62005859 -2.265625 7.34375 C-2.26336914 6.58255859 -2.26111328 5.82136719 -2.25878906 5.03710938 C-2 3 -2 3 0 0 Z " fill="#0061FF" transform="translate(393,378)"/>
<path d="M0 0 C0.495 2.475 0.495 2.475 1 5 C-6.13167062 7.03509211 -13.26164243 7.84572458 -20.625 8.625 C-21.82640625 8.7590625 -23.0278125 8.893125 -24.265625 9.03125 C-29.54391481 9.60472273 -34.68518499 10.07452068 -40 10 C-40 8.35 -40 6.7 -40 5 C-38.96613159 4.87939209 -38.96613159 4.87939209 -37.91137695 4.75634766 C-20.99933125 2.81125676 -20.99933125 2.81125676 -4.16015625 0.33203125 C-2 0 -2 0 0 0 Z " fill="#99C0FF" transform="translate(599,871)"/>
<path d="M0 0 C1.65 0 3.3 0 5 0 C5.25546702 13.82862634 4.77447044 27.2795411 3 41 C1.35 41 -0.3 41 -2 41 C-1.93941406 39.79988281 -1.87882813 38.59976563 -1.81640625 37.36328125 C-1.18969884 24.90983584 -0.58775207 12.45534176 0 0 Z " fill="#99C0FF" transform="translate(876,539)"/>
<path d="M0 0 C1.31162109 -0.00128906 2.62324219 -0.00257813 3.97460938 -0.00390625 C4.65048096 -0.00181152 5.32635254 0.0002832 6.02270508 0.00244141 C8.08747675 0.00780635 10.1520318 0.0024733 12.21679688 -0.00390625 C14.18229492 -0.00197266 14.18229492 -0.00197266 16.1875 0 C17.37996338 0.00112793 18.57242676 0.00225586 19.80102539 0.00341797 C22.67075183 0.11851105 25.2396521 0.47143766 28.02734375 1.1328125 C28.02734375 2.7828125 28.02734375 4.4328125 28.02734375 6.1328125 C14.49734375 6.1328125 0.96734375 6.1328125 -12.97265625 6.1328125 C-12.97265625 4.4828125 -12.97265625 2.8328125 -12.97265625 1.1328125 C-8.59521701 0.29341779 -4.45456912 0.00420952 0 0 Z " fill="#99C0FF" transform="translate(531.97265625,198.8671875)"/>
<path d="M0 0 C4.89329719 0.54861353 9.78626563 1.1000453 14.67895508 1.65405273 C16.34227982 1.84199629 18.00569069 2.02917921 19.66918945 2.21557617 C22.06484847 2.48414781 24.46018098 2.75548348 26.85546875 3.02734375 C27.5952446 3.10967758 28.33502045 3.19201141 29.09721375 3.27684021 C32.77348402 3.69681547 36.38566004 4.2026735 40 5 C40 6.65 40 8.3 40 10 C30.26284037 9.62549386 20.65865698 8.81220589 11 7.5 C10.02659668 7.36940186 9.05319336 7.23880371 8.05029297 7.10424805 C1.12980021 6.12980021 1.12980021 6.12980021 0 5 C-0.04063832 3.33382885 -0.042721 1.66611905 0 0 Z " fill="#99C0FF" transform="translate(481,871)"/>
<path d="M0 0 C1.65 0 3.3 0 5 0 C5.28759862 4.57136474 5.57232974 9.1428961 5.85449219 13.71459961 C5.95072369 15.26738213 6.04771638 16.82011768 6.14550781 18.37280273 C6.28654578 20.61429901 6.42477694 22.85595414 6.5625 25.09765625 C6.60624756 25.78336197 6.64999512 26.46906769 6.69506836 27.17555237 C6.95474006 31.45670669 7.03900842 35.71151216 7 40 C4.525 40.495 4.525 40.495 2 41 C0.3483961 27.27104257 -0.24984036 13.82450015 0 0 Z " fill="#99C0FF" transform="translate(199,540)"/>
<path d="M0 0 C1.875 0.6875 1.875 0.6875 2.875 1.6875 C2.94758946 3.87389453 2.95873783 6.06250389 2.9375 8.25 C2.92847656 9.44753906 2.91945313 10.64507812 2.91015625 11.87890625 C2.89855469 12.80574219 2.88695312 13.73257812 2.875 14.6875 C0 15.3125 0 15.3125 -3.125 15.6875 C-5.82578753 12.98671247 -5.42394358 11.44714828 -5.4375 7.6875 C-5.45425781 6.615 -5.47101563 5.5425 -5.48828125 4.4375 C-5.36839844 3.53 -5.24851562 2.6225 -5.125 1.6875 C-2.125 -0.3125 -2.125 -0.3125 0 0 Z " fill="#0061FF" transform="translate(428.125,387.3125)"/>
<path d="M0 0 C7.38605667 0.95703478 14.14117712 2.04129209 21 5 C20.67 6.32 20.34 7.64 20 9 C13.26137773 7.56390017 6.63370443 5.85991713 0 4 C0 2.68 0 1.36 0 0 Z " fill="#0E2863" transform="translate(616,484)"/>
<path d="M0 0 C0.99 0.33 1.98 0.66 3 1 C3 5.62 3 10.24 3 15 C1.68 15 0.36 15 -1 15 C-1.02685412 12.68756208 -1.04632841 10.3750373 -1.0625 8.0625 C-1.07410156 6.77472656 -1.08570313 5.48695313 -1.09765625 4.16015625 C-1 1 -1 1 0 0 Z " fill="#0061FF" transform="translate(630,255)"/>
<path d="M0 0 C0.99 0.33 1.98 0.66 3 1 C3 3.97 3 6.94 3 10 C1.68 10.33 0.36 10.66 -1 11 C-1.02688151 9.35425434 -1.04634123 7.70838587 -1.0625 6.0625 C-1.07410156 5.14597656 -1.08570313 4.22945313 -1.09765625 3.28515625 C-1 1 -1 1 0 0 Z " fill="#0061FF" transform="translate(623,260)"/>
<path d="M0 0 C0.99 0.33 1.98 0.66 3 1 C3 2.98 3 4.96 3 7 C1.68 6.67 0.36 6.34 -1 6 C-1.042721 4.33388095 -1.04063832 2.66617115 -1 1 C-0.67 0.67 -0.34 0.34 0 0 Z " fill="#0061FF" transform="translate(637,264)"/>
</svg>
