<?xml version="1.0" encoding="UTF-8"?>
<svg version="1.1" xmlns="http://www.w3.org/2000/svg" width="1080" height="1080">
<path d="M0 0 C0.8009717 -0.00623996 1.6019434 -0.01247993 2.42718697 -0.01890898 C5.11435401 -0.03487926 7.80061901 -0.02221926 10.48779297 -0.00964355 C12.41290822 -0.01506289 14.33801933 -0.02218448 16.26312256 -0.03088379 C21.49449553 -0.04914248 26.72555349 -0.04203906 31.95693207 -0.02936745 C37.42702596 -0.01925299 42.89709257 -0.0286288 48.3671875 -0.03491211 C57.55392305 -0.04219304 66.74053005 -0.03258908 75.92724609 -0.0135498 C86.5541953 0.00821974 97.18083755 0.00116869 107.80777931 -0.02085543 C116.92549584 -0.03899669 126.04311987 -0.04157397 135.16084862 -0.03110075 C140.60925708 -0.02485883 146.05752118 -0.02404942 151.50592041 -0.0372467 C156.6277735 -0.04878601 161.74923016 -0.04081451 166.87104034 -0.01766968 C168.7528238 -0.01237233 170.63464052 -0.01391384 172.51641083 -0.02272034 C175.08138071 -0.03361908 177.64507292 -0.01998174 180.20996094 0 C181.33232997 -0.01338433 181.33232997 -0.01338433 182.47737312 -0.02703905 C185.69600759 0.02174248 187.80919554 0.32542167 190.56835556 2.02795029 C192.73262284 5.52089694 192.64565554 8.71194157 192.58599854 12.69561768 C192.58942261 13.52599045 192.59284668 14.35636322 192.59637451 15.2118988 C192.60300317 18.0072141 192.58089094 20.80157387 192.55908203 23.59680176 C192.55785692 25.62978713 192.55839028 27.66277421 192.56054306 29.69575882 C192.56144719 35.14675333 192.53824131 40.59739757 192.51010132 46.04830933 C192.48734434 51.16067628 192.48625011 56.27295746 192.48339844 61.38537598 C192.46239779 76.34294202 192.40655331 91.3004427 192.35498047 106.25793457 C192.27248047 139.67043457 192.18998047 173.08293457 192.10498047 207.50793457 C295.72498047 207.50793457 399.34498047 207.50793457 506.10498047 207.50793457 C506.10498047 210.80793457 506.10498047 214.10793457 506.10498047 217.50793457 C402.48498047 217.50793457 298.86498047 217.50793457 192.10498047 217.50793457 C192.10498047 227.73793457 192.10498047 237.96793457 192.10498047 248.50793457 C187.64837845 252.96453659 187.64837845 252.96453659 182.47737312 253.04290819 C181.7291271 253.0339853 180.98088108 253.02506242 180.20996094 253.01586914 C179.40898924 253.0221091 178.60801754 253.02834907 177.78277397 253.03477812 C175.09560693 253.0507484 172.40934193 253.03808841 169.72216797 253.0255127 C167.79705271 253.03093203 165.87194161 253.03805362 163.94683838 253.04675293 C158.71546541 253.06501162 153.48440745 253.0579082 148.25302887 253.04523659 C142.78293497 253.03512213 137.31286837 253.04449794 131.84277344 253.05078125 C122.65603789 253.05806218 113.46943089 253.04845822 104.28271484 253.02941895 C93.65576564 253.0076494 83.02912339 253.01470045 72.40218163 253.03672457 C63.28446509 253.05486583 54.16684106 253.05744311 45.04911232 253.04696989 C39.60070386 253.04072797 34.15243976 253.03991856 28.70404053 253.05311584 C23.58218744 253.06465515 18.46073078 253.05668365 13.33892059 253.03353882 C11.45713714 253.02824147 9.57532042 253.02978298 7.69355011 253.03858948 C5.12858022 253.04948822 2.56488802 253.03585088 0 253.01586914 C-0.74824602 253.02479203 -1.49649204 253.03371491 -2.26741219 253.04290819 C-5.42664564 252.99502694 -7.60600485 252.67516787 -10.35671234 251.08351898 C-12.73858982 247.09554665 -12.44650962 243.35474518 -12.4029541 238.79064941 C-12.41231405 237.2951761 -12.41231405 237.2951761 -12.42186308 235.7694912 C-12.43785492 232.41904632 -12.42516426 229.06932272 -12.41259766 225.71887207 C-12.418016 223.32085749 -12.42513704 220.92284623 -12.43383789 218.52484131 C-12.45020947 212.68190755 -12.4477779 206.83916204 -12.43618733 200.99623346 C-12.42715793 196.24806182 -12.42592685 191.49994778 -12.43028259 186.75177002 C-12.43089552 186.07627873 -12.43150846 185.40078744 -12.43213996 184.70482671 C-12.43341885 183.33262776 -12.4347157 181.96042882 -12.43603033 180.58822989 C-12.44743963 167.71765843 -12.43431699 154.84720088 -12.41282886 141.97664809 C-12.39495752 130.93037924 -12.39806153 119.88427852 -12.41650391 108.8380127 C-12.4379045 96.01386305 -12.44634096 83.18981328 -12.43405485 70.36564827 C-12.43278064 68.99846524 -12.43152316 67.63128219 -12.43028259 66.26409912 C-12.42966549 65.59139902 -12.42904839 64.91869891 -12.42841259 64.22561395 C-12.42495724 59.48251791 -12.43079198 54.73948516 -12.44020081 49.99639893 C-12.45258329 43.61389012 -12.4437818 37.23162448 -12.42062378 30.84914398 C-12.41532251 28.5029427 -12.41687454 26.15671475 -12.42567444 23.81052399 C-12.43655715 20.61505755 -12.42295363 17.42062007 -12.4029541 14.22521973 C-12.41187699 13.29020819 -12.42079988 12.35519665 -12.42999315 11.39185143 C-12.38394804 7.6156896 -12.31602194 5.212818 -10.35671234 1.93235016 C-6.93630912 -0.04680648 -3.84412818 -0.0458415 0 0 Z M74.10498047 8.50793457 C74.10498047 9.49793457 74.10498047 10.48793457 74.10498047 11.50793457 C84.99498047 11.50793457 95.88498047 11.50793457 107.10498047 11.50793457 C106.60998047 10.02293457 106.60998047 10.02293457 106.10498047 8.50793457 C95.54498047 8.50793457 84.98498047 8.50793457 74.10498047 8.50793457 Z M84.10498047 232.50793457 C83.01929543 234.35061325 83.01929543 234.35061325 83.10498047 236.50793457 C84.25284988 238.75149751 85.31455716 240.71751127 87.10498047 242.50793457 C91.23042317 242.91024896 91.23042317 242.91024896 94.91748047 241.32043457 C96.51380104 238.88394528 97.10498047 237.44932425 97.10498047 234.50793457 C95.02164714 231.5912679 95.02164714 231.5912679 92.10498047 229.50793457 C87.85603322 229.50793457 87.03193278 229.68191165 84.10498047 232.50793457 Z " fill="#E3F2FE" transform="translate(312.89501953125,413.4920654296875)"/>
<path d="M0 0 C0.8009717 -0.00623996 1.6019434 -0.01247993 2.42718697 -0.01890898 C5.11435401 -0.03487926 7.80061901 -0.02221926 10.48779297 -0.00964355 C12.41290822 -0.01506289 14.33801933 -0.02218448 16.26312256 -0.03088379 C21.49449553 -0.04914248 26.72555349 -0.04203906 31.95693207 -0.02936745 C37.42702596 -0.01925299 42.89709257 -0.0286288 48.3671875 -0.03491211 C57.55392305 -0.04219304 66.74053005 -0.03258908 75.92724609 -0.0135498 C86.5541953 0.00821974 97.18083755 0.00116869 107.80777931 -0.02085543 C116.92549584 -0.03899669 126.04311987 -0.04157397 135.16084862 -0.03110075 C140.60925708 -0.02485883 146.05752118 -0.02404942 151.50592041 -0.0372467 C156.6277735 -0.04878601 161.74923016 -0.04081451 166.87104034 -0.01766968 C168.7528238 -0.01237233 170.63464052 -0.01391384 172.51641083 -0.02272034 C175.08138071 -0.03361908 177.64507292 -0.01998174 180.20996094 0 C181.33232997 -0.01338433 181.33232997 -0.01338433 182.47737312 -0.02703905 C185.69600759 0.02174248 187.80919554 0.32542167 190.56835556 2.02795029 C192.73262284 5.52089694 192.64565554 8.71194157 192.58599854 12.69561768 C192.58942261 13.52599045 192.59284668 14.35636322 192.59637451 15.2118988 C192.60300317 18.0072141 192.58089094 20.80157387 192.55908203 23.59680176 C192.55785692 25.62978713 192.55839028 27.66277421 192.56054306 29.69575882 C192.56144719 35.14675333 192.53824131 40.59739757 192.51010132 46.04830933 C192.48734434 51.16067628 192.48625011 56.27295746 192.48339844 61.38537598 C192.46239779 76.34294202 192.40655331 91.3004427 192.35498047 106.25793457 C192.27248047 139.67043457 192.18998047 173.08293457 192.10498047 207.50793457 C295.72498047 207.50793457 399.34498047 207.50793457 506.10498047 207.50793457 C506.10498047 210.80793457 506.10498047 214.10793457 506.10498047 217.50793457 C402.48498047 217.50793457 298.86498047 217.50793457 192.10498047 217.50793457 C192.10498047 227.73793457 192.10498047 237.96793457 192.10498047 248.50793457 C187.64837845 252.96453659 187.64837845 252.96453659 182.47737312 253.04290819 C181.7291271 253.0339853 180.98088108 253.02506242 180.20996094 253.01586914 C179.40898924 253.0221091 178.60801754 253.02834907 177.78277397 253.03477812 C175.09560693 253.0507484 172.40934193 253.03808841 169.72216797 253.0255127 C167.79705271 253.03093203 165.87194161 253.03805362 163.94683838 253.04675293 C158.71546541 253.06501162 153.48440745 253.0579082 148.25302887 253.04523659 C142.78293497 253.03512213 137.31286837 253.04449794 131.84277344 253.05078125 C122.65603789 253.05806218 113.46943089 253.04845822 104.28271484 253.02941895 C93.65576564 253.0076494 83.02912339 253.01470045 72.40218163 253.03672457 C63.28446509 253.05486583 54.16684106 253.05744311 45.04911232 253.04696989 C39.60070386 253.04072797 34.15243976 253.03991856 28.70404053 253.05311584 C23.58218744 253.06465515 18.46073078 253.05668365 13.33892059 253.03353882 C11.45713714 253.02824147 9.57532042 253.02978298 7.69355011 253.03858948 C5.12858022 253.04948822 2.56488802 253.03585088 0 253.01586914 C-0.74824602 253.02479203 -1.49649204 253.03371491 -2.26741219 253.04290819 C-5.42664564 252.99502694 -7.60600485 252.67516787 -10.35671234 251.08351898 C-12.73858982 247.09554665 -12.44650962 243.35474518 -12.4029541 238.79064941 C-12.41231405 237.2951761 -12.41231405 237.2951761 -12.42186308 235.7694912 C-12.43785492 232.41904632 -12.42516426 229.06932272 -12.41259766 225.71887207 C-12.418016 223.32085749 -12.42513704 220.92284623 -12.43383789 218.52484131 C-12.45020947 212.68190755 -12.4477779 206.83916204 -12.43618733 200.99623346 C-12.42715793 196.24806182 -12.42592685 191.49994778 -12.43028259 186.75177002 C-12.43089552 186.07627873 -12.43150846 185.40078744 -12.43213996 184.70482671 C-12.43341885 183.33262776 -12.4347157 181.96042882 -12.43603033 180.58822989 C-12.44743963 167.71765843 -12.43431699 154.84720088 -12.41282886 141.97664809 C-12.39495752 130.93037924 -12.39806153 119.88427852 -12.41650391 108.8380127 C-12.4379045 96.01386305 -12.44634096 83.18981328 -12.43405485 70.36564827 C-12.43278064 68.99846524 -12.43152316 67.63128219 -12.43028259 66.26409912 C-12.42966549 65.59139902 -12.42904839 64.91869891 -12.42841259 64.22561395 C-12.42495724 59.48251791 -12.43079198 54.73948516 -12.44020081 49.99639893 C-12.45258329 43.61389012 -12.4437818 37.23162448 -12.42062378 30.84914398 C-12.41532251 28.5029427 -12.41687454 26.15671475 -12.42567444 23.81052399 C-12.43655715 20.61505755 -12.42295363 17.42062007 -12.4029541 14.22521973 C-12.41187699 13.29020819 -12.42079988 12.35519665 -12.42999315 11.39185143 C-12.38394804 7.6156896 -12.31602194 5.212818 -10.35671234 1.93235016 C-6.93630912 -0.04680648 -3.84412818 -0.0458415 0 0 Z M74.10498047 8.50793457 C74.10498047 9.49793457 74.10498047 10.48793457 74.10498047 11.50793457 C84.99498047 11.50793457 95.88498047 11.50793457 107.10498047 11.50793457 C106.60998047 10.02293457 106.60998047 10.02293457 106.10498047 8.50793457 C95.54498047 8.50793457 84.98498047 8.50793457 74.10498047 8.50793457 Z M0.10498047 22.50793457 C-1.08656142 26.08256024 -1.0398944 29.32814182 -1.03546143 33.04818726 C-1.03843255 33.82309765 -1.04140367 34.59800804 -1.04446483 35.39640057 C-1.05315817 38.001135 -1.0546606 40.60582349 -1.05615234 43.21057129 C-1.06078002 45.07479959 -1.06580461 46.93902693 -1.07119751 48.80325317 C-1.08432727 53.87349712 -1.09076745 58.94372782 -1.09520817 64.01398611 C-1.09813761 67.18014422 -1.10224215 70.3462987 -1.10671234 73.51245499 C-1.12038802 83.41429753 -1.13005466 93.31613179 -1.13391423 103.21798313 C-1.13839705 114.65653765 -1.15595507 126.0949728 -1.18491483 137.53349102 C-1.2065123 146.37007706 -1.21661746 155.20662946 -1.21795535 164.04324162 C-1.21900465 169.3234593 -1.22493918 174.60356478 -1.24277496 179.88375473 C-1.25922247 184.84956366 -1.26142732 189.81517563 -1.25263596 194.78100204 C-1.25186383 196.60432461 -1.25623131 198.42765762 -1.26609421 200.25095367 C-1.2787634 202.7387767 -1.2729646 205.22589683 -1.26251221 207.7137146 C-1.27056861 208.43638421 -1.27862502 209.15905382 -1.28692555 209.90362251 C-1.2322165 215.46556667 0.21522578 218.61817988 4.10498047 222.50793457 C7.16886808 222.82268209 7.16886808 222.82268209 10.84162903 222.78208923 C11.54218105 222.78732591 12.24273308 222.79256259 12.96451396 222.79795796 C15.32364894 222.81301933 17.6825682 222.81366444 20.04174805 222.81433105 C21.72849395 222.82194851 23.41523636 222.83037529 25.10197449 222.83955383 C29.69296109 222.86154853 34.28388106 222.87030456 38.87491441 222.87538028 C41.74173354 222.87901845 44.60853507 222.88525572 47.47534752 222.89238167 C57.47274928 222.91689489 67.47009902 222.92993179 77.4675293 222.93347168 C86.792514 222.93710687 96.11716953 222.96699623 105.44205362 223.00887626 C113.44211739 223.04354902 121.44207195 223.05901961 129.44221038 223.05971771 C134.22286505 223.06051166 139.00318479 223.06930377 143.78376198 223.09771538 C148.28102574 223.123844 152.77767569 223.12613058 157.27498055 223.11005974 C158.92576686 223.10824099 160.57658803 223.11497439 162.22729874 223.13087845 C164.48138932 223.15127181 166.73331874 223.14083023 168.98738098 223.12266541 C170.8791518 223.1256824 170.8791518 223.1256824 172.80914021 223.12876034 C177.13753172 222.31343654 178.56877988 221.0884015 181.10498047 217.50793457 C181.59810257 214.66220816 181.78288233 212.41505557 181.73989868 209.57531738 C181.74769863 208.78236393 181.75549859 207.98941048 181.7635349 207.17242813 C181.78346203 204.51816451 181.76768829 201.86533356 181.75195312 199.21105957 C181.75872895 197.30712039 181.76763188 195.40318777 181.77850342 193.49926758 C181.80130747 188.32980802 181.79245575 183.16084712 181.77660799 177.99137878 C181.7639548 172.58314666 181.77568749 167.17495742 181.78353882 161.76672363 C181.79263705 152.68428883 181.78064282 143.60205727 181.75683594 134.51965332 C181.72962442 124.01704241 181.73843845 113.5149168 181.76596797 103.01231766 C181.78865299 93.99730905 181.79186205 84.9824466 181.77877462 75.96741867 C181.77097681 70.58212071 181.76994769 65.19705091 181.78645706 59.81176758 C181.80089365 54.74890917 181.79089472 49.68667683 181.76198578 44.62388611 C181.75537065 42.76510152 181.75727991 40.90626431 181.7682991 39.04750061 C181.78194973 36.5111382 181.76484656 33.97678581 181.73989868 31.44055176 C181.75105229 30.70368259 181.7622059 29.96681343 181.7736975 29.2076149 C181.70274455 25.49283312 181.17454638 23.60607651 179.00930691 20.55140781 C175.39716382 18.00991742 173.39595312 17.88179294 169.00083923 17.87974548 C168.29701837 17.8726511 167.5931975 17.86555671 166.86804873 17.85824734 C164.51539541 17.84067899 162.16439687 17.85876395 159.81176758 17.87683105 C158.12295276 17.87169179 156.43414331 17.86441045 154.74534607 17.85514832 C150.16267319 17.83662832 145.58058184 17.84957596 140.99793315 17.86923862 C136.2031694 17.88561884 131.40844266 17.87681322 126.61366272 17.87171936 C118.56274113 17.86719814 110.51205186 17.88307109 102.46118164 17.91101074 C93.15032897 17.94307366 83.83989507 17.94304281 74.52901262 17.92579597 C65.57432228 17.9099393 56.61978561 17.9166582 47.66510201 17.93373299 C43.85295082 17.94060951 40.0409226 17.93956491 36.22877312 17.93218803 C31.74132666 17.92453387 27.25435758 17.93662265 22.76699257 17.96403694 C21.11903679 17.97093062 19.4710365 17.97100822 17.82308197 17.96382141 C15.5755658 17.95514837 13.32953024 17.97104363 11.08213806 17.99327087 C9.82393218 17.9960778 8.5657263 17.99888472 7.26939297 18.0017767 C3.5203614 18.60144626 2.36465263 19.5134287 0.10498047 22.50793457 Z M84.10498047 232.50793457 C83.01929543 234.35061325 83.01929543 234.35061325 83.10498047 236.50793457 C84.25284988 238.75149751 85.31455716 240.71751127 87.10498047 242.50793457 C91.23042317 242.91024896 91.23042317 242.91024896 94.91748047 241.32043457 C96.51380104 238.88394528 97.10498047 237.44932425 97.10498047 234.50793457 C95.02164714 231.5912679 95.02164714 231.5912679 92.10498047 229.50793457 C87.85603322 229.50793457 87.03193278 229.68191165 84.10498047 232.50793457 Z " fill="#0F265C" transform="translate(312.89501953125,413.4920654296875)"/>
<path d="M0 0 C12.87 0 25.74 0 39 0 C39 62.37 39 124.74 39 189 C26.13 189 13.26 189 0 189 C0 126.63 0 64.26 0 0 Z " fill="#0060FE" transform="translate(534,431)"/>
<path d="M0 0 C48.84 0 97.68 0 148 0 C148 15.18 148 30.36 148 46 C99.16 46 50.32 46 0 46 C0 30.82 0 15.64 0 0 Z " fill="#A3CAFF" transform="translate(328,575)"/>
<path d="M0 0 C13.2 0 26.4 0 40 0 C40 50.82 40 101.64 40 154 C26.8 154 13.6 154 0 154 C0 103.18 0 52.36 0 0 Z " fill="#0F265C" transform="translate(574,466)"/>
<path d="M0 0 C3.26002061 0.44765349 4.80928196 1.46687458 6.98828125 3.87890625 C7.52614258 4.46639648 8.06400391 5.05388672 8.61816406 5.65917969 C9.17729492 6.28727539 9.73642578 6.91537109 10.3125 7.5625 C10.89354492 8.20219727 11.47458984 8.84189453 12.07324219 9.50097656 C15.53636949 13.32496755 18.96339947 17.18176786 22.3359375 21.0859375 C25.83291439 25.10828181 29.42796411 29.04438979 33 33 C37.76786975 38.27985576 42.51512218 43.57291806 47.1875 48.9375 C49.27211164 51.30964429 51.38428644 53.65556065 53.5 56 C56.18983431 58.98062721 58.86310364 61.97245233 61.5 65 C65.61081039 69.71701284 69.80667845 74.35638889 74 79 C78.76603516 84.27782418 83.5160289 89.5649635 88.1796875 94.93359375 C90.29787393 97.33814444 92.4630763 99.69722704 94.625 102.0625 C98.07169661 105.87448753 101.12955552 109.74063077 104 114 C99.90625803 118.20887847 95.70277265 122.2046485 91.25 126.03125 C87.59792669 129.22681414 84.06389425 132.55325294 80.515625 135.86328125 C78.36597421 137.68914923 76.57652402 138.91039522 74 140 C68.51488636 134.0487013 63.03931374 128.09768535 57.734375 121.984375 C54.20500535 117.94626738 50.59429369 113.98025811 47 110 C42.23213025 104.72014424 37.48487782 99.42708194 32.8125 94.0625 C30.72788836 91.69035571 28.61571356 89.34443935 26.5 87 C23.81016569 84.01937279 21.13689636 81.02754767 18.5 78 C14.38918961 73.28298716 10.19332155 68.64361111 6 64 C1.23213025 58.72014424 -3.51512218 53.42708194 -8.1875 48.0625 C-10.27211164 45.69035571 -12.38428644 43.34443935 -14.5 41 C-15.2528125 40.16210938 -16.005625 39.32421875 -16.78125 38.4609375 C-18.21066955 36.87548976 -19.64762875 35.29679117 -21.09375 33.7265625 C-21.7228125 33.03304687 -22.351875 32.33953125 -23 31.625 C-23.556875 31.01914062 -24.11375 30.41328125 -24.6875 29.7890625 C-26.10679485 27.85442845 -26.58673501 26.34527882 -27 24 C-26.53851562 23.59910156 -26.07703125 23.19820313 -25.6015625 22.78515625 C-20.84891726 18.64302868 -16.15247166 14.44288014 -11.47265625 10.21875 C-8.50447755 7.55536058 -5.5058965 4.92866658 -2.49609375 2.3125 C-1.64347059 1.56450684 -0.80201622 0.80201622 0 0 Z " fill="#0061FE" transform="translate(693,480)"/>
<path d="M0 0 C1.19268799 1.79347229 1.19268799 1.79347229 2.18457031 4.18188477 C2.56815704 5.08422348 2.95174377 5.98656219 3.34695435 6.91624451 C3.95638382 8.41369957 3.95638382 8.41369957 4.578125 9.94140625 C5.01816864 10.98736465 5.45821228 12.03332306 5.91159058 13.11097717 C7.37154416 16.58921222 8.81046036 20.07577258 10.25 23.5625 C11.26248807 25.98361009 12.2766727 28.40401133 13.29248047 30.82373047 C14.88438676 34.616344 16.4751561 38.40940583 18.05917358 42.20532227 C21.88378847 51.36769988 25.76243618 60.50576628 29.6796875 69.62890625 C30.08773621 70.57931006 30.08773621 70.57931006 30.50402832 71.54891396 C31.85151723 74.68655078 33.20000683 77.82375607 34.54919434 80.96066284 C37.05943969 86.79792155 39.5653331 92.63704249 42.0703125 98.4765625 C42.49649872 99.46825943 42.92268494 100.45995636 43.36178589 101.48170471 C44.17006643 103.36544769 44.97600658 105.25019698 45.77935791 107.13604736 C46.65293003 109.18568106 47.5330306 111.23253714 48.41741943 113.27752686 C48.87634583 114.35173889 49.33527222 115.42595093 49.80810547 116.53271484 C50.22768524 117.50767914 50.64726501 118.48264343 51.07955933 119.4871521 C52 122 52 122 52 125 C40.45 129.95 28.9 134.9 17 140 C14.69845731 136.93127641 13.36361467 134.87986021 11.92895508 131.47753906 C11.54529785 130.57544205 11.16164063 129.67334503 10.76635742 128.74391174 C10.35490479 127.76107712 9.94345215 126.77824249 9.51953125 125.765625 C9.07802734 124.72377548 8.63652344 123.68192596 8.18164062 122.60850525 C7.22298659 120.34462494 6.26683916 118.07968194 5.31289673 115.81381226 C3.54062044 111.604219 1.75938509 107.39845664 -0.02254009 103.19294071 C-0.28260751 102.57913768 -0.54267492 101.96533464 -0.81062317 101.33293152 C-1.07279947 100.71417837 -1.33497578 100.09542522 -1.60509682 99.45792198 C-2.41355973 97.54914804 -3.2212968 95.64006838 -4.02885437 93.73091125 C-9.51535075 80.7631128 -15.05510017 67.81827339 -20.60513306 54.87756348 C-22.16458042 51.24145862 -23.72231035 47.6046191 -25.2800293 43.96777344 C-26.24259919 41.72197238 -27.20524191 39.47620253 -28.16796875 37.23046875 C-28.59932129 36.22330307 -29.03067383 35.21613739 -29.47509766 34.17845154 C-29.88187744 33.2303511 -30.28865723 32.28225067 -30.70776367 31.30541992 C-31.09088715 30.40995453 -31.47401062 29.51448914 -31.8687439 28.59188843 C-32.62143706 26.86734815 -33.39460169 25.15159572 -34.18814087 23.44546509 C-34.55571503 22.65433319 -34.92328918 21.86320129 -35.30200195 21.0480957 C-35.62965042 20.36052689 -35.95729889 19.67295807 -36.2948761 18.96455383 C-37 17 -37 17 -37 13 C-32.37977202 10.97323058 -27.75337066 8.96156938 -23.12060547 6.96362305 C-21.54557517 6.28186688 -19.97230988 5.5960179 -18.40087891 4.90600586 C-16.14156573 3.91479108 -13.87631057 2.9384764 -11.609375 1.96484375 C-10.90818542 1.65344955 -10.20699585 1.34205536 -9.48455811 1.02122498 C-3.49673628 -1.5209101 -3.49673628 -1.5209101 0 0 Z " fill="#97BFFF" transform="translate(653,480)"/>
<path d="M0 0 C12.87 0 25.74 0 39 0 C39 18.15 39 36.3 39 55 C26.13 55 13.26 55 0 55 C0 36.85 0 18.7 0 0 Z " fill="#0E2863" transform="translate(534,565)"/>
<path d="M0 0 C12.87 0 25.74 0 39 0 C39 15.84 39 31.68 39 48 C26.13 48 13.26 48 0 48 C0 32.16 0 16.32 0 0 Z " fill="#0E265D" transform="translate(534,431)"/>
<path d="M0 0 C37.95 0 75.9 0 115 0 C115 5.28 115 10.56 115 16 C77.05 16 39.1 16 0 16 C0 10.72 0 5.44 0 0 Z " fill="#0061FF" transform="translate(326,448)"/>
<path d="M0 0 C2.91490873 1.3081484 4.89211686 2.67064617 7.05859375 5.01171875 C7.60966797 5.60533203 8.16074219 6.19894531 8.72851562 6.81054688 C9.57446289 7.73963867 9.57446289 7.73963867 10.4375 8.6875 C10.99759766 9.28755859 11.55769531 9.88761719 12.13476562 10.50585938 C15.77911493 14.46488995 18.95377128 18.56446322 22 23 C17.89496194 27.19813602 13.70367109 31.20387641 9.25 35.03125 C5.59792669 38.22681414 2.06389425 41.55325294 -1.484375 44.86328125 C-3.63402579 46.68914923 -5.42347598 47.91039522 -8 49 C-18.38763661 37.7295082 -18.38763661 37.7295082 -23.0625 32.5 C-23.58972656 31.9121875 -24.11695313 31.324375 -24.66015625 30.71875 C-26.07468301 28.90419672 -27.04336604 27.08720136 -28 25 C-21.40173617 18.91860017 -14.78484497 12.87365711 -8 7 C-6.49935908 5.68823285 -4.99935031 4.37574214 -3.5 3.0625 C-2.33333333 2.04166667 -1.16666667 1.02083333 0 0 Z " fill="#0060FE" transform="translate(775,571)"/>
<path d="M0 0 C13.2 0 26.4 0 40 0 C40 9.9 40 19.8 40 30 C26.8 30 13.6 30 0 30 C0 20.1 0 10.2 0 0 Z " fill="#0F265C" transform="translate(574,466)"/>
<path d="M0 0 C3.32083114 0.44590052 4.8731366 1.53538028 7.09375 3.984375 C7.92712891 4.89316406 7.92712891 4.89316406 8.77734375 5.8203125 C9.34582031 6.45710938 9.91429687 7.09390625 10.5 7.75 C11.06847656 8.37132812 11.63695312 8.99265625 12.22265625 9.6328125 C15.27802248 12.99300645 18.20838854 16.41469509 21 20 C19.39521494 24.25572748 16.17852405 26.85906756 12.875 29.8125 C12.29041016 30.34294922 11.70582031 30.87339844 11.10351562 31.41992188 C9.40860464 32.9537695 7.70612445 34.47864497 6 36 C5.18789063 36.72574219 4.37578125 37.45148437 3.5390625 38.19921875 C0.10264909 41.23405894 -3.38603308 44.17658834 -7 47 C-10.1623716 45.62803835 -11.9936218 44.1434878 -14.1875 41.5 C-17.74786294 37.26626407 -21.48812818 33.22881862 -25.27734375 29.19921875 C-27 27 -27 27 -27 24 C-25.6015625 22.4921875 -25.6015625 22.4921875 -23.625 20.875 C-20.35909156 18.13994593 -17.1554781 15.36239964 -14 12.5 C-10.19677998 9.06710898 -6.36287677 5.67356693 -2.49609375 2.3125 C-1.64347059 1.56450684 -0.80201622 0.80201622 0 0 Z " fill="#0060FE" transform="translate(693,480)"/>
<path d="M0 0 C12.87 0 25.74 0 39 0 C39 8.25 39 16.5 39 25 C26.13 25 13.26 25 0 25 C0 16.75 0 8.5 0 0 Z " fill="#0061FF" transform="translate(534,595)"/>
<path d="M0 0 C2.92889023 0.24205704 4.53174938 0.54600525 6.66796875 2.6171875 C20.25639592 22.80770397 35.87848684 50.90132865 34 76 C30.23375766 75.45778034 28.89091698 74.11272915 26.625 71.12109375 C22.86243318 66.04182911 19.87152001 60.6827197 17 55.0625 C16.48308594 54.05977051 15.96617187 53.05704102 15.43359375 52.02392578 C10.97726206 43.23272256 7.21835561 34.31007763 4 25 C3.36964844 23.21142578 3.36964844 23.21142578 2.7265625 21.38671875 C0.50986955 14.69733684 -1.06766922 8.0917339 -1 1 C-0.67 0.67 -0.34 0.34 0 0 Z " fill="#0363FF" transform="translate(642,508)"/>
<path d="M0 0 C5.94 0 11.88 0 18 0 C18 14.52 18 29.04 18 44 C12.06 44 6.12 44 0 44 C0 29.48 0 14.96 0 0 Z " fill="#0060FC" transform="translate(585,520)"/>
<path d="M0 0 C3.67670584 1.51052023 5.71874462 3.6488615 8.3125 6.625 C9.10269531 7.52476562 9.89289062 8.42453125 10.70703125 9.3515625 C11.46371094 10.22554687 12.22039063 11.09953125 13 12 C14.166313 13.33364271 15.33294819 14.66700376 16.5 16 C17.0465625 16.63421875 17.593125 17.2684375 18.15625 17.921875 C19.56023857 19.50433669 21.00562302 21.05017593 22.46875 22.578125 C23.72171875 23.90070312 23.72171875 23.90070312 25 25.25 C25.78375 26.05953125 26.5675 26.8690625 27.375 27.703125 C29 30 29 30 29.09765625 31.96875 C27.46006788 34.99916264 25.0143588 37.0366681 22.4375 39.25 C21.91736328 39.70890625 21.39722656 40.1678125 20.86132812 40.640625 C19.58104445 41.7682143 18.29141202 42.88517315 17 44 C11.0306917 39.17375073 6.04186645 33.77620579 1 28 C0.36707031 27.28199219 -0.26585937 26.56398438 -0.91796875 25.82421875 C-4.64970916 21.58173241 -8.33032616 17.29620351 -12 13 C-10.44997253 9.11602311 -7.99523379 6.97020381 -4.875 4.25 C-3.96492187 3.45078125 -3.05484375 2.6515625 -2.1171875 1.828125 C-1.06917969 0.92320312 -1.06917969 0.92320312 0 0 Z " fill="#96BEFF" transform="translate(722,527)"/>
<path d="M0 0 C13.2 0 26.4 0 40 0 C40 6.27 40 12.54 40 19 C26.8 19 13.6 19 0 19 C0 12.73 0 6.46 0 0 Z " fill="#0F265C" transform="translate(574,601)"/>
<path d="M0 0 C12.87 0 25.74 0 39 0 C39 6.27 39 12.54 39 19 C26.13 19 13.26 19 0 19 C0 12.73 0 6.46 0 0 Z " fill="#0060FC" transform="translate(534,431)"/>
<path d="M0 0 C50.82 0 101.64 0 154 0 C154 1.32 154 2.64 154 4 C103.18 4 52.36 4 0 4 C0 2.68 0 1.36 0 0 Z " fill="#0061FF" transform="translate(326,544)"/>
<path d="M0 0 C50.82 0 101.64 0 154 0 C154 1.32 154 2.64 154 4 C103.18 4 52.36 4 0 4 C0 2.68 0 1.36 0 0 Z " fill="#0E6AFF" transform="translate(326,531)"/>
<path d="M0 0 C50.82 0 101.64 0 154 0 C154 1.32 154 2.64 154 4 C103.18 4 52.36 4 0 4 C0 2.68 0 1.36 0 0 Z " fill="#0061FF" transform="translate(326,517)"/>
<path d="M0 0 C50.82 0 101.64 0 154 0 C154 1.32 154 2.64 154 4 C103.18 4 52.36 4 0 4 C0 2.68 0 1.36 0 0 Z " fill="#0061FF" transform="translate(326,504)"/>
<path d="M0 0 C50.82 0 101.64 0 154 0 C154 1.32 154 2.64 154 4 C103.18 4 52.36 4 0 4 C0 2.68 0 1.36 0 0 Z " fill="#0061FF" transform="translate(326,490)"/>
<path d="M0 0 C50.82 0 101.64 0 154 0 C154 1.32 154 2.64 154 4 C103.18 4 52.36 4 0 4 C0 2.68 0 1.36 0 0 Z " fill="#0061FF" transform="translate(326,477)"/>
<path d="M0 0 C2.51197496 1.28696647 2.90693146 3.1046956 3.85351562 5.6965332 C4.18867187 6.58083008 4.52382813 7.46512695 4.86914062 8.3762207 C5.60351562 10.8215332 5.60351562 10.8215332 5.60351562 13.8215332 C-11.72148438 21.2465332 -11.72148438 21.2465332 -29.39648438 28.8215332 C-33.06264387 23.93332054 -35.39648438 20.00288162 -35.39648438 13.8215332 C-30.77625639 11.79476378 -26.14985504 9.78310258 -21.51708984 7.78515625 C-19.94205954 7.10340008 -18.36879426 6.4175511 -16.79736328 5.72753906 C-14.53805011 4.73632428 -12.27279494 3.7600096 -10.00585938 2.78637695 C-9.3046698 2.47498276 -8.60348022 2.16358856 -7.88104248 1.84275818 C-5.15237539 0.68430014 -2.99234567 -0.22284074 0 0 Z " fill="#97BEFF" transform="translate(699.396484375,591.178466796875)"/>
<path d="M0 0 C13.2 0 26.4 0 40 0 C40 4.29 40 8.58 40 13 C26.8 13 13.6 13 0 13 C0 8.71 0 4.42 0 0 Z " fill="#DCEAF5" transform="translate(574,588)"/>
<path d="M0 0 C13.2 0 26.4 0 40 0 C40 4.29 40 8.58 40 13 C26.8 13 13.6 13 0 13 C0 8.71 0 4.42 0 0 Z " fill="#E0EEF8" transform="translate(574,483)"/>
<path d="M0 0 C3.0354264 1.65787261 3.57695228 4.77466547 4.63378906 7.89233398 C4.63378906 9.21233398 4.63378906 10.53233398 4.63378906 11.89233398 C0.95585505 13.5519599 -2.72464687 15.20574453 -6.4074707 16.85449219 C-7.65621099 17.4144719 -8.90427718 17.97595763 -10.15161133 18.5390625 C-17.13634682 21.69101895 -24.0379402 24.63930576 -31.36621094 26.89233398 C-35.36621094 18.39233398 -35.36621094 18.39233398 -35.36621094 13.89233398 C-30.74598296 11.86556456 -26.1195816 9.85390336 -21.48681641 7.85595703 C-19.9117861 7.17420087 -18.33852082 6.48835189 -16.76708984 5.79833984 C-14.50777667 4.80712506 -12.2425215 3.83081038 -9.97558594 2.85717773 C-9.27439636 2.54578354 -8.57320679 2.23438934 -7.85076904 1.91355896 C-5.15841966 0.77051964 -2.95296781 -0.1343643 0 0 Z " fill="#96BEFF" transform="translate(651.3662109375,479.107666015625)"/>
<path d="M0 0 C12.87 0 25.74 0 39 0 C39 4.29 39 8.58 39 13 C26.13 13 13.26 13 0 13 C0 8.71 0 4.42 0 0 Z " fill="#0E2863" transform="translate(534,582)"/>
<path d="M0 0 C3.77519562 1.76229689 6.30729323 3.76875188 9 7 C8.97268661 10.20249472 7.7883002 11.22118395 5.55859375 13.55078125 C4.52620956 14.48029502 3.48535411 15.40046122 2.4375 16.3125 C1.89319336 16.7974292 1.34888672 17.2823584 0.78808594 17.78198242 C-0.30276039 18.7517132 -1.39694936 19.71769836 -2.49462891 20.6796875 C-3.76927429 21.79763792 -5.03243407 22.92866301 -6.29296875 24.0625 C-10.67144948 27.97778816 -15.24788666 31.54966239 -20 35 C-21.15193623 33.90220176 -22.29634937 32.79650554 -23.4375 31.6875 C-24.07558594 31.07261719 -24.71367188 30.45773437 -25.37109375 29.82421875 C-27 28 -27 28 -28 25 C-21.40173617 18.91860017 -14.78484497 12.87365711 -8 7 C-6.49935908 5.68823285 -4.99935031 4.37574214 -3.5 3.0625 C-2.33333333 2.04166667 -1.16666667 1.02083333 0 0 Z " fill="#0E2761" transform="translate(775,571)"/>
<path d="M0 0 C4.28359673 1.8855148 6.15103592 4.35965701 9 8 C7.39521494 12.25572748 4.17852405 14.85906756 0.875 17.8125 C0.29041016 18.34294922 -0.29417969 18.87339844 -0.89648438 19.41992188 C-2.59139536 20.9537695 -4.29387555 22.47864497 -6 24 C-6.81210937 24.72574219 -7.62421875 25.45148437 -8.4609375 26.19921875 C-11.89735091 29.23405894 -15.38603308 32.17658834 -19 35 C-23.2742558 33.4169423 -25.26531794 30.49431596 -28 27 C-26.62803835 23.8376284 -25.1434878 22.0063782 -22.5 19.8125 C-19.28383089 17.09157432 -16.12239599 14.32846673 -13 11.5 C-8.70405255 7.62300718 -4.36848754 3.79497102 0 0 Z " fill="#0E2761" transform="translate(705,492)"/>
<path d="M0 0 C12.87 0 25.74 0 39 0 C39 3.96 39 7.92 39 12 C26.13 12 13.26 12 0 12 C0 8.04 0 4.08 0 0 Z " fill="#0E265D" transform="translate(534,467)"/>
<path d="M0 0 C27.39 0 54.78 0 83 0 C83 1.65 83 3.3 83 5 C55.61 5 28.22 5 0 5 C0 3.35 0 1.7 0 0 Z " fill="#176FFF" transform="translate(326,557)"/>
<path d="M0 0 C2.93423195 1.79646854 4.47205355 2.9441071 6 6 C6.54399285 10.539219 6.62289461 13.9544269 4.25 17.9375 C1.14683856 20.78206465 -0.68973926 21.82909642 -4.875 22.375 C-8.87153796 21.89541545 -10.90459308 20.53260567 -14 18 C-16.58644464 14.5905957 -16.36503115 11.1613551 -16 7 C-12.56238275 -0.36632267 -7.49569379 -1.00420778 0 0 Z " fill="#0E2760" transform="translate(558,515)"/>
<path d="M0 0 C3.70557271 1.64791094 6.81041123 3.97121504 10 6.4375 C10.56380371 6.87126953 11.12760742 7.30503906 11.70849609 7.75195312 C16.39711184 11.41505665 20.80364021 15.33665468 25.12890625 19.41967773 C27.34839129 21.5135098 29.45002399 23.300016 32 25 C31.34 26.32 30.68 27.64 30 29 C25.7906534 29 24.86040197 27.22721697 21.875 24.3125 C14.43449895 17.21181814 6.24305527 11.12941369 -2 5 C-1.34 3.35 -0.68 1.7 0 0 Z " fill="#99C0FF" transform="translate(742,266)"/>
<path d="M0 0 C9.85738678 9.66547305 17.57197095 20.43123986 25 32 C24.34 32.99 23.68 33.98 23 35 C20.56683743 34.62047724 19.30068535 34.31913071 17.5871582 32.50048828 C17.16265381 31.86353027 16.73814941 31.22657227 16.30078125 30.5703125 C15.81770508 29.86221436 15.33462891 29.15411621 14.83691406 28.42456055 C14.33385742 27.66570557 13.83080078 26.90685059 13.3125 26.125 C9.02368672 19.81547041 4.60859995 13.91609604 -0.453125 8.19921875 C-2 6 -2 6 -2 2 C-1.34 1.34 -0.68 0.68 0 0 Z " fill="#99C0FF" transform="translate(800,320)"/>
<path d="M0 0 C1.32 0.66 2.64 1.32 4 2 C3.41214475 5.02507358 2.56912285 6.86023112 0.59375 9.21484375 C0.10132813 9.81288818 -0.39109375 10.41093262 -0.8984375 11.02709961 C-1.69121094 11.9727478 -1.69121094 11.9727478 -2.5 12.9375 C-7.46084583 18.9494102 -11.88377217 25.10684598 -16.0625 31.68359375 C-16.701875 32.44800781 -17.34125 33.21242188 -18 34 C-19.32 34 -20.64 34 -22 34 C-22.495 32.515 -22.495 32.515 -23 31 C-21.52790795 28.45203115 -20.01904233 26.13446053 -18.3125 23.75 C-17.82225342 23.05068359 -17.33200684 22.35136719 -16.8269043 21.63085938 C-11.53270472 14.1716491 -5.81163908 7.0591637 0 0 Z " fill="#99C0FF" transform="translate(278,321)"/>
<path d="M0 0 C1.32 0.66 2.64 1.32 4 2 C4 2.99 4 3.98 4 5 C2.16125386 6.60966648 0.35448617 8.01983236 -1.625 9.4375 C-7.43120075 13.72794777 -12.92462926 18.27801522 -18.32861328 23.06420898 C-21.07503384 25.46922809 -23.60180673 27.60416511 -27 29 C-27.99 27.68 -28.98 26.36 -30 25 C-20.48877881 15.99395356 -10.50358864 7.8262033 0 0 Z " fill="#99C0FF" transform="translate(335,267)"/>
<path d="M0 0 C5.10490764 1.67790789 9.22849048 4.68558714 13.625 7.6875 C15.22856693 8.77041987 16.83273291 9.8524532 18.4375 10.93359375 C19.21480469 11.45808105 19.99210937 11.98256836 20.79296875 12.52294922 C25.14145471 15.43316383 29.56412511 18.22513553 34 21 C33.505 23.475 33.505 23.475 33 26 C28.60633846 24.70488526 25.14626479 23.01754032 21.33984375 20.48046875 C20.29892578 19.78759766 19.25800781 19.09472656 18.18554688 18.38085938 C17.11369141 17.65705078 16.04183594 16.93324219 14.9375 16.1875 C13.86177734 15.47529297 12.78605469 14.76308594 11.67773438 14.02929688 C6.64486094 10.65636682 2.20106093 7.39718978 -2 3 C-1.34 2.01 -0.68 1.02 0 0 Z " fill="#99C0FF" transform="translate(338,810)"/>
<path d="M0 0 C2.475 0.495 2.475 0.495 5 1 C3.60248763 5.60687495 1.72040735 9.77729087 -0.5625 14 C-0.90893555 14.64138916 -1.25537109 15.28277832 -1.61230469 15.94360352 C-4.20741382 20.67950405 -6.90921155 25.34474359 -9.75 29.9375 C-10.11424072 30.54658203 -10.47848145 31.15566406 -10.85375977 31.78320312 C-11.921875 33.46484375 -11.921875 33.46484375 -14 36 C-15.32 36 -16.64 36 -18 36 C-19 33 -19 33 -18.01538086 30.81445312 C-17.50370361 29.97849609 -16.99202637 29.14253906 -16.46484375 28.28125 C-15.90216797 27.34796875 -15.33949219 26.4146875 -14.75976562 25.453125 C-13.85774414 23.99132812 -13.85774414 23.99132812 -12.9375 22.5 C-11.77804705 20.59490558 -10.6204915 18.68865509 -9.46484375 16.78125 C-8.89233887 15.83765625 -8.31983398 14.8940625 -7.72998047 13.921875 C-5.02389487 9.35139342 -2.50086262 4.68518927 0 0 Z " fill="#99C0FF" transform="translate(840,691)"/>
<path d="M0 0 C1.32 0.66 2.64 1.32 4 2 C2.49598994 5.9210529 0.29266369 7.46557539 -3.1640625 9.75 C-4.20433594 10.4409375 -5.24460937 11.131875 -6.31640625 11.84375 C-7.40824219 12.5553125 -8.50007812 13.266875 -9.625 14 C-10.69363281 14.7115625 -11.76226563 15.423125 -12.86328125 16.15625 C-18.4332426 19.82845084 -23.9487824 23.18684315 -30 26 C-30.66 24.35 -31.32 22.7 -32 21 C-31.38592285 20.61255615 -30.7718457 20.2251123 -30.13916016 19.82592773 C-27.29951783 18.03228699 -24.46225533 16.234914 -21.625 14.4375 C-20.65949219 13.82841797 -19.69398438 13.21933594 -18.69921875 12.59179688 C-12.3426263 8.56026676 -6.12648728 4.37329952 0 0 Z " fill="#99C0FF" transform="translate(740,810)"/>
<path d="M0 0 C0.29132813 0.53778076 0.58265625 1.07556152 0.8828125 1.62963867 C6.21298552 11.4487644 11.55282971 21.19063337 17.63671875 30.56640625 C19 33 19 33 19 36 C17.02 36.495 17.02 36.495 15 37 C10.36432158 30.89072844 6.4713978 24.50663631 2.75 17.8125 C2.32605957 17.05275879 1.90211914 16.29301758 1.46533203 15.51025391 C-0.96079318 11.09395537 -3.09661536 6.66576431 -5 2 C-2 0 -2 0 0 0 Z " fill="#99C0FF" transform="translate(240,691)"/>
<path d="M0 0 C5.13250763 0.64285954 9.4572536 2.90759181 14.0625 5.125 C14.90143799 5.52517334 15.74037598 5.92534668 16.60473633 6.33764648 C23.28163326 9.56298695 29.69716366 13.08746087 36 17 C35.505 19.475 35.505 19.475 35 22 C29.55586488 20.42452681 24.83424121 17.9271694 19.875 15.25 C18.18931559 14.3505994 16.50311714 13.45216158 14.81640625 12.5546875 C13.9980127 12.11866211 13.17961914 11.68263672 12.33642578 11.23339844 C7.60189944 8.73404347 2.80550487 6.35958922 -2 4 C-1.34 2.68 -0.68 1.36 0 0 Z " fill="#99C0FF" transform="translate(674,227)"/>
<path d="M0 0 C0.6875 2.0625 0.6875 2.0625 1 4 C0.3608667 4.30180176 -0.2782666 4.60360352 -0.93676758 4.91455078 C-3.89693546 6.31469872 -6.85471542 7.7198248 -9.8125 9.125 C-10.81732422 9.599375 -11.82214844 10.07375 -12.85742188 10.5625 C-18.94987417 13.46180205 -24.87931441 16.52986044 -30.72924805 19.89404297 C-33 21 -33 21 -36 21 C-36.33 19.68 -36.66 18.36 -37 17 C-7.26206897 -2.42068966 -7.26206897 -2.42068966 0 0 Z " fill="#99C0FF" transform="translate(406,228)"/>
<path d="M0 0 C15 30.90681363 15 30.90681363 15 38 C12.525 38.495 12.525 38.495 10 39 C9.79431396 38.47269287 9.58862793 37.94538574 9.37670898 37.40209961 C8.40197747 34.91189975 7.4209626 32.42426504 6.4375 29.9375 C6.08051025 29.03459229 5.72352051 28.13168457 5.35571289 27.20141602 C2.58061145 20.26458152 -0.50438024 13.55033007 -3.84765625 6.87109375 C-5 4 -5 4 -4 1 C-2 0 -2 0 0 0 Z " fill="#99C0FF" transform="translate(845,386)"/>
<path d="M0 0 C0.495 1.98 0.495 1.98 1 4 C-2.94295591 5.54042143 -6.88996188 7.06984215 -10.84082031 8.58984375 C-12.18015817 9.10680373 -13.51840928 9.62658953 -14.85546875 10.14941406 C-22.45814274 13.11991992 -29.87366195 15.82334651 -38 17 C-38.33 15.35 -38.66 13.7 -39 12 C-37.88927124 11.62246582 -37.88927124 11.62246582 -36.75610352 11.23730469 C-33.35675859 10.07915485 -29.95963122 8.91462639 -26.5625 7.75 C-25.39783203 7.35425781 -24.23316406 6.95851563 -23.03320312 6.55078125 C-17.14058645 4.52571299 -11.4387424 2.44451746 -5.88256836 -0.38964844 C-3.56550612 -1.1408682 -2.27090292 -0.77917259 0 0 Z " fill="#99C0FF" transform="translate(675,850)"/>
<path d="M0 0 C13.45557264 1.52426409 27.15688062 4.71896021 40 9 C39.67 10.65 39.34 12.3 39 14 C32.39003648 13.23184068 26.01935443 11.64353834 19.5625 10.0625 C17.9218457 9.66514648 17.9218457 9.66514648 16.24804688 9.25976562 C10.49273634 7.86338384 4.74339437 6.44457185 -1 5 C-0.67 3.35 -0.34 1.7 0 0 Z " fill="#99C0FF" transform="translate(598,204)"/>
<path d="M0 0 C3.65794828 0.63885992 6.95589703 1.63499801 10.421875 2.9609375 C11.44796875 3.35023438 12.4740625 3.73953125 13.53125 4.140625 C14.5934375 4.54796875 15.655625 4.9553125 16.75 5.375 C23.79244039 8.06361641 30.82850338 10.6745147 38 13 C37.67 14.65 37.34 16.3 37 18 C28.71507134 16.74474356 21.26418743 14.02136546 13.5 10.9375 C12.32179688 10.47794922 11.14359375 10.01839844 9.9296875 9.54492188 C1.46056548 6.23028274 1.46056548 6.23028274 -1 5 C-0.67 3.35 -0.34 1.7 0 0 Z " fill="#99C0FF" transform="translate(406,849)"/>
<path d="M0 0 C1.1282554 1.1282554 2.25614956 2.25687314 3.3828125 3.38671875 C4.53917449 4.5402876 5.70129744 5.68809309 6.8671875 6.83203125 C10.82852898 10.7394245 14.56630242 14.74922961 18.19140625 18.96875 C21.30504645 22.46571091 24.65139835 25.72967735 28 29 C26.68 30.32 25.36 31.64 24 33 C20.95511903 29.98002368 17.9136786 26.9566347 14.87524414 23.93017578 C13.84328297 22.9032124 12.81042222 21.87715209 11.77661133 20.85205078 C10.28223298 19.36993918 8.79122777 17.88450178 7.30078125 16.3984375 C5.95753784 15.06304932 5.95753784 15.06304932 4.5871582 13.70068359 C1.88681805 10.88185159 -0.61611807 8.09122301 -3 5 C-2.9375 2.6875 -2.9375 2.6875 -2 1 C-1.34 0.67 -0.68 0.34 0 0 Z " fill="#99C0FF" transform="translate(282,756)"/>
<path d="M0 0 C1.32 0 2.64 0 4 0 C5.24993265 3.96375384 6.49482996 7.92904556 7.73535156 11.89575195 C8.15686716 13.2412233 8.57968762 14.58628666 9.00390625 15.9309082 C11.3066365 23.23284409 13.49855872 30.48454392 15 38 C13.35 38.66 11.7 39.32 10 40 C0.1139469 10.16260546 0.1139469 10.16260546 -1 1 C-0.67 0.67 -0.34 0.34 0 0 Z " fill="#99C0FF" transform="translate(209,618)"/>
<path d="M0 0 C1.65 0.33 3.3 0.66 5 1 C3.71025151 9.44480719 1.51149366 17.42610144 -1.0625 25.5625 C-1.42666016 26.73619141 -1.79082031 27.90988281 -2.16601562 29.11914062 C-4.83602151 37.67204301 -4.83602151 37.67204301 -6 40 C-7.65 39.67 -9.3 39.34 -11 39 C-9.54795861 31.98664009 -7.62740935 25.21119406 -5.5 18.375 C-4.88489139 16.38297462 -4.27029542 14.39079087 -3.65625 12.3984375 C-3.22699219 11.0077002 -3.22699219 11.0077002 -2.7890625 9.58886719 C-1.81813941 6.40332622 -0.89823967 3.20671562 0 0 Z " fill="#99C0FF" transform="translate(867,617)"/>
<path d="M0 0 C1.32 0.66 2.64 1.32 4 2 C3.41464695 5.40694936 2.55880651 8.30658129 1.109375 11.44140625 C0.73159912 12.26737305 0.35382324 13.09333984 -0.03540039 13.94433594 C-0.6366272 15.24032715 -0.6366272 15.24032715 -1.25 16.5625 C-2.06768633 18.34967529 -2.88409664 20.13743497 -3.69921875 21.92578125 C-4.09415527 22.79154785 -4.4890918 23.65731445 -4.89599609 24.54931641 C-7.04460208 29.31882257 -9.03860775 34.15072871 -11 39 C-12.65 38.67 -14.3 38.34 -16 38 C-13.8752509 30.00882651 -10.81317923 22.5990033 -7.4375 15.0625 C-6.94314453 13.94037109 -6.44878906 12.81824219 -5.93945312 11.66210938 C-2.2837208 3.4255812 -2.2837208 3.4255812 0 0 Z " fill="#99C0FF" transform="translate(235,387)"/>
<path d="M0 0 C0.495 2.475 0.495 2.475 1 5 C-6.00504174 7.02535389 -13.05550757 8.83764631 -20.125 10.625 C-21.38699219 10.94984375 -22.64898437 11.2746875 -23.94921875 11.609375 C-25.77259766 12.06957031 -25.77259766 12.06957031 -27.6328125 12.5390625 C-28.73512207 12.81959473 -29.83743164 13.10012695 -30.97314453 13.38916016 C-33.75281048 13.95011549 -36.17658732 14.12264301 -39 14 C-39.33 12.68 -39.66 11.36 -40 10 C-33.5451496 6.85725942 -26.85975268 5.42112434 -19.875 3.875 C-18.70839844 3.61074219 -17.54179687 3.34648437 -16.33984375 3.07421875 C-2.71652919 0 -2.71652919 0 0 0 Z " fill="#99C0FF" transform="translate(481,204)"/>
<path d="M0 0 C1.32 0.66 2.64 1.32 4 2 C3.53895645 6.36943544 0.64828371 8.91450999 -2.25 11.9375 C-3.04277344 12.77498779 -3.04277344 12.77498779 -3.8515625 13.62939453 C-4.97719479 14.81282777 -6.10687582 15.99242104 -7.24023438 17.16845703 C-9.02374634 19.02471491 -10.78509468 20.9004747 -12.546875 22.77734375 C-13.69654102 23.97788137 -14.84754458 25.17713981 -16 26.375 C-16.53915039 26.95241943 -17.07830078 27.52983887 -17.63378906 28.12475586 C-19.1875 29.7109375 -19.1875 29.7109375 -22 32 C-24.375 31.8515625 -24.375 31.8515625 -26 31 C-25.59527186 26.52668892 -22.45111592 24.16025145 -19.375 21.25 C-18.27421039 20.18026664 -17.17524518 19.10865266 -16.078125 18.03515625 C-15.54638672 17.5158252 -15.01464844 16.99649414 -14.46679688 16.46142578 C-11.46101642 13.46665184 -8.7299429 10.24397794 -6 7 C-4.85483156 5.66609556 -3.70902651 4.33273732 -2.5625 3 C-1.716875 2.01 -0.87125 1.02 0 0 Z " fill="#99C0FF" transform="translate(797,756)"/>
<path d="M0 0 C1.2065625 0.0309375 1.2065625 0.0309375 2.4375 0.0625 C2.31705322 0.77720459 2.19660645 1.49190918 2.07250977 2.22827148 C1.15805219 7.68105012 0.26161779 13.13589053 -0.59765625 18.59765625 C-0.76716797 19.67337891 -0.93667969 20.74910156 -1.11132812 21.85742188 C-1.45926371 24.07071552 -1.80556893 26.28426596 -2.15039062 28.49804688 C-2.31861328 29.56216797 -2.48683594 30.62628906 -2.66015625 31.72265625 C-2.88457397 33.15557007 -2.88457397 33.15557007 -3.11352539 34.61743164 C-3.5625 37.0625 -3.5625 37.0625 -4.5625 40.0625 C-6.2125 40.0625 -7.8625 40.0625 -9.5625 40.0625 C-8.6396858 30.11796276 -7.36979729 20.3147452 -5.5 10.5 C-5.3256543 9.57807861 -5.15130859 8.65615723 -4.97167969 7.70629883 C-3.47746893 0.08481632 -3.47746893 0.08481632 0 0 Z " fill="#99C0FF" transform="translate(210.5625,461.9375)"/>
<path d="M0 0 C1.65 0 3.3 0 5 0 C7.22010815 8.29944351 8.88344507 16.57345759 10.1875 25.0625 C10.36474609 26.17560547 10.54199219 27.28871094 10.72460938 28.43554688 C12 36.56554657 12 36.56554657 12 40 C10.35 40 8.7 40 7 40 C5.42652982 33.17692529 4.12437383 26.3376144 2.9375 19.4375 C2.76412109 18.44814453 2.59074219 17.45878906 2.41210938 16.43945312 C1.46486411 10.97010979 0.6360144 5.51431046 0 0 Z " fill="#99C0FF" transform="translate(867,461)"/>
<path d="M0 0 C0.495 2.475 0.495 2.475 1 5 C-6.13167062 7.03509211 -13.26164243 7.84572458 -20.625 8.625 C-21.82640625 8.7590625 -23.0278125 8.893125 -24.265625 9.03125 C-29.54391481 9.60472273 -34.68518499 10.07452068 -40 10 C-40 8.35 -40 6.7 -40 5 C-38.96613159 4.87939209 -38.96613159 4.87939209 -37.91137695 4.75634766 C-20.99933125 2.81125676 -20.99933125 2.81125676 -4.16015625 0.33203125 C-2 0 -2 0 0 0 Z " fill="#99C0FF" transform="translate(599,871)"/>
<path d="M0 0 C1.65 0 3.3 0 5 0 C5.25546702 13.82862634 4.77447044 27.2795411 3 41 C1.35 41 -0.3 41 -2 41 C-1.93941406 39.79988281 -1.87882813 38.59976563 -1.81640625 37.36328125 C-1.18969884 24.90983584 -0.58775207 12.45534176 0 0 Z " fill="#99C0FF" transform="translate(876,539)"/>
<path d="M0 0 C1.31162109 -0.00128906 2.62324219 -0.00257813 3.97460938 -0.00390625 C4.65048096 -0.00181152 5.32635254 0.0002832 6.02270508 0.00244141 C8.08747675 0.00780635 10.1520318 0.0024733 12.21679688 -0.00390625 C14.18229492 -0.00197266 14.18229492 -0.00197266 16.1875 0 C17.37996338 0.00112793 18.57242676 0.00225586 19.80102539 0.00341797 C22.67075183 0.11851105 25.2396521 0.47143766 28.02734375 1.1328125 C28.02734375 2.7828125 28.02734375 4.4328125 28.02734375 6.1328125 C14.49734375 6.1328125 0.96734375 6.1328125 -12.97265625 6.1328125 C-12.97265625 4.4828125 -12.97265625 2.8328125 -12.97265625 1.1328125 C-8.59521701 0.29341779 -4.45456912 0.00420952 0 0 Z " fill="#99C0FF" transform="translate(531.97265625,198.8671875)"/>
<path d="M0 0 C4.89329719 0.54861353 9.78626563 1.1000453 14.67895508 1.65405273 C16.34227982 1.84199629 18.00569069 2.02917921 19.66918945 2.21557617 C22.06484847 2.48414781 24.46018098 2.75548348 26.85546875 3.02734375 C27.5952446 3.10967758 28.33502045 3.19201141 29.09721375 3.27684021 C32.77348402 3.69681547 36.38566004 4.2026735 40 5 C40 6.65 40 8.3 40 10 C30.26284037 9.62549386 20.65865698 8.81220589 11 7.5 C10.02659668 7.36940186 9.05319336 7.23880371 8.05029297 7.10424805 C1.12980021 6.12980021 1.12980021 6.12980021 0 5 C-0.04063832 3.33382885 -0.042721 1.66611905 0 0 Z " fill="#99C0FF" transform="translate(481,871)"/>
<path d="M0 0 C1.65 0 3.3 0 5 0 C5.28759862 4.57136474 5.57232974 9.1428961 5.85449219 13.71459961 C5.95072369 15.26738213 6.04771638 16.82011768 6.14550781 18.37280273 C6.28654578 20.61429901 6.42477694 22.85595414 6.5625 25.09765625 C6.60624756 25.78336197 6.64999512 26.46906769 6.69506836 27.17555237 C6.95474006 31.45670669 7.03900842 35.71151216 7 40 C4.525 40.495 4.525 40.495 2 41 C0.3483961 27.27104257 -0.24984036 13.82450015 0 0 Z " fill="#99C0FF" transform="translate(199,540)"/>
<path d="M0 0 C12.87 0 25.74 0 39 0 C39 1.65 39 3.3 39 5 C26.13 5 13.26 5 0 5 C0 3.35 0 1.7 0 0 Z " fill="#015BEE" transform="translate(534,462)"/>
<path d="M0 0 C12.87 0 25.74 0 39 0 C39 1.32 39 2.64 39 4 C26.13 4 13.26 4 0 4 C0 2.68 0 1.36 0 0 Z " fill="#0061FF" transform="translate(534,578)"/>
<path d="M0 0 C0 1.32 0 2.64 0 4 C-3.67793401 5.65962592 -7.35843594 7.31341055 -11.04125977 8.9621582 C-12.29000005 9.52213791 -13.53806624 10.08362364 -14.78540039 10.64672852 C-21.77013588 13.79868497 -28.67172926 16.74697178 -36 19 C-36 17.68 -36 16.36 -36 15 C-32.28323138 13.34533463 -28.56617985 11.69130655 -24.84887695 10.0378418 C-23.58708227 9.47648902 -22.32536198 8.91496897 -21.0637207 8.35327148 C-19.23929602 7.54105234 -17.41457204 6.72950559 -15.58984375 5.91796875 C-13.94810181 5.18743286 -13.94810181 5.18743286 -12.27319336 4.44213867 C-11.19303955 3.96623291 -10.11288574 3.49032715 -9 3 C-8.37392853 2.71984039 -7.74785706 2.43968079 -7.10281372 2.15103149 C-2.22551975 0 -2.22551975 0 0 0 Z " fill="#0B67FF" transform="translate(656,487)"/>
<path d="M0 0 C-0.06298828 1.78417969 -0.06298828 1.78417969 -1 4 C-3.34247907 5.35651283 -5.51085915 6.41920477 -7.9921875 7.453125 C-8.69393097 7.75820984 -9.39567444 8.06329468 -10.11868286 8.37762451 C-11.60360876 9.01984491 -13.09166571 9.65486655 -14.58251953 10.28320312 C-16.86549786 11.24599271 -19.13822023 12.23022399 -21.41015625 13.21875 C-22.85361654 13.83982181 -24.2976103 14.4596555 -25.7421875 15.078125 C-26.42352753 15.37180969 -27.10486755 15.66549438 -27.80685425 15.96807861 C-30.70810752 17.18547425 -32.81962239 18 -36 18 C-36 16.68 -36 15.36 -36 14 C-31.35815514 11.99928999 -26.71335862 10.00566081 -22.06567383 8.01855469 C-20.48476198 7.34146155 -18.90467665 6.66243524 -17.32543945 5.98144531 C-15.05634242 5.00337395 -12.78437135 4.03227574 -10.51171875 3.0625 C-9.80536789 2.75626709 -9.09901703 2.45003418 -8.3712616 2.13452148 C-5.41569453 0.88021436 -3.24564696 0 0 0 Z " fill="#0A67FF" transform="translate(700,591)"/>
</svg>
