<?xml version="1.0" encoding="UTF-8"?>
<svg version="1.1" xmlns="http://www.w3.org/2000/svg" width="1080" height="1080">
<path d="M0 0 C1.15628906 0.556875 1.15628906 0.556875 2.3359375 1.125 C8.41990706 6.10845629 10.40973672 12.55302211 11.26130676 20.10877991 C11.43160927 21.4074237 11.43160927 21.4074237 11.60535222 22.73230273 C11.96263418 25.48630614 12.29376109 28.24275792 12.625 31 C12.85237185 32.7639996 13.08187058 34.52772641 13.31354332 36.29116631 C14.05063225 41.94402575 14.74829452 47.60145529 15.4440918 53.25952148 C15.71034024 55.40886376 15.97679544 57.55818043 16.24343872 59.70747375 C16.95870846 65.47937894 17.6705441 71.25170212 18.38126731 77.02416873 C18.826543 80.63996751 19.27245092 84.25568779 19.71854591 87.87138557 C21.11773793 99.21344817 22.51485179 110.55576373 23.90884465 121.89846653 C25.51188766 134.94210465 27.1218417 147.98486528 28.73774785 161.02691597 C29.99177674 171.15159627 31.23973784 181.27701302 32.48312122 191.40300614 C33.22377055 197.43371641 33.96692287 203.4640921 34.71640587 209.49371147 C35.42022486 215.1573539 36.11647077 220.82187759 36.80704117 226.48715019 C37.06068831 228.5574069 37.31699109 230.62734037 37.57623863 232.69690323 C41.53121154 264.30734176 41.53121154 264.30734176 35.625 272 C30.60052402 277.50434167 24.64271447 279.03240843 17.45135975 279.91764259 C15.61483317 280.14829475 15.61483317 280.14829475 13.74120504 280.38360655 C12.39086372 280.54683674 11.04050811 280.70994877 9.69013977 280.87295532 C8.24905566 281.05152186 6.8080386 281.23063024 5.36708325 281.4102329 C1.41200144 281.90158593 -2.54399665 282.38517492 -6.50019062 282.8674798 C-10.76877997 283.38923242 -15.03648359 283.91813896 -19.30430603 284.44612122 C-27.6645717 285.47919935 -36.02565251 286.50552959 -44.38704624 287.52943327 C-51.18484568 288.3619818 -57.98234692 289.19692548 -64.77964211 290.03358078 C-65.74702965 290.15265033 -66.71441719 290.27171989 -67.71111951 290.39439761 C-69.67639787 290.63630055 -71.64167562 290.8782085 -73.60695276 291.1201214 C-92.04135528 293.38897982 -110.4766959 295.65013956 -128.91236011 297.90871982 C-144.72187462 299.84575525 -160.53054513 301.78955788 -176.33862305 303.73828125 C-194.69928649 306.00166955 -213.06047767 308.26070019 -231.42251426 310.5129236 C-233.38210329 310.75329312 -235.34169156 310.99366881 -237.30127907 311.23405075 C-238.2653999 311.35231752 -239.22952074 311.47058428 -240.22285735 311.59243489 C-247.00780831 312.42503952 -253.79237125 313.26076013 -260.57678795 314.09770584 C-268.85155863 315.11842665 -277.12689648 316.13439405 -285.40299096 317.14432742 C-289.62344536 317.6594724 -293.84361338 318.17671622 -298.06309509 318.69977379 C-301.93074469 319.17915596 -305.79910457 319.65231482 -309.66810582 320.12065916 C-311.06274389 320.29056008 -312.45711488 320.46267218 -313.85116895 320.63730009 C-336.14591081 323.42601214 -336.14591081 323.42601214 -342.75 320 C-343.52085937 319.62875 -344.29171875 319.2575 -345.0859375 318.875 C-351.16990706 313.89154371 -353.15973672 307.44697789 -354.01130676 299.89122009 C-354.12484176 299.02545756 -354.23837677 298.15969503 -354.35535222 297.26769727 C-354.71263418 294.51369386 -355.04376109 291.75724208 -355.375 289 C-355.60237185 287.2360004 -355.83187058 285.47227359 -356.06354332 283.70883369 C-356.80063225 278.05597425 -357.49829452 272.39854471 -358.1940918 266.74047852 C-358.46034024 264.59113624 -358.72679544 262.44181957 -358.99343872 260.29252625 C-359.70870846 254.52062106 -360.4205441 248.74829788 -361.13126731 242.97583127 C-361.576543 239.36003249 -362.02245092 235.74431221 -362.46854591 232.12861443 C-363.86773793 220.78655183 -365.26485179 209.44423627 -366.65884465 198.10153347 C-368.26188766 185.05789535 -369.8718417 172.01513472 -371.48774785 158.97308403 C-372.74177674 148.84840373 -373.98973784 138.72298698 -375.23312122 128.59699386 C-375.97377055 122.56628359 -376.71692287 116.5359079 -377.46640587 110.50628853 C-378.17022486 104.8426461 -378.86647077 99.17812241 -379.55704117 93.51284981 C-379.81068831 91.4425931 -380.06699109 89.37265963 -380.32623863 87.30309677 C-384.28121154 55.69265824 -384.28121154 55.69265824 -378.375 48 C-373.35052402 42.49565833 -367.39271447 40.96759157 -360.20135975 40.08235741 C-358.97700869 39.9285893 -357.75265764 39.77482119 -356.49120504 39.61639345 C-355.14086372 39.45316326 -353.79050811 39.29005123 -352.44013977 39.12704468 C-350.99905566 38.94847814 -349.5580386 38.76936976 -348.11708325 38.5897671 C-344.16200144 38.09841407 -340.20600335 37.61482508 -336.24980938 37.1325202 C-331.98122003 36.61076758 -327.71351641 36.08186104 -323.44569397 35.55387878 C-315.0854283 34.52080065 -306.72434749 33.49447041 -298.36295376 32.47056673 C-291.56515432 31.6380182 -284.76765308 30.80307452 -277.97035789 29.96641922 C-277.00297035 29.84734967 -276.03558281 29.72828011 -275.03888049 29.60560239 C-273.07360213 29.36369945 -271.10832438 29.1217915 -269.14304724 28.8798786 C-250.70864472 26.61102018 -232.2733041 24.34986044 -213.83763989 22.09128018 C-198.02812538 20.15424475 -182.21945487 18.21044212 -166.41137695 16.26171875 C-148.05071351 13.99833045 -129.68952233 11.73929981 -111.32748574 9.4870764 C-109.36789671 9.24670688 -107.40830844 9.00633119 -105.44872093 8.76594925 C-104.4846001 8.64768248 -103.52047926 8.52941572 -102.52714265 8.40756511 C-95.74219169 7.57496048 -88.95762875 6.73923987 -82.17321205 5.90229416 C-73.89844137 4.88157335 -65.62310352 3.86560595 -57.34700904 2.85567258 C-53.12655464 2.3405276 -48.90638662 1.82328378 -44.68690491 1.30022621 C-40.81925531 0.82084404 -36.95089543 0.34768518 -33.08189418 -0.12065916 C-31.68725611 -0.29056008 -30.29288512 -0.46267218 -28.89883105 -0.63730009 C-6.60408919 -3.42601214 -6.60408919 -3.42601214 0 0 Z " fill="#E8F6FE" transform="translate(711.375,380)"/>
<path d="M0 0 C6.91392739 6.91392739 6.81535222 17.16801498 7.9453125 26.375 C8.12159429 27.78640466 8.29810199 29.19778112 8.474823 30.60913086 C8.84335592 33.56399008 9.20750348 36.51935111 9.56884766 39.47509766 C10.02725106 43.220005 10.49894886 46.96309719 10.97441292 50.70587158 C11.3428993 53.6223193 11.70278615 56.53978416 12.06042099 59.45758057 C12.23055171 60.83550729 12.40349059 62.21309091 12.57956314 63.590271 C15.7568003 88.54761963 15.7568003 88.54761963 12.7336731 94.48852539 C8.89939073 99.40955415 4.05381396 101.03898225 -2.01782227 101.80273438 C-3.01092911 101.93086517 -4.00403595 102.05899597 -5.02723694 102.19100952 C-6.11266281 102.32391388 -7.19808868 102.45681824 -8.31640625 102.59375 C-9.47873276 102.74123688 -10.64105927 102.88872375 -11.83860779 103.04067993 C-15.06472867 103.44810972 -18.29156416 103.84917066 -21.51885986 104.24716949 C-24.27302468 104.58790311 -27.02653436 104.93378471 -29.78008461 105.27944374 C-56.92475031 108.6843659 -84.09385396 111.88954818 -111.2618084 115.10215092 C-130.20603298 117.34270004 -149.14531232 119.60195045 -168.0625 122.0625 C-187.28343166 124.55854091 -206.51978945 126.92242611 -225.76193237 129.24850464 C-229.18840708 129.66279045 -232.61459932 130.07930093 -236.04055786 130.49783325 C-240.08707161 130.99199922 -244.13414008 131.48134809 -248.18167496 131.96707726 C-249.68612124 132.14835539 -251.19037731 132.33122028 -252.69442368 132.51578712 C-273.34092318 135.04584 -273.34092318 135.04584 -277.75 132.4375 C-278.28109375 132.14746094 -278.8121875 131.85742188 -279.359375 131.55859375 C-285.57405445 125.65464827 -286.0151577 118.28607576 -286.9375 110.1875 C-287.09444336 108.91028076 -287.25138672 107.63306152 -287.41308594 106.31713867 C-287.76262623 103.46990309 -288.10191525 100.62166016 -288.43505859 97.77246094 C-288.93968254 93.47476389 -289.47259649 89.18092643 -290.01075745 84.88731384 C-290.48138112 81.12658195 -290.94490846 77.36499715 -291.4067688 73.60317993 C-291.6336412 71.7585683 -291.86202856 69.9141423 -292.0920105 68.06991577 C-295.23689886 42.72117749 -295.23689886 42.72117749 -292.4375 36.5625 C-287.41961632 31.28728895 -282.19846758 29.43105375 -275.09863281 28.66308594 C-274.33573692 28.56789295 -273.57284103 28.47269997 -272.78682709 28.37462234 C-270.26047148 28.06314264 -267.73210113 27.77374002 -265.203125 27.484375 C-263.40114369 27.2667217 -261.5993277 27.04769596 -259.79766846 26.82739258 C-254.95654477 26.23929251 -250.11335928 25.67019301 -245.26956177 25.104599 C-240.20374523 24.50970026 -235.14008173 23.89701114 -230.07617188 23.28613281 C-220.9037753 22.18216642 -211.72972407 21.09276851 -202.55473328 20.01059341 C-194.16354925 19.0205493 -185.7738269 18.01861259 -177.38463974 17.01180458 C-173.81849285 16.58382966 -170.25227553 16.15644321 -166.68603516 15.72924805 C-165.66314235 15.60671551 -165.66314235 15.60671551 -164.61958504 15.48170757 C-159.86047471 14.91198051 -155.10099491 14.34541112 -150.34130859 13.78051758 C-132.84778707 11.70414328 -115.35939129 9.58939952 -97.875 7.4375 C-96.73081604 7.29686127 -95.58663208 7.15622253 -94.40777588 7.01132202 C-82.96971955 5.60524326 -71.53247243 4.19286321 -60.09713554 2.76482677 C-54.13201682 2.01996566 -48.16643724 1.27885712 -42.20074463 0.53860474 C-39.67429869 0.2241946 -37.14804865 -0.09179429 -34.62200928 -0.40945435 C-31.13128276 -0.8484057 -27.63994619 -1.28216467 -24.1484375 -1.71484375 C-22.60416077 -1.91114883 -22.60416077 -1.91114883 -21.02868652 -2.11141968 C-6.11909104 -3.94341423 -6.11909104 -3.94341423 0 0 Z " fill="#E0F1FF" transform="translate(712,549)"/>
<path d="M0 0 C1.25941406 -0.03738281 2.51882813 -0.07476562 3.81640625 -0.11328125 C8.18862214 0.40081965 10.12164057 1.43379455 13.4375 4.3125 C17.02259637 9.6288887 18.21267511 14.0004118 18.90136719 20.31787109 C19.06317726 21.6290818 19.06317726 21.6290818 19.22825623 22.96678162 C19.57868796 25.83824947 19.90685369 28.71177388 20.234375 31.5859375 C20.4740744 33.59475898 20.71499964 35.60343453 20.95709229 37.61196899 C21.46054125 41.81545099 21.95379923 46.01995506 22.43896484 50.22558594 C23.05902771 55.59922694 23.69716633 60.97051368 24.34208298 66.34122276 C24.83920817 70.487797 25.33030649 74.6350658 25.81925201 78.78261185 C26.05268942 80.76254681 26.28712639 82.74236421 26.5226059 84.72205734 C26.85100861 87.49687366 27.17218732 90.27243145 27.49121094 93.04833984 C27.58778488 93.85590225 27.68435883 94.66346466 27.78385925 95.49549866 C29.57726985 111.36686506 29.57726985 111.36686506 24.4375 118.3125 C20.42261225 121.3009912 16.38586826 122.11268642 11.53515625 122.82421875 C10.75125015 122.94665451 9.96734406 123.06909027 9.15968323 123.19523621 C-0.90512318 124.7298759 -11.01638661 125.92214856 -21.125 127.125 C-24.33492495 127.51090418 -27.54471151 127.8979469 -30.75450134 128.28497314 C-32.96819413 128.55172765 -35.18195001 128.81795911 -37.39576721 129.0836792 C-45.39174716 130.0447863 -53.38392761 131.0341368 -61.375 132.03515625 C-64.71365937 132.45148286 -68.05236476 132.86743858 -71.39108276 133.28329468 C-73.53249488 133.55094846 -75.67371375 133.82015319 -77.81472778 134.0909729 C-80.80433251 134.46875831 -83.79463673 134.84047344 -86.78515625 135.2109375 C-87.66014771 135.32313126 -88.53513916 135.43532501 -89.43664551 135.55091858 C-103.88157826 137.32105305 -103.88157826 137.32105305 -110.5625 133.3125 C-110.5625 132.6525 -110.5625 131.9925 -110.5625 131.3125 C-111.2225 131.3125 -111.8825 131.3125 -112.5625 131.3125 C-116.02743606 125.67711241 -116.5383365 119.98970979 -117.3125 113.5 C-117.46879883 112.25404053 -117.62509766 111.00808105 -117.78613281 109.72436523 C-118.15914799 106.7482864 -118.52438439 103.77134232 -118.88671875 100.79394531 C-119.53425888 95.50215841 -120.21355917 90.21463263 -120.89398193 84.92698669 C-121.54495208 79.85570131 -122.18668425 74.78326977 -122.82678223 69.71060181 C-123.14819554 67.1724746 -123.47229234 64.63468564 -123.79919434 62.09725952 C-128.35184384 26.64651503 -128.35184384 26.64651503 -124.84667969 20.11547852 C-120.25126197 14.47631746 -115.36173682 13.66986425 -108.49145508 12.77783203 C-107.60954152 12.65481783 -106.72762796 12.53180363 -105.81898975 12.40506172 C-103.06851567 12.02654744 -100.31624186 11.6663989 -97.5625 11.3125 C-96.73319851 11.20501183 -95.90389702 11.09752365 -95.04946518 10.98677826 C-89.27023887 10.24437007 -83.48549572 9.55208066 -77.69921875 8.8671875 C-75.8836586 8.64995088 -74.06813298 8.43242548 -72.25263977 8.21463013 C-67.54259038 7.65024934 -62.83214552 7.0892465 -58.12158203 6.5291748 C-50.54029137 5.62711595 -42.95966602 4.71947837 -35.37897682 3.81238174 C-32.75184252 3.49847532 -30.12455687 3.18586343 -27.49723816 2.87350464 C-25.88446845 2.68115022 -24.2717008 2.48877851 -22.65893555 2.29638672 C-21.93941208 2.21118774 -21.21988861 2.12598877 -20.4785614 2.03820801 C-17.24269693 1.65138419 -14.01643759 1.2333577 -10.79109192 0.76589966 C-7.17410778 0.25795706 -3.65163205 0.07116001 0 0 Z " fill="#E3F3FF" transform="translate(528.5625,432.6875)"/>
<path d="M0 0 C0.94939453 0.43505859 0.94939453 0.43505859 1.91796875 0.87890625 C8.56177909 6.34463888 8.88461626 14.49388154 9.828125 22.47265625 C9.99064758 23.74544937 10.15317017 25.01824249 10.32061768 26.3296051 C10.74973044 29.69326117 11.16044167 33.05891255 11.56723022 36.42533112 C11.96086392 39.65466289 12.37303936 42.88161911 12.78320312 46.10888672 C13.58070747 52.42442794 14.34976807 58.74299209 15.10498047 65.0637207 C15.5687335 68.92692702 16.04418119 72.78859621 16.51953125 76.65039062 C16.82102858 79.16137246 17.12183572 81.67243728 17.421875 84.18359375 C17.56244324 85.31091415 17.70301147 86.43823456 17.84783936 87.59971619 C20.44837696 109.80792446 20.44837696 109.80792446 16.875 115.625 C10.75638402 122.42349156 -0.67146928 122.35182309 -9.09765625 123.3046875 C-10.4565388 123.46545354 -11.81531675 123.62710582 -13.17399597 123.7895813 C-16.78667716 124.21936859 -20.40057404 124.6379157 -24.0148468 125.05407715 C-27.75706412 125.486743 -31.4981388 125.92904771 -35.23925781 126.37109375 C-36.73751643 126.54805062 -38.23577692 126.72499156 -39.73403931 126.9019165 C-40.47284962 126.98917244 -41.21165993 127.07642838 -41.97285843 127.16632843 C-44.2033364 127.42925196 -46.43396964 127.69082154 -48.66464233 127.9520874 C-57.09947754 128.94166059 -65.52779787 129.97165289 -73.94921875 131.0703125 C-74.87376358 131.19018524 -75.79830841 131.31005798 -76.75086975 131.43356323 C-80.1025829 131.86891904 -83.45416461 132.30439985 -86.80349731 132.75775146 C-113.02897157 136.30430688 -113.02897157 136.30430688 -118.875 132.75 C-123.50554144 128.11945856 -124.80546314 123.59899669 -125.73364258 117.24047852 C-125.856946 116.448929 -125.98024942 115.65737947 -126.10728931 114.84184361 C-127.39072986 106.44630737 -128.44390822 98.02243647 -129.44921875 89.58984375 C-129.64650998 87.95558763 -129.84400909 86.32135659 -130.04170227 84.68714905 C-130.45022217 81.30192802 -130.85571231 77.91636181 -131.2590332 74.53051758 C-131.77366625 70.21301073 -132.29695664 65.89660215 -132.82257366 61.58042049 C-133.23042111 58.22211807 -133.63326684 54.86322962 -134.03467751 51.5041523 C-134.225608 49.91209891 -134.41815646 48.32023861 -134.61243248 46.72859001 C-137.20511745 25.43504537 -137.20511745 25.43504537 -134.5 20.125 C-125.632334 9.81933411 -111.63017707 10.66163192 -98.86328125 9.16015625 C-97.0717471 8.94638017 -95.28025928 8.73221541 -93.48881531 8.51768494 C-88.78155863 7.95485955 -84.07377958 7.39653715 -79.36584473 6.8394165 C-71.89411118 5.95450126 -64.42316418 5.06296242 -56.95223618 4.17127609 C-54.25650315 3.84982908 -51.56064159 3.52947516 -48.86477661 3.20913696 C-38.50634937 1.97506806 -28.1553349 0.70438372 -17.82551575 -0.75364685 C-5.07697843 -2.50185123 -5.07697843 -2.50185123 0 0 Z " fill="#E0F1FE" transform="translate(693.1875,414.5625)"/>
<path d="M0 0 C4.78602096 38.15332005 9.51420838 76.31018043 14 114.5 C17.31160176 142.68423592 20.69601902 170.85085003 24.39248657 198.98751831 C26.3922483 214.21334328 28.30184259 229.44696217 30.12109375 244.6953125 C30.69794933 249.5260787 31.29378881 254.35380306 31.91015625 259.1796875 C32.12345581 260.85248779 32.12345581 260.85248779 32.34106445 262.55908203 C32.60388641 264.60987786 32.86914459 266.66036374 33.13745117 268.71044922 C33.30917847 270.05260498 33.30917847 270.05260498 33.484375 271.421875 C33.58459961 272.19112305 33.68482422 272.96037109 33.78808594 273.75292969 C34.01702859 276.18056586 34.03547436 278.56301927 34 281 C29.64526516 281.57873299 25.28941547 282.14795493 20.93237305 282.70898438 C19.4551574 282.90048422 17.97825623 283.09442852 16.50170898 283.29101562 C-7.63054538 286.4988297 -7.63054538 286.4988297 -14.375 283 C-15.14585937 282.62875 -15.91671875 282.2575 -16.7109375 281.875 C-22.79490706 276.89154371 -24.78473672 270.44697789 -25.63630676 262.89122009 C-25.74984176 262.02545756 -25.86337677 261.15969503 -25.98035222 260.26769727 C-26.33763418 257.51369386 -26.66876109 254.75724208 -27 252 C-27.22737185 250.2360004 -27.45687058 248.47227359 -27.68854332 246.70883369 C-28.42563225 241.05597425 -29.12329452 235.39854471 -29.8190918 229.74047852 C-30.08534024 227.59113624 -30.35179544 225.44181957 -30.61843872 223.29252625 C-31.33370846 217.52062106 -32.0455441 211.74829788 -32.75626731 205.97583127 C-33.201543 202.36003249 -33.64745092 198.74431221 -34.09354591 195.12861443 C-35.49273793 183.78655183 -36.88985179 172.44423627 -38.28384465 161.10153347 C-39.88688766 148.05789535 -41.4968417 135.01513472 -43.11274785 121.97308403 C-44.36677674 111.84840373 -45.61473784 101.72298698 -46.85812122 91.59699386 C-47.59877055 85.56628359 -48.34192287 79.5359079 -49.09140587 73.50628853 C-49.79522486 67.8426461 -50.49147077 62.17812241 -51.18204117 56.51284981 C-51.43568831 54.4425931 -51.69199109 52.37265963 -51.95123863 50.30309677 C-55.90621154 18.69265824 -55.90621154 18.69265824 -50 11 C-44.63662819 5.12439605 -38.26238818 3.87371051 -30.625 2.9296875 C-29.93744629 2.84373322 -29.24989258 2.75777893 -28.54150391 2.66921997 C-27.09639104 2.48991361 -25.65090434 2.3135971 -24.20507812 2.14013672 C-22.00551689 1.87566335 -19.80745601 1.60069766 -17.609375 1.32421875 C-5.90576234 -0.11697952 -5.90576234 -0.11697952 0 0 Z " fill="#11285D" transform="translate(383,417)"/>
<path d="M0 0 C6.61773051 4.35169332 11.28498703 10.36811871 13.60546875 17.98828125 C15.34235419 26.84467733 13.36398647 34.18670099 9 42 C4.3577294 48.27607942 -1.71119229 51.57039743 -9 54 C-18.03635137 54.82255474 -25.56279825 54.54245538 -33 49 C-39.66424507 43.00787537 -43.46435203 37.42952256 -44.34375 28.515625 C-44.72380363 19.05228956 -43.57603624 12.15301472 -37.203125 4.9765625 C-26.28905203 -5.36997867 -13.37132881 -6.85813223 0 0 Z " fill="#E6F5FF" transform="translate(663,580)"/>
<path d="M0 0 C5.60052789 5.60052789 8.86229841 11.27216739 9.125 19.25 C9.18107422 20.36181641 9.18107422 20.36181641 9.23828125 21.49609375 C8.6285364 24.8133295 7.11364314 26.37774366 4.8125 28.8125 C-4.58775778 32.67484689 -16.06145613 32.88217075 -26.125 33.9375 C-28.47267441 34.19042692 -30.82009276 34.44556571 -33.16737366 34.70211792 C-34.61292746 34.85941347 -36.05874619 35.01430119 -37.50486755 35.16629028 C-41.42773923 35.58535165 -45.3006531 36.13985876 -49.1875 36.8125 C-53.78584936 37.27309 -57.07673347 37.47423325 -61.125 35.0625 C-65.25371952 30.55844235 -65.68215663 26.74129693 -65.5703125 20.765625 C-64.63807722 13.5740957 -60.76945192 7.35594923 -55.1875 2.8125 C-49.2301092 -1.70812398 -43.93620161 -3.19892864 -36.5625 -4 C-35.59554199 -4.11617676 -34.62858398 -4.23235352 -33.63232422 -4.35205078 C-10.20531714 -7.00364902 -10.20531714 -7.00364902 0 0 Z " fill="#0262FF" transform="translate(508.1875,507.1875)"/>
<path d="M0 0 C1.20221191 0.00241699 1.20221191 0.00241699 2.42871094 0.00488281 C8.73651098 0.13517759 13.78385565 1.21420134 19.3125 4.375 C20.859375 5.2103125 20.859375 5.2103125 22.4375 6.0625 C30.36097441 12.43572942 36.70393663 20.14807873 38.3125 30.375 C39.34403701 43.00396021 37.18780603 53.57878923 29.0390625 63.62890625 C21.73322017 71.01739385 11.56243826 75.4435142 1.1875 75.625 C-9.57237877 75.48191651 -18.13796255 71.69782455 -25.88671875 64.265625 C-34.81962234 54.68875978 -37.17037481 46.06646065 -37.01953125 33.0390625 C-36.06101027 22.46150156 -30.51045147 14.29628011 -22.6875 7.375 C-19.80235114 5.38443464 -16.89526234 3.77985942 -13.6875 2.375 C-12.95402344 2.01148438 -12.22054687 1.64796875 -11.46484375 1.2734375 C-7.61851635 0.02919657 -4.02076382 -0.00833837 0 0 Z M-21.75 18.3125 C-28.21305759 26.73023842 -28.48807356 33.86461288 -27.6875 44.375 C-26.3889638 52.30625544 -20.71041433 58.37698759 -14.43359375 63.0546875 C-6.91658874 67.4385751 1.55552389 67.83790873 9.92578125 65.7109375 C18.80423774 62.1840895 24.47469571 56.18363037 28.40234375 47.609375 C31.17524378 40.80208395 31.2795592 34.2680854 28.8125 27.3125 C25.159147 19.17257315 19.74185341 13.27561212 11.390625 10.03125 C-1.05892711 6.09981249 -12.65895391 8.49417022 -21.75 18.3125 Z " fill="#0564FF" transform="translate(646.6875,567.625)"/>
<path d="M0 0 C4.63690993 2.68352865 7.48436265 6.41654929 9.5625 11.3125 C10.38707962 17.48725898 10.04239365 23.1351939 6.90625 28.58984375 C3.89889756 32.44519964 0.15519851 34.7816005 -4.4375 36.3125 C-10.40226294 36.84635142 -15.39495595 36.86520149 -20.4375 33.3125 C-25.39941532 28.48178918 -28.40129939 24.08298601 -28.875 17.0625 C-28.69835518 10.82797708 -26.16103626 5.95593226 -21.7109375 1.63671875 C-15.19559557 -3.12243019 -7.26158341 -3.29949041 0 0 Z " fill="#0262FF" transform="translate(483.4375,462.6875)"/>
<path d="M0 0 C0.99 0.99 0.99 0.99 2 2 C1.8125 4.5 1.8125 4.5 1 7 C-1.97007512 8.98005008 -3.01419407 9.32100712 -6.40332031 9.69848633 C-7.2996669 9.80249756 -8.19601349 9.90650879 -9.11952209 10.01367188 C-10.09586105 10.11873047 -11.07220001 10.22378906 -12.078125 10.33203125 C-13.61218239 10.50738403 -13.61218239 10.50738403 -15.17723083 10.6862793 C-18.53405362 11.06883148 -21.8919869 11.44055493 -25.25 11.8125 C-29.90800212 12.33982797 -34.56534464 12.8728621 -39.22265625 13.40625 C-40.39081375 13.5393306 -41.55897125 13.67241119 -42.76252747 13.80952454 C-50.0147409 14.6404254 -57.25815299 15.52163968 -64.49609375 16.46875 C-65.37453949 16.58361252 -66.25298523 16.69847504 -67.15805054 16.81681824 C-71.21034883 17.34923856 -75.26137584 17.89020216 -79.31152344 18.4387207 C-86.51329193 19.40133235 -93.70946456 20.22958784 -100.95703125 20.76171875 C-102.26260986 20.85799561 -103.56818848 20.95427246 -104.91333008 21.0534668 C-108 21 -108 21 -110 19 C-109.625 16.375 -109.625 16.375 -109 14 C-103.87746926 12.05365654 -98.91093498 11.30408785 -93.51171875 10.6328125 C-92.58806015 10.51322174 -91.66440155 10.39363098 -90.7127533 10.27041626 C-87.70506412 9.8826626 -84.69634649 9.50365929 -81.6875 9.125 C-79.60655642 8.85880193 -77.52566479 8.5921974 -75.44482422 8.32519531 C-59.51974668 6.28896825 -43.58551601 4.32639446 -27.64160156 2.44335938 C-25.03145851 2.12557848 -22.42552007 1.79451757 -19.81933594 1.44726562 C-18.76037613 1.30831879 -18.76037613 1.30831879 -17.68002319 1.16656494 C-15.70854817 0.90678154 -13.73779205 0.64155898 -11.76708984 0.37597656 C-7.75516208 -0.02443619 -4.02731269 -0.19929192 0 0 Z " fill="#0665FF" transform="translate(551,609)"/>
<path d="M0 0 C1 1 1 1 1.1875 3.4375 C1 6 1 6 -1 8 C-3.05503845 8.4793396 -3.05503845 8.4793396 -5.62866211 8.80615234 C-7.08241493 8.99697388 -7.08241493 8.99697388 -8.5655365 9.19165039 C-9.62543289 9.32176514 -10.68532928 9.45187988 -11.77734375 9.5859375 C-12.87957779 9.72781494 -13.98181183 9.86969238 -15.1174469 10.01586914 C-18.72310184 10.47746162 -22.33019923 10.92646658 -25.9375 11.375 C-28.40371117 11.68779909 -30.86985694 12.00111429 -33.3359375 12.31494141 C-48.79900287 14.27249928 -64.27204824 16.14275991 -79.76538086 17.84521484 C-81.04936768 17.98652832 -82.33335449 18.1278418 -83.65625 18.2734375 C-84.74744141 18.39122559 -85.83863281 18.50901367 -86.96289062 18.63037109 C-89.03817086 18.88294137 -91.10750547 19.18850975 -93.16845703 19.53930664 C-96.60533273 20.09848792 -99.8951826 20.09532847 -103.375 20.0625 C-105.24285156 20.04896484 -105.24285156 20.04896484 -107.1484375 20.03515625 C-108.55996094 20.01775391 -108.55996094 20.01775391 -110 20 C-110.625 17.125 -110.625 17.125 -111 14 C-108.43664012 11.43664012 -107.0241785 11.53882251 -103.45336914 11.10205078 C-102.28402328 10.95482574 -101.11467743 10.80760071 -99.90989685 10.65591431 C-98.63123245 10.50391571 -97.35256805 10.35191711 -96.03515625 10.1953125 C-94.69722241 10.03020973 -93.35937889 9.86437355 -92.0216217 9.69784546 C-88.44219647 9.25457222 -84.8615409 8.82213792 -81.28049469 8.3921814 C-78.33257513 8.03707267 -75.38537645 7.67618072 -72.4381752 7.31516647 C-64.55595831 6.34966635 -56.67206527 5.39859753 -48.78729248 4.45422363 C-45.42575945 4.05106286 -42.06459279 3.64504917 -38.70361328 3.23730469 C-34.55322685 2.73435022 -30.40217137 2.23768269 -26.24996948 1.74993896 C-24.85340388 1.58567488 -23.4570141 1.41990766 -22.06082153 1.25250244 C-6.77756289 -0.56988517 -6.77756289 -0.56988517 0 0 Z " fill="#0665FF" transform="translate(554,627)"/>
<path d="M0 0 C1 1 1 1 1.0625 4.0625 C1.041875 5.031875 1.02125 6.00125 1 7 C-6.76722723 8.6828071 -14.55966841 9.84469693 -22.4375 10.875 C-24.35574585 11.12781738 -24.35574585 11.12781738 -26.31274414 11.38574219 C-36.84381376 12.76151861 -47.38787704 14.02557314 -57.9375 15.25 C-59.06996658 15.38314606 -59.06996658 15.38314606 -60.22531128 15.51898193 C-62.38801038 15.77225 -64.55128278 16.01984087 -66.71484375 16.265625 C-67.95355225 16.40774414 -69.19226074 16.54986328 -70.46850586 16.69628906 C-74.02058729 17.00177052 -77.43832638 17.19203355 -81 17 C-81.66 16.34 -82.32 15.68 -83 15 C-82.875 12.5 -82.875 12.5 -82 10 C-78.7332184 7.83370431 -75.4623449 7.5143595 -71.62109375 7.0703125 C-70.32373291 6.9165918 -69.02637207 6.76287109 -67.68969727 6.60449219 C-66.27233061 6.44437412 -64.8549306 6.28455103 -63.4375 6.125 C-61.97381112 5.95531955 -60.51018899 5.7850624 -59.04663086 5.61425781 C-55.9609018 5.25537499 -52.87467976 4.90116864 -49.78808594 4.54980469 C-45.78238541 4.09234398 -41.77883527 3.61847143 -37.77580261 3.13827515 C-34.63126719 2.76151719 -31.48612789 2.38998032 -28.34085083 2.01947021 C-26.83745803 1.84165757 -25.3342578 1.66220813 -23.83126831 1.48101807 C-6.49796239 -0.60120214 -6.49796239 -0.60120214 0 0 Z " fill="#0665FF" transform="translate(528,647)"/>
<path d="M0 0 C1.57906447 1.57906447 1.34991913 3.31345394 1.5625 5.5 C1.68818359 6.72203125 1.68818359 6.72203125 1.81640625 7.96875 C2.05888913 11.97229706 2 15.98911643 2 20 C-6.91 20.99 -6.91 20.99 -16 22 C-16 22.99 -16 23.98 -16 25 C-13.35254679 24.71943562 -10.70762036 24.42614369 -8.0625 24.125 C-7.30775391 24.04636719 -6.55300781 23.96773437 -5.77539062 23.88671875 C-3.84080701 23.66116192 -1.91823981 23.33741026 0 23 C0.33 22.34 0.66 21.68 1 21 C1.66 21 2.32 21 3 21 C3 22.32 3 23.64 3 25 C0.60468244 25.33745354 -1.79114268 25.6700829 -4.1875 26 C-4.86103516 26.09539063 -5.53457031 26.19078125 -6.22851562 26.2890625 C-9.84664577 26.78324613 -13.34796401 27.11346131 -17 27 C-19.44465264 18.85115786 -20.13628649 11.51033415 -20 3 C-13.46325722 0.95726788 -6.90578909 -0.41853267 0 0 Z " fill="#F3F4F7" transform="translate(384,562)"/>
<path d="M0 0 C3.6578218 2.03993908 5.66946174 3.50419262 8 7 C8.76768116 11.6864257 8.40885085 15.19690011 6.25 19.4375 C3.00282049 23.13567666 1.45989425 23.86728234 -3.4375 24.3125 C-7.29333597 23.97426877 -9.00854728 23.40978135 -12 21 C-14.80398225 17.61588349 -15.64319599 14.48759927 -15.4921875 10.06640625 C-14.57633142 6.22126445 -11.97417091 3.49656682 -9 1 C-5.64870516 -0.11709828 -3.51689744 -0.34479387 0 0 Z " fill="#0765FF" transform="translate(594,478)"/>
<path d="M0 0 C3.26778393 2.12016933 6.24076697 4.48153395 8 8 C8.3768901 12.99379386 8.19468322 16.05989069 5 20 C2.43549093 22.26631034 0.48662413 23.85133759 -2.9921875 24.19921875 C-7.02782715 23.93271424 -8.74987825 23.20754784 -11.9375 20.5625 C-15.23403965 16.46679922 -15.5458624 13.16088088 -15 8 C-12.16191312 1.27821529 -7.12528148 -1.10564713 0 0 Z " fill="#132A5F" transform="translate(590,444)"/>
<path d="M0 0 C1.25941406 -0.03738281 2.51882813 -0.07476562 3.81640625 -0.11328125 C8.06243125 0.38598167 10.20642975 1.54941219 13.4375 4.3125 C13.4375 5.3025 13.4375 6.2925 13.4375 7.3125 C12.261875 6.3534375 12.261875 6.3534375 11.0625 5.375 C6.8183015 2.04027261 4.04071124 2.25386604 -1.16235352 2.56616211 C-1.95657243 2.61268638 -2.75079134 2.65921064 -3.56907749 2.70714474 C-14.41893836 3.41583677 -25.18515606 4.86820807 -35.96484375 6.25390625 C-38.26356073 6.54453833 -40.56235481 6.83456115 -42.86122131 7.12400818 C-48.85285313 7.87979312 -54.84355827 8.64267217 -60.83404541 9.4074707 C-70.47237682 10.63667368 -80.11213432 11.85464745 -89.75183296 13.07307243 C-93.11078216 13.49864053 -96.46935004 13.92711908 -99.8278656 14.35609436 C-101.87213509 14.61578347 -103.91641067 14.87542461 -105.96069336 15.13500977 C-106.89410553 15.25499832 -107.8275177 15.37498688 -108.78921509 15.49861145 C-109.64239822 15.60655029 -110.49558136 15.71448914 -111.37461853 15.82569885 C-112.11540618 15.9202665 -112.85619383 16.01483416 -113.61942959 16.11226749 C-115.5625 16.3125 -115.5625 16.3125 -118.5625 16.3125 C-118.81 16.93125 -119.0575 17.55 -119.3125 18.1875 C-120.78297178 20.68730203 -121.97653076 21.14566022 -124.5625 22.3125 C-125.04421877 33.20721651 -123.55968059 43.78682595 -122.15625 54.55859375 C-121.90888622 56.50235233 -121.6622765 58.446207 -121.41638184 60.39015198 C-120.7717233 65.4737596 -120.11871199 70.55625536 -119.46331787 75.63848877 C-118.41252538 83.79569153 -117.37323227 91.95435932 -116.33650208 100.11335945 C-115.97400178 102.95492607 -115.60709188 105.79589762 -115.23962402 108.63682556 C-115.01704531 110.37692685 -114.79458604 112.11704342 -114.57226562 113.85717773 C-114.4694075 114.64321381 -114.36654938 115.42924988 -114.26057434 116.23910522 C-113.78968679 119.95294547 -113.44261595 123.56736968 -113.5625 127.3125 C-115.98691895 124.88808105 -115.96047726 123.90475725 -116.38671875 120.55859375 C-116.5249707 119.50422119 -116.66322266 118.44984863 -116.80566406 117.36352539 C-117.02561035 115.57483032 -117.02561035 115.57483032 -117.25 113.75 C-117.41081055 112.48599365 -117.57162109 111.2219873 -117.73730469 109.91967773 C-118.12051153 106.89990925 -118.49690887 103.87935783 -118.87060547 100.85839844 C-119.53061964 95.53981387 -120.21440533 90.22439073 -120.89851379 84.90885925 C-121.54846646 79.84229211 -122.18905792 74.77456629 -122.82778931 69.70657349 C-123.14865906 67.17014077 -123.47232912 64.6340606 -123.79891968 62.09835815 C-128.35185032 26.6465271 -128.35185032 26.6465271 -124.84667969 20.11547852 C-120.25126197 14.47631746 -115.36173682 13.66986425 -108.49145508 12.77783203 C-107.60954152 12.65481783 -106.72762796 12.53180363 -105.81898975 12.40506172 C-103.06851567 12.02654744 -100.31624186 11.6663989 -97.5625 11.3125 C-96.73319851 11.20501183 -95.90389702 11.09752365 -95.04946518 10.98677826 C-89.27023887 10.24437007 -83.48549572 9.55208066 -77.69921875 8.8671875 C-75.8836586 8.64995088 -74.06813298 8.43242548 -72.25263977 8.21463013 C-67.54259038 7.65024934 -62.83214552 7.0892465 -58.12158203 6.5291748 C-50.54029137 5.62711595 -42.95966602 4.71947837 -35.37897682 3.81238174 C-32.75184252 3.49847532 -30.12455687 3.18586343 -27.49723816 2.87350464 C-25.88446845 2.68115022 -24.2717008 2.48877851 -22.65893555 2.29638672 C-21.93941208 2.21118774 -21.21988861 2.12598877 -20.4785614 2.03820801 C-17.24269693 1.65138419 -14.01643759 1.2333577 -10.79109192 0.76589966 C-7.17410778 0.25795706 -3.65163205 0.07116001 0 0 Z " fill="#5094FF" transform="translate(528.5625,432.6875)"/>
<path d="M0 0 C5.28548801 1.93801227 9.7145878 4.30418358 13 9 C13.48860994 12.85576977 13.09885674 16.27746845 12 20 C11.34 20.66 10.68 21.32 10 22 C7.375 21.625 7.375 21.625 5 21 C4.67 19.35 4.34 17.7 4 16 C3.34 16 2.68 16 2 16 C1.67 18.31 1.34 20.62 1 23 C-1.375 23.1875 -1.375 23.1875 -4 23 C-6.29013653 19.5647952 -6.17842973 18.014669 -6 14 C-6.99 13.67 -7.98 13.34 -9 13 C-7.50923566 9.7173068 -5.61379679 7.06922559 -3.375 4.25 C-2.74335938 3.45078125 -2.11171875 2.6515625 -1.4609375 1.828125 C-0.97882813 1.22484375 -0.49671875 0.6215625 0 0 Z " fill="#F5F6F8" transform="translate(361,467)"/>
<path d="M0 0 C0.495 2.475 0.495 2.475 1 5 C-2.70508341 7.28584807 -6.56437299 7.61810714 -10.80078125 8.0703125 C-11.55538132 8.15626678 -12.30998138 8.24222107 -13.08744812 8.33078003 C-14.68151111 8.5107577 -16.27599535 8.68703779 -17.87084961 8.85986328 C-20.29452745 9.12304838 -22.71657957 9.39842175 -25.13867188 9.67578125 C-26.69262728 9.84968416 -28.24666156 10.02288393 -29.80078125 10.1953125 C-30.51768631 10.27653351 -31.23459137 10.35775452 -31.97322083 10.44143677 C-36.35147255 10.91046987 -40.60599366 11.07396954 -45 11 C-45.33 9.35 -45.66 7.7 -46 6 C-42.45526107 3.63684071 -39.4515819 3.36819142 -35.33203125 2.9296875 C-34.57838791 2.84373322 -33.82474457 2.75777893 -33.04826355 2.66921997 C-31.45245089 2.48896795 -29.85618329 2.31270538 -28.25952148 2.14013672 C-25.83785231 1.87774694 -23.41798585 1.60206634 -20.99804688 1.32421875 C-19.44279724 1.15024504 -17.88746097 0.97704372 -16.33203125 0.8046875 C-15.61715042 0.72346649 -14.90226959 0.64224548 -14.16572571 0.55856323 C-9.4179126 0.05226187 -4.77497613 -0.06902288 0 0 Z " fill="#0A67FF" transform="translate(655,475)"/>
<path d="M0 0 C0.66 1.32 1.32 2.64 2 4 C-0.79006469 6.79006469 -3.77672981 6.77703374 -7.53515625 7.2890625 C-8.28784286 7.39721283 -9.04052948 7.50536316 -9.81602478 7.61679077 C-11.41347993 7.8442865 -13.01153358 8.06761233 -14.61010742 8.28710938 C-17.03017768 8.62054663 -19.44765394 8.96932955 -21.86523438 9.3203125 C-23.42174383 9.53999391 -24.97838116 9.75877151 -26.53515625 9.9765625 C-27.24801285 10.07965729 -27.96086945 10.18275208 -28.69532776 10.28897095 C-33.83297234 10.98265349 -38.8156501 11.08351059 -44 11 C-44.625 8.625 -44.625 8.625 -45 6 C-42.17620757 3.17620757 -39.88093772 3.40319141 -35.9375 2.9296875 C-34.87861572 2.80075607 -34.87861572 2.80075607 -33.79833984 2.66921997 C-32.29916069 2.4886967 -30.79946105 2.3124528 -29.29931641 2.14013672 C-27.03533038 1.87907398 -24.77360669 1.60281051 -22.51171875 1.32421875 C-14.98137161 0.41975315 -7.59702116 -0.22610182 0 0 Z " fill="#182E62" transform="translate(650,441)"/>
<path d="M0 0 C1.32 0.66 2.64 1.32 4 2 C3.814375 2.78375 3.62875 3.5675 3.4375 4.375 C2.74037734 6.97089775 2.74037734 6.97089775 4 9 C4.43023798 12.87214182 4.31669086 14.52496371 2.125 17.8125 C-0.59180574 20.60921179 -1.39613102 20.94303123 -5.3125 21.3125 C-9.57536111 20.95124058 -11.01992054 19.98007946 -14 17 C-15.42662219 14.14675563 -15.31033868 12.16545451 -15 9 C-13.20006226 6.30009338 -11.916227 4.4581135 -9 3 C-6.3276379 2.86584528 -3.67749512 2.95681459 -1 3 C-0.67 2.01 -0.34 1.02 0 0 Z " fill="#1D73FF" transform="translate(453,589)"/>
<path d="M0 0 C-0.33 1.32 -0.66 2.64 -1 4 C-17.83114681 6.52754423 -34.70972438 8.5907138 -51.60986328 10.59106445 C-54.26816568 10.91172242 -56.92090733 11.25480261 -59.57421875 11.61328125 C-62.91747351 11.99068401 -66.13775567 12.10070732 -69.5 12.0625 C-70.5415625 12.05347656 -71.583125 12.04445313 -72.65625 12.03515625 C-73.81640625 12.01775391 -73.81640625 12.01775391 -75 12 C-74.67 11.01 -74.34 10.02 -74 9 C-59.93681996 6.69398787 -45.82655546 5.00386194 -31.66479492 3.44628906 C-30.2165982 3.28613167 -28.76843684 3.12565428 -27.3203125 2.96484375 C-26.26675316 2.84805771 -26.26675316 2.84805771 -25.19190979 2.72891235 C-19.42199859 2.07627566 -13.68754054 1.25721995 -7.94873047 0.36938477 C-5.25828987 0.03235574 -2.70705586 -0.07047993 0 0 Z " fill="#146EFF" transform="translate(685,482)"/>
<path d="M0 0 C-0.33 0.99 -0.66 1.98 -1 3 C-37.5194392 7.90985838 -37.5194392 7.90985838 -54.375 9.8125 C-55.44661377 9.9360083 -56.51822754 10.0595166 -57.62231445 10.18676758 C-63.12071791 10.79139234 -68.46868326 11.12541172 -74 11 C-74 10.01 -74 9.02 -74 8 C-70.84678662 6.94892887 -68.01905208 6.56284292 -64.71875 6.16796875 C-63.41760254 6.01094482 -62.11645508 5.8539209 -60.77587891 5.69213867 C-59.35061684 5.52366413 -57.92532303 5.35545796 -56.5 5.1875 C-55.03693529 5.01352291 -53.57388208 4.83944913 -52.11083984 4.6652832 C-49.01913708 4.29808316 -45.92713758 3.93349906 -42.83496094 3.5703125 C-38.75266055 3.09021258 -34.6716053 2.60024519 -30.59075928 2.10795593 C-27.37947835 1.72194595 -24.16750564 1.34195116 -20.95532227 0.96353149 C-19.40444305 0.77982664 -17.85382056 0.59394107 -16.3034668 0.40585327 C-14.13268993 0.1431584 -11.96108173 -0.11109505 -9.7890625 -0.36328125 C-8.54850098 -0.51063721 -7.30793945 -0.65799316 -6.02978516 -0.80981445 C-3 -1 -3 -1 0 0 Z " fill="#1E3567" transform="translate(681,449)"/>
<path d="M0 0 C1.8125 1.125 1.8125 1.125 3 3 C3.625 5.6875 3.625 5.6875 3 9 C0.2634011 12.98448799 -2.34461032 16.44820344 -7 18 C-10.78403119 15.82619485 -14.33614571 13.48350176 -17 10 C-17.45319325 6.82764724 -17.52990283 4.93512264 -15.9375 2.125 C-13.01347916 0.42718145 -10.31603158 0.87941703 -7 1 C-4.45132831 -0.27433584 -2.82594567 -0.27570202 0 0 Z " fill="#F8F8FA" transform="translate(376,517)"/>
<path d="M0 0 C4.40986252 0.44078829 6.90865755 3.4235829 9.89453125 6.390625 C10.44614426 6.93225281 10.99775726 7.47388062 11.56608582 8.03192139 C12.72727707 9.17794774 13.88444936 10.32805863 15.0378418 11.48193359 C16.80823767 13.2457535 18.60122344 14.98419648 20.39648438 16.72265625 C21.52229863 17.83967093 22.64669771 18.95811413 23.76953125 20.078125 C24.57871758 20.8549765 24.57871758 20.8549765 25.4042511 21.64752197 C26.88208008 23.15332031 26.88208008 23.15332031 29 26 C28.8269043 28.87011719 28.8269043 28.87011719 28 31 C24.48157214 30.41884626 22.83744782 29.20392497 20.35546875 26.68359375 C19.67806641 26.00103516 19.00066406 25.31847656 18.30273438 24.61523438 C17.60470703 23.89658203 16.90667969 23.17792969 16.1875 22.4375 C15.50107422 21.74591797 14.81464844 21.05433594 14.10742188 20.34179688 C10.06385098 16.23701771 6.19359817 12.01887945 2.4387207 7.64868164 C1.33987265 6.38947226 0.18175194 5.18175194 -1 4 C-0.625 1.875 -0.625 1.875 0 0 Z " fill="#99C0FF" transform="translate(280,757)"/>
<path d="M0 0 C4.56596067 0.6133574 8.53032508 1.81215614 12.82421875 3.46875 C13.45229935 3.70911987 14.08037994 3.94948975 14.72749329 4.19714355 C16.71623845 4.95948633 18.70190332 5.72949875 20.6875 6.5 C22.68445047 7.2687429 24.6819965 8.03592101 26.67964172 8.80285645 C28.48490737 9.49691313 30.28875668 10.19465042 32.0925293 10.89257812 C34.04630932 11.63675028 36.01658282 12.33886094 38 13 C38 14.32 38 15.64 38 17 C31.06192698 16.47118346 25.05945053 14.96468916 18.5 12.6875 C17.61441406 12.39166016 16.72882813 12.09582031 15.81640625 11.79101562 C10.05870785 9.83373636 4.51150882 7.56816795 -1 5 C-0.67 3.35 -0.34 1.7 0 0 Z " fill="#99C0FF" transform="translate(406,849)"/>
<path d="M0 0 C4.17770317 0.55539507 7.54226909 1.50377906 11.3359375 3.328125 C12.31820312 3.79863281 13.30046875 4.26914063 14.3125 4.75390625 C15.8284375 5.49447266 15.8284375 5.49447266 17.375 6.25 C18.87933594 6.96736328 18.87933594 6.96736328 20.4140625 7.69921875 C26.18674313 10.48733282 31.6345042 13.49129869 37 17 C36.67 18.32 36.34 19.64 36 21 C32.28712551 20.4023117 29.35612753 19.35095779 26.015625 17.63671875 C25.07976563 17.16169922 24.14390625 16.68667969 23.1796875 16.19726562 C22.21289062 15.69904297 21.24609375 15.20082031 20.25 14.6875 C13.57217815 11.27167649 6.89476697 7.95841569 0 5 C0 3.35 0 1.7 0 0 Z " fill="#99C0FF" transform="translate(673,227)"/>
<path d="M0 0 C1.32 0.66 2.64 1.32 4 2 C3.41038729 5.42314715 2.25538288 7.12308266 -0.11328125 9.62890625 C-4.91194299 14.91270203 -8.9281068 20.70668854 -13.01367188 26.54882812 C-13.60083984 27.36673828 -14.18800781 28.18464844 -14.79296875 29.02734375 C-15.3139917 29.76718506 -15.83501465 30.50702637 -16.37182617 31.26928711 C-18.24089787 33.25606913 -19.30791431 33.73533345 -22 34 C-22.66 33.67 -23.32 33.34 -24 33 C-22.29226862 29.20401015 -19.92544772 25.92209795 -17.5 22.5625 C-17.06365234 21.9550293 -16.62730469 21.34755859 -16.17773438 20.72167969 C-13.01738564 16.34737726 -9.78608534 12.0305266 -6.5 7.75 C-6.07912109 7.20158447 -5.65824219 6.65316895 -5.22460938 6.08813477 C-3.56473317 3.94435439 -1.91943476 1.91943476 0 0 Z " fill="#99C0FF" transform="translate(278,321)"/>
<path d="M0 0 C4.01627878 0.45470619 6.90851351 2.74998804 10.19140625 4.96484375 C10.77792465 5.35821426 11.36444305 5.75158478 11.96873474 6.15687561 C13.83701559 7.41169667 15.69978546 8.67443468 17.5625 9.9375 C18.81930412 10.78373408 20.07646197 11.62944305 21.33398438 12.47460938 C23.63967859 14.02533446 25.94277591 15.57966903 28.24438477 17.13647461 C30.1584806 18.43091011 32.07738289 19.71825526 34 21 C33.67 22.32 33.34 23.64 33 25 C28.02340728 24.4630266 24.55116834 22.14601224 20.4375 19.5 C19.73874756 19.0551123 19.03999512 18.61022461 18.32006836 18.15185547 C0.73019923 6.82387542 0.73019923 6.82387542 -0.87890625 2.8046875 C-0.91886719 2.20914063 -0.95882813 1.61359375 -1 1 C-0.67 0.67 -0.34 0.34 0 0 Z " fill="#99C0FF" transform="translate(338,810)"/>
<path d="M0 0 C1.32 0.66 2.64 1.32 4 2 C3.4234559 5.40013186 2.39002339 6.92670485 -0.125 9.25 C-2.64391031 11.65673212 -4.9962052 14.09335299 -7.25 16.75 C-11.86999205 22.1206086 -16.9531974 27.03533342 -22 32 C-24.475 31.01 -24.475 31.01 -27 30 C-27 29.34 -27 28.68 -27 28 C-25.49609375 26.51953125 -25.49609375 26.51953125 -23.4375 24.8125 C-16.51612817 18.89897705 -10.70320102 12.57253834 -5.015625 5.453125 C-3.41908062 3.51004385 -1.82047747 1.7283014 0 0 Z " fill="#99C0FF" transform="translate(797,756)"/>
<path d="M0 0 C1.87231445 0.29223633 1.87231445 0.29223633 4 1 C5.56803535 3.55143037 6.89326378 6.00203223 8.1875 8.6875 C11.49490082 15.29600316 15.06732075 21.50114165 19.34448242 27.53198242 C22.05391391 31.50088793 22.05391391 31.50088793 21.7421875 34.38671875 C21.49726563 34.91910156 21.25234375 35.45148437 21 36 C19.26171875 35.875 19.26171875 35.875 17 35 C15.41916479 33.01715507 14.12014901 31.15250143 12.8125 29 C12.43174316 28.38785645 12.05098633 27.77571289 11.65869141 27.14501953 C8.59114433 22.13531996 5.69050283 17.02997331 2.875 11.875 C2.4725708 11.153125 2.0701416 10.43125 1.65551758 9.6875 C-1.09360565 4.51727047 -1.09360565 4.51727047 -0.59716797 1.77392578 C-0.40010254 1.18853027 -0.20303711 0.60313477 0 0 Z " fill="#99C0FF" transform="translate(237,691)"/>
<path d="M0 0 C0 1.32 0 2.64 0 4 C-4.26668976 5.12759231 -8.53510509 6.24833501 -12.80517578 7.36303711 C-14.2545499 7.74238942 -15.70345479 8.12353961 -17.15185547 8.5065918 C-19.24583079 9.06003048 -21.34146452 9.6067663 -23.4375 10.15234375 C-25.32275391 10.6472229 -25.32275391 10.6472229 -27.24609375 11.15209961 C-31.17929711 12.0404981 -34.99494021 12.56340191 -39 13 C-39.33 11.35 -39.66 9.7 -40 8 C-36.5432712 7.03581666 -33.08434213 6.07976067 -29.625 5.125 C-28.65949219 4.85558594 -27.69398438 4.58617187 -26.69921875 4.30859375 C-17.77265026 1.85228967 -9.30078148 -0.34447339 0 0 Z " fill="#99C0FF" transform="translate(481,205)"/>
<path d="M0 0 C2.0625 0.4375 2.0625 0.4375 4 1 C3.67989644 3.92012838 3.08004496 4.92444354 0.91015625 6.97265625 C-5.40492906 11.60718388 -11.86631686 15.95707599 -18.5 20.125 C-19.27722412 20.62265869 -20.05444824 21.12031738 -20.85522461 21.63305664 C-21.59393799 22.08672607 -22.33265137 22.54039551 -23.09375 23.0078125 C-23.75052734 23.41660645 -24.40730469 23.82540039 -25.08398438 24.24658203 C-27 25 -27 25 -29.18164062 24.81201172 C-30.08172852 24.41006592 -30.08172852 24.41006592 -31 24 C-31.33 23.01 -31.66 22.02 -32 21 C-30.77990234 20.34257813 -30.77990234 20.34257813 -29.53515625 19.671875 C-13.83717904 11.13187067 -13.83717904 11.13187067 0 0 Z " fill="#99C0FF" transform="translate(739,810)"/>
<path d="M0 0 C0 1.65 0 3.3 0 5 C-8.71500412 8.46403944 -17.43466087 11.90919919 -26.3125 14.9375 C-27.48425781 15.33839844 -28.65601563 15.73929688 -29.86328125 16.15234375 C-32.75671421 16.93425527 -35.02665062 17.18409105 -38 17 C-38.33 15.68 -38.66 14.36 -39 13 C-38.18845459 12.71278076 -37.37690918 12.42556152 -36.54077148 12.12963867 C-33.50040489 11.05236735 -30.4607817 9.97302992 -27.42163086 8.89233398 C-26.11169916 8.42699957 -24.80148301 7.96246501 -23.4909668 7.4987793 C-21.59607678 6.8281687 -19.70232585 6.15434225 -17.80859375 5.48046875 C-16.67220459 5.07723389 -15.53581543 4.67399902 -14.36499023 4.25854492 C-11.95282128 3.35636608 -9.66212713 2.40591272 -7.32446289 1.3449707 C-4 0 -4 0 0 0 Z " fill="#99C0FF" transform="translate(675,849)"/>
<path d="M0 0 C4.14912398 0.56123416 6.94297582 2.98005801 10.125 5.5 C10.69468506 5.9448877 11.26437012 6.38977539 11.85131836 6.84814453 C17.11027342 10.99913856 22.13412138 15.39399335 27 20 C27.75667969 20.69867188 28.51335938 21.39734375 29.29296875 22.1171875 C29.85628906 22.73851562 30.41960938 23.35984375 31 24 C30.75 26.25 30.75 26.25 30 28 C25.5938827 27.55728008 23.12825299 24.56677624 20.125 21.625 C13.446536 15.25498106 6.33681888 9.58786206 -1 4 C-0.67 2.68 -0.34 1.36 0 0 Z " fill="#99C0FF" transform="translate(742,267)"/>
<path d="M0 0 C1.32 0.33 2.64 0.66 4 1 C3.39374873 5.91737138 1.25655948 9.76876257 -1.0625 14.0625 C-1.46299561 14.80822266 -1.86349121 15.55394531 -2.27612305 16.32226562 C-11.99729269 34.16770605 -11.99729269 34.16770605 -16.10546875 35.875 C-18 36 -18 36 -20 35 C-18.40172706 31.62764409 -16.48944522 28.53039057 -14.5 25.375 C-9.33643575 17.10378024 -4.68253101 8.54945723 0 0 Z " fill="#99C0FF" transform="translate(840,691)"/>
<path d="M0 0 C0.59159912 0.21793213 1.18319824 0.43586426 1.79272461 0.66040039 C1.79272461 1.98040039 1.79272461 3.30040039 1.79272461 4.66040039 C-0.25256281 6.527179 -2.22422481 8.11167163 -4.45727539 9.72290039 C-10.5844056 14.30160462 -16.1234321 19.19411279 -21.58618164 24.54321289 C-24.29043595 26.7275733 -25.77098771 27.46068453 -29.20727539 27.66040039 C-29.86727539 27.33040039 -30.52727539 27.00040039 -31.20727539 26.66040039 C-31.20727539 24.66040039 -31.20727539 24.66040039 -29.94946289 23.35571289 C-29.02520508 22.5784082 -29.02520508 22.5784082 -28.08227539 21.78540039 C-27.35911133 21.17051758 -26.63594727 20.55563477 -25.89086914 19.92211914 C-25.0052832 19.17575195 -24.11969727 18.42938477 -23.20727539 17.66040039 C-21.46259849 16.16711486 -19.72098626 14.67029564 -17.97924805 13.17358398 C-15.64253673 11.16651254 -13.30514354 9.16046528 -10.95288086 7.17163086 C-9.7307455 6.1135864 -8.53349159 5.02642866 -7.35620117 3.91870117 C-6.75146973 3.36037598 -6.14673828 2.80205078 -5.52368164 2.22680664 C-4.98300049 1.71190674 -4.44231934 1.19700684 -3.88525391 0.66650391 C-2.20727539 -0.33959961 -2.20727539 -0.33959961 0 0 Z " fill="#99C0FF" transform="translate(336.207275390625,267.339599609375)"/>
<path d="M0 0 C1.32 0 2.64 0 4 0 C3.4305588 5.28177343 1.6354817 9.3117129 -0.6875 14 C-1.41216037 15.4977299 -2.13478545 16.9964461 -2.85546875 18.49609375 C-3.21560059 19.24487793 -3.57573242 19.99366211 -3.94677734 20.76513672 C-6.46257389 26.10347738 -8.72263067 31.55674226 -11 37 C-12.65 37 -14.3 37 -16 37 C-12.8785257 24.05888779 -6.76288958 11.41237617 0 0 Z " fill="#99C0FF" transform="translate(235,388)"/>
<path d="M0 0 C2.25390625 0.0234375 2.25390625 0.0234375 5 1 C6.58420954 3.57014341 7.76831463 5.87294045 8.9375 8.625 C9.27523437 9.38321045 9.61296875 10.1414209 9.9609375 10.92260742 C10.99735765 13.27239678 12.00227766 15.63355041 13 18 C13.31211426 18.72880371 13.62422852 19.45760742 13.94580078 20.20849609 C19 32.0654778 19 32.0654778 19 37 C17.35 37 15.7 37 14 37 C13.71801758 36.28457031 13.43603516 35.56914062 13.14550781 34.83203125 C11.85073091 31.55320227 10.55041132 28.27659818 9.25 25 C8.58484375 23.31197266 8.58484375 23.31197266 7.90625 21.58984375 C5.99039531 16.7720327 4.08694358 12.02911186 1.671875 7.4375 C0 4 0 4 0 0 Z " fill="#99C0FF" transform="translate(841,387)"/>
<path d="M0 0 C13.36319744 0.68161276 26.67534564 1.78641952 40 3 C40 4.65 40 6.3 40 8 C26.76616656 8.60975 12.83679225 7.40856708 0 4 C0 2.68 0 1.36 0 0 Z " fill="#99C0FF" transform="translate(481,872)"/>
<path d="M0 0 C8.55360245 3.64673676 14.32726264 13.56334337 19.625 20.875 C20.17027344 21.61242432 20.71554687 22.34984863 21.27734375 23.10961914 C22.02564453 24.16524048 22.02564453 24.16524048 22.7890625 25.2421875 C23.23975098 25.8697998 23.69043945 26.49741211 24.15478516 27.14404297 C25.2235123 29.49079737 24.85943177 30.62291825 24 33 C21.47179597 32.62430535 20.26085074 32.2757194 18.47949219 30.39282227 C18.00672852 29.70760498 17.53396484 29.0223877 17.046875 28.31640625 C16.51336426 27.5579541 15.97985352 26.79950195 15.43017578 26.01806641 C14.59848877 24.80256104 14.59848877 24.80256104 13.75 23.5625 C12.5987317 21.91370193 11.44509463 20.26655524 10.2890625 18.62109375 C9.45036621 17.42589111 9.45036621 17.42589111 8.59472656 16.20654297 C5.99567338 12.61036375 3.13615869 9.267159 0.1953125 5.9453125 C-1 4 -1 4 -0.6953125 1.7421875 C-0.46585938 1.16726563 -0.23640625 0.59234375 0 0 Z " fill="#99C0FF" transform="translate(799,321)"/>
<path d="M0 0 C7.2443376 -0.40540089 13.6234163 1.10816843 20.625 2.875 C21.73101563 3.14441406 22.83703125 3.41382813 23.9765625 3.69140625 C29.06515507 4.9452061 34.04023515 6.29780503 39 8 C39 9.32 39 10.64 39 12 C30.38189798 11.51330978 22.22279896 9.52959508 13.875 7.4375 C12.52359228 7.10418953 11.17203057 6.77150277 9.8203125 6.43945312 C6.54531352 5.6323998 3.2719987 4.81911651 0 4 C0 2.68 0 1.36 0 0 Z " fill="#99C0FF" transform="translate(598,205)"/>
<path d="M0 0 C1.32 0 2.64 0 4 0 C3.41295293 6.97297378 2.01233573 13.39503698 0.125 20.125 C-0.13152344 21.07503906 -0.38804687 22.02507813 -0.65234375 23.00390625 C-2.08908364 28.20938093 -3.73232318 33.09801598 -6 38 C-7.98 38 -9.96 38 -12 38 C-11.82476807 37.47937988 -11.64953613 36.95875977 -11.46899414 36.42236328 C-9.40293631 30.25730619 -7.40822234 24.07112058 -5.4375 17.875 C-5.13392578 16.92496094 -4.83035156 15.97492187 -4.51757812 14.99609375 C-2.93270411 10.0170342 -1.40139556 5.03386864 0 0 Z " fill="#99C0FF" transform="translate(867,618)"/>
<path d="M0 0 C0 1.32 0 2.64 0 4 C-13.1812092 6.40621385 -25.55225097 8.18706297 -39 8 C-39.33 6.35 -39.66 4.7 -40 3 C-35.58965421 2.56785354 -31.17885222 2.14080122 -26.76757812 1.71826172 C-25.27005019 1.57411982 -23.77265055 1.42863801 -22.27539062 1.28173828 C-20.11100907 1.06962889 -17.94619679 0.86250077 -15.78125 0.65625 C-13.8331543 0.46772461 -13.8331543 0.46772461 -11.84570312 0.27539062 C-7.87000298 -0.00930908 -3.98360433 -0.04650122 0 0 Z " fill="#99C0FF" transform="translate(599,872)"/>
<path d="M0 0 C0 1.32 0 2.64 0 4 C-0.64437012 4.30180176 -1.28874023 4.60360352 -1.95263672 4.91455078 C-4.92935821 6.31257056 -7.90216628 7.71873307 -10.875 9.125 C-11.88820313 9.599375 -12.90140625 10.07375 -13.9453125 10.5625 C-19.8466676 13.36186075 -25.44889639 16.36088366 -30.94580078 19.89404297 C-33 21 -33 21 -36 21 C-36.66 19.35 -37.32 17.7 -38 16 C-34.02189557 14.08112308 -30.04232532 12.16530485 -26.0625 10.25 C-24.38704102 9.44175781 -24.38704102 9.44175781 -22.67773438 8.6171875 C-19.45653525 7.0679891 -16.23009317 5.53055774 -13 4 C-12.11425293 3.57654297 -11.22850586 3.15308594 -10.31591797 2.71679688 C-9.52975098 2.35134766 -8.74358398 1.98589844 -7.93359375 1.609375 C-7.26255615 1.29452148 -6.59151855 0.97966797 -5.90014648 0.65527344 C-4 0 -4 0 0 0 Z " fill="#99C0FF" transform="translate(406,228)"/>
<path d="M0 0 C1.32 0 2.64 0 4 0 C4.19110352 0.67466309 4.38220703 1.34932617 4.57910156 2.04443359 C5.46392147 5.15620997 6.35690969 8.26558762 7.25 11.375 C7.55035156 12.43589844 7.85070312 13.49679687 8.16015625 14.58984375 C9.87032449 20.52085276 11.77213525 26.21166402 14.25683594 31.86572266 C15 34 15 34 15 38 C12.525 38.495 12.525 38.495 10 39 C8.72375314 35.05705474 7.46097102 31.11010681 6.2097168 27.15917969 C5.78357479 25.8198303 5.35397404 24.48157568 4.9206543 23.14453125 C2.43860936 15.47745141 0.28572857 8.10799659 0 0 Z " fill="#99C0FF" transform="translate(209,618)"/>
<path d="M0 0 C0.99 0 1.98 0 3 0 C3.02489563 4.5532187 3.04295187 9.10639693 3.05493164 13.65966797 C3.05993092 15.20557344 3.06673253 16.75147425 3.07543945 18.29736328 C3.08769956 20.53158728 3.09327249 22.76574826 3.09765625 25 C3.10281754 25.68054443 3.10797882 26.36108887 3.11329651 27.06225586 C3.11383862 31.79987721 2.66044355 36.31976335 2 41 C0.02 41 -1.96 41 -4 41 C-3.86722656 39.95585938 -3.73445312 38.91171875 -3.59765625 37.8359375 C-2.3880892 27.89276999 -1.66736833 18.01227095 -1.34204102 7.99951172 C-1.29454712 6.65203857 -1.29454712 6.65203857 -1.24609375 5.27734375 C-1.22216553 4.47546631 -1.1982373 3.67358887 -1.17358398 2.84741211 C-1 1 -1 1 0 0 Z " fill="#99C0FF" transform="translate(877,539)"/>
<path d="M0 0 C1.32 0 2.64 0 4 0 C3.39302355 7.40511264 2.28344598 14.67611712 1.09326172 22.00439453 C0.18454899 27.66048377 -0.53181231 33.28811023 -1 39 C-2.98 39 -4.96 39 -7 39 C-5.28470538 25.82341857 -3.10809308 12.92146312 0 0 Z " fill="#99C0FF" transform="translate(208,462)"/>
<path d="M0 0 C1.32 0 2.64 0 4 0 C4.86776004 3.94415402 5.7215989 7.89105866 6.56347656 11.84082031 C6.85082039 13.17982968 7.14174326 14.51807681 7.43652344 15.85546875 C9.15231779 23.6524118 10.50960329 30.99970024 10 39 C8.35 39 6.7 39 5 39 C4.91959473 38.35562988 4.83918945 37.71125977 4.75634766 37.04736328 C4.3829906 34.0727568 4.00402511 31.09888936 3.625 28.125 C3.49867188 27.11179687 3.37234375 26.09859375 3.2421875 25.0546875 C2.51063886 19.34860811 1.61951644 13.73675785 0.39257812 8.11523438 C-0.11346848 5.38862506 -0.14546876 2.76390649 0 0 Z " fill="#99C0FF" transform="translate(868,461)"/>
<path d="M0 0 C1.9375 1.1875 1.9375 1.1875 3 3 C3.70541917 7.0561602 3.32120577 8.54252512 0.9375 11.9375 C-2 14 -2 14 -5.625 14.0625 C-9 13 -9 13 -11 11.375 C-12.46981805 7.88418213 -11.98413921 5.60851044 -11 2 C-7.79952331 -1.93904824 -4.62362797 -1.17692348 0 0 Z " fill="#182E62" transform="translate(689,391)"/>
<path d="M0 0 C1.32 0 2.64 0 4 0 C4.02505615 0.6077124 4.0501123 1.2154248 4.07592773 1.84155273 C4.60458803 14.56895942 5.19795563 27.28674343 6 40 C4.35 40 2.7 40 1 40 C0.25331277 34.68792752 -0.11933785 29.5957861 -0.09765625 24.21875 C-0.0962413 23.51979614 -0.09482635 22.82084229 -0.09336853 22.10070801 C-0.0878367 19.90042571 -0.07529777 17.70025077 -0.0625 15.5 C-0.05747616 13.99479315 -0.05291482 12.48958468 -0.04882812 10.984375 C-0.03788977 7.32288265 -0.02067359 3.66145183 0 0 Z " fill="#99C0FF" transform="translate(200,540)"/>
<path d="M0 0 C12.87 0 25.74 0 39 0 C39.495 1.98 39.495 1.98 40 4 C26.8 4 13.6 4 0 4 C0 2.68 0 1.36 0 0 Z " fill="#99C0FF" transform="translate(520,200)"/>
<path d="M0 0 C0.33 0.99 0.66 1.98 1 3 C-0.11375 3.103125 -1.2275 3.20625 -2.375 3.3125 C-3.57125 3.539375 -4.7675 3.76625 -6 4 C-8.35014158 6.837578 -8.35014158 6.837578 -7.6875 10.125 C-7.29355679 12.88086422 -7.29355679 12.88086422 -6 14 C-2.54178598 14.25003964 -2.54178598 14.25003964 1 14 C3.76223278 11.23776722 3.57856291 8.79293383 4 5 C4.99 5.33 5.98 5.66 7 6 C7.35671933 9.83473284 7.29771416 11.55342875 5.125 14.8125 C2.40819426 17.60921179 1.60386898 17.94303123 -2.3125 18.3125 C-6.57536111 17.95124058 -8.01992054 16.98007946 -11 14 C-12.42662219 11.14675563 -12.31033868 9.16545451 -12 6 C-8.3923872 0.58858079 -6.35247048 -0.13809718 0 0 Z " fill="#1A72FF" transform="translate(450,592)"/>
<path d="M0 0 C0.33 0 0.66 0 1 0 C1 1.98 1 3.96 1 6 C0.34 6 -0.32 6 -1 6 C-1.33 6.99 -1.66 7.98 -2 9 C-9.92 9.495 -9.92 9.495 -18 10 C-18 9.01 -18 8.02 -18 7 C-11.93184478 5.77100654 -6.20104812 4.72439786 0 5 C0 3.35 0 1.7 0 0 Z " fill="#293E6E" transform="translate(386,577)"/>
<path d="M0 0 C0 0.33 0 0.66 0 1 C-0.80743652 1.06993164 -1.61487305 1.13986328 -2.44677734 1.21191406 C-6.09156375 1.53853229 -9.7329834 1.89387539 -13.375 2.25 C-14.64601563 2.35957031 -15.91703125 2.46914063 -17.2265625 2.58203125 C-19.04414063 2.76572266 -19.04414063 2.76572266 -20.8984375 2.953125 C-22.57945557 3.11022949 -22.57945557 3.11022949 -24.29443359 3.27050781 C-27.12188934 3.7010755 -27.12188934 3.7010755 -28.19384766 5.94042969 C-28.45987793 6.62008789 -28.7259082 7.29974609 -29 8 C-29.99 8.66 -30.98 9.32 -32 10 C-31.8125 7.6875 -31.8125 7.6875 -31 5 C-26.5724028 1.4238638 -21.52307951 1.00565194 -16.0625 0.25 C-15.18142578 0.11207031 -14.30035156 -0.02585937 -13.39257812 -0.16796875 C-8.67216483 -0.85393143 -4.70532856 -1.14726298 0 0 Z " fill="#6BA6FF" transform="translate(437,445)"/>
<path d="M0 0 C1.670625 0.061875 1.670625 0.061875 3.375 0.125 C2.375 2.125 2.375 2.125 -0.6875 3.25 C-2.1415625 3.683125 -2.1415625 3.683125 -3.625 4.125 C-3.625 6.105 -3.625 8.085 -3.625 10.125 C-1.62545254 10.16754356 0.37541636 10.16580783 2.375 10.125 C3.73118499 8.99965895 3.73118499 8.99965895 3.4375 6.0625 C3.416875 5.093125 3.39625 4.12375 3.375 3.125 C4.035 2.795 4.695 2.465 5.375 2.125 C6.69796047 8.49926409 6.69796047 8.49926409 5.375 11.0625 C2.2415055 12.72716895 -0.15116674 12.55922916 -3.625 12.125 C-5.625 10.5 -5.625 10.5 -6.625 8.125 C-6.30382282 2.77204698 -5.79014421 0.19966015 0 0 Z " fill="#DAEDFF" transform="translate(447.625,594.875)"/>
<path d="M0 0 C1.98 0.495 1.98 0.495 4 1 C4 1.66 4 2.32 4 3 C4.66 3 5.32 3 6 3 C5.34 4.32 4.68 5.64 4 7 C2.68 6.67 1.36 6.34 0 6 C0 4 0 2 0 0 Z " fill="#6FA9FF" transform="translate(446,599)"/>
<path d="M0 0 C0.66 0 1.32 0 2 0 C2 1.32 2 2.64 2 4 C0.58566794 4.2236337 -0.83167618 4.42826476 -2.25 4.625 C-3.03890625 4.74101563 -3.8278125 4.85703125 -4.640625 4.9765625 C-7.32152459 5.00319395 -8.72694089 4.36592084 -11 3 C-10.28972656 2.95101562 -9.57945312 2.90203125 -8.84765625 2.8515625 C-7.46900391 2.73941406 -7.46900391 2.73941406 -6.0625 2.625 C-5.14597656 2.55539062 -4.22945313 2.48578125 -3.28515625 2.4140625 C-2.15400391 2.20910156 -2.15400391 2.20910156 -1 2 C-0.67 1.34 -0.34 0.68 0 0 Z " fill="#D0D4DF" transform="translate(385,583)"/>
<path d="M0 0 C0.99 0.33 1.98 0.66 3 1 C2.34 2.32 1.68 3.64 1 5 C1.99 6.485 1.99 6.485 3 8 C1.68 8 0.36 8 -1 8 C-1.625 5.125 -1.625 5.125 -2 2 C-1.34 1.34 -0.68 0.68 0 0 Z " fill="#0A67FF" transform="translate(445,597)"/>
<path d="M0 0 C0.66 0.33 1.32 0.66 2 1 C-0.97 3.97 -3.94 6.94 -7 10 C-7 6.04435836 -5.59478606 4.89133304 -3 2 C-2.01 1.34 -1.02 0.68 0 0 Z " fill="#3F5480" transform="translate(339,423)"/>
<path d="M0 0 C0.99 0.495 0.99 0.495 2 1 C2 1.66 2 2.32 2 3 C5.3 3 8.6 3 12 3 C12 3.33 12 3.66 12 4 C8.37 4.33 4.74 4.66 1 5 C0.67 3.35 0.34 1.7 0 0 Z " fill="#E2E4EB" transform="translate(366,584)"/>
<path d="M0 0 C1.134375 0.020625 2.26875 0.04125 3.4375 0.0625 C3.1075 0.7225 2.7775 1.3825 2.4375 2.0625 C0.1234378 2.79325648 -2.21078869 3.46388258 -4.5625 4.0625 C-4.5625 -0.28271095 -4.43767807 0.077854 0 0 Z " fill="#BEDBFF" transform="translate(447.5625,594.9375)"/>
</svg>
