<?xml version="1.0" encoding="UTF-8"?>
<svg version="1.1" xmlns="http://www.w3.org/2000/svg" width="1080" height="1080">
<path d="M0 0 C3.84303347 1.57028336 4.72363551 4.47901834 6.27636719 8.09155273 C6.94747496 9.53787252 7.61937505 10.98382489 8.29199219 12.42944336 C9.32848668 14.71321567 10.35410763 17.00083509 11.36425781 19.29638672 C14.74368748 27.8376421 14.74368748 27.8376421 20.65576172 34.44140625 C23.03713627 34.99837146 25.15922754 35.05462063 27.60449219 35.06420898 C29.7618559 35.3851967 31.91543722 35.73223622 34.06542969 36.09936523 C36.36966112 36.44486858 38.67436056 36.78726351 40.97949219 37.12670898 C43.30016447 37.46933294 45.62049609 37.81427472 47.94042969 38.16186523 C48.95669434 38.31147705 49.97295898 38.46108887 51.02001953 38.61523438 C53.60449219 39.06420898 53.60449219 39.06420898 56.60449219 40.06420898 C57.47460938 41.89355469 57.47460938 41.89355469 57.60449219 44.06420898 C56.4609375 45.91259766 56.4609375 45.91259766 54.68261719 47.79467773 C54.03357422 48.48996582 53.38453125 49.18525391 52.71582031 49.90161133 C52.01908203 50.61526855 51.32234375 51.32892578 50.60449219 52.06420898 C49.93353516 52.75595215 49.26257813 53.44769531 48.57128906 54.16040039 C46.51611438 56.25041686 44.4397534 58.31673545 42.35449219 60.37670898 C41.64808594 61.07860352 40.94167969 61.78049805 40.21386719 62.50366211 C38.91132784 63.7975672 37.60775367 65.09043214 36.30273438 66.38183594 C35.74231445 66.93701904 35.18189453 67.49220215 34.60449219 68.06420898 C34.03553223 68.57024658 33.46657227 69.07628418 32.88037109 69.59765625 C31.2745972 71.11456748 31.2745972 71.11456748 31.64355469 74.04077148 C31.83691406 75.24475586 32.03027344 76.44874023 32.22949219 77.68920898 C32.3292334 78.34074951 32.42897461 78.99229004 32.53173828 79.66357422 C33.10535888 83.32615476 33.76330005 86.97379984 34.41699219 90.62280273 C34.55153809 91.37416504 34.68608398 92.12552734 34.82470703 92.8996582 C35.0886522 94.35183423 35.35948789 95.80277981 35.63818359 97.25219727 C36.38393596 101.24135017 36.83924894 105.00538831 36.60449219 109.06420898 C36.27449219 109.39420898 35.94449219 109.72420898 35.60449219 110.06420898 C30.4208099 109.6746028 26.74421656 108.38273157 22.22558594 105.86889648 C21.04539382 105.2293033 19.86505076 104.58998859 18.68457031 103.95092773 C16.85602381 102.94450125 15.03061851 101.93285814 13.20825195 100.9152832 C11.42968764 99.92737742 9.64111301 98.95990463 7.85058594 97.99389648 C6.79540771 97.40850098 5.74022949 96.82310547 4.65307617 96.2199707 C1.00166042 94.83566685 -0.67241646 94.97293721 -4.39550781 96.06420898 C-7.53973829 97.44721413 -7.53973829 97.44721413 -10.71191406 99.22436523 C-11.90003933 99.85917909 -13.08819117 100.49394324 -14.27636719 101.12866211 C-16.12327048 102.12875028 -17.96824245 103.13228919 -19.81225586 104.13769531 C-21.60763892 105.11272679 -23.40936883 106.07515706 -25.21191406 107.03686523 C-26.27869385 107.61702393 -27.34547363 108.19718262 -28.44458008 108.79492188 C-31.40856384 110.06982479 -33.21564538 110.43203555 -36.39550781 110.06420898 C-37.39550781 109.06420898 -37.39550781 109.06420898 -37.41503906 107.00170898 C-36.61761531 95.68731918 -34.63490704 84.55456635 -32.74682617 73.37988281 C-32.34550887 71.12500883 -32.34550887 71.12500883 -32.39550781 69.06420898 C-33.23239136 68.71193237 -33.23239136 68.71193237 -34.08618164 68.35253906 C-38.58649617 65.84189737 -41.99452727 61.83701281 -45.61450195 58.21582031 C-47.07841273 56.75629032 -48.55757112 55.31350965 -50.03808594 53.87084961 C-50.96427734 52.94852539 -51.89046875 52.02620117 -52.84472656 51.07592773 C-53.69381592 50.23505615 -54.54290527 49.39418457 -55.41772461 48.52783203 C-57.50316558 45.93010523 -58.07264311 44.33929297 -58.39550781 41.06420898 C-54.87730439 38.71874003 -51.85568056 38.39003129 -47.77050781 37.88061523 C-46.24443249 37.67318039 -44.71839185 37.46549029 -43.19238281 37.25756836 C-40.7899354 36.93955397 -38.3870571 36.62562356 -35.98339844 36.31689453 C-33.66084056 36.01563728 -31.34077208 35.69898826 -29.02050781 35.38061523 C-28.30169434 35.2930043 -27.58288086 35.20539337 -26.84228516 35.11512756 C-24.15831493 34.74133088 -21.90926502 34.40411727 -19.62426758 32.89233398 C-17.82408183 30.21405247 -16.48388774 27.41797992 -15.11035156 24.49780273 C-14.80859512 23.86310562 -14.50683868 23.22840851 -14.19593811 22.57447815 C-13.23555577 20.55303036 -12.28360562 18.52777431 -11.33300781 16.50170898 C-10.37810348 14.47244714 -9.42133458 12.4441513 -8.45936584 10.41822815 C-7.58826739 8.58295288 -6.72401841 6.74443125 -5.86010742 4.90576172 C-3.37824001 0.09055005 -3.37824001 0.09055005 0 0 Z " fill="#0057E5" transform="translate(550.3955078125,410.935791015625)"/>
<path d="M0 0 C4.1611907 0.34542126 7.19135402 1.8496815 10.79833984 3.79785156 C11.50249527 4.16520416 12.2066507 4.53255676 12.93214417 4.91104126 C15.21912196 6.10694565 17.49689123 7.31934287 19.77490234 8.53222656 C22.13816449 9.77472568 24.50347187 11.01326748 26.86894226 12.2515564 C28.44969916 13.07941058 30.02970716 13.90869633 31.60896301 14.7394104 C39.42485205 18.84405162 47.33288647 22.75221199 55.29003906 26.57617188 C56.18094238 27.0128418 57.0718457 27.44951172 57.98974609 27.89941406 C59.13237915 28.45024658 59.13237915 28.45024658 60.2980957 29.01220703 C62.84879083 30.55346804 64.50673757 31.96149098 66.39990234 34.28222656 C66.88764954 37.26213074 66.88764954 37.26213074 66.86987305 40.77905273 C66.87279861 42.09689255 66.87572418 43.41473236 66.8787384 44.77250671 C66.86162847 46.20674322 66.84392961 47.64097281 66.82568359 49.07519531 C66.82075914 50.54681456 66.81746062 52.01844007 66.8157196 53.49006653 C66.80808731 56.56934712 66.7875463 59.64816159 66.7565918 62.72729492 C66.71691294 66.68202183 66.69896591 70.63644628 66.68928242 74.5913496 C66.67933135 78.35683944 66.65943161 82.12225479 66.63818359 85.88769531 C66.63308997 86.97082032 66.63308997 86.97082032 66.62789345 88.07582664 C66.61636788 90.10845081 66.59684369 92.14102494 66.5769043 94.17358398 C66.56706009 95.33178146 66.55721588 96.48997894 66.54707336 97.68327332 C66.39990234 100.28222656 66.39990234 100.28222656 65.39990234 101.28222656 C60.40523293 100.87065736 56.5935988 99.69257078 52.12915039 97.46240234 C51.54612656 97.17446808 50.96310272 96.88653381 50.3624115 96.58987427 C48.45707135 95.64558601 46.55930782 94.68710329 44.66162109 93.72753906 C43.33152325 93.06290487 42.00109885 92.39892381 40.67036438 91.73556519 C37.8926443 90.3481297 35.1185464 88.95377404 32.34692383 87.55419922 C28.7942796 85.76078384 25.23379491 83.98362472 21.67056561 82.21135139 C18.9266886 80.84469407 16.18676204 79.47026993 13.44800758 78.09337997 C12.13619946 77.4348856 10.82325379 76.77865233 9.509161 76.12472916 C7.67663559 75.21118979 5.84960117 74.28749661 4.02368164 73.36083984 C2.98334274 72.83757111 1.94300385 72.31430237 0.87113953 71.775177 C-1.60009766 70.28222656 -1.60009766 70.28222656 -3.60009766 67.28222656 C-3.84733582 64.4225769 -3.84733582 64.4225769 -3.84301758 60.89892578 C-3.84609421 59.58101044 -3.84917084 58.26309509 -3.8523407 56.90524292 C-3.84544397 55.46579819 -3.83817708 54.02635519 -3.83056641 52.58691406 C-3.82937439 51.11386149 -3.82892149 49.64080816 -3.82917786 48.16775513 C-3.82761414 45.08265415 -3.81933156 41.9976694 -3.8059082 38.91259766 C-3.78888868 34.9500053 -3.78509476 30.98754032 -3.78585339 27.0249157 C-3.78558207 23.98469823 -3.78010763 20.94450884 -3.77285194 17.90430069 C-3.76966135 16.44259987 -3.76769696 14.98089586 -3.76695824 13.51919174 C-3.76480052 11.48169568 -3.75527187 9.44421138 -3.74536133 7.40673828 C-3.74154953 6.2455246 -3.73773773 5.08431091 -3.73381042 3.88790894 C-3.55395125 0.38296416 -3.48095661 0.37783905 0 0 Z " fill="#0061FF" transform="translate(492.60009765625,584.7177734375)"/>
<path d="M0 0 C1.81924423 1.81924423 1.16568924 4.66066861 1.19287109 7.10864258 C1.20893402 8.41702591 1.22499695 9.72540924 1.24154663 11.07344055 C1.25303306 12.51379754 1.26364178 13.95416177 1.2734375 15.39453125 C1.27876118 16.11677069 1.28408485 16.83901012 1.28956985 17.5831356 C1.31632018 21.40673131 1.33568795 25.23029418 1.35009766 29.05395508 C1.36674023 33.00545103 1.41150771 36.95611203 1.4624691 40.90729237 C1.49611694 43.94334375 1.50767233 46.97919654 1.51332474 50.0154171 C1.52004545 51.47191427 1.53528913 52.92839799 1.55921555 54.38471413 C1.59080431 56.42397211 1.58790683 58.46367597 1.58349609 60.50317383 C1.59158295 61.66375809 1.5996698 62.82434235 1.60800171 64.02009583 C1 67 1 67 -1.16072083 69.20455933 C-4.05751511 71.03637014 -6.95273229 72.67748662 -10.01196289 74.22387695 C-10.59148209 74.51867447 -11.17100128 74.81347198 -11.76808167 75.11720276 C-13.66648805 76.08054596 -15.56920998 77.03493929 -17.47265625 77.98828125 C-18.80123043 78.65739253 -20.12971518 79.32668141 -21.45811462 79.99613953 C-24.23403548 81.39305326 -27.01236914 82.78502977 -29.79223633 84.17407227 C-33.35497378 85.95528797 -36.90914441 87.75292612 -40.46144962 89.55483723 C-43.19826061 90.93990255 -45.94044159 92.31405445 -48.68426323 93.68517113 C-49.99752745 94.34357359 -51.30884704 95.00586977 -52.61815071 95.67211342 C-54.44575939 96.60059108 -56.28032219 97.51359516 -58.11743164 98.4230957 C-59.68032677 99.20774956 -59.68032677 99.20774956 -61.27479553 100.008255 C-64.13479275 101.04905321 -65.24138574 101.17770052 -68 100 C-69.81924423 98.18075577 -69.16568924 95.33933139 -69.19287109 92.89135742 C-69.20893402 91.58297409 -69.22499695 90.27459076 -69.24154663 88.92655945 C-69.25303306 87.48620246 -69.26364178 86.04583823 -69.2734375 84.60546875 C-69.27876118 83.88322931 -69.28408485 83.16098988 -69.28956985 82.4168644 C-69.31632018 78.59326869 -69.33568795 74.76970582 -69.35009766 70.94604492 C-69.36674023 66.99454897 -69.41150771 63.04388797 -69.4624691 59.09270763 C-69.49611694 56.05665625 -69.50767233 53.02080346 -69.51332474 49.9845829 C-69.52004545 48.52808573 -69.53528913 47.07160201 -69.55921555 45.61528587 C-69.59080431 43.57602789 -69.58790683 41.53632403 -69.58349609 39.49682617 C-69.59158295 38.33624191 -69.5996698 37.17565765 -69.60800171 35.97990417 C-69 33 -69 33 -66.83927917 30.79544067 C-63.94248489 28.96362986 -61.04726771 27.32251338 -57.98803711 25.77612305 C-57.40851791 25.48132553 -56.82899872 25.18652802 -56.23191833 24.88279724 C-54.33351195 23.91945404 -52.43079002 22.96506071 -50.52734375 22.01171875 C-49.19876957 21.34260747 -47.87028482 20.67331859 -46.54188538 20.00386047 C-43.76596452 18.60694674 -40.98763086 17.21497023 -38.20776367 15.82592773 C-34.64502622 14.04471203 -31.09085559 12.24707388 -27.53855038 10.44516277 C-24.80173939 9.06009745 -22.05955841 7.68594555 -19.31573677 6.31482887 C-18.00247255 5.65642641 -16.69115296 4.99413023 -15.38184929 4.32788658 C-13.55424061 3.39940892 -11.71967781 2.48640484 -9.88256836 1.5769043 C-8.84063828 1.05380173 -7.79870819 0.53069916 -6.72520447 -0.008255 C-3.86520725 -1.04905321 -2.75861426 -1.17770052 0 0 Z " fill="#0061FF" transform="translate(558,709)"/>
<path d="M0 0 C1.82856899 1.82856899 1.19454608 4.72548004 1.24047852 7.18457031 C1.25347488 7.8301741 1.26647125 8.47577789 1.27986145 9.14094543 C1.40670716 15.90199227 1.46334975 22.6643 1.51489258 29.42626953 C1.54163792 32.63562879 1.590357 35.84350268 1.65844727 39.05224609 C1.74041283 42.92448133 1.78307763 46.79530223 1.79795647 50.66835785 C1.81020496 52.1436822 1.83624123 53.61895976 1.87640572 55.09378815 C2.17065049 66.46950366 2.17065049 66.46950366 -0.38450623 69.81008911 C-2.51815107 71.20581721 -4.62438228 72.07319633 -7 73 C-8.99694488 74.03768595 -10.98619914 75.09024458 -12.96948242 76.15380859 C-15.26234311 77.32353542 -17.55781074 78.48816225 -19.85546875 79.6484375 C-20.45971491 79.95401203 -21.06396107 80.25958656 -21.68651772 80.57442093 C-24.87365043 82.18576975 -28.06313024 83.79235608 -31.25463867 85.39501953 C-34.54257249 87.04731951 -37.82176766 88.71625543 -41.09936047 90.38895226 C-43.63317694 91.67822626 -46.17313484 92.95501229 -48.71492958 94.22847366 C-50.51469216 95.13420726 -52.30773289 96.05325805 -54.10063171 96.97250366 C-55.19559464 97.51702179 -56.29055756 98.06153992 -57.41870117 98.62255859 C-58.37830246 99.10711517 -59.33790375 99.59167175 -60.32658386 100.09091187 C-63.37783245 101.12848093 -64.96192951 100.97591012 -68 100 C-69.79860701 98.20139299 -69.12768063 95.48408097 -69.12939453 93.05908203 C-69.13254669 91.78751251 -69.13569885 90.51594299 -69.13894653 89.20584106 C-69.13715637 87.80649786 -69.13510532 86.40715497 -69.1328125 85.0078125 C-69.13348572 83.58153263 -69.13445589 82.15525287 -69.13571167 80.72897339 C-69.13718876 77.73450634 -69.13503438 74.74006906 -69.13037109 71.74560547 C-69.12468409 67.90647056 -69.12794619 64.06740571 -69.13394356 60.22827339 C-69.13755767 57.28062411 -69.13640648 54.33299142 -69.13381577 51.38534164 C-69.13314832 49.969949 -69.13396858 48.55455486 -69.13629532 47.13916397 C-69.13883457 45.15934528 -69.13427818 43.17952132 -69.12939453 41.19970703 C-69.12859894 40.07243195 -69.12780334 38.94515686 -69.12698364 37.78372192 C-69 35 -69 35 -68 32 C-66.40991211 30.87524414 -66.40991211 30.87524414 -64.27734375 29.78515625 C-63.4476709 29.35557617 -62.61799805 28.92599609 -61.76318359 28.48339844 C-60.83070801 28.01450195 -59.89823242 27.54560547 -58.9375 27.0625 C-57.96119629 26.56395508 -56.98489258 26.06541016 -55.97900391 25.55175781 C-53.69297421 24.38834729 -51.40494885 23.22981382 -49.11376953 22.07666016 C-45.21410512 20.11218025 -41.32645926 18.12456095 -37.438797 16.13645935 C-33.8282914 14.29314125 -30.21265007 12.46006591 -26.59573364 10.62936401 C-24.78354735 9.7106175 -22.97289091 8.7888471 -21.16378784 7.86404419 C-18.59061311 6.55052979 -16.01111979 5.25031943 -13.4296875 3.953125 C-12.65342514 3.55369186 -11.87716278 3.15425873 -11.07737732 2.74272156 C-4.26780002 -0.649025 -4.26780002 -0.649025 0 0 Z " fill="#0F265C" transform="translate(638,669)"/>
<path d="M0 0 C1.82856899 1.82856899 1.19454608 4.72548004 1.24047852 7.18457031 C1.25347488 7.8301741 1.26647125 8.47577789 1.27986145 9.14094543 C1.40670716 15.90199227 1.46334975 22.6643 1.51489258 29.42626953 C1.54163792 32.63562879 1.590357 35.84350268 1.65844727 39.05224609 C1.74041283 42.92448133 1.78307763 46.79530223 1.79795647 50.66835785 C1.81020496 52.1436822 1.83624123 53.61895976 1.87640572 55.09378815 C2.17102164 66.48385271 2.17102164 66.48385271 -0.41279602 69.82917786 C-2.54147684 71.22217071 -4.62558889 72.08728617 -7 73 C-8.8842985 73.96198503 -10.76188122 74.93719229 -12.6340332 75.92260742 C-14.77095742 76.9875673 -16.9099795 78.04832519 -19.05078125 79.10546875 C-20.75442085 79.95338737 -20.75442085 79.95338737 -22.49247742 80.81843567 C-25.48681946 82.30824821 -28.48273902 83.79477794 -31.47967529 85.27935791 C-35.71693548 87.37886819 -39.95204193 89.48270128 -44.18608093 91.58869934 C-46.43531772 92.70719406 -48.68562039 93.82354843 -50.93708801 94.93754578 C-51.95211899 95.44179581 -52.96714996 95.94604584 -54.01293945 96.46557617 C-54.90592239 96.90794113 -55.79890533 97.35030609 -56.71894836 97.80607605 C-59.17537094 99.04064295 -59.17537094 99.04064295 -62 101 C-65.1875 101.125 -65.1875 101.125 -68 101 C-69.36945296 98.26109407 -69.15758729 96.0430759 -69.19287109 92.97729492 C-69.21696548 91.07973701 -69.21696548 91.07973701 -69.24154663 89.1438446 C-69.25303357 87.75605948 -69.2636422 86.36826685 -69.2734375 84.98046875 C-69.27876118 84.28245966 -69.28408485 83.58445057 -69.28956985 82.86528969 C-69.31629565 79.17021406 -69.33567168 75.47517214 -69.35009766 71.7800293 C-69.36343575 68.72340966 -69.39128467 65.66745785 -69.43212891 62.61108398 C-69.48146385 58.91934518 -69.50621946 55.22821199 -69.51332474 51.53615761 C-69.52003463 50.13072411 -69.5352503 48.72530399 -69.55921555 47.32005882 C-69.5908851 45.35057342 -69.58790083 43.38062376 -69.58349609 41.41088867 C-69.59158295 40.29107101 -69.5996698 39.17125336 -69.60800171 38.01750183 C-68.79694612 33.99224714 -67.13147612 32.57957273 -64 30 C-61.78456116 28.57266235 -61.78456116 28.57266235 -59.52368164 27.43212891 C-58.66831314 26.99462311 -57.81294464 26.55711731 -56.93165588 26.10635376 C-56.017061 25.65102264 -55.10246613 25.19569153 -54.16015625 24.7265625 C-53.2016124 24.23972992 -52.24306854 23.75289734 -51.25547791 23.25131226 C-48.19569783 21.70002184 -45.1292907 20.16237632 -42.0625 18.625 C-40.0353582 17.59984589 -38.00866087 16.57381237 -35.98242188 15.546875 C-32.08427846 13.5728669 -28.18129417 11.60899993 -24.27392578 9.65332031 C-21.03929987 8.03278078 -17.81782324 6.3921464 -14.61279297 4.71386719 C-13.96950546 4.38059418 -13.32621796 4.04732117 -12.66343689 3.70394897 C-11.0188207 2.85013131 -9.37914888 1.98680738 -7.73999023 1.12255859 C-4.90044005 -0.04078915 -3.03402383 -0.32590537 0 0 Z " fill="#0061FF" transform="translate(638,585)"/>
<path d="M0 0 C1.08286285 0.53563065 2.16572571 1.07126129 3.28140259 1.62312317 C3.88553986 1.91745239 4.48967712 2.21178162 5.11212158 2.51502991 C7.08944342 3.4833341 9.05585659 4.47170066 11.02212524 5.4622345 C12.39943181 6.14598638 13.77709269 6.829025 15.15509033 7.51138306 C18.03267933 8.94053205 20.90478957 10.38003161 23.77359009 11.82673645 C27.45175913 13.68020396 31.14367854 15.50419536 34.84035301 17.32041454 C37.68456707 18.72238739 40.5202069 20.14103211 43.35359573 21.56473732 C44.7120306 22.24444163 46.07326168 22.918587 47.4372673 23.58704185 C49.33976004 24.52216135 51.22933964 25.47946483 53.11734009 26.44343567 C54.19542938 26.98304428 55.27351868 27.52265289 56.38427734 28.07861328 C58.81118774 29.85676575 58.81118774 29.85676575 59.66705322 32.57009888 C59.73839981 33.70199898 59.73839981 33.70199898 59.81118774 34.85676575 C48.6133495 40.79877379 37.37429247 46.66122427 26.1126709 52.48130798 C24.67948275 53.22240847 23.246791 53.96446983 21.81463623 54.70756531 C17.16176792 57.12084149 12.49430237 59.50275095 7.81118774 61.85676575 C6.87816833 62.33061707 6.87816833 62.33061707 5.92630005 62.81404114 C4.1638397 63.7030522 2.39005726 64.56950914 0.61587524 65.43489075 C-0.88870239 66.17594055 -0.88870239 66.17594055 -2.42367554 66.93196106 C-6.18595619 68.19026223 -8.71916189 67.46372293 -12.33937073 65.96859741 C-13.05563126 65.61015244 -13.77189178 65.25170746 -14.50985718 64.88240051 C-15.33229416 64.47429642 -16.15473114 64.06619232 -17.00209045 63.64572144 C-17.88226334 63.20103012 -18.76243622 62.75633881 -19.66928101 62.298172 C-20.59614212 61.83499069 -21.52300323 61.37180939 -22.47795105 60.89459229 C-24.44543285 59.90968127 -26.41143809 58.92181594 -28.37606812 57.93122864 C-31.31714189 56.44908446 -34.26323128 54.97734377 -37.21029663 53.50715637 C-49.04101624 47.58225777 -60.68393414 41.39169418 -72.18881226 34.85676575 C-72.14535522 32.61140442 -72.14535522 32.61140442 -71.18881226 29.85676575 C-68.73792547 28.23583224 -66.52372845 27.01163778 -63.88412476 25.782547 C-62.76354675 25.23385956 -62.76354675 25.23385956 -61.62033081 24.67408752 C-59.19245641 23.4893004 -56.75347418 22.32955638 -54.31381226 21.16926575 C-52.65445814 20.36392572 -50.99609012 19.55655073 -49.3387146 18.74714661 C-46.88053077 17.54697343 -44.42183819 16.34805268 -41.9597168 15.15597534 C-35.84675846 12.19558303 -29.8040271 9.12157793 -23.81381226 5.91926575 C-23.0985437 5.53746155 -22.38327515 5.15565735 -21.64633179 4.76228333 C-20.99261597 4.41318909 -20.33890015 4.06409485 -19.66537476 3.704422 C-18.51810913 3.09469543 -17.37084351 2.48496887 -16.18881226 1.85676575 C-15.18592163 1.27797668 -14.18303101 0.69918762 -13.14974976 0.1028595 C-8.5300904 -1.84129793 -4.70576918 -1.68708475 0 0 Z " fill="#0061FF" transform="translate(490.1888122558594,665.1432342529297)"/>
<path d="M0 0 C0.68030273 0.35006104 1.36060547 0.70012207 2.06152344 1.06079102 C2.84317871 1.45709717 3.62483398 1.85340332 4.43017578 2.26171875 C5.25211426 2.69170166 6.07405273 3.12168457 6.92089844 3.56469727 C8.2330835 4.23577515 8.2330835 4.23577515 9.57177734 4.92041016 C16.19077292 8.31795498 22.76915802 11.79508148 29.34106445 15.28271484 C39.0275755 20.40825374 48.85138552 25.26279169 58.67089844 30.12719727 C58.67089844 31.77719727 58.67089844 33.42719727 58.67089844 35.12719727 C49.76482719 39.77281874 40.84229957 44.38571433 31.90802002 48.97680664 C29.62352126 50.15155994 27.34032707 51.32882477 25.05712891 52.50610352 C21.20637016 54.48943046 17.34849966 56.45832312 13.48577881 58.41824341 C11.98918284 59.18000561 10.49473069 59.94599501 9.00250244 60.71627808 C6.89892585 61.80100736 4.78805863 62.87006596 2.67480469 63.93579102 C2.05403549 64.2600708 1.4332663 64.58435059 0.79368591 64.91845703 C-3.09170066 66.85211128 -6.00658583 67.63889125 -10.32910156 67.12719727 C-12.91186523 66.18432617 -12.91186523 66.18432617 -15.49707031 64.85375977 C-16.46298096 64.36375488 -17.4288916 63.87375 -18.42407227 63.36889648 C-19.44460693 62.83538574 -20.4651416 62.301875 -21.51660156 61.75219727 C-22.58160889 61.20708496 -23.64661621 60.66197266 -24.74389648 60.1003418 C-27.94621351 58.45619997 -31.13891144 56.79472757 -34.32910156 55.12719727 C-35.20985352 54.66893555 -36.09060547 54.21067383 -36.99804688 53.73852539 C-40.90370357 51.70442595 -44.7995058 49.65347127 -48.68457031 47.58032227 C-51.99872265 45.81600466 -55.33678639 44.10819497 -58.69238281 42.42407227 C-59.57240967 41.97692871 -60.45243652 41.52978516 -61.35913086 41.0690918 C-63.05169328 40.210151 -64.74959935 39.36163637 -66.45336914 38.52514648 C-67.20900146 38.13858887 -67.96463379 37.75203125 -68.74316406 37.35375977 C-69.41299316 37.01940918 -70.08282227 36.68505859 -70.77294922 36.34057617 C-72.77528777 34.77929242 -72.82129509 33.55333244 -73.32910156 31.12719727 C-66.62940573 26.76429566 -59.66946762 23.0964519 -52.54394531 19.47875977 C-51.94219545 19.17318523 -51.34044559 18.8676107 -50.72046089 18.55277634 C-47.54419256 16.94103676 -44.3652743 15.33465954 -41.18432617 13.73217773 C-37.91304983 12.08260599 -34.6526114 10.41266983 -31.39400387 8.73824501 C-28.87001036 7.4463205 -26.33814593 6.1704532 -23.80392647 4.8987236 C-22.01503416 3.99571496 -20.23493453 3.07535485 -18.45506287 2.1546936 C-11.23057 -1.43849667 -7.62067814 -2.85575727 0 0 Z " fill="#0061FF" transform="translate(571.3291015625,541.872802734375)"/>
<path d="M0 0 C5.37671687 0.40852127 9.51863235 2.49083226 14.23046875 4.90234375 C15.01497406 5.29603653 15.79947937 5.68972931 16.60775757 6.09535217 C19.13844647 7.36810516 21.66305524 8.65241295 24.1875 9.9375 C25.91698481 10.81104502 27.64672147 11.68409158 29.37670898 12.55664062 C52.32313701 24.15104554 52.32313701 24.15104554 63 30 C63.88153244 30.39661331 64.76306488 30.79322662 65.67131042 31.20185852 C68 33 68 33 68.60127258 35.94230652 C68.59016953 37.14365738 68.57906647 38.34500824 68.56762695 39.58276367 C68.56835709 40.24644455 68.56908722 40.91012543 68.56983948 41.59391785 C68.56635781 43.78610179 68.52747641 45.9761565 68.48828125 48.16796875 C68.47895501 49.68824604 68.471838 51.20853837 68.46684265 52.72883606 C68.44775745 56.72905005 68.39864509 60.72835535 68.34332275 64.72821045 C68.29216216 68.81021837 68.26933553 72.89237322 68.24414062 76.97460938 C68.19052646 84.9834898 68.10519687 92.99163185 68 101 C63.92134929 101.94492957 62.12105216 101.99330721 58.3671875 100.04296875 C57.48869141 99.59501953 56.61019531 99.14707031 55.70507812 98.68554688 C54.77115234 98.19119141 53.83722656 97.69683594 52.875 97.1875 C51.89724609 96.68412109 50.91949219 96.18074219 49.91210938 95.66210938 C46.93311921 94.12338277 43.96524807 92.56501995 41 91 C40.16500977 90.56123535 39.33001953 90.1224707 38.46972656 89.67041016 C35.38550506 88.04944508 32.30218759 86.42702361 29.2265625 84.78979492 C24.83609036 82.4596742 20.41772943 80.2009544 15.9609375 78 C14.44209961 77.24976563 14.44209961 77.24976563 12.89257812 76.484375 C10.91216815 75.51019274 8.92916513 74.54126064 6.94335938 73.578125 C6.05197266 73.13984375 5.16058594 72.7015625 4.2421875 72.25 C3.04891846 71.66992188 3.04891846 71.66992188 1.83154297 71.078125 C0 70 0 70 -1 68 C-1.09687135 65.88125068 -1.12796789 63.75938995 -1.12939453 61.63842773 C-1.13114685 60.98625275 -1.13289917 60.33407776 -1.13470459 59.66213989 C-1.13911237 57.50259759 -1.13618924 55.34313691 -1.1328125 53.18359375 C-1.13348577 51.68669112 -1.13445598 50.1897886 -1.13571167 48.69288635 C-1.13718712 45.55476847 -1.13503868 42.41667903 -1.13037109 39.27856445 C-1.12466897 35.2475709 -1.12795682 31.21664385 -1.13394356 27.18565273 C-1.1375491 24.09482823 -1.1364107 21.00401962 -1.13381577 17.91319466 C-1.13314673 16.42637181 -1.1339741 14.93954755 -1.13629532 13.45272636 C-1.13882227 11.37917099 -1.13498092 9.30572492 -1.12939453 7.23217773 C-1.12859894 6.05018295 -1.12780334 4.86818817 -1.12698364 3.65037537 C-1 1 -1 1 0 0 Z " fill="#0061FF" transform="translate(410,708)"/>
<path d="M0 0 C3.30717979 1.24216026 4.00424255 2.80832931 5.44207764 5.94261169 C5.88598846 6.97540001 5.88598846 6.97540001 6.33886719 8.02905273 C7.00997496 9.47537252 7.68187505 10.92132489 8.35449219 12.36694336 C9.39098668 14.65071567 10.41660763 16.93833509 11.42675781 19.23388672 C14.80618748 27.7751421 14.80618748 27.7751421 20.71826172 34.37890625 C23.09963627 34.93587146 25.22172754 34.99212063 27.66699219 35.00170898 C29.8243559 35.3226967 31.97793722 35.66973622 34.12792969 36.03686523 C36.43216112 36.38236858 38.73686056 36.72476351 41.04199219 37.06420898 C43.36266447 37.40683294 45.68299609 37.75177472 48.00292969 38.09936523 C49.01919434 38.24897705 50.03545898 38.39858887 51.08251953 38.55273438 C53.66699219 39.00170898 53.66699219 39.00170898 56.66699219 40.00170898 C57.53710938 41.83105469 57.53710938 41.83105469 57.66699219 44.00170898 C56.5234375 45.85009766 56.5234375 45.85009766 54.74511719 47.73217773 C54.09607422 48.42746582 53.44703125 49.12275391 52.77832031 49.83911133 C52.08158203 50.55276855 51.38484375 51.26642578 50.66699219 52.00170898 C49.99603516 52.69345215 49.32507813 53.38519531 48.63378906 54.09790039 C46.57861438 56.18791686 44.5022534 58.25423545 42.41699219 60.31420898 C41.71058594 61.01610352 41.00417969 61.71799805 40.27636719 62.44116211 C38.97382784 63.7350672 37.67025367 65.02793214 36.36523438 66.31933594 C34.79442695 67.87546503 33.2291318 69.43688425 31.66699219 71.00170898 C24.78752187 68.82144608 18.21643321 66.19916864 11.60449219 63.31420898 C10.64349609 62.89848633 9.6825 62.48276367 8.69238281 62.05444336 C6.34911733 61.04019412 4.00738332 60.02256897 1.66699219 59.00170898 C1.66699219 58.01170898 1.66699219 57.02170898 1.66699219 56.00170898 C0.18199219 56.49670898 0.18199219 56.49670898 -1.33300781 57.00170898 C-15.15077547 41.25683427 -15.15077547 41.25683427 -20.33300781 34.00170898 C-16.11892843 25.47020768 -11.83992359 16.97842918 -7.39550781 8.56420898 C-7.0062915 7.82501221 -6.6170752 7.08581543 -6.21606445 6.32421875 C-2.86063092 0.00209548 -2.86063092 0.00209548 0 0 Z " fill="#0061FE" transform="translate(550.3330078125,410.998291015625)"/>
<path d="M0 0 C0 11.55 0 23.1 0 35 C-7.5178125 38.96 -7.5178125 38.96 -15.1875 43 C-16.76039795 43.8353125 -18.3332959 44.670625 -19.95385742 45.53125 C-21.21230438 46.18831173 -22.47114877 46.84461305 -23.73046875 47.5 C-24.37423462 47.84546875 -25.01800049 48.1909375 -25.68127441 48.546875 C-29.24465162 50.38780484 -31.96510414 51.53829763 -36 51 C-37 50 -37 50 -37.01953125 47.9375 C-36.21953864 36.58666151 -34.23543443 25.4145693 -32.35131836 14.20214844 C-31.97374298 12.20708063 -31.97374298 12.20708063 -32 11 C-31.46415283 10.83201904 -30.92830566 10.66403809 -30.3762207 10.4909668 C-23.60908204 8.31020909 -17.16323117 5.57093726 -10.66601562 2.69726562 C-9.46041992 2.17616211 -9.46041992 2.17616211 -8.23046875 1.64453125 C-7.51270264 1.32846924 -6.79493652 1.01240723 -6.05541992 0.68676758 C-4 0 -4 0 0 0 Z " fill="#0060FE" transform="translate(550,470)"/>
<path d="M0 0 C3.69802134 0.40985627 4.414132 1.01392638 6.7265625 3.84375 C7.40976562 4.67390625 8.09296875 5.5040625 8.796875 6.359375 C12.48321383 11.13287139 16.12064617 15.93898123 19.7109375 20.78515625 C23.38066071 25.73408344 27.11301115 30.6342104 30.8515625 35.53125 C31.85727295 36.84947754 31.85727295 36.84947754 32.88330078 38.19433594 C34.25894849 39.99735981 35.63476379 41.80025583 37.01074219 43.60302734 C39.11821926 46.36558428 41.2235402 49.12977041 43.328125 51.89453125 C44.0180957 52.80041992 44.70806641 53.70630859 45.41894531 54.63964844 C46.77680404 56.42413387 48.13296109 58.2099156 49.48730469 59.99707031 C52.38757676 63.81810978 55.30057622 67.61852126 58.328125 71.33984375 C59.040896 72.22639648 59.040896 72.22639648 59.76806641 73.13085938 C60.99313443 74.64705488 62.23410763 76.15036294 63.4765625 77.65234375 C65.4006284 80.8390779 65.53023036 82.6819968 65.1015625 86.34375 C63.9140625 88.21875 63.9140625 88.21875 62.1015625 89.34375 C57.72794898 89.80932821 57.72794898 89.80932821 55.50390625 88.15625 C55.02050781 87.558125 54.53710938 86.96 54.0390625 86.34375 C53.44609375 85.61542969 52.853125 84.88710938 52.2421875 84.13671875 C48.5001241 79.25428201 44.79682372 74.34463834 41.12890625 69.40625 C38.18173255 65.44099531 35.1791768 61.522829 32.15942383 57.61254883 C27.55998567 51.65111067 23.00010552 45.65966314 18.44018555 39.66796875 C14.81599057 34.90584069 11.18766181 30.14698116 7.55078125 25.39453125 C6.81617676 24.43353516 6.08157227 23.47253906 5.32470703 22.48242188 C3.90641185 20.62725972 2.48685602 18.77306054 1.06591797 16.91992188 C0.42928223 16.08654297 -0.20735352 15.25316406 -0.86328125 14.39453125 C-1.70814087 13.29105347 -1.70814087 13.29105347 -2.57006836 12.1652832 C-5.02873007 8.79383034 -5.15818113 6.49964815 -4.8984375 2.34375 C-2.8984375 0.34375 -2.8984375 0.34375 0 0 Z " fill="#99C0FF" transform="translate(427.8984375,311.65625)"/>
<path d="M0 0 C2.9375 0.8125 2.9375 0.8125 4.9375 3.8125 C5.19197559 5.76623535 5.19197559 5.76623535 5.19819641 8.02539062 C5.20528122 8.88342285 5.21236603 9.74145508 5.21966553 10.62548828 C5.21718811 11.56376465 5.21471069 12.50204102 5.2121582 13.46875 C5.21726913 14.4592334 5.22238007 15.4497168 5.22764587 16.47021484 C5.24156971 19.75103767 5.24058316 23.03165111 5.23828125 26.3125 C5.2421663 28.58789143 5.24650057 30.86328212 5.25126648 33.13867188 C5.25873445 37.91018016 5.25843296 42.68161445 5.25317383 47.453125 C5.2473748 53.57689955 5.26431807 59.70037209 5.2875185 65.82409668 C5.30222707 70.5234556 5.30313153 75.22274128 5.30000877 79.92211914 C5.30052331 82.18042601 5.30578579 84.43873685 5.31582069 86.69702148 C5.32811359 89.85029933 5.32143658 93.00298217 5.30981445 96.15625 C5.31745819 97.09452637 5.32510193 98.03280273 5.33297729 98.99951172 C5.32596298 99.85754395 5.31894867 100.71557617 5.3117218 101.59960938 C5.31188954 102.34513062 5.31205729 103.09065186 5.31223011 103.85876465 C4.8270807 106.38819459 3.97657304 107.27682313 1.9375 108.8125 C-1.125 109.125 -1.125 109.125 -4.0625 108.8125 C-6.46651352 106.40848648 -6.31445219 105.87849204 -6.32319641 102.59924316 C-6.33028122 101.71589798 -6.33736603 100.8325528 -6.34466553 99.92243958 C-6.3409494 98.46519722 -6.3409494 98.46519722 -6.3371582 96.97851562 C-6.3448246 95.44670906 -6.3448246 95.44670906 -6.35264587 93.88395691 C-6.36658957 90.49549563 -6.36558165 87.10723662 -6.36328125 83.71875 C-6.36716526 81.37227299 -6.37149931 79.02579668 -6.37626648 76.67932129 C-6.38373877 71.75640587 -6.38342989 66.83356216 -6.37817383 61.91064453 C-6.37237475 55.58832884 -6.38931612 49.26630568 -6.4125185 42.94403839 C-6.42721772 38.09717073 -6.4281328 33.25037416 -6.42500877 28.40348816 C-6.4255238 26.0717867 -6.43079534 23.74008145 -6.44082069 21.40840149 C-6.45309538 18.15423308 -6.44644762 14.90064286 -6.43481445 11.64648438 C-6.44245819 10.67498947 -6.45010193 9.70349457 -6.45797729 8.70256042 C-6.45096298 7.81921524 -6.44394867 6.93587006 -6.4367218 6.02575684 C-6.43688954 5.25589195 -6.43705729 4.48602707 -6.43723011 3.69283295 C-6.31356917 3.07232307 -6.18990824 2.4518132 -6.0625 1.8125 C-3.0625 -0.1875 -3.0625 -0.1875 0 0 Z " fill="#0061FF" transform="translate(545.0625,257.1875)"/>
<path d="M0 0 C3.625 0.375 3.625 0.375 7 1 C7.84082522 3.6906407 8.27765779 5.24961625 8 8 C6.09766732 11.06522044 3.5392762 13.45610694 1 16 C-0.42436875 17.57640811 -1.84071014 19.16009718 -3.25 20.75 C-7.1584169 25.08527472 -11.10479525 29.38463746 -15.0559082 33.6809082 C-17.5534312 36.40249494 -20.02055173 39.14418996 -22.4375 41.9375 C-26.03455804 46.08795159 -29.76263269 50.11463677 -33.51611328 54.12353516 C-36.59215318 57.41991345 -39.4717825 60.80857997 -42.3125 64.3125 C-45.05308482 67.43070194 -45.6084577 67.92421762 -49.875 68.75 C-53 68 -53 68 -55 65 C-55.53515625 62.76953125 -55.53515625 62.76953125 -55 60 C-53.06720205 57.31377818 -50.77011093 55.02715278 -48.4375 52.6875 C-47.13591502 51.34061999 -45.83512337 49.99297283 -44.53515625 48.64453125 C-43.91398926 48.00725098 -43.29282227 47.3699707 -42.65283203 46.71337891 C-40.82705234 44.82071688 -39.08315806 42.87427272 -37.375 40.875 C-33.86451482 36.79716368 -30.20150074 32.86574736 -26.54467773 28.91967773 C-22.76011141 24.83267689 -19.02304646 20.70599413 -15.3046875 16.55859375 C-12.57230286 13.52518368 -9.82039434 10.51020946 -7.0625 7.5 C-6.5893335 6.98300537 -6.11616699 6.46601074 -5.62866211 5.93334961 C-3.78293243 3.92125942 -1.93096623 1.93096623 0 0 Z " fill="#99C0FF" transform="translate(642,335)"/>
<path d="M0 0 C3.97842229 0.86668907 7.43801545 2.22269371 11.09033203 3.96191406 C11.77949203 4.28054413 12.46865204 4.59917419 13.17869568 4.92745972 C15.4216921 5.96659084 17.65846934 7.01836374 19.89501953 8.07128906 C23.03015649 9.5356322 26.1675197 10.9951654 29.30517578 12.45410156 C30.09474167 12.82232025 30.88430756 13.19053894 31.69779968 13.56991577 C36.9129112 15.99209331 42.16335338 18.31070268 47.45361328 20.56347656 C48.79927707 21.14229126 50.14482057 21.72138571 51.49023438 22.30078125 C53.39631805 23.12124551 55.30385525 23.93447529 57.22247314 24.72521973 C58.97679639 25.44907426 60.71947952 26.20094907 62.46142578 26.95410156 C63.93397827 27.57115967 63.93397827 27.57115967 65.4362793 28.20068359 C68.53174841 30.35025196 69.01603211 32.19058172 69.77001953 35.82128906 C68.95751953 38.25878906 68.95751953 38.25878906 66.77001953 39.82128906 C58.64098313 39.71432806 52.54091569 36.73346586 45.33251953 33.19628906 C42.86922951 32.01708291 40.40472711 30.8408757 37.93798828 29.66894531 C37.29251038 29.36097519 36.64703247 29.05300507 35.98199463 28.73570251 C27.0370919 24.48919229 17.94014561 20.57600487 8.85452271 16.64202881 C6.70752279 15.71202219 4.56290059 14.7767026 2.41845703 13.84082031 C1.77391068 13.56427109 1.12936432 13.28772186 0.46528625 13.00279236 C-2.20764267 11.83333331 -4.14625563 10.9050139 -6.22998047 8.82128906 C-6.54248047 5.32128906 -6.54248047 5.32128906 -6.22998047 1.82128906 C-3.22998047 -0.17871094 -3.22998047 -0.17871094 0 0 Z " fill="#0061FF" transform="translate(387.22998046875,400.1787109375)"/>
<path d="M0 0 C3.70557271 1.64791094 6.81041123 3.97121504 10 6.4375 C10.56380371 6.87126953 11.12760742 7.30503906 11.70849609 7.75195312 C16.39711184 11.41505665 20.80364021 15.33665468 25.12890625 19.41967773 C27.34839129 21.5135098 29.45002399 23.300016 32 25 C31.34 26.32 30.68 27.64 30 29 C25.7906534 29 24.86040197 27.22721697 21.875 24.3125 C14.43449895 17.21181814 6.24305527 11.12941369 -2 5 C-1.34 3.35 -0.68 1.7 0 0 Z " fill="#99C0FF" transform="translate(742,266)"/>
<path d="M0 0 C9.85738678 9.66547305 17.57197095 20.43123986 25 32 C24.34 32.99 23.68 33.98 23 35 C20.56683743 34.62047724 19.30068535 34.31913071 17.5871582 32.50048828 C17.16265381 31.86353027 16.73814941 31.22657227 16.30078125 30.5703125 C15.81770508 29.86221436 15.33462891 29.15411621 14.83691406 28.42456055 C14.33385742 27.66570557 13.83080078 26.90685059 13.3125 26.125 C9.02368672 19.81547041 4.60859995 13.91609604 -0.453125 8.19921875 C-2 6 -2 6 -2 2 C-1.34 1.34 -0.68 0.68 0 0 Z " fill="#99C0FF" transform="translate(800,320)"/>
<path d="M0 0 C1.32 0.66 2.64 1.32 4 2 C3.41214475 5.02507358 2.56912285 6.86023112 0.59375 9.21484375 C0.10132813 9.81288818 -0.39109375 10.41093262 -0.8984375 11.02709961 C-1.69121094 11.9727478 -1.69121094 11.9727478 -2.5 12.9375 C-7.46084583 18.9494102 -11.88377217 25.10684598 -16.0625 31.68359375 C-16.701875 32.44800781 -17.34125 33.21242188 -18 34 C-19.32 34 -20.64 34 -22 34 C-22.495 32.515 -22.495 32.515 -23 31 C-21.52790795 28.45203115 -20.01904233 26.13446053 -18.3125 23.75 C-17.82225342 23.05068359 -17.33200684 22.35136719 -16.8269043 21.63085938 C-11.53270472 14.1716491 -5.81163908 7.0591637 0 0 Z " fill="#99C0FF" transform="translate(278,321)"/>
<path d="M0 0 C1.32 0.66 2.64 1.32 4 2 C4 2.99 4 3.98 4 5 C2.16125386 6.60966648 0.35448617 8.01983236 -1.625 9.4375 C-7.43120075 13.72794777 -12.92462926 18.27801522 -18.32861328 23.06420898 C-21.07503384 25.46922809 -23.60180673 27.60416511 -27 29 C-27.99 27.68 -28.98 26.36 -30 25 C-20.48877881 15.99395356 -10.50358864 7.8262033 0 0 Z " fill="#99C0FF" transform="translate(335,267)"/>
<path d="M0 0 C5.10490764 1.67790789 9.22849048 4.68558714 13.625 7.6875 C15.22856693 8.77041987 16.83273291 9.8524532 18.4375 10.93359375 C19.21480469 11.45808105 19.99210937 11.98256836 20.79296875 12.52294922 C25.14145471 15.43316383 29.56412511 18.22513553 34 21 C33.505 23.475 33.505 23.475 33 26 C28.60633846 24.70488526 25.14626479 23.01754032 21.33984375 20.48046875 C20.29892578 19.78759766 19.25800781 19.09472656 18.18554688 18.38085938 C17.11369141 17.65705078 16.04183594 16.93324219 14.9375 16.1875 C13.86177734 15.47529297 12.78605469 14.76308594 11.67773438 14.02929688 C6.64486094 10.65636682 2.20106093 7.39718978 -2 3 C-1.34 2.01 -0.68 1.02 0 0 Z " fill="#99C0FF" transform="translate(338,810)"/>
<path d="M0 0 C2.475 0.495 2.475 0.495 5 1 C3.60248763 5.60687495 1.72040735 9.77729087 -0.5625 14 C-0.90893555 14.64138916 -1.25537109 15.28277832 -1.61230469 15.94360352 C-4.20741382 20.67950405 -6.90921155 25.34474359 -9.75 29.9375 C-10.11424072 30.54658203 -10.47848145 31.15566406 -10.85375977 31.78320312 C-11.921875 33.46484375 -11.921875 33.46484375 -14 36 C-15.32 36 -16.64 36 -18 36 C-19 33 -19 33 -18.01538086 30.81445312 C-17.50370361 29.97849609 -16.99202637 29.14253906 -16.46484375 28.28125 C-15.90216797 27.34796875 -15.33949219 26.4146875 -14.75976562 25.453125 C-13.85774414 23.99132812 -13.85774414 23.99132812 -12.9375 22.5 C-11.77804705 20.59490558 -10.6204915 18.68865509 -9.46484375 16.78125 C-8.89233887 15.83765625 -8.31983398 14.8940625 -7.72998047 13.921875 C-5.02389487 9.35139342 -2.50086262 4.68518927 0 0 Z " fill="#99C0FF" transform="translate(840,691)"/>
<path d="M0 0 C1.32 0.66 2.64 1.32 4 2 C2.49598994 5.9210529 0.29266369 7.46557539 -3.1640625 9.75 C-4.20433594 10.4409375 -5.24460937 11.131875 -6.31640625 11.84375 C-7.40824219 12.5553125 -8.50007812 13.266875 -9.625 14 C-10.69363281 14.7115625 -11.76226563 15.423125 -12.86328125 16.15625 C-18.4332426 19.82845084 -23.9487824 23.18684315 -30 26 C-30.66 24.35 -31.32 22.7 -32 21 C-31.38592285 20.61255615 -30.7718457 20.2251123 -30.13916016 19.82592773 C-27.29951783 18.03228699 -24.46225533 16.234914 -21.625 14.4375 C-20.65949219 13.82841797 -19.69398438 13.21933594 -18.69921875 12.59179688 C-12.3426263 8.56026676 -6.12648728 4.37329952 0 0 Z " fill="#99C0FF" transform="translate(740,810)"/>
<path d="M0 0 C0.29132813 0.53778076 0.58265625 1.07556152 0.8828125 1.62963867 C6.21298552 11.4487644 11.55282971 21.19063337 17.63671875 30.56640625 C19 33 19 33 19 36 C17.02 36.495 17.02 36.495 15 37 C10.36432158 30.89072844 6.4713978 24.50663631 2.75 17.8125 C2.32605957 17.05275879 1.90211914 16.29301758 1.46533203 15.51025391 C-0.96079318 11.09395537 -3.09661536 6.66576431 -5 2 C-2 0 -2 0 0 0 Z " fill="#99C0FF" transform="translate(240,691)"/>
<path d="M0 0 C5.13250763 0.64285954 9.4572536 2.90759181 14.0625 5.125 C14.90143799 5.52517334 15.74037598 5.92534668 16.60473633 6.33764648 C23.28163326 9.56298695 29.69716366 13.08746087 36 17 C35.505 19.475 35.505 19.475 35 22 C29.55586488 20.42452681 24.83424121 17.9271694 19.875 15.25 C18.18931559 14.3505994 16.50311714 13.45216158 14.81640625 12.5546875 C13.9980127 12.11866211 13.17961914 11.68263672 12.33642578 11.23339844 C7.60189944 8.73404347 2.80550487 6.35958922 -2 4 C-1.34 2.68 -0.68 1.36 0 0 Z " fill="#99C0FF" transform="translate(674,227)"/>
<path d="M0 0 C0.6875 2.0625 0.6875 2.0625 1 4 C0.3608667 4.30180176 -0.2782666 4.60360352 -0.93676758 4.91455078 C-3.89693546 6.31469872 -6.85471542 7.7198248 -9.8125 9.125 C-10.81732422 9.599375 -11.82214844 10.07375 -12.85742188 10.5625 C-18.94987417 13.46180205 -24.87931441 16.52986044 -30.72924805 19.89404297 C-33 21 -33 21 -36 21 C-36.33 19.68 -36.66 18.36 -37 17 C-7.26206897 -2.42068966 -7.26206897 -2.42068966 0 0 Z " fill="#99C0FF" transform="translate(406,228)"/>
<path d="M0 0 C15 30.90681363 15 30.90681363 15 38 C12.525 38.495 12.525 38.495 10 39 C9.79431396 38.47269287 9.58862793 37.94538574 9.37670898 37.40209961 C8.40197747 34.91189975 7.4209626 32.42426504 6.4375 29.9375 C6.08051025 29.03459229 5.72352051 28.13168457 5.35571289 27.20141602 C2.58061145 20.26458152 -0.50438024 13.55033007 -3.84765625 6.87109375 C-5 4 -5 4 -4 1 C-2 0 -2 0 0 0 Z " fill="#99C0FF" transform="translate(845,386)"/>
<path d="M0 0 C0.495 1.98 0.495 1.98 1 4 C-2.94295591 5.54042143 -6.88996188 7.06984215 -10.84082031 8.58984375 C-12.18015817 9.10680373 -13.51840928 9.62658953 -14.85546875 10.14941406 C-22.45814274 13.11991992 -29.87366195 15.82334651 -38 17 C-38.33 15.35 -38.66 13.7 -39 12 C-37.88927124 11.62246582 -37.88927124 11.62246582 -36.75610352 11.23730469 C-33.35675859 10.07915485 -29.95963122 8.91462639 -26.5625 7.75 C-25.39783203 7.35425781 -24.23316406 6.95851563 -23.03320312 6.55078125 C-17.14058645 4.52571299 -11.4387424 2.44451746 -5.88256836 -0.38964844 C-3.56550612 -1.1408682 -2.27090292 -0.77917259 0 0 Z " fill="#99C0FF" transform="translate(675,850)"/>
<path d="M0 0 C13.45557264 1.52426409 27.15688062 4.71896021 40 9 C39.67 10.65 39.34 12.3 39 14 C32.39003648 13.23184068 26.01935443 11.64353834 19.5625 10.0625 C17.9218457 9.66514648 17.9218457 9.66514648 16.24804688 9.25976562 C10.49273634 7.86338384 4.74339437 6.44457185 -1 5 C-0.67 3.35 -0.34 1.7 0 0 Z " fill="#99C0FF" transform="translate(598,204)"/>
<path d="M0 0 C3.65794828 0.63885992 6.95589703 1.63499801 10.421875 2.9609375 C11.44796875 3.35023438 12.4740625 3.73953125 13.53125 4.140625 C14.5934375 4.54796875 15.655625 4.9553125 16.75 5.375 C23.79244039 8.06361641 30.82850338 10.6745147 38 13 C37.67 14.65 37.34 16.3 37 18 C28.71507134 16.74474356 21.26418743 14.02136546 13.5 10.9375 C12.32179688 10.47794922 11.14359375 10.01839844 9.9296875 9.54492188 C1.46056548 6.23028274 1.46056548 6.23028274 -1 5 C-0.67 3.35 -0.34 1.7 0 0 Z " fill="#99C0FF" transform="translate(406,849)"/>
<path d="M0 0 C1.1282554 1.1282554 2.25614956 2.25687314 3.3828125 3.38671875 C4.53917449 4.5402876 5.70129744 5.68809309 6.8671875 6.83203125 C10.82852898 10.7394245 14.56630242 14.74922961 18.19140625 18.96875 C21.30504645 22.46571091 24.65139835 25.72967735 28 29 C26.68 30.32 25.36 31.64 24 33 C20.95511903 29.98002368 17.9136786 26.9566347 14.87524414 23.93017578 C13.84328297 22.9032124 12.81042222 21.87715209 11.77661133 20.85205078 C10.28223298 19.36993918 8.79122777 17.88450178 7.30078125 16.3984375 C5.95753784 15.06304932 5.95753784 15.06304932 4.5871582 13.70068359 C1.88681805 10.88185159 -0.61611807 8.09122301 -3 5 C-2.9375 2.6875 -2.9375 2.6875 -2 1 C-1.34 0.67 -0.68 0.34 0 0 Z " fill="#99C0FF" transform="translate(282,756)"/>
<path d="M0 0 C1.32 0 2.64 0 4 0 C5.24993265 3.96375384 6.49482996 7.92904556 7.73535156 11.89575195 C8.15686716 13.2412233 8.57968762 14.58628666 9.00390625 15.9309082 C11.3066365 23.23284409 13.49855872 30.48454392 15 38 C13.35 38.66 11.7 39.32 10 40 C0.1139469 10.16260546 0.1139469 10.16260546 -1 1 C-0.67 0.67 -0.34 0.34 0 0 Z " fill="#99C0FF" transform="translate(209,618)"/>
<path d="M0 0 C1.65 0.33 3.3 0.66 5 1 C3.71025151 9.44480719 1.51149366 17.42610144 -1.0625 25.5625 C-1.42666016 26.73619141 -1.79082031 27.90988281 -2.16601562 29.11914062 C-4.83602151 37.67204301 -4.83602151 37.67204301 -6 40 C-7.65 39.67 -9.3 39.34 -11 39 C-9.54795861 31.98664009 -7.62740935 25.21119406 -5.5 18.375 C-4.88489139 16.38297462 -4.27029542 14.39079087 -3.65625 12.3984375 C-3.22699219 11.0077002 -3.22699219 11.0077002 -2.7890625 9.58886719 C-1.81813941 6.40332622 -0.89823967 3.20671562 0 0 Z " fill="#99C0FF" transform="translate(867,617)"/>
<path d="M0 0 C1.32 0.66 2.64 1.32 4 2 C3.41464695 5.40694936 2.55880651 8.30658129 1.109375 11.44140625 C0.73159912 12.26737305 0.35382324 13.09333984 -0.03540039 13.94433594 C-0.6366272 15.24032715 -0.6366272 15.24032715 -1.25 16.5625 C-2.06768633 18.34967529 -2.88409664 20.13743497 -3.69921875 21.92578125 C-4.09415527 22.79154785 -4.4890918 23.65731445 -4.89599609 24.54931641 C-7.04460208 29.31882257 -9.03860775 34.15072871 -11 39 C-12.65 38.67 -14.3 38.34 -16 38 C-13.8752509 30.00882651 -10.81317923 22.5990033 -7.4375 15.0625 C-6.94314453 13.94037109 -6.44878906 12.81824219 -5.93945312 11.66210938 C-2.2837208 3.4255812 -2.2837208 3.4255812 0 0 Z " fill="#99C0FF" transform="translate(235,387)"/>
<path d="M0 0 C0.495 2.475 0.495 2.475 1 5 C-6.00504174 7.02535389 -13.05550757 8.83764631 -20.125 10.625 C-21.38699219 10.94984375 -22.64898437 11.2746875 -23.94921875 11.609375 C-25.77259766 12.06957031 -25.77259766 12.06957031 -27.6328125 12.5390625 C-28.73512207 12.81959473 -29.83743164 13.10012695 -30.97314453 13.38916016 C-33.75281048 13.95011549 -36.17658732 14.12264301 -39 14 C-39.33 12.68 -39.66 11.36 -40 10 C-33.5451496 6.85725942 -26.85975268 5.42112434 -19.875 3.875 C-18.70839844 3.61074219 -17.54179687 3.34648437 -16.33984375 3.07421875 C-2.71652919 0 -2.71652919 0 0 0 Z " fill="#99C0FF" transform="translate(481,204)"/>
<path d="M0 0 C1.32 0.66 2.64 1.32 4 2 C3.53895645 6.36943544 0.64828371 8.91450999 -2.25 11.9375 C-3.04277344 12.77498779 -3.04277344 12.77498779 -3.8515625 13.62939453 C-4.97719479 14.81282777 -6.10687582 15.99242104 -7.24023438 17.16845703 C-9.02374634 19.02471491 -10.78509468 20.9004747 -12.546875 22.77734375 C-13.69654102 23.97788137 -14.84754458 25.17713981 -16 26.375 C-16.53915039 26.95241943 -17.07830078 27.52983887 -17.63378906 28.12475586 C-19.1875 29.7109375 -19.1875 29.7109375 -22 32 C-24.375 31.8515625 -24.375 31.8515625 -26 31 C-25.59527186 26.52668892 -22.45111592 24.16025145 -19.375 21.25 C-18.27421039 20.18026664 -17.17524518 19.10865266 -16.078125 18.03515625 C-15.54638672 17.5158252 -15.01464844 16.99649414 -14.46679688 16.46142578 C-11.46101642 13.46665184 -8.7299429 10.24397794 -6 7 C-4.85483156 5.66609556 -3.70902651 4.33273732 -2.5625 3 C-1.716875 2.01 -0.87125 1.02 0 0 Z " fill="#99C0FF" transform="translate(797,756)"/>
<path d="M0 0 C1.2065625 0.0309375 1.2065625 0.0309375 2.4375 0.0625 C2.31705322 0.77720459 2.19660645 1.49190918 2.07250977 2.22827148 C1.15805219 7.68105012 0.26161779 13.13589053 -0.59765625 18.59765625 C-0.76716797 19.67337891 -0.93667969 20.74910156 -1.11132812 21.85742188 C-1.45926371 24.07071552 -1.80556893 26.28426596 -2.15039062 28.49804688 C-2.31861328 29.56216797 -2.48683594 30.62628906 -2.66015625 31.72265625 C-2.88457397 33.15557007 -2.88457397 33.15557007 -3.11352539 34.61743164 C-3.5625 37.0625 -3.5625 37.0625 -4.5625 40.0625 C-6.2125 40.0625 -7.8625 40.0625 -9.5625 40.0625 C-8.6396858 30.11796276 -7.36979729 20.3147452 -5.5 10.5 C-5.3256543 9.57807861 -5.15130859 8.65615723 -4.97167969 7.70629883 C-3.47746893 0.08481632 -3.47746893 0.08481632 0 0 Z " fill="#99C0FF" transform="translate(210.5625,461.9375)"/>
<path d="M0 0 C1.65 0 3.3 0 5 0 C7.22010815 8.29944351 8.88344507 16.57345759 10.1875 25.0625 C10.36474609 26.17560547 10.54199219 27.28871094 10.72460938 28.43554688 C12 36.56554657 12 36.56554657 12 40 C10.35 40 8.7 40 7 40 C5.42652982 33.17692529 4.12437383 26.3376144 2.9375 19.4375 C2.76412109 18.44814453 2.59074219 17.45878906 2.41210938 16.43945312 C1.46486411 10.97010979 0.6360144 5.51431046 0 0 Z " fill="#99C0FF" transform="translate(867,461)"/>
<path d="M0 0 C0.495 2.475 0.495 2.475 1 5 C-6.13167062 7.03509211 -13.26164243 7.84572458 -20.625 8.625 C-21.82640625 8.7590625 -23.0278125 8.893125 -24.265625 9.03125 C-29.54391481 9.60472273 -34.68518499 10.07452068 -40 10 C-40 8.35 -40 6.7 -40 5 C-38.96613159 4.87939209 -38.96613159 4.87939209 -37.91137695 4.75634766 C-20.99933125 2.81125676 -20.99933125 2.81125676 -4.16015625 0.33203125 C-2 0 -2 0 0 0 Z " fill="#99C0FF" transform="translate(599,871)"/>
<path d="M0 0 C1.65 0 3.3 0 5 0 C5.25546702 13.82862634 4.77447044 27.2795411 3 41 C1.35 41 -0.3 41 -2 41 C-1.93941406 39.79988281 -1.87882813 38.59976563 -1.81640625 37.36328125 C-1.18969884 24.90983584 -0.58775207 12.45534176 0 0 Z " fill="#99C0FF" transform="translate(876,539)"/>
<path d="M0 0 C1.31162109 -0.00128906 2.62324219 -0.00257813 3.97460938 -0.00390625 C4.65048096 -0.00181152 5.32635254 0.0002832 6.02270508 0.00244141 C8.08747675 0.00780635 10.1520318 0.0024733 12.21679688 -0.00390625 C14.18229492 -0.00197266 14.18229492 -0.00197266 16.1875 0 C17.37996338 0.00112793 18.57242676 0.00225586 19.80102539 0.00341797 C22.67075183 0.11851105 25.2396521 0.47143766 28.02734375 1.1328125 C28.02734375 2.7828125 28.02734375 4.4328125 28.02734375 6.1328125 C14.49734375 6.1328125 0.96734375 6.1328125 -12.97265625 6.1328125 C-12.97265625 4.4828125 -12.97265625 2.8328125 -12.97265625 1.1328125 C-8.59521701 0.29341779 -4.45456912 0.00420952 0 0 Z " fill="#99C0FF" transform="translate(531.97265625,198.8671875)"/>
<path d="M0 0 C4.89329719 0.54861353 9.78626563 1.1000453 14.67895508 1.65405273 C16.34227982 1.84199629 18.00569069 2.02917921 19.66918945 2.21557617 C22.06484847 2.48414781 24.46018098 2.75548348 26.85546875 3.02734375 C27.5952446 3.10967758 28.33502045 3.19201141 29.09721375 3.27684021 C32.77348402 3.69681547 36.38566004 4.2026735 40 5 C40 6.65 40 8.3 40 10 C30.26284037 9.62549386 20.65865698 8.81220589 11 7.5 C10.02659668 7.36940186 9.05319336 7.23880371 8.05029297 7.10424805 C1.12980021 6.12980021 1.12980021 6.12980021 0 5 C-0.04063832 3.33382885 -0.042721 1.66611905 0 0 Z " fill="#99C0FF" transform="translate(481,871)"/>
<path d="M0 0 C1.65 0 3.3 0 5 0 C5.28759862 4.57136474 5.57232974 9.1428961 5.85449219 13.71459961 C5.95072369 15.26738213 6.04771638 16.82011768 6.14550781 18.37280273 C6.28654578 20.61429901 6.42477694 22.85595414 6.5625 25.09765625 C6.60624756 25.78336197 6.64999512 26.46906769 6.69506836 27.17555237 C6.95474006 31.45670669 7.03900842 35.71151216 7 40 C4.525 40.495 4.525 40.495 2 41 C0.3483961 27.27104257 -0.24984036 13.82450015 0 0 Z " fill="#99C0FF" transform="translate(199,540)"/>
<path d="M0 0 C4.97687683 0.38213679 7.50808484 2.93381999 10.8125 6.375 C11.31458984 6.87 11.81667969 7.365 12.33398438 7.875 C16 11.60585672 16 11.60585672 16 15 C11.02312317 14.61786321 8.49191516 12.06618001 5.1875 8.625 C4.68541016 8.13 4.18332031 7.635 3.66601562 7.125 C0 3.39414328 0 3.39414328 0 0 Z " fill="#99C0FF" transform="translate(405,560)"/>
<path d="M0 0 C-0.38213679 4.97687683 -2.93381999 7.50808484 -6.375 10.8125 C-6.87 11.31458984 -7.365 11.81667969 -7.875 12.33398438 C-11.60585672 16 -11.60585672 16 -15 16 C-14.61786321 11.02312317 -12.06618001 8.49191516 -8.625 5.1875 C-8.13 4.68541016 -7.635 4.18332031 -7.125 3.66601562 C-3.39414328 0 -3.39414328 0 0 0 Z " fill="#99C0FF" transform="translate(393,559)"/>
<path d="M0 0 C-0.43903732 4.39037321 -3.38054039 6.82464331 -6.375 9.75 C-6.87 10.25660156 -7.365 10.76320313 -7.875 11.28515625 C-11.61988292 15 -11.61988292 15 -15 15 C-14.55666973 10.17552354 -12.57679461 8.0370957 -9.1875 4.6875 C-7.87845703 3.36298828 -7.87845703 3.36298828 -6.54296875 2.01171875 C-4 0 -4 0 0 0 Z " fill="#99C0FF" transform="translate(421,532)"/>
<path d="M0 0 C4.39037321 0.43903732 6.82464331 3.38054039 9.75 6.375 C10.25660156 6.87 10.76320313 7.365 11.28515625 7.875 C15 11.61988292 15 11.61988292 15 15 C10.17552354 14.55666973 8.0370957 12.57679461 4.6875 9.1875 C3.80449219 8.31480469 2.92148437 7.44210937 2.01171875 6.54296875 C0 4 0 4 0 0 Z " fill="#99C0FF" transform="translate(378,532)"/>
<path d="M0 0 C-0.43903732 4.39037321 -3.38054039 6.82464331 -6.375 9.75 C-6.87 10.25660156 -7.365 10.76320313 -7.875 11.28515625 C-11.61988292 15 -11.61988292 15 -15 15 C-14.55666973 10.17552354 -12.57679461 8.0370957 -9.1875 4.6875 C-7.87845703 3.36298828 -7.87845703 3.36298828 -6.54296875 2.01171875 C-4 0 -4 0 0 0 Z " fill="#99C0FF" transform="translate(702,501)"/>
<path d="M0 0 C0.74886475 0.00523682 1.49772949 0.01047363 2.26928711 0.01586914 C3.07817383 0.0190918 3.88706055 0.02231445 4.72045898 0.02563477 C5.5705957 0.03401367 6.42073242 0.04239258 7.29663086 0.05102539 C8.15063477 0.05553711 9.00463867 0.06004883 9.88452148 0.06469727 C12.00108749 0.07652166 14.11761771 0.0944577 16.23413086 0.11352539 C16.23413086 1.43352539 16.23413086 2.75352539 16.23413086 4.11352539 C9.96413086 4.11352539 3.69413086 4.11352539 -2.76586914 4.11352539 C-2.76586914 0.17781407 -2.76586914 0.17781407 0 0 Z " fill="#99C0FF" transform="translate(719.765869140625,492.886474609375)"/>
<path d="M0 0 C0.74886475 0.00523682 1.49772949 0.01047363 2.26928711 0.01586914 C3.07817383 0.0190918 3.88706055 0.02231445 4.72045898 0.02563477 C5.5705957 0.03401367 6.42073242 0.04239258 7.29663086 0.05102539 C8.15063477 0.05553711 9.00463867 0.06004883 9.88452148 0.06469727 C12.00108749 0.07652166 14.11761771 0.0944577 16.23413086 0.11352539 C16.23413086 1.43352539 16.23413086 2.75352539 16.23413086 4.11352539 C9.96413086 4.11352539 3.69413086 4.11352539 -2.76586914 4.11352539 C-2.76586914 0.17781407 -2.76586914 0.17781407 0 0 Z " fill="#99C0FF" transform="translate(681.765869140625,492.886474609375)"/>
<path d="M0 0 C-0.43698126 4.85049199 -2.45441483 6.96627538 -5.875 10.3125 C-6.75929688 11.19550781 -7.64359375 12.07851563 -8.5546875 12.98828125 C-11 15 -11 15 -14 15 C-13.56301874 10.14950801 -11.54558517 8.03372462 -8.125 4.6875 C-7.24070312 3.80449219 -6.35640625 2.92148437 -5.4453125 2.01171875 C-3 0 -3 0 0 0 Z " fill="#99C0FF" transform="translate(728,474)"/>
<path d="M0 0 C4.39037321 0.43903732 6.82464331 3.38054039 9.75 6.375 C10.25660156 6.87 10.76320313 7.365 11.28515625 7.875 C15 11.61988292 15 11.61988292 15 15 C10.60962679 14.56096268 8.17535669 11.61945961 5.25 8.625 C4.74339844 8.13 4.23679687 7.635 3.71484375 7.125 C0 3.38011708 0 3.38011708 0 0 Z " fill="#99C0FF" transform="translate(713,501)"/>
<path d="M0 0 C4.39037321 0.43903732 6.82464331 3.38054039 9.75 6.375 C10.25660156 6.87 10.76320313 7.365 11.28515625 7.875 C15 11.61988292 15 11.61988292 15 15 C10.60962679 14.56096268 8.17535669 11.61945961 5.25 8.625 C4.74339844 8.13 4.23679687 7.635 3.71484375 7.125 C0 3.38011708 0 3.38011708 0 0 Z " fill="#99C0FF" transform="translate(686,474)"/>
<path d="M0 0 C6.6 0 13.2 0 20 0 C20 0.99 20 1.98 20 3 C13.4 3 6.8 3 0 3 C0 2.01 0 1.02 0 0 Z " fill="#99C0FF" transform="translate(409,552)"/>
<path d="M0 0 C0.66 0 1.32 0 2 0 C2 6.93 2 13.86 2 21 C1.01 21 0.02 21 -1 21 C-1.02888146 17.68751813 -1.04675799 14.37506833 -1.0625 11.0625 C-1.07087891 10.11697266 -1.07925781 9.17144531 -1.08789062 8.19726562 C-1.09111328 7.29814453 -1.09433594 6.39902344 -1.09765625 5.47265625 C-1.10289307 4.64000244 -1.10812988 3.80734863 -1.11352539 2.94946289 C-1 1 -1 1 0 0 Z " fill="#99C0FF" transform="translate(399,523)"/>
<path d="M0 0 C0.66 0.33 1.32 0.66 2 1 C2 7.6 2 14.2 2 21 C1.01 21 0.02 21 -1 21 C-1.02888146 17.68751813 -1.04675799 14.37506833 -1.0625 11.0625 C-1.07087891 10.11697266 -1.07925781 9.17144531 -1.08789062 8.19726562 C-1.09111328 7.29814453 -1.09433594 6.39902344 -1.09765625 5.47265625 C-1.10289307 4.64000244 -1.10812988 3.80734863 -1.11352539 2.94946289 C-1 1 -1 1 0 0 Z " fill="#99C0FF" transform="translate(399,562)"/>
<path d="M0 0 C6.6 0 13.2 0 20 0 C20 0.99 20 1.98 20 3 C13.4 3 6.8 3 0 3 C0 2.01 0 1.02 0 0 Z " fill="#99C0FF" transform="translate(370,552)"/>
<path d="M0 0 C0.66 0.33 1.32 0.66 2 1 C2 7.6 2 14.2 2 21 C1.01 20.67 0.02 20.34 -1 20 C-1.02888514 16.85418577 -1.04675923 13.70840531 -1.0625 10.5625 C-1.07087891 9.66466797 -1.07925781 8.76683594 -1.08789062 7.84179688 C-1.09111328 6.98779297 -1.09433594 6.13378906 -1.09765625 5.25390625 C-1.10551147 4.06776733 -1.10551147 4.06776733 -1.11352539 2.85766602 C-1 1 -1 1 0 0 Z " fill="#99C0FF" transform="translate(707,503)"/>
<path d="M0 0 C0.99 0 1.98 0 3 0 C3 6.6 3 13.2 3 20 C2.01 19.67 1.02 19.34 0 19 C0 12.73 0 6.46 0 0 Z " fill="#99C0FF" transform="translate(706,466)"/>
</svg>
