<?xml version="1.0" encoding="UTF-8"?>
<svg version="1.1" xmlns="http://www.w3.org/2000/svg" width="1080" height="1080">
<path d="M0 0 C1.15275264 -0.00623996 2.30550528 -0.01247993 3.49318981 -0.01890898 C6.67512432 -0.03205794 9.85644336 -0.02738762 13.03836203 -0.0149641 C16.47674852 -0.00588782 19.91505387 -0.01989606 23.35342407 -0.03088379 C30.0821455 -0.04864622 36.81068819 -0.04483925 43.53941655 -0.03323323 C49.00923326 -0.02419018 54.47899998 -0.02297866 59.94882202 -0.02732849 C60.72808019 -0.02794142 61.50733836 -0.02855436 62.31021041 -0.02918586 C63.8933863 -0.0304648 65.47656218 -0.03176165 67.05973804 -0.03307623 C81.89619554 -0.04447535 96.73255409 -0.03137882 111.56899536 -0.00987476 C124.29222158 0.00799563 137.0153018 0.00489134 149.73852539 -0.0135498 C164.52282393 -0.03496833 179.3070358 -0.04337678 194.09134769 -0.03110075 C195.66861533 -0.02982659 197.24588297 -0.0285691 198.82315063 -0.02732849 C199.59914413 -0.02671139 200.37513763 -0.02609429 201.17464608 -0.02545848 C206.63625784 -0.02200853 212.0978145 -0.02782628 217.55941772 -0.0372467 C224.21766919 -0.048479 230.87573208 -0.04540091 237.53396201 -0.02412373 C240.929461 -0.01362969 244.32464588 -0.00946293 247.72014236 -0.02272034 C251.40439921 -0.03364872 255.08777214 -0.01994294 258.77197266 0 C259.84046039 -0.00892289 260.90894812 -0.01784577 262.00981426 -0.02703905 C269.36150133 0.05016262 274.97175307 1.19088063 280.44458008 6.50793457 C280.89961914 7.16793457 281.3546582 7.82793457 281.82348633 8.50793457 C282.29657227 9.16793457 282.7696582 9.82793457 283.25708008 10.50793457 C285.43218995 14.36141641 285.50472602 17.92431301 285.47691345 22.29475403 C285.47225067 23.47653229 285.46758789 24.65831055 285.46278381 25.87590027 C285.44785133 27.81551384 285.44785133 27.81551384 285.43261719 29.79431152 C285.42582493 31.17268613 285.41961393 32.5510637 285.41394043 33.92944336 C285.4014963 36.89614852 285.38690529 39.86283321 285.37125969 42.82952309 C285.34851742 47.52386599 285.34286197 52.21812884 285.3419342 56.91252136 C285.34175244 57.70530135 285.34157067 58.49808134 285.3413834 59.31488496 C285.34093362 62.58450647 285.34101571 65.85412784 285.34121883 69.12374938 C285.34095407 78.40208891 285.32418683 87.67975368 285.25927734 96.95788574 C285.20780699 104.33161451 285.19164878 111.70447063 285.21673876 119.07834977 C285.22867274 122.97875676 285.22280682 126.87730061 285.1740551 130.7774601 C285.12855633 134.4481885 285.1299781 138.11595374 285.16680145 141.78675079 C285.1745534 143.7691142 285.13281651 145.75147942 285.08943176 147.73338318 C285.12241403 154.39466595 285.12241403 154.39466595 288.56793404 159.8153286 C291.10234211 161.60587008 293.63798586 163.07403398 296.38598633 164.50793457 C307.32983835 171.9790182 313.77800331 185.25221756 316.96411133 197.78137207 C319.62499459 214.97856205 316.09813921 231.11925765 306.38598633 245.50793457 C297.36593292 256.70833201 284.67292797 265.02936898 270.38598633 267.50793457 C257.94696518 268.79625346 243.6335833 269.05307319 232.85864258 261.80871582 C230.49417078 260.33121532 230.49417078 260.33121532 227.96411133 260.44934082 C224.20875641 261.99131231 221.89854987 264.53052378 219.13598633 267.44543457 C218.59458008 267.99650879 218.05317383 268.54758301 217.49536133 269.11535645 C214.59096649 272.05106768 214.59096649 272.05106768 212.38598633 275.50793457 C213.37598633 275.83793457 214.36598633 276.16793457 215.38598633 276.50793457 C215.6875833 279.55578797 215.70592199 281.05078506 213.92126465 283.60084534 C213.23479858 284.28827316 212.54833252 284.97570099 211.84106445 285.68395996 C211.06605591 286.47150162 210.29104736 287.25904327 209.49255371 288.07044983 C208.64269897 288.90704636 207.79284424 289.74364288 206.91723633 290.60559082 C206.04836792 291.47687119 205.17949951 292.34815155 204.28430176 293.24583435 C201.96864782 295.56025711 199.64149797 297.86233808 197.30981445 300.1605835 C194.96107602 302.48626547 192.636969 304.83644647 190.30786133 307.1817627 C188.51241434 308.97030674 186.71558265 310.75746202 184.91723633 312.54309082 C184.08357544 313.38171158 183.24991455 314.22033234 182.39099121 315.08436584 C177.18301796 320.18927419 172.25163333 324.54391402 164.88208008 326.00402832 C158.2508249 325.81528292 153.09450182 324.29382779 148.07348633 319.75793457 C144.23137879 315.59821281 143.3370373 310.98000491 143.07348633 305.44543457 C143.73237352 297.14345594 149.11425964 291.29146393 155.16333008 285.93371582 C155.77305664 285.42195801 156.3827832 284.9102002 157.01098633 284.38293457 C160.96779507 281.04197155 164.40201917 277.32605581 167.88598633 273.50793457 C171.93105258 269.0795237 175.9830815 264.8873254 180.59692383 261.03918457 C183.70446538 258.37945468 186.5358143 255.43826768 189.38598633 252.50793457 C189.98411133 252.83793457 190.58223633 253.16793457 191.19848633 253.50793457 C193.43985104 254.71581445 193.43985104 254.71581445 196.38598633 254.50793457 C197.99689182 253.31150122 197.99689182 253.31150122 199.52270508 251.66418457 C200.38798828 250.78439941 200.38798828 250.78439941 201.27075195 249.88684082 C201.8656543 249.26680176 202.46055664 248.6467627 203.07348633 248.00793457 C203.67999023 247.38789551 204.28649414 246.76785645 204.91137695 246.12902832 C206.40972376 244.5952875 207.89875126 243.05245259 209.38598633 241.50793457 C207.73598633 238.20793457 206.08598633 234.90793457 204.38598633 231.50793457 C133.76598633 231.17793457 63.14598633 230.84793457 -9.61401367 230.50793457 C-9.61401367 238.09793457 -9.61401367 245.68793457 -9.61401367 253.50793457 C-15.50273982 262.92989641 -15.50273982 262.92989641 -20.61401367 264.50793457 C-23.99858519 264.90709274 -27.34152448 264.92826963 -30.74682617 264.9119873 C-32.25524078 264.92228218 -32.25524078 264.92228218 -33.79412842 264.93278503 C-37.10923488 264.95104608 -40.42386784 264.94721679 -43.73901367 264.94152832 C-46.04777175 264.94609006 -48.35652846 264.9513956 -50.6652832 264.95741272 C-55.50046308 264.96634219 -60.33547776 264.96392199 -65.1706543 264.95397949 C-71.36476759 264.94248329 -77.55831137 264.96271268 -83.75234985 264.99189663 C-88.51875424 265.01024656 -93.28502179 265.00996865 -98.05145264 265.00425911 C-100.33519287 265.00410578 -102.61894231 265.01015927 -104.90264893 265.02255058 C-108.09586294 265.03743745 -111.2880201 265.02680002 -114.48120117 265.00964355 C-115.42268005 265.01931152 -116.36415894 265.02897949 -117.33416748 265.03894043 C-122.91203577 264.97622554 -126.29331172 264.37776555 -130.61401367 260.50793457 C-134.89707668 255.59614332 -135.19242448 251.7111065 -135.1315918 245.49255371 C-135.13860107 244.60559311 -135.14561035 243.71863251 -135.15283203 242.80479431 C-135.17038231 239.8839044 -135.15879877 236.96398995 -135.14526367 234.04309082 C-135.14795968 232.00577103 -135.151843 229.96845249 -135.15686035 227.93113708 C-135.16275159 223.66502612 -135.15420525 219.39925062 -135.13549805 215.13317871 C-135.11272341 209.67448458 -135.12582478 204.21657781 -135.1497879 198.75791264 C-135.16426826 194.55161142 -135.15962934 190.34549568 -135.14927673 186.13918877 C-135.14661489 184.12701766 -135.14986007 182.11482952 -135.15919495 180.1026783 C-135.16939568 177.2855711 -135.15380958 174.46972375 -135.1315918 171.65270996 C-135.13968872 170.82703522 -135.14778564 170.00136047 -135.15612793 169.15066528 C-135.07344356 163.46903084 -134.07509327 160.08181459 -130.61401367 155.50793457 C-125.11775925 151.29613047 -120.69581943 150.94325345 -113.91503906 151.05383301 C-112.96792053 151.0532489 -112.020802 151.05266479 -111.04498291 151.05206299 C-107.9334978 151.05483611 -104.82298642 151.08589197 -101.71166992 151.11730957 C-99.54691593 151.12477469 -97.38215515 151.13046634 -95.21739197 151.13446045 C-89.5340187 151.14969529 -83.85105766 151.18895894 -78.16784668 151.23327637 C-72.36284969 151.27427526 -66.55778575 151.29248135 -60.75268555 151.31262207 C-49.37294765 151.35545498 -37.99351501 151.42368053 -26.61401367 151.50793457 C-26.61677905 150.81863326 -26.61954443 150.12933195 -26.62239361 149.41914272 C-26.68869291 132.6345071 -26.73831343 115.84991305 -26.76945019 99.06517696 C-26.78490854 90.94814789 -26.80597826 82.83120631 -26.84033203 74.7142334 C-26.87026606 67.63815599 -26.88959618 60.56214195 -26.89627916 53.48600298 C-26.90018465 49.74042034 -26.90934143 45.995019 -26.93120384 42.24949455 C-26.95543166 38.06464525 -26.9559811 33.88010966 -26.95458984 29.69519043 C-26.96537567 28.45800766 -26.9761615 27.22082489 -26.98727417 25.94615173 C-26.95623295 17.32374154 -25.9639132 10.85783409 -19.61401367 4.50793457 C-13.34729045 0.17837526 -7.42796333 -0.06203055 0 0 Z M285.38598633 172.50793457 C285.37140381 173.74358154 285.35682129 174.97922852 285.34179688 176.25231934 C285.28361436 180.85774985 285.20638288 185.46270163 285.12353516 190.06774902 C285.09037949 192.05692751 285.06231868 194.04619796 285.03955078 196.03552246 C285.00583233 198.90302542 284.9535081 201.76969274 284.89770508 204.63684082 C284.89131516 205.51941055 284.88492523 206.40198029 284.87834167 207.31129456 C284.71821965 214.10912827 283.56020828 218.92237333 279.07348633 224.25793457 C272.45026329 229.80295851 266.75302175 229.97155878 258.42504883 230.01965332 C257.27934418 230.03760452 256.13363953 230.05555573 254.95321655 230.0740509 C251.30584354 230.12808894 247.65860093 230.16202975 244.01098633 230.19543457 C241.53310363 230.22861327 239.05523812 230.26310344 236.57739258 230.2989502 C230.51370744 230.38381185 224.45000529 230.45218943 218.38598633 230.50793457 C222.2496469 240.71411072 230.84170314 247.65468009 240.38598633 252.50793457 C243.67939831 253.86433981 246.89918886 254.79497918 250.38598633 255.50793457 C251.15168945 255.67293457 251.91739258 255.83793457 252.70629883 256.00793457 C264.97467278 257.95143936 277.83857372 253.98448686 287.74926758 246.79309082 C297.1200235 239.09174688 303.40251595 228.49575117 305.38598633 216.50793457 C306.27962597 202.43311015 303.63042143 190.06953969 294.32348633 179.07043457 C290.40068886 174.95983136 290.40068886 174.95983136 285.38598633 172.50793457 Z " fill="#E7F5FE" transform="translate(410.614013671875,424.4920654296875)"/>
<path d="M0 0 C2.29626767 1.00258686 3.91322349 1.91254624 5.68920898 3.70239258 C11.42219114 9.46682116 16.67964462 9.71416219 24.38388062 9.78421021 C26.94425794 9.77526466 29.50256843 9.73508058 32.0625 9.6875 C34.6305769 9.6558252 37.19745212 9.63473928 39.76573181 9.63691711 C41.3542191 9.63678886 42.94287772 9.61711638 44.53077698 9.57389832 C50.08556278 9.55205393 54.39079526 10.8296092 59 14 C63.85724757 19.97815086 64.11109697 24.56501322 63.96484375 32.02734375 C63.95880638 33.64126803 63.95564788 35.25520515 63.95507812 36.86914062 C63.95337197 39.39156466 63.93822707 41.90926601 63.87329102 44.4309082 C63.558138 57.6581811 66.00617616 64.37835049 75 74 C76.64315823 76.22075325 78.1173835 78.4952376 79.625 80.8125 C80.27726563 81.80894531 80.92953125 82.80539062 81.6015625 83.83203125 C82.06304688 84.54746094 82.52453125 85.26289063 83 86 C82.34 86.99 81.68 87.98 81 89 C78.41757737 88.62725409 77.24628393 88.26502965 75.44433594 86.32592773 C74.96254883 85.61895752 74.48076172 84.9119873 73.984375 84.18359375 C73.45585938 83.41982422 72.92734375 82.65605469 72.3828125 81.86914062 C71.84398437 81.06669922 71.30515625 80.26425781 70.75 79.4375 C70.19570313 78.63119141 69.64140625 77.82488281 69.0703125 76.99414062 C67.70340704 75.00270077 66.34727363 73.00475077 65 71 C64.99413376 71.66097183 64.98826752 72.32194366 64.98222351 73.00294495 C64.91816645 79.89783118 64.83371455 86.79225599 64.73754883 93.68676758 C64.70434558 96.25799466 64.67629942 98.82929382 64.65356445 101.40063477 C64.61993486 105.10203698 64.5676123 108.8027814 64.51171875 112.50390625 C64.50532883 113.64896133 64.4989389 114.79401642 64.49235535 115.97377014 C64.36519419 122.91568256 64.00853038 128.49586485 59.31640625 133.9609375 C58.73761719 134.42757812 58.15882813 134.89421875 57.5625 135.375 C56.98628906 135.85710937 56.41007813 136.33921875 55.81640625 136.8359375 C52.45931996 138.98736054 49.11409301 139.12650343 45.20024109 139.14044189 C44.23723083 139.14615204 43.27422058 139.15186218 42.2820282 139.15774536 C40.70709343 139.15942215 40.70709343 139.15942215 39.1003418 139.16113281 C37.98934113 139.16609772 36.87834045 139.17106262 35.7336731 139.17617798 C32.05551536 139.19079202 28.37740075 139.19760024 24.69921875 139.203125 C22.14337666 139.20887689 19.58753457 139.21463462 17.0316925 139.22039795 C12.3560391 139.22956279 7.68039863 139.2358641 3.00473851 139.2388947 C-3.86630955 139.2433734 -10.73715848 139.26091597 -17.60814601 139.2898953 C-23.56899083 139.31415895 -29.52978631 139.32184106 -35.4906826 139.32357025 C-38.02200594 139.3265963 -40.55332844 139.33462317 -43.08461952 139.34775543 C-46.6272856 139.36482329 -50.16946761 139.36293358 -53.7121582 139.35644531 C-54.75604202 139.3656601 -55.79992584 139.37487488 -56.8754425 139.3843689 C-63.50489583 139.34636417 -68.7456139 138.7941044 -73.9609375 134.31640625 C-74.42757812 133.73761719 -74.89421875 133.15882813 -75.375 132.5625 C-75.85710938 131.98628906 -76.33921875 131.41007813 -76.8359375 130.81640625 C-78.87865798 127.62893972 -79.12531583 124.45408253 -79.14044189 120.73173523 C-79.14615204 119.88652313 -79.15186218 119.04131104 -79.15774536 118.17048645 C-79.15886322 117.25144028 -79.15998108 116.3323941 -79.16113281 115.38549805 C-79.16609772 114.41104736 -79.17106262 113.43659668 -79.17617798 112.43261719 C-79.19078272 109.20897719 -79.19759875 105.9853864 -79.203125 102.76171875 C-79.20887775 100.51976012 -79.21463547 98.2778015 -79.22039795 96.0358429 C-79.23090307 91.33419567 -79.23674897 86.63256552 -79.24023438 81.9309082 C-79.24571864 75.91182815 -79.26974747 69.89297436 -79.29820633 63.87396526 C-79.31684657 59.2422266 -79.32203905 54.6105423 -79.32357025 49.9787693 C-79.32659406 47.76004614 -79.3346134 45.54132386 -79.34775543 43.32263756 C-79.36484488 40.21581261 -79.36292844 37.10953867 -79.35644531 34.00268555 C-79.3656601 33.08971207 -79.37487488 32.17673859 -79.3843689 31.23609924 C-79.3393335 24.33281599 -78.19212164 19.59593352 -73.625 14.1875 C-68.97584849 10.31320708 -65.07185827 9.74667486 -59.09838867 9.68115234 C-58.42466217 9.67110672 -57.75093567 9.6610611 -57.05679321 9.65071106 C-54.8438599 9.61997566 -52.63104704 9.60287121 -50.41796875 9.5859375 C-48.87810741 9.56721805 -47.33825624 9.54764405 -45.79841614 9.5272522 C-41.75597135 9.47600694 -37.71349334 9.43634069 -33.67089844 9.39910889 C-29.54158357 9.35902141 -25.41240602 9.30795075 -21.28320312 9.2578125 C-13.18889602 9.16114334 -5.09452075 9.07670992 3 9 C1.35 7.68 -0.3 6.36 -2 5 C-1.34 3.35 -0.68 1.7 0 0 Z " fill="#E8F6FE" transform="translate(742,266)"/>
<path d="M0 0 C0.97328247 -0.00700928 1.94656494 -0.01401855 2.94934082 -0.02124023 C6.15214962 -0.03877993 9.35406768 -0.02721045 12.55688477 -0.01367188 C14.79216175 -0.01636815 17.02743759 -0.0202517 19.26271057 -0.02526855 C23.94234407 -0.03115836 28.62167166 -0.02261784 33.30126953 -0.00390625 C39.28780475 0.01886939 45.27362205 0.00576519 51.26013088 -0.01819611 C55.8747952 -0.03267914 60.48929051 -0.0280363 65.10396004 -0.01768494 C67.31068063 -0.01502391 69.51741675 -0.01826536 71.72411919 -0.02760315 C74.81388612 -0.03780824 77.9025056 -0.02221094 80.9921875 0 C81.89685257 -0.00809692 82.80151764 -0.01619385 83.7335968 -0.02453613 C89.58547333 0.05305199 94.21914833 1.09277739 99.06079102 4.51757812 C103.62194585 10.24825984 104.21622661 14.7930243 104.25366211 21.90112305 C104.26592834 23.18460632 104.26592834 23.18460632 104.27844238 24.49401855 C104.30327466 27.32868758 104.31980838 30.16330654 104.33422852 32.99804688 C104.33955219 33.9672085 104.34487587 34.93637012 104.35036087 35.93490028 C104.37708519 41.06637404 104.39646094 46.19782355 104.41088867 51.3293457 C104.42421986 55.57110192 104.4520585 59.81237616 104.49291992 64.05395508 C104.54229809 69.17976544 104.56701634 74.30513909 104.57411575 79.43117714 C104.58081889 81.38116535 104.5960165 83.33114417 104.62000656 85.28099632 C104.65174231 88.01686344 104.65168223 90.75105654 104.64428711 93.48706055 C104.66069244 94.28580093 104.67709778 95.08454132 104.69400024 95.90748596 C104.62855767 101.85127169 102.99321108 106.01684829 99.06079102 110.51757812 C94.04414898 114.2151745 88.92134738 113.95028794 82.92797852 113.92163086 C81.92236877 113.92849411 80.91675903 113.93535736 79.88067627 113.94242859 C76.56556981 113.96068963 73.25093685 113.95686034 69.93579102 113.95117188 C67.62703294 113.95573361 65.31827623 113.96103916 63.00952148 113.96705627 C58.17434161 113.97598574 53.33932693 113.97356555 48.50415039 113.96362305 C42.31003709 113.95212684 36.11649332 113.97235623 29.92245483 114.00154018 C25.15605045 114.01989011 20.38978289 114.0196122 15.62335205 114.01390266 C13.33961182 114.01374934 11.05586238 114.01980283 8.77215576 114.03219414 C5.57894175 114.04708101 2.38678459 114.03644357 -0.80639648 114.01928711 C-2.21861481 114.03378906 -2.21861481 114.03378906 -3.65936279 114.04858398 C-9.23723109 113.98586909 -12.61850703 113.3874091 -16.93920898 109.51757812 C-21.22227199 104.60578687 -21.51761979 100.72075005 -21.45678711 94.50219727 C-21.46379639 93.61523666 -21.47080566 92.72827606 -21.47802734 91.81443787 C-21.49557762 88.89354795 -21.48399408 85.97363351 -21.47045898 83.05273438 C-21.47315499 81.01541458 -21.47703831 78.97809604 -21.48205566 76.94078064 C-21.4879469 72.67466967 -21.47940056 68.40889417 -21.46069336 64.14282227 C-21.43791872 58.68412813 -21.45102009 53.22622137 -21.47498322 47.76755619 C-21.48946357 43.56125498 -21.48482465 39.35513924 -21.47447205 35.14883232 C-21.4718102 33.13666121 -21.47505538 31.12447307 -21.48439026 29.11232185 C-21.49459099 26.29521466 -21.47900489 23.4793673 -21.45678711 20.66235352 C-21.46488403 19.83667877 -21.47298096 19.01100403 -21.48132324 18.16030884 C-21.39863887 12.4786744 -20.40028858 9.09145814 -16.93920898 4.51757812 C-11.39929695 0.25897119 -6.84192217 -0.06109979 0 0 Z " fill="#0363FF" transform="translate(296.939208984375,575.482421875)"/>
<path d="M0 0 C1.07701172 0.41572266 1.07701172 0.41572266 2.17578125 0.83984375 C16.02295708 6.8615615 25.56653717 19.27662531 31 33 C36.15641166 47.32336573 35.62513049 63.83704066 29.37109375 77.71484375 C22.15410288 92.75762362 10.73352556 102.82159105 -4.8125 108.9375 C-18.27697595 113.43684226 -35.07060796 112.90211942 -48 107 C-48.83402344 106.43925781 -49.66804687 105.87851562 -50.52734375 105.30078125 C-52.89181555 103.82328075 -52.89181555 103.82328075 -55.421875 103.94140625 C-59.17722992 105.48337774 -61.48743646 108.02258921 -64.25 110.9375 C-64.79140625 111.48857422 -65.3328125 112.03964844 -65.890625 112.60742188 C-68.79501984 115.54313311 -68.79501984 115.54313311 -71 119 C-70.01 119.33 -69.02 119.66 -68 120 C-67.69840303 123.0478534 -67.68006434 124.54285049 -69.46472168 127.09291077 C-70.49442078 128.12405251 -70.49442078 128.12405251 -71.54492188 129.17602539 C-72.31993042 129.96356705 -73.09493896 130.7511087 -73.89343262 131.56251526 C-74.74328735 132.39911179 -75.59314209 133.23570831 -76.46875 134.09765625 C-77.33761841 134.96893661 -78.20648682 135.84021698 -79.10168457 136.73789978 C-81.41733851 139.05232254 -83.74448836 141.35440351 -86.07617188 143.65264893 C-88.42491031 145.9783309 -90.74901733 148.3285119 -93.078125 150.67382812 C-94.87357199 152.46237217 -96.67040368 154.24952745 -98.46875 156.03515625 C-99.30241089 156.87377701 -100.13607178 157.71239777 -100.99499512 158.57643127 C-106.20296837 163.68133962 -111.13435299 168.03597945 -118.50390625 169.49609375 C-125.13516143 169.30734835 -130.29148451 167.78589322 -135.3125 163.25 C-139.15460754 159.09027824 -140.04894903 154.47207034 -140.3125 148.9375 C-139.65361281 140.63552137 -134.27172669 134.78352936 -128.22265625 129.42578125 C-127.61292969 128.91402344 -127.00320313 128.40226563 -126.375 127.875 C-122.41819126 124.53403698 -118.98396716 120.81812124 -115.5 117 C-111.45493374 112.57158913 -107.40290483 108.37939083 -102.7890625 104.53125 C-99.68152094 101.87152011 -96.85017202 98.93033311 -94 96 C-93.401875 96.33 -92.80375 96.66 -92.1875 97 C-89.94613529 98.20787988 -89.94613529 98.20787988 -87 98 C-85.38909451 96.80356665 -85.38909451 96.80356665 -83.86328125 95.15625 C-83.28642578 94.56972656 -82.70957031 93.98320313 -82.11523438 93.37890625 C-81.52033203 92.75886719 -80.92542969 92.13882813 -80.3125 91.5 C-79.70599609 90.87996094 -79.09949219 90.25992188 -78.47460938 89.62109375 C-76.97626257 88.08735293 -75.48723507 86.54451802 -74 85 C-74.32613281 84.44054687 -74.65226563 83.88109375 -74.98828125 83.3046875 C-82.77864911 69.0108562 -84.25328582 52.52384845 -79.94921875 36.87890625 C-78.74119761 33.21507258 -77.35458091 29.61221577 -76 26 C-143.98 25.67 -211.96 25.34 -282 25 C-282 23.35 -282 21.7 -282 20 C-280.92085862 20.0040642 -279.84171724 20.0081284 -278.72987461 20.01231575 C-252.46429682 20.10894539 -226.1991124 20.14806002 -199.93335819 20.12697029 C-187.2313242 20.11810101 -174.5298169 20.12787641 -161.82788086 20.18164062 C-150.75598917 20.22845785 -139.68470917 20.24019425 -128.61274999 20.2099179 C-122.75069741 20.19511023 -116.88983616 20.19779258 -111.02791023 20.24249649 C-105.50748652 20.28404151 -99.98908148 20.27859279 -94.46867371 20.23747826 C-92.44545312 20.23062367 -90.42209045 20.24077367 -88.3990612 20.26943016 C-77.57134257 20.73017117 -77.57134257 20.73017117 -67.87476921 16.79166794 C-65.63663687 14.30347463 -63.84783094 11.78059796 -62 9 C-59.75293781 7.02958349 -57.50234647 5.64381177 -54.9375 4.0625 C-54.33679688 3.69189453 -53.73609375 3.32128906 -53.1171875 2.93945312 C-37.60185259 -6.42671557 -16.60718133 -7.04026742 0 0 Z M2 16 C1.98541748 17.23564697 1.97083496 18.47129395 1.95581055 19.74438477 C1.89762804 24.34981528 1.82039655 28.95476706 1.73754883 33.55981445 C1.70439316 35.54899294 1.67633235 37.53826339 1.65356445 39.52758789 C1.619846 42.39509084 1.56752177 45.26175817 1.51171875 48.12890625 C1.50532883 49.01147598 1.4989389 49.89404572 1.49235535 50.80335999 C1.33223332 57.6011937 0.17422196 62.41443876 -4.3125 67.75 C-10.93572304 73.29502394 -16.63296457 73.46362421 -24.9609375 73.51171875 C-26.10664215 73.52966995 -27.2523468 73.54762115 -28.43276978 73.56611633 C-32.08014279 73.62015437 -35.7273854 73.65409518 -39.375 73.6875 C-41.8528827 73.7206787 -44.33074821 73.75516887 -46.80859375 73.79101562 C-52.87227889 73.87587728 -58.93598104 73.94425486 -65 74 C-61.13633943 84.20617615 -52.54428318 91.14674552 -43 96 C-39.70658802 97.35640524 -36.48679746 98.28704461 -33 99 C-32.23429687 99.165 -31.46859375 99.33 -30.6796875 99.5 C-18.41131354 101.44350478 -5.54741261 97.47655229 4.36328125 90.28515625 C13.73403717 82.58381231 20.01652962 71.9878166 22 60 C22.89363965 45.92517558 20.2444351 33.56160512 10.9375 22.5625 C7.01470253 18.45189679 7.01470253 18.45189679 2 16 Z " fill="#0F265C" transform="translate(694,581)"/>
<path d="M0 0 C1.15275264 -0.00623996 2.30550528 -0.01247993 3.49318981 -0.01890898 C6.67512432 -0.03205794 9.85644336 -0.02738762 13.03836203 -0.0149641 C16.47674852 -0.00588782 19.91505387 -0.01989606 23.35342407 -0.03088379 C30.0821455 -0.04864622 36.81068819 -0.04483925 43.53941655 -0.03323323 C49.00923326 -0.02419018 54.47899998 -0.02297866 59.94882202 -0.02732849 C60.72808019 -0.02794142 61.50733836 -0.02855436 62.31021041 -0.02918586 C63.8933863 -0.0304648 65.47656218 -0.03176165 67.05973804 -0.03307623 C81.89619554 -0.04447535 96.73255409 -0.03137882 111.56899536 -0.00987476 C124.29222158 0.00799563 137.0153018 0.00489134 149.73852539 -0.0135498 C164.52282393 -0.03496833 179.3070358 -0.04337678 194.09134769 -0.03110075 C195.66861533 -0.02982659 197.24588297 -0.0285691 198.82315063 -0.02732849 C199.59914413 -0.02671139 200.37513763 -0.02609429 201.17464608 -0.02545848 C206.63625784 -0.02200853 212.0978145 -0.02782628 217.55941772 -0.0372467 C224.21766919 -0.048479 230.87573208 -0.04540091 237.53396201 -0.02412373 C240.929461 -0.01362969 244.32464588 -0.00946293 247.72014236 -0.02272034 C251.40439921 -0.03364872 255.08777214 -0.01994294 258.77197266 0 C259.84046039 -0.00892289 260.90894812 -0.01784577 262.00981426 -0.02703905 C269.36150133 0.05016262 274.97175307 1.19088063 280.44458008 6.50793457 C280.89961914 7.16793457 281.3546582 7.82793457 281.82348633 8.50793457 C282.29657227 9.16793457 282.7696582 9.82793457 283.25708008 10.50793457 C287.51388832 18.04940799 285.38598633 27.23489504 285.38598633 35.50793457 C182.42598633 35.50793457 79.46598633 35.50793457 -26.61401367 35.50793457 C-26.61401367 11.50793457 -26.61401367 11.50793457 -19.61401367 4.50793457 C-13.34729045 0.17837526 -7.42796333 -0.06203055 0 0 Z " fill="#10275D" transform="translate(410.614013671875,424.4920654296875)"/>
<path d="M0 0 C0.77590485 -0.00525696 1.55180969 -0.01051392 2.35122681 -0.01593018 C4.91794927 -0.02914225 7.48405239 -0.02038807 10.05078125 -0.01025391 C11.83292765 -0.0122743 13.61507324 -0.01518545 15.3972168 -0.01895142 C19.1330553 -0.0233764 22.86867868 -0.01693817 26.60449219 -0.00292969 C31.39657209 0.01416236 36.18814795 0.0043221 40.98020935 -0.01364708 C44.66047981 -0.02448025 48.3406305 -0.02104074 52.02090454 -0.0132637 C53.78797464 -0.0112604 55.55505557 -0.01372553 57.32211304 -0.02070236 C59.79055649 -0.02830926 62.2581802 -0.01672393 64.7265625 0 C65.45912262 -0.00607269 66.19168274 -0.01214539 66.94644165 -0.0184021 C69.75600272 0.01691766 71.87311432 0.09518023 74.3163147 1.55563354 C75.79448139 4.14293152 75.7445878 6.12245638 75.75146484 9.09716797 C75.76092133 10.26848267 75.77037781 11.43979736 75.78012085 12.64660645 C75.77404816 13.9122644 75.76797546 15.17792236 75.76171875 16.48193359 C75.76458893 17.78014038 75.76745911 19.07834717 75.77041626 20.41589355 C75.774838 23.1631135 75.76841384 25.91004067 75.75439453 28.65722656 C75.73730217 32.178152 75.74714423 35.69839142 75.76511192 39.21929169 C75.77856082 42.57772731 75.76914389 45.93597848 75.76171875 49.29443359 C75.76779144 50.56009155 75.77386414 51.82574951 75.78012085 53.12976074 C75.76593613 54.88673279 75.76593613 54.88673279 75.75146484 56.67919922 C75.74907806 57.71161743 75.74669128 58.74403564 75.74423218 59.80773926 C75.36328125 62.38818359 75.36328125 62.38818359 74.3163147 64.22073364 C71.27234169 66.04030624 68.1707874 65.80491873 64.7265625 65.77636719 C63.95065765 65.78162415 63.17475281 65.7868811 62.37533569 65.79229736 C59.80861323 65.80550944 57.24251011 65.79675526 54.67578125 65.78662109 C52.89363485 65.78864149 51.11148926 65.79155264 49.3293457 65.7953186 C45.5935072 65.79974358 41.85788382 65.79330535 38.12207031 65.77929688 C33.32999041 65.76220483 28.53841455 65.77204509 23.74635315 65.79001427 C20.06608269 65.80084744 16.385932 65.79740792 12.70565796 65.78963089 C10.93858786 65.78762759 9.17150693 65.79009271 7.40444946 65.79706955 C4.93600601 65.80467645 2.4683823 65.79309112 0 65.77636719 C-0.73256012 65.78243988 -1.46512024 65.78851257 -2.21987915 65.79476929 C-5.02944022 65.75944952 -7.14655182 65.68118695 -9.5897522 64.22073364 C-11.06791889 61.63343567 -11.0180253 59.65391081 -11.02490234 56.67919922 C-11.03435883 55.50788452 -11.04381531 54.33656982 -11.05355835 53.12976074 C-11.04748566 51.86410278 -11.04141296 50.59844482 -11.03515625 49.29443359 C-11.03802643 47.99622681 -11.04089661 46.69802002 -11.04385376 45.36047363 C-11.0482755 42.61325369 -11.04185134 39.86632652 -11.02783203 37.11914062 C-11.01073967 33.59821519 -11.02058173 30.07797577 -11.03854942 26.5570755 C-11.05199832 23.19863988 -11.04258139 19.84038871 -11.03515625 16.48193359 C-11.04122894 15.21627563 -11.04730164 13.95061768 -11.05355835 12.64660645 C-11.04410187 11.47529175 -11.03464539 10.30397705 -11.02490234 9.09716797 C-11.02251556 8.06474976 -11.02012878 7.03233154 -11.01766968 5.96862793 C-10.63671875 3.38818359 -10.63671875 3.38818359 -9.5897522 1.55563354 C-6.54577919 -0.26393905 -3.4442249 -0.02855154 0 0 Z " fill="#E1F1FF" transform="translate(430.63671875,490.61181640625)"/>
<path d="M0 0 C1.00962799 -0.00281982 2.01925598 -0.00563965 3.05947876 -0.00854492 C4.17640106 -0.00652069 5.29332336 -0.00449646 6.4440918 -0.00241089 C8.1975441 -0.00503937 8.1975441 -0.00503937 9.98641968 -0.00772095 C13.20121494 -0.011379 16.41596932 -0.01050611 19.63076401 -0.00734186 C22.98821858 -0.00481777 26.34567033 -0.00715593 29.703125 -0.00872803 C35.34237156 -0.01054958 40.98160504 -0.00814379 46.62084961 -0.00338745 C53.14931314 0.00205515 59.67774545 0.00029248 66.20620823 -0.00521386 C71.80195414 -0.00974539 77.39769062 -0.01039534 82.99343777 -0.00777519 C86.33967539 -0.00621264 89.68589832 -0.00601805 93.03213501 -0.00931168 C96.7606216 -0.0118365 100.48904728 -0.008 104.2175293 -0.00241089 C105.3344516 -0.00443512 106.4513739 -0.00645935 107.60214233 -0.00854492 C109.11658432 -0.00431519 109.11658432 -0.00431519 110.66162109 0 C111.98567207 0.00056554 111.98567207 0.00056554 113.33647156 0.0011425 C115.33081055 0.12698364 115.33081055 0.12698364 116.33081055 1.12698364 C116.43180542 3.85422643 116.47051584 6.55560887 116.46362305 9.28323364 C116.46457977 10.10070068 116.4655365 10.91816772 116.46652222 11.76040649 C116.467204 13.49213742 116.46534984 15.22387088 116.46118164 16.95559692 C116.45583334 19.61564846 116.46112667 22.27553114 116.4675293 24.93557739 C116.46686852 26.61396318 116.46558735 28.29234887 116.46362305 29.97073364 C116.46564728 30.77176514 116.46767151 31.57279663 116.46975708 32.39810181 C116.44576134 38.01203285 116.44576134 38.01203285 115.33081055 39.12698364 C113.77692891 39.22503229 112.21859291 39.25330226 110.66162109 39.25396729 C109.14717911 39.25819702 109.14717911 39.25819702 107.60214233 39.26251221 C105.92675888 39.25947586 105.92675888 39.25947586 104.2175293 39.25637817 C102.464077 39.25900665 102.464077 39.25900665 100.67520142 39.26168823 C97.46040615 39.26534628 94.24565177 39.2644734 91.03085709 39.26130915 C87.67340252 39.25878506 84.31595076 39.26112322 80.95849609 39.26269531 C75.31924954 39.26451687 69.68001606 39.26211107 64.04077148 39.25735474 C57.51230795 39.25191214 50.98387564 39.25367481 44.45541286 39.25918114 C38.85966696 39.26371268 33.26393047 39.26436262 27.66818333 39.26174247 C24.3219457 39.26017992 20.97572278 39.25998533 17.62948608 39.26327896 C13.9009995 39.26580379 10.17257382 39.26196728 6.4440918 39.25637817 C5.32716949 39.2584024 4.21024719 39.26042664 3.05947876 39.26251221 C2.04985077 39.25969238 1.04022278 39.25687256 0 39.25396729 C-0.88270065 39.25359026 -1.76540131 39.25321323 -2.67485046 39.25282478 C-4.66918945 39.12698364 -4.66918945 39.12698364 -5.66918945 38.12698364 C-5.77018433 35.39974086 -5.80889474 32.69835841 -5.80200195 29.97073364 C-5.80295868 29.1532666 -5.80391541 28.33579956 -5.80490112 27.49356079 C-5.80558291 25.76182987 -5.80372875 24.0300964 -5.79956055 22.29837036 C-5.79421224 19.63831882 -5.79950557 16.97843614 -5.8059082 14.31838989 C-5.80524742 12.6400041 -5.80396626 10.96161841 -5.80200195 9.28323364 C-5.80402618 8.48220215 -5.80605042 7.68117065 -5.80813599 6.85586548 C-5.77884236 0.0024683 -5.77884236 0.0024683 0 0 Z " fill="#D7E7F4" transform="translate(546.669189453125,533.8730163574219)"/>
<path d="M0 0 C1.00962799 -0.00281982 2.01925598 -0.00563965 3.05947876 -0.00854492 C4.17640106 -0.00652069 5.29332336 -0.00449646 6.4440918 -0.00241089 C8.1975441 -0.00503937 8.1975441 -0.00503937 9.98641968 -0.00772095 C13.20121494 -0.011379 16.41596932 -0.01050611 19.63076401 -0.00734186 C22.98821858 -0.00481777 26.34567033 -0.00715593 29.703125 -0.00872803 C35.34237156 -0.01054958 40.98160504 -0.00814379 46.62084961 -0.00338745 C53.14931314 0.00205515 59.67774545 0.00029248 66.20620823 -0.00521386 C71.80195414 -0.00974539 77.39769062 -0.01039534 82.99343777 -0.00777519 C86.33967539 -0.00621264 89.68589832 -0.00601805 93.03213501 -0.00931168 C96.7606216 -0.0118365 100.48904728 -0.008 104.2175293 -0.00241089 C105.3344516 -0.00443512 106.4513739 -0.00645935 107.60214233 -0.00854492 C109.11658432 -0.00431519 109.11658432 -0.00431519 110.66162109 0 C111.98567207 0.00056554 111.98567207 0.00056554 113.33647156 0.0011425 C115.33081055 0.12698364 115.33081055 0.12698364 116.33081055 1.12698364 C116.43180542 3.85422643 116.47051584 6.55560887 116.46362305 9.28323364 C116.46457977 10.10070068 116.4655365 10.91816772 116.46652222 11.76040649 C116.467204 13.49213742 116.46534984 15.22387088 116.46118164 16.95559692 C116.45583334 19.61564846 116.46112667 22.27553114 116.4675293 24.93557739 C116.46686852 26.61396318 116.46558735 28.29234887 116.46362305 29.97073364 C116.46564728 30.77176514 116.46767151 31.57279663 116.46975708 32.39810181 C116.44576134 38.01203285 116.44576134 38.01203285 115.33081055 39.12698364 C113.77692891 39.22503229 112.21859291 39.25330226 110.66162109 39.25396729 C109.14717911 39.25819702 109.14717911 39.25819702 107.60214233 39.26251221 C105.92675888 39.25947586 105.92675888 39.25947586 104.2175293 39.25637817 C102.464077 39.25900665 102.464077 39.25900665 100.67520142 39.26168823 C97.46040615 39.26534628 94.24565177 39.2644734 91.03085709 39.26130915 C87.67340252 39.25878506 84.31595076 39.26112322 80.95849609 39.26269531 C75.31924954 39.26451687 69.68001606 39.26211107 64.04077148 39.25735474 C57.51230795 39.25191214 50.98387564 39.25367481 44.45541286 39.25918114 C38.85966696 39.26371268 33.26393047 39.26436262 27.66818333 39.26174247 C24.3219457 39.26017992 20.97572278 39.25998533 17.62948608 39.26327896 C13.9009995 39.26580379 10.17257382 39.26196728 6.4440918 39.25637817 C5.32716949 39.2584024 4.21024719 39.26042664 3.05947876 39.26251221 C2.04985077 39.25969238 1.04022278 39.25687256 0 39.25396729 C-0.88270065 39.25359026 -1.76540131 39.25321323 -2.67485046 39.25282478 C-4.66918945 39.12698364 -4.66918945 39.12698364 -5.66918945 38.12698364 C-5.77018433 35.39974086 -5.80889474 32.69835841 -5.80200195 29.97073364 C-5.80295868 29.1532666 -5.80391541 28.33579956 -5.80490112 27.49356079 C-5.80558291 25.76182987 -5.80372875 24.0300964 -5.79956055 22.29837036 C-5.79421224 19.63831882 -5.79950557 16.97843614 -5.8059082 14.31838989 C-5.80524742 12.6400041 -5.80396626 10.96161841 -5.80200195 9.28323364 C-5.80402618 8.48220215 -5.80605042 7.68117065 -5.80813599 6.85586548 C-5.77884236 0.0024683 -5.77884236 0.0024683 0 0 Z " fill="#D7E7F4" transform="translate(546.669189453125,483.8730163574219)"/>
<path d="M0 0 C0.82148529 0.00054477 1.64297058 0.00108953 2.48934937 0.00165081 C3.43159363 -0.00254368 4.37383789 -0.00673817 5.34463501 -0.01105976 C6.90006012 -0.0026305 6.90006012 -0.0026305 8.48690796 0.00596905 C9.57638733 0.0040707 10.6658667 0.00217236 11.7883606 0.00021648 C15.40409449 -0.00350033 19.01962929 0.00722586 22.63534546 0.01842022 C25.13876319 0.01961162 27.64218137 0.02006527 30.14559937 0.01980877 C35.39806444 0.0213752 40.65047784 0.02943534 45.90292358 0.04307842 C51.97980261 0.05880439 58.05661841 0.06407655 64.13351631 0.06334287 C69.97371443 0.06273294 75.81389124 0.06794306 81.65408325 0.07613468 C84.1420784 0.07932566 86.63007542 0.08128975 89.11807251 0.08202839 C92.59000862 0.0841874 96.06186407 0.09292218 99.53378296 0.1036253 C100.57073303 0.10317211 101.60768311 0.10271893 102.67605591 0.10225201 C103.61830017 0.10651699 104.56054443 0.11078197 105.53134155 0.1151762 C106.76356949 0.11768997 106.76356949 0.11768997 108.02069092 0.12025452 C110.01034546 0.24888897 110.01034546 0.24888897 112.01034546 1.24888897 C112.05971056 6.19679074 112.09604815 11.1445498 112.12020874 16.09263897 C112.13027863 17.77658363 112.14393534 19.46051076 112.16122437 21.14439678 C112.18542971 23.56208398 112.19681842 25.9795404 112.20565796 28.39732647 C112.21598053 29.15258617 112.2263031 29.90784588 112.23693848 30.68599224 C112.23733864 32.54182877 112.13257262 34.39708177 112.01034546 36.24888897 C109.55466239 38.70457204 108.90414234 38.49976032 105.53134155 38.50285625 C104.11797516 38.51131573 104.11797516 38.51131573 102.67605591 38.5199461 C101.63910583 38.51589764 100.60215576 38.51184917 99.53378296 38.50767803 C98.44430359 38.51118267 97.35482422 38.51468731 96.23233032 38.51829815 C92.61660465 38.52712954 89.00107326 38.52126127 85.38534546 38.51451397 C82.88192711 38.51586021 80.37850901 38.5178004 77.87509155 38.52031231 C72.62262983 38.52326548 67.37021902 38.51914931 62.11776733 38.50963116 C56.04085728 38.4987463 49.96408141 38.50227179 43.88717461 38.51328397 C38.04696997 38.52344457 32.20681645 38.52238052 26.36660767 38.5165205 C23.87861106 38.51518255 21.39061104 38.51683677 18.90261841 38.52147961 C15.43062149 38.52653618 11.95888536 38.51884669 8.48690796 38.50767803 C7.44995789 38.51172649 6.41300781 38.51577496 5.34463501 38.5199461 C4.40239075 38.51430645 3.46014648 38.5086668 2.48934937 38.50285625 C1.66786407 38.5021022 0.84637878 38.50134815 0 38.50057125 C-1.98965454 38.24888897 -1.98965454 38.24888897 -3.98965454 36.24888897 C-4.18922424 33.69138444 -4.26952281 31.24450756 -4.25527954 28.68638897 C-4.25719299 27.93929668 -4.25910645 27.1922044 -4.26107788 26.42247295 C-4.26243952 24.84214726 -4.25874454 23.26181039 -4.25039673 21.68150616 C-4.23969654 19.25839975 -4.25029233 16.83603474 -4.26309204 14.41295147 C-4.26177044 12.87909566 -4.25920804 11.34524032 -4.25527954 9.81138897 C-4.259328 9.08427715 -4.26337646 8.35716534 -4.26754761 7.60801983 C-4.2013108 0.52554848 -4.2013108 0.52554848 0 0 Z " fill="#D9E8F4" transform="translate(679.9896545410156,302.7511110305786)"/>
<path d="M0 0 C0.82148529 0.00054477 1.64297058 0.00108953 2.48934937 0.00165081 C3.43159363 -0.00254368 4.37383789 -0.00673817 5.34463501 -0.01105976 C6.90006012 -0.0026305 6.90006012 -0.0026305 8.48690796 0.00596905 C9.57638733 0.0040707 10.6658667 0.00217236 11.7883606 0.00021648 C15.40409449 -0.00350033 19.01962929 0.00722586 22.63534546 0.01842022 C25.13876319 0.01961162 27.64218137 0.02006527 30.14559937 0.01980877 C35.39806444 0.0213752 40.65047784 0.02943534 45.90292358 0.04307842 C51.97980261 0.05880439 58.05661841 0.06407655 64.13351631 0.06334287 C69.97371443 0.06273294 75.81389124 0.06794306 81.65408325 0.07613468 C84.1420784 0.07932566 86.63007542 0.08128975 89.11807251 0.08202839 C92.59000862 0.0841874 96.06186407 0.09292218 99.53378296 0.1036253 C100.57073303 0.10317211 101.60768311 0.10271893 102.67605591 0.10225201 C103.61830017 0.10651699 104.56054443 0.11078197 105.53134155 0.1151762 C106.76356949 0.11768997 106.76356949 0.11768997 108.02069092 0.12025452 C110.01034546 0.24888897 110.01034546 0.24888897 112.01034546 1.24888897 C112.05971056 6.19679074 112.09604815 11.1445498 112.12020874 16.09263897 C112.13027863 17.77658363 112.14393534 19.46051076 112.16122437 21.14439678 C112.18542971 23.56208398 112.19681842 25.9795404 112.20565796 28.39732647 C112.21598053 29.15258617 112.2263031 29.90784588 112.23693848 30.68599224 C112.23733864 32.54182877 112.13257262 34.39708177 112.01034546 36.24888897 C109.56305575 38.69617868 108.93370559 38.49974132 105.57603455 38.50285625 C104.17745712 38.51131573 104.17745712 38.51131573 102.75062561 38.5199461 C101.72459732 38.51589764 100.69856903 38.51184917 99.64144897 38.50767803 C98.02426971 38.51293499 98.02426971 38.51293499 96.37442017 38.51829815 C92.79596596 38.52713011 89.21770807 38.52126067 85.63925171 38.51451397 C83.16064923 38.5158603 80.68204701 38.51780055 78.20344543 38.52031231 C72.3350912 38.52364447 66.46680864 38.51662575 60.59846491 38.50601077 C55.91598651 38.49850479 51.23359221 38.50115357 46.55111694 38.50963116 C40.10382073 38.52120483 33.65660595 38.52305074 27.2093029 38.5165205 C24.74725259 38.51518353 22.28519883 38.51683337 19.82315254 38.52147961 C16.38488648 38.5265431 12.94688292 38.51883659 9.50863647 38.50767803 C7.97263039 38.51375072 7.97263039 38.51375072 6.40559387 38.5199461 C5.00278671 38.51148663 5.00278671 38.51148663 3.57164001 38.50285625 C2.35185628 38.50172518 2.35185628 38.50172518 1.10743046 38.50057125 C-0.98965454 38.24888897 -0.98965454 38.24888897 -3.98965454 36.24888897 C-4.28167178 33.64773341 -4.38588804 31.28797745 -4.35293579 28.68638897 C-4.3534343 27.93929668 -4.3539328 27.1922044 -4.35444641 26.42247295 C-4.35210477 24.84212365 -4.34237085 23.2617707 -4.32583618 21.68150616 C-4.30224632 19.25831646 -4.30527364 16.83622675 -4.31192017 14.41295147 C-4.3063434 12.87909072 -4.29923353 11.34523462 -4.29043579 9.81138897 C-4.2913472 9.08427715 -4.29225861 8.35716534 -4.29319763 7.60801983 C-4.19303421 0.52451315 -4.19303421 0.52451315 0 0 Z " fill="#D7E6F3" transform="translate(679.9896545410156,348.7511110305786)"/>
<path d="M0 0 C0.7027002 0.32863037 1.40540039 0.65726074 2.12939453 0.99584961 C5.2182167 4.30518675 4.55030089 8.09526965 4.49609375 12.453125 C4.49754898 13.38670837 4.49900421 14.32029175 4.50050354 15.28216553 C4.49884292 17.25926835 4.4872635 19.23638387 4.46655273 21.21337891 C4.43774062 24.22485027 4.44591213 27.2345455 4.45898438 30.24609375 C4.45274235 32.16927933 4.44434779 34.09245936 4.43359375 36.015625 C4.43652939 36.91065735 4.43946503 37.8056897 4.44248962 38.72784424 C4.32874476 46.35629073 2.5614564 52.4385436 -3 58 C-9.84627143 62.30569388 -15.40462748 62.53780436 -23.375 62.390625 C-24.5400708 62.38496521 -25.7051416 62.37930542 -26.90551758 62.37347412 C-30.60410725 62.35119421 -34.30170617 62.30101095 -38 62.25 C-40.51691303 62.22992428 -43.03384134 62.21167539 -45.55078125 62.1953125 C-51.70085534 62.1513568 -57.85035686 62.08452788 -64 62 C-69.53087253 49.2883707 -70.60694808 38.32893954 -66.21875 25.0703125 C-64.48887654 20.71236206 -62.35920963 16.35920963 -59 13 C-56.85441173 12.91224395 -54.70595579 12.89304781 -52.55859375 12.90234375 C-51.25341797 12.90556641 -49.94824219 12.90878906 -48.60351562 12.91210938 C-47.2148431 12.92046599 -45.82617123 12.92893095 -44.4375 12.9375 C-43.04492344 12.94251334 -41.65234519 12.94707653 -40.25976562 12.95117188 C-36.8398013 12.96300566 -33.41992156 12.9794912 -30 13 C-30 11.35 -30 9.7 -30 8 C-37.92 8 -45.84 8 -54 8 C-50.4660295 4.4660295 -48.20248361 2.24205493 -44.125 -0.1875 C-42.92230469 -0.92033203 -42.92230469 -0.92033203 -41.6953125 -1.66796875 C-28.87193302 -8.00532006 -12.37414115 -6.68617977 0 0 Z " fill="#E7F5FE" transform="translate(692,593)"/>
<path d="M0 0 C0.77590485 -0.00525696 1.55180969 -0.01051392 2.35122681 -0.01593018 C4.91794927 -0.02914225 7.48405239 -0.02038807 10.05078125 -0.01025391 C11.83292765 -0.0122743 13.61507324 -0.01518545 15.3972168 -0.01895142 C19.1330553 -0.0233764 22.86867868 -0.01693817 26.60449219 -0.00292969 C31.39657209 0.01416236 36.18814795 0.0043221 40.98020935 -0.01364708 C44.66047981 -0.02448025 48.3406305 -0.02104074 52.02090454 -0.0132637 C53.78797464 -0.0112604 55.55505557 -0.01372553 57.32211304 -0.02070236 C59.79055649 -0.02830926 62.2581802 -0.01672393 64.7265625 0 C65.45912262 -0.00607269 66.19168274 -0.01214539 66.94644165 -0.0184021 C69.75600272 0.01691766 71.87311432 0.09518023 74.3163147 1.55563354 C75.79448139 4.14293152 75.7445878 6.12245638 75.75146484 9.09716797 C75.76092133 10.26848267 75.77037781 11.43979736 75.78012085 12.64660645 C75.77404816 13.9122644 75.76797546 15.17792236 75.76171875 16.48193359 C75.76458893 17.78014038 75.76745911 19.07834717 75.77041626 20.41589355 C75.774838 23.1631135 75.76841384 25.91004067 75.75439453 28.65722656 C75.73730217 32.178152 75.74714423 35.69839142 75.76511192 39.21929169 C75.77856082 42.57772731 75.76914389 45.93597848 75.76171875 49.29443359 C75.76779144 50.56009155 75.77386414 51.82574951 75.78012085 53.12976074 C75.76593613 54.88673279 75.76593613 54.88673279 75.75146484 56.67919922 C75.74907806 57.71161743 75.74669128 58.74403564 75.74423218 59.80773926 C75.36328125 62.38818359 75.36328125 62.38818359 74.3163147 64.22073364 C71.27234169 66.04030624 68.1707874 65.80491873 64.7265625 65.77636719 C63.95065765 65.78162415 63.17475281 65.7868811 62.37533569 65.79229736 C59.80861323 65.80550944 57.24251011 65.79675526 54.67578125 65.78662109 C52.89363485 65.78864149 51.11148926 65.79155264 49.3293457 65.7953186 C45.5935072 65.79974358 41.85788382 65.79330535 38.12207031 65.77929688 C33.32999041 65.76220483 28.53841455 65.77204509 23.74635315 65.79001427 C20.06608269 65.80084744 16.385932 65.79740792 12.70565796 65.78963089 C10.93858786 65.78762759 9.17150693 65.79009271 7.40444946 65.79706955 C4.93600601 65.80467645 2.4683823 65.79309112 0 65.77636719 C-0.73256012 65.78243988 -1.46512024 65.78851257 -2.21987915 65.79476929 C-5.02944022 65.75944952 -7.14655182 65.68118695 -9.5897522 64.22073364 C-11.06791889 61.63343567 -11.0180253 59.65391081 -11.02490234 56.67919922 C-11.03435883 55.50788452 -11.04381531 54.33656982 -11.05355835 53.12976074 C-11.04748566 51.86410278 -11.04141296 50.59844482 -11.03515625 49.29443359 C-11.03802643 47.99622681 -11.04089661 46.69802002 -11.04385376 45.36047363 C-11.0482755 42.61325369 -11.04185134 39.86632652 -11.02783203 37.11914062 C-11.01073967 33.59821519 -11.02058173 30.07797577 -11.03854942 26.5570755 C-11.05199832 23.19863988 -11.04258139 19.84038871 -11.03515625 16.48193359 C-11.04122894 15.21627563 -11.04730164 13.95061768 -11.05355835 12.64660645 C-11.04410187 11.47529175 -11.03464539 10.30397705 -11.02490234 9.09716797 C-11.02251556 8.06474976 -11.02012878 7.03233154 -11.01766968 5.96862793 C-10.63671875 3.38818359 -10.63671875 3.38818359 -9.5897522 1.55563354 C-6.54577919 -0.26393905 -3.4442249 -0.02855154 0 0 Z M-5.63671875 6.38818359 C-5.63671875 23.87818359 -5.63671875 41.36818359 -5.63671875 59.38818359 C-4.64671875 59.38818359 -3.65671875 59.38818359 -2.63671875 59.38818359 C-0.89449357 57.26175821 -0.89449357 57.26175821 0.7265625 54.45458984 C1.36658203 53.41238281 2.00660156 52.37017578 2.66601562 51.29638672 C3.32923828 50.19230469 3.99246094 49.08822266 4.67578125 47.95068359 C6.6217738 44.75740799 8.57122044 41.56644083 10.52978516 38.38085938 C11.70516736 36.46237268 12.86519714 34.53434453 14.00537109 32.59472656 C14.50891113 31.77246582 15.01245117 30.95020508 15.53125 30.10302734 C15.96074951 29.38107178 16.39024902 28.65911621 16.83276367 27.9152832 C18.36328125 26.38818359 18.36328125 26.38818359 21.0402832 26.15600586 C21.80687256 26.23262451 22.57346191 26.30924316 23.36328125 26.38818359 C23.77102783 27.48199341 23.77102783 27.48199341 24.18701172 28.59790039 C25.3203138 31.28625852 26.61424515 33.57852075 28.18359375 36.03271484 C28.71855469 36.87382813 29.25351562 37.71494141 29.8046875 38.58154297 C30.36027344 39.44585938 30.91585937 40.31017578 31.48828125 41.20068359 C32.05160156 42.08433594 32.61492187 42.96798828 33.1953125 43.87841797 C34.58091299 46.05075772 35.97032759 48.22055442 37.36328125 50.38818359 C39.89794671 47.06200629 41.9627384 43.65385185 43.984375 39.99755859 C44.43941406 39.46646484 44.89445312 38.93537109 45.36328125 38.38818359 C46.68328125 38.38818359 48.00328125 38.38818359 49.36328125 38.38818359 C50.88378906 40.31591797 50.88378906 40.31591797 52.31640625 42.98193359 C52.85394531 43.92939453 53.39148438 44.87685547 53.9453125 45.85302734 C55.05368701 47.86990555 56.15015838 49.89337282 57.234375 51.92333984 C57.77707031 52.87080078 58.31976563 53.81826172 58.87890625 54.79443359 C59.35618164 55.67421875 59.83345703 56.55400391 60.32519531 57.46044922 C62.86439233 60.30440372 62.86439233 60.30440372 70.36328125 59.38818359 C70.36328125 41.89818359 70.36328125 24.40818359 70.36328125 6.38818359 C45.28328125 6.38818359 20.20328125 6.38818359 -5.63671875 6.38818359 Z " fill="#0765FF" transform="translate(430.63671875,490.61181640625)"/>
<path d="M0 0 C0.73541016 0.00202423 1.47082031 0.00404846 2.22851562 0.00613403 C2.97939453 0.00517731 3.73027344 0.00422058 4.50390625 0.00323486 C6.09440189 0.00255315 7.6849003 0.00440682 9.27539062 0.00857544 C11.71816217 0.01392386 14.16074984 0.00863019 16.60351562 0.00222778 C18.1451827 0.00288857 19.68684966 0.00416973 21.22851562 0.00613403 C21.96392578 0.0041098 22.69933594 0.00208557 23.45703125 0 C28.61356402 0.02399493 28.61356402 0.02399493 29.72851562 1.13894653 C29.98231797 5.61226612 29.91374284 10.09678113 29.91601562 14.57644653 C29.92826172 15.84295044 29.94050781 17.10945435 29.953125 18.41433716 C29.95505859 19.62154419 29.95699219 20.82875122 29.95898438 22.07254028 C29.96309326 23.18685425 29.96720215 24.30116821 29.97143555 25.44924927 C29.72851562 28.13894653 29.72851562 28.13894653 27.72851562 30.13894653 C24.59570312 30.3977356 24.59570312 30.3977356 20.60351562 30.40457153 C19.90081543 30.40648499 19.19811523 30.40839844 18.47412109 30.41036987 C16.98795209 30.41173129 15.50177118 30.40803786 14.015625 30.39968872 C11.73735917 30.38898807 9.45988186 30.39958493 7.18164062 30.41238403 C5.73893055 30.41106243 4.29622096 30.40850002 2.85351562 30.40457153 C1.53609375 30.40231567 0.21867188 30.40005981 -1.13867188 30.3977356 C-4.27148438 30.13894653 -4.27148438 30.13894653 -6.27148438 28.13894653 C-6.5144043 25.44924927 -6.5144043 25.44924927 -6.50195312 22.07254028 C-6.50001953 20.86533325 -6.49808594 19.65812622 -6.49609375 18.41433716 C-6.48384766 17.14783325 -6.47160156 15.88132935 -6.45898438 14.57644653 C-6.45833984 13.30607544 -6.45769531 12.03570435 -6.45703125 10.72683716 C-6.40557573 0.02980711 -6.40557573 0.02980711 0 0 Z " fill="#0665FF" transform="translate(552.271484375,538.8610534667969)"/>
<path d="M0 0 C69.3 0 138.6 0 210 0 C209.34 1.65 208.68 3.3 208 5 C139.36 5 70.72 5 0 5 C0 3.35 0 1.7 0 0 Z " fill="#0060FE" transform="translate(412,601)"/>
<path d="M0 0 C0.73541016 0.00202423 1.47082031 0.00404846 2.22851562 0.00613403 C2.97939453 0.00517731 3.73027344 0.00422058 4.50390625 0.00323486 C6.09440189 0.00255315 7.6849003 0.00440682 9.27539062 0.00857544 C11.71816217 0.01392386 14.16074984 0.00863019 16.60351562 0.00222778 C18.1451827 0.00288857 19.68684966 0.00416973 21.22851562 0.00613403 C21.96392578 0.0041098 22.69933594 0.00208557 23.45703125 0 C28.61356402 0.02399493 28.61356402 0.02399493 29.72851562 1.13894653 C29.8283462 3.12651681 29.85932316 5.11762173 29.86132812 7.10769653 C29.86326172 8.92334106 29.86326172 8.92334106 29.86523438 10.77566528 C29.86136719 12.0505481 29.8575 13.32543091 29.85351562 14.63894653 C29.85931641 16.55127075 29.85931641 16.55127075 29.86523438 18.50222778 C29.86394531 19.71265747 29.86265625 20.92308716 29.86132812 22.17019653 C29.8602002 23.28974731 29.85907227 24.4092981 29.85791016 25.56277466 C29.72851562 28.13894653 29.72851562 28.13894653 28.72851562 29.13894653 C26.21927409 29.23981865 23.73815179 29.27866686 21.22851562 29.27175903 C20.47763672 29.27271576 19.72675781 29.27367249 18.953125 29.2746582 C17.36262936 29.27533991 15.77213095 29.27348625 14.18164062 29.26931763 C11.73886908 29.2639692 9.29628141 29.26926287 6.85351562 29.27566528 C5.31184855 29.2750045 3.77018159 29.27372333 2.22851562 29.27175903 C1.49310547 29.27378326 0.75769531 29.2758075 0 29.27789307 C-5.15653277 29.25389814 -5.15653277 29.25389814 -6.27148438 28.13894653 C-6.37131495 26.15137626 -6.40229191 24.16027134 -6.40429688 22.17019653 C-6.40558594 20.95976685 -6.406875 19.74933716 -6.40820312 18.50222778 C-6.40433594 17.22734497 -6.40046875 15.95246216 -6.39648438 14.63894653 C-6.40035156 13.36406372 -6.40421875 12.08918091 -6.40820312 10.77566528 C-6.40691406 9.5652356 -6.405625 8.35480591 -6.40429688 7.10769653 C-6.40316895 5.98814575 -6.40204102 4.86859497 -6.40087891 3.71511841 C-6.16962288 -0.88905815 -4.09401224 0.01905069 0 0 Z " fill="#0363FF" transform="translate(552.271484375,488.8610534667969)"/>
<path d="M0 0 C4.53904366 -0.02291161 9.07788802 -0.04283781 13.61694336 -0.05493164 C15.16219766 -0.0599714 16.70744716 -0.0668032 18.25268555 -0.07543945 C20.46925029 -0.08752076 22.68575218 -0.09323173 24.90234375 -0.09765625 C25.5971434 -0.10281754 26.29194305 -0.10797882 27.00779724 -0.11329651 C28.6722933 -0.11349277 30.33665499 -0.06189129 32 0 C33.77449594 1.77449594 33.13030072 4.35017261 33.1328125 6.75 C33.13474609 8.49796875 33.13474609 8.49796875 33.13671875 10.28125 C33.13285156 11.5084375 33.12898437 12.735625 33.125 14 C33.13080078 15.84078125 33.13080078 15.84078125 33.13671875 17.71875 C33.13542969 18.8840625 33.13414062 20.049375 33.1328125 21.25 C33.13168457 22.32765625 33.13055664 23.4053125 33.12939453 24.515625 C33 27 33 27 32 28 C29.6243148 28.0883967 27.27791326 28.11530305 24.90234375 28.09765625 C23.83905602 28.09553383 23.83905602 28.09553383 22.75428772 28.09336853 C20.48198288 28.08775443 18.20977525 28.07519963 15.9375 28.0625 C14.40039204 28.05748681 12.86328255 28.05292359 11.32617188 28.04882812 C7.55071333 28.0386297 3.77546596 28.01905732 0 28 C0 18.76 0 9.52 0 0 Z " fill="#0262FF" transform="translate(682,354)"/>
<path d="M0 0 C4.53904366 -0.02291161 9.07788802 -0.04283781 13.61694336 -0.05493164 C15.16219766 -0.0599714 16.70744716 -0.0668032 18.25268555 -0.07543945 C20.46925029 -0.08752076 22.68575218 -0.09323173 24.90234375 -0.09765625 C25.5971434 -0.10281754 26.29194305 -0.10797882 27.00779724 -0.11329651 C28.6722933 -0.11349277 30.33665499 -0.06189129 32 0 C33.77449594 1.77449594 33.13030072 4.35017261 33.1328125 6.75 C33.13474609 8.49796875 33.13474609 8.49796875 33.13671875 10.28125 C33.13285156 11.5084375 33.12898437 12.735625 33.125 14 C33.13080078 15.84078125 33.13080078 15.84078125 33.13671875 17.71875 C33.13542969 18.8840625 33.13414062 20.049375 33.1328125 21.25 C33.13168457 22.32765625 33.13055664 23.4053125 33.12939453 24.515625 C33 27 33 27 32 28 C29.6243148 28.0883967 27.27791326 28.11530305 24.90234375 28.09765625 C23.83905602 28.09553383 23.83905602 28.09553383 22.75428772 28.09336853 C20.48198288 28.08775443 18.20977525 28.07519963 15.9375 28.0625 C14.40039204 28.05748681 12.86328255 28.05292359 11.32617188 28.04882812 C7.55071333 28.0386297 3.77546596 28.01905732 0 28 C0 18.76 0 9.52 0 0 Z " fill="#0262FF" transform="translate(682,308)"/>
<path d="M0 0 C50.16 0 100.32 0 152 0 C152 1.65 152 3.3 152 5 C101.84 5 51.68 5 0 5 C0 3.35 0 1.7 0 0 Z " fill="#0061FF" transform="translate(412,614)"/>
<path d="M0 0 C22.11 0 44.22 0 67 0 C67 3.63 67 7.26 67 11 C44.89 11 22.78 11 0 11 C0 7.37 0 3.74 0 0 Z " fill="#E2F2FF" transform="translate(289,591)"/>
<path d="M0 0 C32.01 0 64.02 0 97 0 C97 1.65 97 3.3 97 5 C64.66 5 32.32 5 -1 5 C-0.67 3.35 -0.34 1.7 0 0 Z " fill="#C4DFFF" transform="translate(290,623)"/>
<path d="M0 0 C32.01 0 64.02 0 97 0 C97 1.65 97 3.3 97 5 C64.99 5 32.98 5 0 5 C0 3.35 0 1.7 0 0 Z " fill="#D1E8FF" transform="translate(290,635)"/>
<path d="M0 0 C32.34 0 64.68 0 98 0 C98 1.32 98 2.64 98 4 C65.66 4 33.32 4 0 4 C0 2.68 0 1.36 0 0 Z " fill="#E7F5FF" transform="translate(289,647)"/>
<path d="M0 0 C32.34 0 64.68 0 98 0 C98 1.32 98 2.64 98 4 C65.66 4 33.32 4 0 4 C0 2.68 0 1.36 0 0 Z " fill="#E7F5FF" transform="translate(289,612)"/>
<path d="M0 0 C22.11 0 44.22 0 67 0 C67 1.32 67 2.64 67 4 C44.89 4 22.78 4 0 4 C0 2.68 0 1.36 0 0 Z " fill="#E7F5FF" transform="translate(289,659)"/>
<path d="M0 0 C20.13 0 40.26 0 61 0 C61 1.32 61 2.64 61 4 C40.87 4 20.74 4 0 4 C0 2.68 0 1.36 0 0 Z " fill="#1D74FF" transform="translate(722,362)"/>
<path d="M0 0 C20.13 0 40.26 0 61 0 C61 1.32 61 2.64 61 4 C40.87 4 20.74 4 0 4 C0 2.68 0 1.36 0 0 Z " fill="#1D74FF" transform="translate(722,316)"/>
<path d="M0 0 C1.32 0.66 2.64 1.32 4 2 C3.41214475 5.02507358 2.56912285 6.86023112 0.59375 9.21484375 C0.10132813 9.81288818 -0.39109375 10.41093262 -0.8984375 11.02709961 C-1.69121094 11.9727478 -1.69121094 11.9727478 -2.5 12.9375 C-7.46084583 18.9494102 -11.88377217 25.10684598 -16.0625 31.68359375 C-16.701875 32.44800781 -17.34125 33.21242188 -18 34 C-19.32 34 -20.64 34 -22 34 C-22.495 32.515 -22.495 32.515 -23 31 C-21.52790795 28.45203115 -20.01904233 26.13446053 -18.3125 23.75 C-17.82225342 23.05068359 -17.33200684 22.35136719 -16.8269043 21.63085938 C-11.53270472 14.1716491 -5.81163908 7.0591637 0 0 Z " fill="#99C0FF" transform="translate(278,321)"/>
<path d="M0 0 C1.32 0.66 2.64 1.32 4 2 C4 2.99 4 3.98 4 5 C2.16125386 6.60966648 0.35448617 8.01983236 -1.625 9.4375 C-7.43120075 13.72794777 -12.92462926 18.27801522 -18.32861328 23.06420898 C-21.07503384 25.46922809 -23.60180673 27.60416511 -27 29 C-27.99 27.68 -28.98 26.36 -30 25 C-20.48877881 15.99395356 -10.50358864 7.8262033 0 0 Z " fill="#99C0FF" transform="translate(335,267)"/>
<path d="M0 0 C5.10490764 1.67790789 9.22849048 4.68558714 13.625 7.6875 C15.22856693 8.77041987 16.83273291 9.8524532 18.4375 10.93359375 C19.21480469 11.45808105 19.99210937 11.98256836 20.79296875 12.52294922 C25.14145471 15.43316383 29.56412511 18.22513553 34 21 C33.505 23.475 33.505 23.475 33 26 C28.60633846 24.70488526 25.14626479 23.01754032 21.33984375 20.48046875 C20.29892578 19.78759766 19.25800781 19.09472656 18.18554688 18.38085938 C17.11369141 17.65705078 16.04183594 16.93324219 14.9375 16.1875 C13.86177734 15.47529297 12.78605469 14.76308594 11.67773438 14.02929688 C6.64486094 10.65636682 2.20106093 7.39718978 -2 3 C-1.34 2.01 -0.68 1.02 0 0 Z " fill="#99C0FF" transform="translate(338,810)"/>
<path d="M0 0 C2.475 0.495 2.475 0.495 5 1 C3.60248763 5.60687495 1.72040735 9.77729087 -0.5625 14 C-0.90893555 14.64138916 -1.25537109 15.28277832 -1.61230469 15.94360352 C-4.20741382 20.67950405 -6.90921155 25.34474359 -9.75 29.9375 C-10.11424072 30.54658203 -10.47848145 31.15566406 -10.85375977 31.78320312 C-11.921875 33.46484375 -11.921875 33.46484375 -14 36 C-15.32 36 -16.64 36 -18 36 C-19 33 -19 33 -18.01538086 30.81445312 C-17.50370361 29.97849609 -16.99202637 29.14253906 -16.46484375 28.28125 C-15.90216797 27.34796875 -15.33949219 26.4146875 -14.75976562 25.453125 C-13.85774414 23.99132812 -13.85774414 23.99132812 -12.9375 22.5 C-11.77804705 20.59490558 -10.6204915 18.68865509 -9.46484375 16.78125 C-8.89233887 15.83765625 -8.31983398 14.8940625 -7.72998047 13.921875 C-5.02389487 9.35139342 -2.50086262 4.68518927 0 0 Z " fill="#99C0FF" transform="translate(840,691)"/>
<path d="M0 0 C1.32 0.66 2.64 1.32 4 2 C2.49598994 5.9210529 0.29266369 7.46557539 -3.1640625 9.75 C-4.20433594 10.4409375 -5.24460937 11.131875 -6.31640625 11.84375 C-7.40824219 12.5553125 -8.50007812 13.266875 -9.625 14 C-10.69363281 14.7115625 -11.76226563 15.423125 -12.86328125 16.15625 C-18.4332426 19.82845084 -23.9487824 23.18684315 -30 26 C-30.66 24.35 -31.32 22.7 -32 21 C-31.38592285 20.61255615 -30.7718457 20.2251123 -30.13916016 19.82592773 C-27.29951783 18.03228699 -24.46225533 16.234914 -21.625 14.4375 C-20.65949219 13.82841797 -19.69398438 13.21933594 -18.69921875 12.59179688 C-12.3426263 8.56026676 -6.12648728 4.37329952 0 0 Z " fill="#99C0FF" transform="translate(740,810)"/>
<path d="M0 0 C0.29132813 0.53778076 0.58265625 1.07556152 0.8828125 1.62963867 C6.21298552 11.4487644 11.55282971 21.19063337 17.63671875 30.56640625 C19 33 19 33 19 36 C17.02 36.495 17.02 36.495 15 37 C10.36432158 30.89072844 6.4713978 24.50663631 2.75 17.8125 C2.32605957 17.05275879 1.90211914 16.29301758 1.46533203 15.51025391 C-0.96079318 11.09395537 -3.09661536 6.66576431 -5 2 C-2 0 -2 0 0 0 Z " fill="#99C0FF" transform="translate(240,691)"/>
<path d="M0 0 C5.13250763 0.64285954 9.4572536 2.90759181 14.0625 5.125 C14.90143799 5.52517334 15.74037598 5.92534668 16.60473633 6.33764648 C23.28163326 9.56298695 29.69716366 13.08746087 36 17 C35.505 19.475 35.505 19.475 35 22 C29.55586488 20.42452681 24.83424121 17.9271694 19.875 15.25 C18.18931559 14.3505994 16.50311714 13.45216158 14.81640625 12.5546875 C13.9980127 12.11866211 13.17961914 11.68263672 12.33642578 11.23339844 C7.60189944 8.73404347 2.80550487 6.35958922 -2 4 C-1.34 2.68 -0.68 1.36 0 0 Z " fill="#99C0FF" transform="translate(674,227)"/>
<path d="M0 0 C0.6875 2.0625 0.6875 2.0625 1 4 C0.3608667 4.30180176 -0.2782666 4.60360352 -0.93676758 4.91455078 C-3.89693546 6.31469872 -6.85471542 7.7198248 -9.8125 9.125 C-10.81732422 9.599375 -11.82214844 10.07375 -12.85742188 10.5625 C-18.94987417 13.46180205 -24.87931441 16.52986044 -30.72924805 19.89404297 C-33 21 -33 21 -36 21 C-36.33 19.68 -36.66 18.36 -37 17 C-7.26206897 -2.42068966 -7.26206897 -2.42068966 0 0 Z " fill="#99C0FF" transform="translate(406,228)"/>
<path d="M0 0 C15 30.90681363 15 30.90681363 15 38 C12.525 38.495 12.525 38.495 10 39 C9.79431396 38.47269287 9.58862793 37.94538574 9.37670898 37.40209961 C8.40197747 34.91189975 7.4209626 32.42426504 6.4375 29.9375 C6.08051025 29.03459229 5.72352051 28.13168457 5.35571289 27.20141602 C2.58061145 20.26458152 -0.50438024 13.55033007 -3.84765625 6.87109375 C-5 4 -5 4 -4 1 C-2 0 -2 0 0 0 Z " fill="#99C0FF" transform="translate(845,386)"/>
<path d="M0 0 C0.495 1.98 0.495 1.98 1 4 C-2.94295591 5.54042143 -6.88996188 7.06984215 -10.84082031 8.58984375 C-12.18015817 9.10680373 -13.51840928 9.62658953 -14.85546875 10.14941406 C-22.45814274 13.11991992 -29.87366195 15.82334651 -38 17 C-38.33 15.35 -38.66 13.7 -39 12 C-37.88927124 11.62246582 -37.88927124 11.62246582 -36.75610352 11.23730469 C-33.35675859 10.07915485 -29.95963122 8.91462639 -26.5625 7.75 C-25.39783203 7.35425781 -24.23316406 6.95851563 -23.03320312 6.55078125 C-17.14058645 4.52571299 -11.4387424 2.44451746 -5.88256836 -0.38964844 C-3.56550612 -1.1408682 -2.27090292 -0.77917259 0 0 Z " fill="#99C0FF" transform="translate(675,850)"/>
<path d="M0 0 C13.45557264 1.52426409 27.15688062 4.71896021 40 9 C39.67 10.65 39.34 12.3 39 14 C32.39003648 13.23184068 26.01935443 11.64353834 19.5625 10.0625 C17.9218457 9.66514648 17.9218457 9.66514648 16.24804688 9.25976562 C10.49273634 7.86338384 4.74339437 6.44457185 -1 5 C-0.67 3.35 -0.34 1.7 0 0 Z " fill="#99C0FF" transform="translate(598,204)"/>
<path d="M0 0 C3.65794828 0.63885992 6.95589703 1.63499801 10.421875 2.9609375 C11.44796875 3.35023438 12.4740625 3.73953125 13.53125 4.140625 C14.5934375 4.54796875 15.655625 4.9553125 16.75 5.375 C23.79244039 8.06361641 30.82850338 10.6745147 38 13 C37.67 14.65 37.34 16.3 37 18 C28.71507134 16.74474356 21.26418743 14.02136546 13.5 10.9375 C12.32179688 10.47794922 11.14359375 10.01839844 9.9296875 9.54492188 C1.46056548 6.23028274 1.46056548 6.23028274 -1 5 C-0.67 3.35 -0.34 1.7 0 0 Z " fill="#99C0FF" transform="translate(406,849)"/>
<path d="M0 0 C1.1282554 1.1282554 2.25614956 2.25687314 3.3828125 3.38671875 C4.53917449 4.5402876 5.70129744 5.68809309 6.8671875 6.83203125 C10.82852898 10.7394245 14.56630242 14.74922961 18.19140625 18.96875 C21.30504645 22.46571091 24.65139835 25.72967735 28 29 C26.68 30.32 25.36 31.64 24 33 C20.95511903 29.98002368 17.9136786 26.9566347 14.87524414 23.93017578 C13.84328297 22.9032124 12.81042222 21.87715209 11.77661133 20.85205078 C10.28223298 19.36993918 8.79122777 17.88450178 7.30078125 16.3984375 C5.95753784 15.06304932 5.95753784 15.06304932 4.5871582 13.70068359 C1.88681805 10.88185159 -0.61611807 8.09122301 -3 5 C-2.9375 2.6875 -2.9375 2.6875 -2 1 C-1.34 0.67 -0.68 0.34 0 0 Z " fill="#99C0FF" transform="translate(282,756)"/>
<path d="M0 0 C1.32 0 2.64 0 4 0 C5.24993265 3.96375384 6.49482996 7.92904556 7.73535156 11.89575195 C8.15686716 13.2412233 8.57968762 14.58628666 9.00390625 15.9309082 C11.3066365 23.23284409 13.49855872 30.48454392 15 38 C13.35 38.66 11.7 39.32 10 40 C0.1139469 10.16260546 0.1139469 10.16260546 -1 1 C-0.67 0.67 -0.34 0.34 0 0 Z " fill="#99C0FF" transform="translate(209,618)"/>
<path d="M0 0 C1.65 0.33 3.3 0.66 5 1 C3.71025151 9.44480719 1.51149366 17.42610144 -1.0625 25.5625 C-1.42666016 26.73619141 -1.79082031 27.90988281 -2.16601562 29.11914062 C-4.83602151 37.67204301 -4.83602151 37.67204301 -6 40 C-7.65 39.67 -9.3 39.34 -11 39 C-9.54795861 31.98664009 -7.62740935 25.21119406 -5.5 18.375 C-4.88489139 16.38297462 -4.27029542 14.39079087 -3.65625 12.3984375 C-3.22699219 11.0077002 -3.22699219 11.0077002 -2.7890625 9.58886719 C-1.81813941 6.40332622 -0.89823967 3.20671562 0 0 Z " fill="#99C0FF" transform="translate(867,617)"/>
<path d="M0 0 C1.32 0.66 2.64 1.32 4 2 C3.41464695 5.40694936 2.55880651 8.30658129 1.109375 11.44140625 C0.73159912 12.26737305 0.35382324 13.09333984 -0.03540039 13.94433594 C-0.6366272 15.24032715 -0.6366272 15.24032715 -1.25 16.5625 C-2.06768633 18.34967529 -2.88409664 20.13743497 -3.69921875 21.92578125 C-4.09415527 22.79154785 -4.4890918 23.65731445 -4.89599609 24.54931641 C-7.04460208 29.31882257 -9.03860775 34.15072871 -11 39 C-12.65 38.67 -14.3 38.34 -16 38 C-13.8752509 30.00882651 -10.81317923 22.5990033 -7.4375 15.0625 C-6.94314453 13.94037109 -6.44878906 12.81824219 -5.93945312 11.66210938 C-2.2837208 3.4255812 -2.2837208 3.4255812 0 0 Z " fill="#99C0FF" transform="translate(235,387)"/>
<path d="M0 0 C0.495 2.475 0.495 2.475 1 5 C-6.00504174 7.02535389 -13.05550757 8.83764631 -20.125 10.625 C-21.38699219 10.94984375 -22.64898437 11.2746875 -23.94921875 11.609375 C-25.77259766 12.06957031 -25.77259766 12.06957031 -27.6328125 12.5390625 C-28.73512207 12.81959473 -29.83743164 13.10012695 -30.97314453 13.38916016 C-33.75281048 13.95011549 -36.17658732 14.12264301 -39 14 C-39.33 12.68 -39.66 11.36 -40 10 C-33.5451496 6.85725942 -26.85975268 5.42112434 -19.875 3.875 C-18.70839844 3.61074219 -17.54179687 3.34648437 -16.33984375 3.07421875 C-2.71652919 0 -2.71652919 0 0 0 Z " fill="#99C0FF" transform="translate(481,204)"/>
<path d="M0 0 C1.32 0.66 2.64 1.32 4 2 C3.53895645 6.36943544 0.64828371 8.91450999 -2.25 11.9375 C-3.04277344 12.77498779 -3.04277344 12.77498779 -3.8515625 13.62939453 C-4.97719479 14.81282777 -6.10687582 15.99242104 -7.24023438 17.16845703 C-9.02374634 19.02471491 -10.78509468 20.9004747 -12.546875 22.77734375 C-13.69654102 23.97788137 -14.84754458 25.17713981 -16 26.375 C-16.53915039 26.95241943 -17.07830078 27.52983887 -17.63378906 28.12475586 C-19.1875 29.7109375 -19.1875 29.7109375 -22 32 C-24.375 31.8515625 -24.375 31.8515625 -26 31 C-25.59527186 26.52668892 -22.45111592 24.16025145 -19.375 21.25 C-18.27421039 20.18026664 -17.17524518 19.10865266 -16.078125 18.03515625 C-15.54638672 17.5158252 -15.01464844 16.99649414 -14.46679688 16.46142578 C-11.46101642 13.46665184 -8.7299429 10.24397794 -6 7 C-4.85483156 5.66609556 -3.70902651 4.33273732 -2.5625 3 C-1.716875 2.01 -0.87125 1.02 0 0 Z " fill="#99C0FF" transform="translate(797,756)"/>
<path d="M0 0 C3.8425303 0.72047443 5.45767292 1.57152696 8 4.5625 C8.94237143 8.56143269 8.61136591 11.54355682 6.5 15.0625 C2.98105682 17.17386591 -0.00106731 17.50487143 -4 16.5625 C-6.99097304 14.02017292 -7.84202557 12.4050303 -8.5625 8.5625 C-7.62098494 3.54108633 -5.02141367 0.94151506 0 0 Z " fill="#0665FF" transform="translate(484,500.4375)"/>
<path d="M0 0 C1.2065625 0.0309375 1.2065625 0.0309375 2.4375 0.0625 C2.31705322 0.77720459 2.19660645 1.49190918 2.07250977 2.22827148 C1.15805219 7.68105012 0.26161779 13.13589053 -0.59765625 18.59765625 C-0.76716797 19.67337891 -0.93667969 20.74910156 -1.11132812 21.85742188 C-1.45926371 24.07071552 -1.80556893 26.28426596 -2.15039062 28.49804688 C-2.31861328 29.56216797 -2.48683594 30.62628906 -2.66015625 31.72265625 C-2.88457397 33.15557007 -2.88457397 33.15557007 -3.11352539 34.61743164 C-3.5625 37.0625 -3.5625 37.0625 -4.5625 40.0625 C-6.2125 40.0625 -7.8625 40.0625 -9.5625 40.0625 C-8.6396858 30.11796276 -7.36979729 20.3147452 -5.5 10.5 C-5.3256543 9.57807861 -5.15130859 8.65615723 -4.97167969 7.70629883 C-3.47746893 0.08481632 -3.47746893 0.08481632 0 0 Z " fill="#99C0FF" transform="translate(210.5625,461.9375)"/>
<path d="M0 0 C1.65 0 3.3 0 5 0 C7.22010815 8.29944351 8.88344507 16.57345759 10.1875 25.0625 C10.36474609 26.17560547 10.54199219 27.28871094 10.72460938 28.43554688 C12 36.56554657 12 36.56554657 12 40 C10.35 40 8.7 40 7 40 C5.42652982 33.17692529 4.12437383 26.3376144 2.9375 19.4375 C2.76412109 18.44814453 2.59074219 17.45878906 2.41210938 16.43945312 C1.46486411 10.97010979 0.6360144 5.51431046 0 0 Z " fill="#99C0FF" transform="translate(867,461)"/>
<path d="M0 0 C0.495 2.475 0.495 2.475 1 5 C-6.13167062 7.03509211 -13.26164243 7.84572458 -20.625 8.625 C-21.82640625 8.7590625 -23.0278125 8.893125 -24.265625 9.03125 C-29.54391481 9.60472273 -34.68518499 10.07452068 -40 10 C-40 8.35 -40 6.7 -40 5 C-38.96613159 4.87939209 -38.96613159 4.87939209 -37.91137695 4.75634766 C-20.99933125 2.81125676 -20.99933125 2.81125676 -4.16015625 0.33203125 C-2 0 -2 0 0 0 Z " fill="#99C0FF" transform="translate(599,871)"/>
<path d="M0 0 C1.65 0 3.3 0 5 0 C5.25546702 13.82862634 4.77447044 27.2795411 3 41 C1.35 41 -0.3 41 -2 41 C-1.93941406 39.79988281 -1.87882813 38.59976563 -1.81640625 37.36328125 C-1.18969884 24.90983584 -0.58775207 12.45534176 0 0 Z " fill="#99C0FF" transform="translate(876,539)"/>
<path d="M0 0 C1.31162109 -0.00128906 2.62324219 -0.00257813 3.97460938 -0.00390625 C4.65048096 -0.00181152 5.32635254 0.0002832 6.02270508 0.00244141 C8.08747675 0.00780635 10.1520318 0.0024733 12.21679688 -0.00390625 C14.18229492 -0.00197266 14.18229492 -0.00197266 16.1875 0 C17.37996338 0.00112793 18.57242676 0.00225586 19.80102539 0.00341797 C22.67075183 0.11851105 25.2396521 0.47143766 28.02734375 1.1328125 C28.02734375 2.7828125 28.02734375 4.4328125 28.02734375 6.1328125 C14.49734375 6.1328125 0.96734375 6.1328125 -12.97265625 6.1328125 C-12.97265625 4.4828125 -12.97265625 2.8328125 -12.97265625 1.1328125 C-8.59521701 0.29341779 -4.45456912 0.00420952 0 0 Z " fill="#99C0FF" transform="translate(531.97265625,198.8671875)"/>
<path d="M0 0 C4.89329719 0.54861353 9.78626563 1.1000453 14.67895508 1.65405273 C16.34227982 1.84199629 18.00569069 2.02917921 19.66918945 2.21557617 C22.06484847 2.48414781 24.46018098 2.75548348 26.85546875 3.02734375 C27.5952446 3.10967758 28.33502045 3.19201141 29.09721375 3.27684021 C32.77348402 3.69681547 36.38566004 4.2026735 40 5 C40 6.65 40 8.3 40 10 C30.26284037 9.62549386 20.65865698 8.81220589 11 7.5 C10.02659668 7.36940186 9.05319336 7.23880371 8.05029297 7.10424805 C1.12980021 6.12980021 1.12980021 6.12980021 0 5 C-0.04063832 3.33382885 -0.042721 1.66611905 0 0 Z " fill="#99C0FF" transform="translate(481,871)"/>
<path d="M0 0 C1.65 0 3.3 0 5 0 C5.28759862 4.57136474 5.57232974 9.1428961 5.85449219 13.71459961 C5.95072369 15.26738213 6.04771638 16.82011768 6.14550781 18.37280273 C6.28654578 20.61429901 6.42477694 22.85595414 6.5625 25.09765625 C6.60624756 25.78336197 6.64999512 26.46906769 6.69506836 27.17555237 C6.95474006 31.45670669 7.03900842 35.71151216 7 40 C4.525 40.495 4.525 40.495 2 41 C0.3483961 27.27104257 -0.24984036 13.82450015 0 0 Z " fill="#99C0FF" transform="translate(199,540)"/>
<path d="M0 0 C21.45 0 42.9 0 65 0 C65 0.99 65 1.98 65 3 C43.55 3 22.1 3 0 3 C0 2.01 0 1.02 0 0 Z " fill="#0061FF" transform="translate(589,547)"/>
<path d="M0 0 C21.45 0 42.9 0 65 0 C65 0.99 65 1.98 65 3 C43.55 3 22.1 3 0 3 C0 2.01 0 1.02 0 0 Z " fill="#0061FF" transform="translate(589,497)"/>
<path d="M0 0 C14.85 0 29.7 0 45 0 C45 1.32 45 2.64 45 4 C30.15 4 15.3 4 0 4 C0 2.68 0 1.36 0 0 Z " fill="#2075FF" transform="translate(589,506)"/>
<path d="M0 0 C14.52 0 29.04 0 44 0 C44.495 1.98 44.495 1.98 45 4 C30.15 4 15.3 4 0 4 C0 2.68 0 1.36 0 0 Z " fill="#1F75FF" transform="translate(589,556)"/>
<path d="M0 0 C13.86 0 27.72 0 42 0 C42 1.32 42 2.64 42 4 C28.14 4 14.28 4 0 4 C0 2.68 0 1.36 0 0 Z " fill="#2C7DFF" transform="translate(722,369)"/>
<path d="M0 0 C13.86 0 27.72 0 42 0 C42 1.32 42 2.64 42 4 C28.14 4 14.28 4 0 4 C0 2.68 0 1.36 0 0 Z " fill="#2C7DFF" transform="translate(722,324)"/>
<path d="M0 0 C3.65575176 3.52518919 6.91143854 7.21328016 10 11.25 C10.65137939 12.09727661 10.65137939 12.09727661 11.31591797 12.96166992 C14.67446363 17.4059143 17.54165787 21.99274525 20 27 C19.34 27.66 18.68 28.32 18 29 C15.37100933 28.80621528 14.28554656 28.30475989 12.47607422 26.37353516 C12.0070166 25.68565918 11.53795898 24.9977832 11.0546875 24.2890625 C10.53519531 23.53882813 10.01570312 22.78859375 9.48046875 22.015625 C8.95066406 21.22671875 8.42085937 20.4378125 7.875 19.625 C7.33746094 18.84382813 6.79992187 18.06265625 6.24609375 17.2578125 C1.92563801 10.96567745 -0.25344118 7.72995593 0 0 Z " fill="#9AC1FF" transform="translate(805,326)"/>
<path d="M0 0 C1.02641602 0.02618408 2.05283203 0.05236816 3.11035156 0.0793457 C4.22539063 0.09545898 5.34042969 0.11157227 6.48925781 0.12817383 C7.648125 0.17006836 8.80699219 0.21196289 10.00097656 0.25512695 C11.76248047 0.28896484 11.76248047 0.28896484 13.55957031 0.32348633 C16.45799293 0.38239736 19.35384084 0.46461064 22.25097656 0.56762695 C22.25097656 2.21762695 22.25097656 3.86762695 22.25097656 5.56762695 C12.68097656 5.56762695 3.11097656 5.56762695 -6.74902344 5.56762695 C-2.74902344 0.56762695 -2.74902344 0.56762695 0 0 Z " fill="#0060FE" transform="translate(639.7490234375,600.432373046875)"/>
<path d="M0 0 C3.0625 0.3125 3.0625 0.3125 5 1.375 C6.72915678 4.52816824 5.9215699 6.93758255 5.0625 10.3125 C2.0625 12.3125 2.0625 12.3125 -1 12.125 C-3.9375 11.3125 -3.9375 11.3125 -5.9375 8.3125 C-5.54567126 3.51259791 -5.29764475 0.56357923 0 0 Z " fill="#172D62" transform="translate(785.9375,284.6875)"/>
<path d="M0 0 C3.0625 0.1875 3.0625 0.1875 5.0625 2.1875 C5.43046448 5.05762296 5.43759409 6.59524618 3.875 9.0625 C2.0625 10.1875 2.0625 10.1875 -0.5 10.0625 C-2.9375 9.1875 -2.9375 9.1875 -4.9375 6.1875 C-4.23305896 0.27019525 -4.23305896 0.27019525 0 0 Z " fill="#DFEDF7" transform="translate(438.9375,438.8125)"/>
<path d="M0 0 C3.0625 0.1875 3.0625 0.1875 5.0625 2.1875 C5.3125 4.6875 5.3125 4.6875 5.0625 7.1875 C3.0625 9.1875 3.0625 9.1875 0.0625 9.4375 C-2.9375 9.1875 -2.9375 9.1875 -4.9375 7.1875 C-4.23164336 0.2701049 -4.23164336 0.2701049 0 0 Z " fill="#DAE9F4" transform="translate(422.9375,438.8125)"/>
<path d="M0 0 C2 2 2 2 2.25 4.5 C2 7 2 7 0 9 C-3.0625 9.1875 -3.0625 9.1875 -6 9 C-7 8 -7 8 -7.0625 4.4375 C-7.041875 3.303125 -7.02125 2.16875 -7 1 C-4.48718205 -0.25640898 -2.78302919 -0.20872719 0 0 Z " fill="#E1F0F9" transform="translate(410,439)"/>
<path d="M0 0 C3.25964342 1.48777303 5.93169293 3.35666816 8.75 5.5625 C9.94882812 6.49255859 9.94882812 6.49255859 11.171875 7.44140625 C11.77515625 7.95574219 12.3784375 8.47007812 13 9 C13 9.33 13 9.66 13 10 C6.07911053 10.60709557 3.32886161 9.44071801 -2 5 C-1.34 3.35 -0.68 1.7 0 0 Z " fill="#99C0FF" transform="translate(742,266)"/>
<path d="M0 0 C0.66 0.33 1.32 0.66 2 1 C-0.97 3.97 -3.94 6.94 -7 10 C-7 6.04435836 -5.59478606 4.89133304 -3 2 C-2.01 1.34 -1.02 0.68 0 0 Z " fill="#3E537F" transform="translate(394,427)"/>
</svg>
