<?xml version="1.0" encoding="UTF-8"?>
<svg version="1.1" xmlns="http://www.w3.org/2000/svg" width="1080" height="1080">
<path d="M0 0 C1.54882234 0.01004992 3.09765099 0.01917221 4.64648438 0.02734375 C8.41031428 0.04919793 12.17383623 0.08361657 15.9375 0.125 C16.13085938 1.12660156 16.32421875 2.12820313 16.5234375 3.16015625 C16.78630049 4.50263508 17.04933026 5.84508127 17.3125 7.1875 C17.43882812 7.84427734 17.56515625 8.50105469 17.6953125 9.17773438 C18.56134507 13.57284965 19.65376553 17.83286171 20.9375 22.125 C19.81106079 22.154729 19.81106079 22.154729 18.66186523 22.18505859 C15.23258043 22.28079401 11.80386458 22.39027633 8.375 22.5 C7.19357422 22.5309375 6.01214844 22.561875 4.79492188 22.59375 C-1.15001275 22.79357974 -6.44948477 23.09739097 -12.0625 25.125 C-12.0625 26.775 -12.0625 28.425 -12.0625 30.125 C-8.80010424 31.75619788 -5.20048136 31.21830638 -1.6171875 31.1953125 C0.11719751 31.20390256 1.851574 31.21438065 3.5859375 31.2265625 C6.31835459 31.24320567 9.04887904 31.25012721 11.78125 31.22460938 C28.93572081 31.08747334 28.93572081 31.08747334 33.83984375 35.50390625 C34.8858709 36.69927877 35.92054755 37.90479675 36.9375 39.125 C47.87789171 45.62969548 59.50430347 47.72169768 71.875 44.9375 C77.86655837 43.30621057 84.90667866 41.3108405 89.30854416 36.68383026 C92.70857822 33.19586905 95.24354384 31.7161983 100.14703369 31.39001465 C102.19718664 31.36667008 104.2478805 31.37618268 106.29785156 31.41210938 C107.42237228 31.40802063 108.54689301 31.40393188 109.70549011 31.39971924 C113.41370249 31.39371565 117.12012463 31.43062836 120.828125 31.46875 C123.41493287 31.47486988 126.00174733 31.47861855 128.58856201 31.48010254 C134.00902245 31.48930231 139.42885194 31.51733148 144.84912109 31.5625 C151.7768205 31.62011785 158.7041098 31.64094017 165.63202286 31.6498642 C172.25994633 31.65872497 178.88776487 31.68928509 185.515625 31.71875 C186.77123482 31.72251144 188.02684464 31.72627289 189.32050323 31.73014832 C192.90034982 31.74399645 196.47983983 31.77132023 200.05957031 31.80273438 C201.10306137 31.80497009 202.14655243 31.80720581 203.22166443 31.80950928 C216.13573289 31.9585625 227.41902648 33.81804812 236.9375 43.125 C241.90461636 49.77075403 244.20445594 55.89115541 244.1328125 64.2734375 C244.12856766 65.25952499 244.12856766 65.25952499 244.12423706 66.26553345 C244.11313447 68.34388233 244.08804986 70.42178366 244.0625 72.5 C244.05245731 73.91796248 244.04333373 75.33593179 244.03515625 76.75390625 C244.01322805 80.21108037 243.97876818 83.66799642 243.9375 87.125 C242.79356781 87.13046844 242.79356781 87.13046844 241.62652588 87.13604736 C234.38964318 87.17413693 227.15326343 87.23122313 219.91670609 87.30890274 C216.19754694 87.34817545 212.4786174 87.38046155 208.75927734 87.39599609 C205.16037734 87.41129778 201.56210944 87.44597608 197.96349335 87.49330902 C195.94322892 87.51505868 193.9227854 87.51746205 191.90240479 87.51934814 C179.23885547 87.7174659 168.59091817 90.65943745 158.9375 99.125 C149.951635 108.4040698 146.64637381 119.19889511 146.62060547 131.84399414 C146.80230093 141.78453022 150.48311947 150.5543408 156.9375 158.125 C168.95655252 169.38589337 181.36381947 171.39781611 197.37890625 171.5390625 C198.75610977 171.55780879 200.13330222 171.57738468 201.51048279 171.5977478 C205.10569686 171.64871009 208.70094803 171.68852587 212.29632568 171.72589111 C215.9769379 171.76615816 219.65740063 171.81714598 223.33789062 171.8671875 C230.53765724 171.96352061 237.73749723 172.04805918 244.9375 172.125 C245.20022775 206.77852446 245.20022775 206.77852446 236.18359375 217.140625 C226.69276132 226.26716286 215.21016935 227.28652489 202.68774414 227.23852539 C201.17928421 227.23874443 201.17928421 227.23874443 199.64035034 227.2389679 C196.33442995 227.23827427 193.02856673 227.23050766 189.72265625 227.22265625 C187.42337576 227.22079012 185.12409487 227.21936714 182.82481384 227.21836853 C176.78651829 227.21455873 170.74824695 227.20474159 164.70996094 227.19366455 C158.54297208 227.18341735 152.3759793 227.17886383 146.20898438 227.17382812 C134.11847897 227.16311792 122.0279915 227.14606 109.9375 227.125 C109.87414963 226.16340973 109.81079926 225.20181946 109.74552917 224.21109009 C109.65959 222.94985321 109.57365082 221.68861633 109.48510742 220.38916016 C109.35914436 218.51364975 109.35914436 218.51364975 109.2306366 216.60025024 C107.64040315 197.74740409 98.00447987 181.55204414 83.90234375 169.296875 C72.78285314 161.151372 59.65915564 156.23158513 45.9375 155.125 C45.28910156 155.07214844 44.64070313 155.01929688 43.97265625 154.96484375 C26.73769496 154.22666105 9.22614285 161.29969785 -3.7265625 172.41015625 C-18.70954328 186.69151709 -24.89243797 203.92603448 -26.0625 224.125 C-34.34471023 221.16295954 -40.269893 214.98951452 -44.0625 207.125 C-46.46762096 201.53023844 -46.24512129 196.41927129 -46.125 190.453125 C-46.11605264 188.32162342 -46.10962695 186.19011005 -46.10546875 184.05859375 C-46.09134189 180.73391018 -46.06331529 177.41233121 -45.99072266 174.08837891 C-45.67009273 158.0110784 -47.86582289 147.38507945 -57.0625 134.125 C-60.0625 129.41416309 -60.0625 129.41416309 -60.0625 127.125 C-57.5875 126.63 -57.5875 126.63 -55.0625 126.125 C-54.10230636 127.70720587 -53.14442202 129.29081331 -52.1875 130.875 C-51.38699219 132.19757813 -51.38699219 132.19757813 -50.5703125 133.546875 C-49.30565744 135.70923858 -48.16836859 137.87987811 -47.0625 140.125 C-47.06103344 139.54669245 -47.05956688 138.9683849 -47.05805588 138.37255287 C-47.02091597 124.26551252 -46.96180665 110.15870502 -46.87859726 96.0518589 C-46.8388801 89.22971862 -46.80645066 82.40769246 -46.79150391 75.58544922 C-46.77704993 68.99765301 -46.74185512 62.41017465 -46.69419098 55.82252121 C-46.67939059 53.31325741 -46.67145976 50.80394308 -46.67061615 48.29463577 C-46.66824084 44.77107573 -46.64111332 41.2484891 -46.60839844 37.72509766 C-46.6134288 36.69506622 -46.61845917 35.66503479 -46.62364197 34.60379028 C-46.48024753 24.57583263 -43.27202271 15.31908476 -36.0625 8.125 C-24.95227602 -0.39220748 -13.34040985 -0.15112573 0 0 Z " fill="#0060FE" transform="translate(293.0625,565.875)"/>
<path d="M0 0 C1.85757179 0.34630966 1.85757179 0.34630966 3.75267029 0.69961548 C7.12985787 1.32948825 10.50528993 1.96833442 13.88043523 2.60904837 C17.42365104 3.28025552 20.96831892 3.94370949 24.51280212 4.60818481 C30.46259428 5.72475717 36.4113182 6.84687812 42.359375 7.97265625 C49.22352308 9.27178235 56.08901976 10.5635657 62.95535189 11.85109508 C70.28477708 13.22551709 77.61324196 14.60500479 84.94140697 15.98612833 C87.04488462 16.38223636 89.14853072 16.77743893 91.25221443 17.17245102 C95.18062753 17.91043082 99.10794018 18.6541139 103.03515625 19.3984375 C104.19431549 19.61566467 105.35347473 19.83289185 106.54776001 20.05670166 C121.63762706 22.9297437 121.63762706 22.9297437 124.89038086 26.51611328 C127.81307892 32.71223316 126.22827714 39.02525934 124.95678711 45.50048828 C124.80378647 46.30472229 124.65078583 47.1089563 124.4931488 47.93756104 C124.17079661 49.62561649 123.84539573 51.31309236 123.51708984 53 C123.0144174 55.58356513 122.52093679 58.16875586 122.02905273 60.75439453 C121.71382775 62.3990275 121.3980905 64.04356238 121.08178711 65.68798828 C120.93383194 66.45987488 120.78587677 67.23176147 120.63343811 68.02703857 C120.04641637 71.03590218 119.42353714 73.91664444 118.45288086 76.82861328 C119.11288086 76.82861328 119.77288086 76.82861328 120.45288086 76.82861328 C119.87192608 83.6720433 118.91887531 90.35999096 117.64038086 97.10595703 C117.46659912 98.03912247 117.29281738 98.9722879 117.11376953 99.93373108 C116.74929492 101.88612312 116.38281778 103.83814231 116.0144043 105.78979492 C115.44994798 108.78165883 114.89234088 111.77474082 114.33569336 114.76806641 C113.97932069 116.67243784 113.6225637 118.57673739 113.26538086 120.48095703 C113.01534302 121.82153419 113.01534302 121.82153419 112.76025391 123.18919373 C112.52495972 124.43177696 112.52495972 124.43177696 112.28491211 125.69946289 C112.14802979 126.42652939 112.01114746 127.15359589 111.87011719 127.9026947 C111.45288086 129.82861328 111.45288086 129.82861328 110.45288086 132.82861328 C109.46288086 132.82861328 108.47288086 132.82861328 107.45288086 132.82861328 C107.4082669 133.46764934 107.36365294 134.10668539 107.31768703 134.76508617 C106.7165293 142.34931476 105.4956964 149.7213972 104.07617188 157.19116211 C103.83539917 158.48035553 103.59462646 159.76954895 103.34655762 161.09780884 C102.69216878 164.60042045 102.03138183 168.10179555 101.36912274 171.60292649 C100.67417001 175.28169143 99.9844501 178.96143796 99.29393005 182.64103699 C98.13497335 188.81224282 96.97182627 194.98264758 95.80615234 201.15258789 C94.46050937 208.27539637 93.1215843 215.39944294 91.78620964 222.52418309 C90.4974496 229.39934605 89.20392564 236.27360448 87.90824699 243.14746666 C87.35849527 246.06448467 86.81040679 248.98180782 86.26367378 251.89939308 C85.500323 255.97153884 84.73001058 260.04233765 83.95898438 264.11303711 C83.73397751 265.31783218 83.50897064 266.52262726 83.27714539 267.76393127 C83.06548737 268.87536499 82.85382935 269.98679871 82.63575745 271.13191223 C82.45454125 272.0928822 82.27332506 273.05385218 82.08661747 274.04394245 C80.85955122 279.43573385 79.76030554 283.1942237 75.45288086 286.82861328 C69.14746883 289.98131929 60.03693615 286.82013211 53.52856445 285.59716797 C52.23834885 285.35975388 50.94813324 285.12233978 49.61882019 284.87773132 C46.09510329 284.22877886 42.57296696 283.57161896 39.05121183 282.91211224 C36.84879571 282.50001627 34.64606854 282.08962653 32.44322586 281.6798172 C24.75279852 280.24896525 17.06371111 278.81113608 9.37573242 277.3671875 C2.21681149 276.02280989 -4.94493231 274.69429672 -12.10814345 273.37298846 C-18.26740662 272.23610232 -24.424478 271.08783563 -30.57998598 269.93079114 C-34.25253064 269.24068599 -37.92579921 268.55526206 -41.60136795 267.88143158 C-45.69798387 267.12996303 -49.78979425 266.3549138 -53.8815918 265.57763672 C-55.09626633 265.35824936 -56.31094086 265.138862 -57.56242371 264.91282654 C-58.6782634 264.69697403 -59.79410309 264.48112152 -60.9437561 264.25872803 C-61.91084314 264.0780566 -62.87793018 263.89738518 -63.87432289 263.71123886 C-67.09044979 262.64919162 -69.06678252 261.11087188 -71.54711914 258.82861328 C-74.83438005 252.25409147 -72.19226192 242.35015547 -70.8589325 235.4281311 C-70.67728934 234.44220769 -70.49564618 233.45628428 -70.30849868 232.4404844 C-69.70303689 229.1678032 -69.08350725 225.89795357 -68.46386719 222.62792969 C-68.024566 220.27007129 -67.58611166 217.91205499 -67.1484375 215.55389404 C-66.08433247 209.83383993 -65.01096193 204.11558377 -63.93294438 198.39813645 C-63.05701218 193.75140695 -62.18500155 189.10395727 -61.3157444 184.45597458 C-61.19171931 183.79282188 -61.06769423 183.12966919 -60.9399108 182.44642096 C-60.68793412 181.09902815 -60.43596634 179.75163368 -60.18400738 178.40423755 C-57.82566322 165.79509728 -55.45514939 153.18826878 -53.08041338 140.58220689 C-51.04392166 129.77011715 -49.01791579 118.9561054 -46.99951172 108.140625 C-44.65271211 95.56548689 -42.29945038 82.9915866 -39.93586761 70.41959131 C-39.6838838 69.07918157 -39.43190829 67.73877027 -39.17994118 66.39835739 C-39.05597835 65.73891935 -38.93201553 65.07948131 -38.80429625 64.4000603 C-37.93189519 59.75674574 -37.06411609 55.11258119 -36.19812584 50.46806717 C-35.03257978 44.22008464 -33.8573272 37.97400556 -32.67450714 31.72927094 C-32.24173847 29.43573337 -31.81237119 27.14155104 -31.3866291 24.84669876 C-30.80569187 21.71837918 -30.21257015 18.59261295 -29.61625671 15.4671936 C-29.44990256 14.55543354 -29.28354842 13.64367347 -29.11215323 12.70428431 C-28.05426921 7.24871927 -26.72966624 3.17283053 -22.85961914 -0.98388672 C-16.22952122 -4.3885316 -6.9176496 -1.32284244 0 0 Z M27.45288086 18.82861328 C26.46288086 20.31361328 26.46288086 20.31361328 25.45288086 21.82861328 C25.78288086 22.48861328 26.11288086 23.14861328 26.45288086 23.82861328 C27.77288086 23.49861328 29.09288086 23.16861328 30.45288086 22.82861328 C30.45288086 21.83861328 30.45288086 20.84861328 30.45288086 19.82861328 C29.46288086 19.49861328 28.47288086 19.16861328 27.45288086 18.82861328 Z M38.45288086 21.82861328 C38.45288086 22.81861328 38.45288086 23.80861328 38.45288086 24.82861328 C45.61141566 26.55695816 52.7815385 28.13978485 60.01538086 29.51611328 C61.03245117 29.71297729 61.03245117 29.71297729 62.07006836 29.91381836 C65.28868399 30.51488999 68.15998613 30.82861328 71.45288086 30.82861328 C71.45288086 29.83861328 71.45288086 28.84861328 71.45288086 27.82861328 C67.07508678 26.97174156 62.69682682 26.11730433 58.31811523 25.26513672 C56.82807525 24.97479327 55.33816548 24.6837807 53.84838867 24.39208984 C51.709078 23.97334328 49.56931313 23.55699203 47.42944336 23.14111328 C45.49705811 22.7640625 45.49705811 22.7640625 43.52563477 22.37939453 C40.64506451 21.76980168 40.64506451 21.76980168 38.45288086 21.82861328 Z M-19.54711914 28.82861328 C-21.17367808 33.36195575 -22.24391545 37.88368744 -23.11636353 42.60900879 C-23.26099671 43.37352623 -23.40562989 44.13804368 -23.5546459 44.92572832 C-24.03614202 47.47660161 -24.51160388 50.02856109 -24.98706055 52.58056641 C-25.33183129 54.41412278 -25.67695857 56.24761215 -26.02241516 58.08103943 C-26.9581013 63.05332157 -27.88839508 68.02659827 -28.81742525 73.00012779 C-29.59369208 77.15317376 -30.37257368 81.30572754 -31.15144956 85.45828485 C-32.98868121 95.25369936 -34.82153725 105.04992561 -36.65161133 114.84667969 C-38.53961891 124.95317429 -40.43466964 135.05832993 -42.33324492 145.16284418 C-43.96354175 153.84080689 -45.58962996 162.51955084 -47.21230638 171.19894171 C-48.1813022 176.3817378 -49.15185731 181.56422927 -50.12639236 186.74598694 C-51.04234055 191.6173113 -51.95302097 196.48959143 -52.85965538 201.36265755 C-53.19317472 203.15043542 -53.52854248 204.93786961 -53.86589622 206.7249279 C-54.32623886 209.16511838 -54.77987036 211.6064651 -55.23184204 214.04821777 C-55.36666099 214.75425534 -55.50147994 215.4602929 -55.64038432 216.18772554 C-56.35967112 220.11919472 -56.67776074 223.8337489 -56.54711914 227.82861328 C-53.53227589 229.49697096 -50.80263278 230.31478605 -47.42346191 230.95574951 C-45.87147346 231.2544973 -45.87147346 231.2544973 -44.28813171 231.5592804 C-43.15865616 231.77029892 -42.0291806 231.98131744 -40.86547852 232.19873047 C-39.6716304 232.42656723 -38.47778229 232.65440399 -37.24775696 232.8891449 C-33.97803667 233.51143732 -30.70737525 234.12818231 -27.43599129 234.74163342 C-25.39207204 235.12526251 -23.34847325 235.51055325 -21.30497742 235.89643097 C-14.17575974 237.24257246 -7.04535449 238.58221303 0.08618164 239.91601562 C6.7344945 241.15962422 13.37996992 242.41764917 20.0243001 243.68234706 C25.73049146 244.76780107 31.43854606 245.8430411 37.14815474 246.91037297 C40.557695 247.54792791 43.96632412 248.18963924 47.37312317 248.84169769 C51.16978431 249.56795771 54.97021465 250.27299406 58.77124023 250.97607422 C59.90071579 251.19518967 61.03019135 251.41430511 62.19389343 251.64006042 C63.2285524 251.82794632 64.26321136 252.01583221 65.32922363 252.20941162 C66.22738548 252.37826748 67.12554733 252.54712334 68.05092621 252.72109604 C70.87946179 252.84770807 72.17544379 252.50432767 74.45288086 250.82861328 C75.33893799 248.99989988 75.33893799 248.99989988 75.67152405 246.77581787 C75.84493285 245.90555088 76.01834166 245.03528389 76.19700527 244.13864517 C76.37304822 243.16202801 76.54909117 242.18541084 76.73046875 241.17919922 C76.93422402 240.12887386 77.1379793 239.07854851 77.34790897 237.99639511 C77.93502821 234.95232659 78.50595346 231.90562778 79.07254648 228.857687 C79.74645251 225.26241639 80.44495799 221.67190059 81.1401062 218.08068848 C83.12519634 207.79881656 85.07021192 197.50946089 87.01147461 187.21923828 C87.18614171 186.29377166 87.36080882 185.36830503 87.54076886 184.41479397 C89.19117977 175.66963555 90.83988387 166.92415723 92.48400784 158.17781448 C94.57403106 147.05990442 96.67312626 135.94379038 98.78422779 124.82986283 C100.27719148 116.9661455 101.7600564 109.10056494 103.23535496 101.23351455 C104.11394784 96.54988691 104.99697924 91.86719899 105.89089775 87.18647003 C106.72738651 82.80530777 107.55139355 78.42198416 108.36571693 74.0366497 C108.66667603 72.42809873 108.9722 70.82039428 109.28256989 69.21363258 C109.70472651 67.02449178 110.11048173 64.83292399 110.51219177 62.63995361 C110.74352027 61.41379963 110.97484877 60.18764565 111.21318722 58.92433548 C111.46354756 55.6908494 111.503589 54.32941347 109.45288086 51.82861328 C107.27307216 50.87808936 107.27307216 50.87808936 104.62788391 50.47442627 C103.60872391 50.27540207 102.5895639 50.07637787 101.53952026 49.87132263 C99.85561691 49.57029381 99.85561691 49.57029381 98.13769531 49.26318359 C96.9587117 49.03826736 95.77972809 48.81335114 94.5650177 48.58161926 C91.32722902 47.96772761 88.08726851 47.36962667 84.84526467 46.7786684 C81.45104542 46.15651534 78.06038079 45.51554596 74.66923523 44.87689209 C68.96913067 43.80623137 63.26669588 42.74882866 57.5625 41.70019531 C50.9774904 40.48956664 44.39568982 39.26266768 37.81554633 38.0258801 C30.80328429 36.70788418 23.78923157 35.39964667 16.77439094 34.0954504 C14.75797079 33.72004046 12.74184618 33.34307509 10.72576332 32.96585846 C6.95670447 32.26279974 3.18616728 31.56832624 -0.58496094 30.87646484 C-1.69744202 30.66768204 -2.8099231 30.45889923 -3.95611572 30.24378967 C-9.2399989 29.2836993 -14.17560979 28.57882688 -19.54711914 28.82861328 Z M-0.54711914 251.82861328 C-2.89234849 254.71374306 -2.89234849 254.71374306 -2.42211914 258.32861328 C-1.82211914 261.77861328 -1.82211914 261.77861328 0.07788086 263.82861328 C3.6118226 265.31658875 5.80224302 264.87165266 9.45288086 263.82861328 C12.09214444 261.77980044 12.09214444 261.77980044 13.45288086 258.82861328 C13.38838102 255.60362109 13.03779939 253.67674514 11.20288086 251.01611328 C6.66795172 247.93883993 3.69111265 248.62130274 -0.54711914 251.82861328 Z " fill="#0F265C" transform="translate(760.547119140625,224.17138671875)"/>
<path d="M0 0 C0.91523438 0.40089844 1.83046875 0.80179688 2.7734375 1.21484375 C15.95495142 7.58406266 24.93803321 18.86926139 30.3125 32.2734375 C35.4427951 47.84245806 34.23044859 63.92500177 26.9375 78.5625 C23.65809552 84.38554513 19.75524734 88.99075542 15.13671875 93.7578125 C12.87177744 96.00551494 12.87177744 96.00551494 11 99 C9.00390625 100.02734375 9.00390625 100.02734375 6.5625 100.9375 C5.22638672 101.44023438 5.22638672 101.44023438 3.86328125 101.953125 C2.91839844 102.29859375 1.97351563 102.6440625 1 103 C0.04480469 103.36609375 -0.91039062 103.7321875 -1.89453125 104.109375 C-16.48708783 109.61901333 -31.87659239 109.78384313 -46.3515625 103.55859375 C-61.6040111 95.86092941 -71.19246707 84.91716733 -77.0546875 68.98046875 C-81.93277028 53.60039785 -79.40269402 37.32773278 -72.1875 23.1875 C-64.54592011 10.11737201 -52.80779275 1.14771194 -38.296875 -3.1875 C-25.87059517 -5.91724629 -11.5254665 -5.55381241 0 0 Z M-34.0234375 46.41015625 C-38.04598688 51.68080889 -42.60048763 55.98636033 -49 58 C-51.42992135 58.28335716 -53.8699502 58.48803459 -56.3125 58.625 C-57.56675781 58.69976563 -58.82101562 58.77453125 -60.11328125 58.8515625 C-61.06589844 58.90054688 -62.01851563 58.94953125 -63 59 C-58.96682481 68.19563944 -53.75043089 73.83792654 -44.54296875 78.05859375 C-37.608039 80.62590261 -30.93745206 80.54606826 -24 78 C-20.45985298 76.26852622 -17.23399505 74.24744191 -14 72 C-13.34386719 71.55398438 -12.68773437 71.10796875 -12.01171875 70.6484375 C-5.57272438 65.66254952 -1.40352128 58.6946174 3.16015625 52.0625 C11.04454532 40.65685155 11.04454532 40.65685155 17 38 C16.14691523 32.8927162 12.75492664 30.29253652 9 27 C4.63502226 23.95466669 0.5635374 22.48602924 -4.8203125 22.6015625 C-18.35461246 25.07557432 -26.60301366 35.87078932 -34.0234375 46.41015625 Z M-48 25 C-48.2475 25.61875 -48.495 26.2375 -48.75 26.875 C-50.20628639 29.35068687 -51.37812506 29.95125002 -54 31 C-53.34 31.66 -52.68 32.32 -52 33 C-51.01 33 -50.02 33 -49 33 C-48.67 34.65 -48.34 36.3 -48 38 C-47.34 38 -46.68 38 -46 38 C-45.67 36.35 -45.34 34.7 -45 33 C-43.35 32.67 -41.7 32.34 -40 32 C-40.33 31.34 -40.66 30.68 -41 30 C-41.99 29.67 -42.98 29.34 -44 29 C-45.1875 26.9375 -45.1875 26.9375 -46 25 C-46.66 25 -47.32 25 -48 25 Z M0.75 70.625 C-1.2991879 72.92779775 -1.2991879 72.92779775 -1.0625 76.125 C-0.26932619 79.15291678 -0.26932619 79.15291678 2.3125 80.5 C4.92835205 81.15683582 4.92835205 81.15683582 7.25 80.5625 C9.96332843 78.13988533 9.74104079 75.49594929 10 72 C6.59134494 69.17904409 4.70652127 67.76751242 0.75 70.625 Z " fill="#0F265C" transform="translate(358,737)"/>
<path d="M0 0 C10.20217331 8.83377451 18.48431256 19.88773596 19.50952148 33.84106445 C20.24854655 49.53044005 17.37954302 62.13116637 7.25390625 74.5546875 C-1.77863334 84.37202152 -13.51794545 90.29841619 -26.8671875 91.16796875 C-42.60468408 91.61515445 -56.01158989 87.10061483 -67.5625 76.2109375 C-78.54373224 64.23329855 -81.63064047 50.92090441 -81.07421875 35.10546875 C-80.34832017 24.07099934 -76.12578798 15.05301584 -68.62890625 6.95703125 C-68.08363281 6.333125 -67.53835938 5.70921875 -66.9765625 5.06640625 C-49.95026438 -13.36205759 -19.72383655 -15.32773628 0 0 Z M-52.62890625 14.95703125 C-52.87640625 15.72015625 -53.12390625 16.48328125 -53.37890625 17.26953125 C-54.73886183 20.19343575 -55.94476451 21.25707481 -58.62890625 22.95703125 C-56.15390625 23.45203125 -56.15390625 23.45203125 -53.62890625 23.95703125 C-53.29890625 25.60703125 -52.96890625 27.25703125 -52.62890625 28.95703125 C-50.44400618 26.28060636 -50.44400618 26.28060636 -50.62890625 23.95703125 C-48.97890625 23.62703125 -47.32890625 23.29703125 -45.62890625 22.95703125 C-46.41265625 22.19390625 -47.19640625 21.43078125 -48.00390625 20.64453125 C-50.62890625 17.95703125 -50.62890625 17.95703125 -52.62890625 14.95703125 Z M-35.62890625 28.95703125 C-36.9812517 30.83934992 -38.31462215 32.73544269 -39.62890625 34.64453125 C-43.73897775 40.43599564 -48.10467695 45.03086354 -55.28125 46.5 C-56.97195167 46.67130457 -58.66880039 46.79412912 -60.3671875 46.8515625 C-62.58739638 46.95509556 -64.497791 47.34744451 -66.62890625 47.95703125 C-60.8476369 56.7365653 -56.10745334 62.78649473 -45.69140625 65.39453125 C-37.04391307 66.76966778 -29.66633255 63.92606616 -22.62890625 58.95703125 C-15.82597214 53.31791479 -10.85732347 46.41226099 -5.890625 39.19140625 C-2.51977017 34.37090919 0.11217393 30.73257227 5.37109375 27.95703125 C2.90974135 21.91552991 -1.81615827 18.3232822 -7.59765625 15.69140625 C-18.91788132 11.59870949 -28.83811356 20.94389588 -35.62890625 28.95703125 Z M-8.94140625 57.01953125 C-10.85038738 58.85880514 -10.85038738 58.85880514 -11.00390625 61.51953125 C-10.84786761 64.13231234 -10.84786761 64.13231234 -8.62890625 65.95703125 C-5.75878329 66.32499573 -4.22116007 66.33212534 -1.75390625 64.76953125 C-0.40367836 62.94970677 -0.40367836 62.94970677 -0.62890625 60.39453125 C-1.4348779 57.77097045 -1.4348779 57.77097045 -3.94140625 56.45703125 C-6.63190677 55.68923639 -6.63190677 55.68923639 -8.94140625 57.01953125 Z " fill="#0F265C" transform="translate(488.62890625,450.04296875)"/>
<path d="M0 0 C1.34279511 -0.00389549 2.685589 -0.00823189 4.02838135 -0.01298523 C6.82543968 -0.02039993 9.62237163 -0.02018878 12.41943359 -0.01489258 C15.99600201 -0.00907137 19.57205702 -0.02611493 23.1485405 -0.04923725 C25.91441852 -0.06398557 28.68017269 -0.0648454 31.44608307 -0.06172752 C33.40310446 -0.06248666 35.36010673 -0.07633056 37.31707764 -0.09040833 C38.50891663 -0.08417953 39.70075562 -0.07795074 40.92871094 -0.0715332 C42.49682526 -0.07247734 42.49682526 -0.07247734 44.09661865 -0.07344055 C47.44883026 0.36572202 49.27916456 1.24729592 51.953125 3.30078125 C54.00689916 6.27416337 54.21637291 8.77649675 54.25952148 12.34130859 C54.27550888 13.34269867 54.29149628 14.34408875 54.30796814 15.37582397 C54.31333084 16.45191925 54.31869354 17.52801453 54.32421875 18.63671875 C54.33324722 19.74882721 54.3422757 20.86093567 54.35157776 22.00674438 C54.36608084 24.35863553 54.37496713 26.71056704 54.37866211 29.0625 C54.39055832 32.65564112 54.43974633 36.24706501 54.49023438 39.83984375 C54.49969874 42.12629371 54.50693371 44.41275421 54.51171875 46.69921875 C54.53125107 47.77126556 54.55078339 48.84331238 54.57090759 49.94784546 C54.52067566 58.27635848 54.52067566 58.27635848 51.54321289 61.96337891 C47.8805229 65.26874171 46.21360441 65.42816796 41.37695312 65.44604492 C40.20813599 65.45242477 39.03931885 65.45880463 37.83508301 65.46537781 C35.92898254 65.46704704 35.92898254 65.46704704 33.984375 65.46875 C32.67915894 65.4720784 31.37394287 65.4754068 30.0291748 65.47883606 C27.25837378 65.4848326 24.48760394 65.48667573 21.71679688 65.48608398 C18.19108043 65.48598304 14.66556848 65.49956182 11.13990021 65.51685619 C7.75472275 65.53076327 4.36958057 65.53006849 0.984375 65.53125 C-0.27016479 65.53843552 -1.52470459 65.54562103 -2.81726074 65.55302429 C-14.96835431 65.52171496 -24.47916978 64.44376832 -33.578125 55.85546875 C-40.3167921 48.33610241 -42.39957563 40.0689146 -42.25390625 30.203125 C-41.61984116 21.3142502 -38.28800661 14.62657937 -32.046875 8.30078125 C-22.44474214 0.11794175 -12.12601858 -0.00868736 0 0 Z M-9.046875 24.30078125 C-11.91497619 28.41172628 -12.5220241 31.57645171 -11.69921875 36.40234375 C-10.39774348 40.18987059 -7.54456421 42.55193664 -4.046875 44.30078125 C0.72568423 44.69849452 3.03795172 44.77531554 7.328125 42.55078125 C11.06446534 39.34820382 11.78693654 37.7964774 12.328125 32.92578125 C11.88373145 28.62997693 10.65721206 26.62294536 7.953125 23.30078125 C2.67860865 19.78443701 -4.18901673 20.01443572 -9.046875 24.30078125 Z " fill="#0F265C" transform="translate(494.046875,662.69921875)"/>
<path d="M0 0 C3.47394529 3.3839467 6.00826418 6.91933018 8.26171875 11.203125 C8.77025391 12.1621875 8.77025391 12.1621875 9.2890625 13.140625 C13.25573752 22.49978449 12.79745892 35.48220087 9.19921875 44.828125 C6.64609299 50.04255981 3.42793812 54.18703966 -0.73828125 58.203125 C-1.62515625 59.09 -2.51203125 59.976875 -3.42578125 60.890625 C-13.40791914 68.55315383 -24.63445977 69.58963087 -36.73828125 68.203125 C-47.32724705 66.15159252 -55.62336488 59.74625822 -61.67578125 50.953125 C-67.59974315 40.87959545 -69.01993632 30.58783263 -66.61328125 19.328125 C-63.83905882 9.13028883 -58.49658559 1.21110816 -49.73828125 -4.796875 C-32.67970012 -13.72597606 -14.77973961 -12.52913562 0 0 Z M-30.01953125 18.203125 C-31.87882973 20.36667232 -33.58932158 22.60867877 -35.30078125 24.890625 C-38.79613738 29.41992754 -41.65003655 32.70695272 -47.55859375 33.65625 C-50.28831163 33.92154227 -52.99790696 34.10560278 -55.73828125 34.203125 C-52.84985095 40.22068814 -49.44160686 43.71320502 -43.73828125 47.203125 C-38.06152028 49.09537866 -32.02213955 49.15351045 -26.55078125 46.578125 C-25.25720862 45.82418646 -23.98487434 45.03243745 -22.73828125 44.203125 C-22.17753906 43.83703125 -21.61679687 43.4709375 -21.0390625 43.09375 C-16.11615695 39.3757514 -12.84134531 34.40338488 -9.46533203 29.31689453 C-6.65964296 25.16831155 -3.71606658 22.25718659 0.26171875 19.203125 C-1.85111449 15.19986202 -3.84648206 12.57204625 -7.73828125 10.203125 C-17.18715762 7.38472211 -23.61051466 11.44452569 -30.01953125 18.203125 Z M-45.73828125 11.203125 C-46.06828125 11.863125 -46.39828125 12.523125 -46.73828125 13.203125 C-47.72828125 13.863125 -48.71828125 14.523125 -49.73828125 15.203125 C-48.74828125 15.533125 -47.75828125 15.863125 -46.73828125 16.203125 C-45.05078125 17.765625 -45.05078125 17.765625 -43.73828125 19.203125 C-43.73828125 18.213125 -43.73828125 17.223125 -43.73828125 16.203125 C-42.41828125 15.543125 -41.09828125 14.883125 -39.73828125 14.203125 C-40.72828125 13.873125 -41.71828125 13.543125 -42.73828125 13.203125 C-43.06828125 12.543125 -43.39828125 11.883125 -43.73828125 11.203125 C-44.39828125 11.203125 -45.05828125 11.203125 -45.73828125 11.203125 Z M-9.73828125 41.203125 C-12.02556859 43.04196381 -12.02556859 43.04196381 -11.86328125 45.828125 C-11.82203125 46.611875 -11.78078125 47.395625 -11.73828125 48.203125 C-9.34108693 48.88271103 -9.34108693 48.88271103 -6.73828125 49.203125 C-6.07828125 48.543125 -5.41828125 47.883125 -4.73828125 47.203125 C-5.05869522 44.60031932 -5.05869522 44.60031932 -5.73828125 42.203125 C-7.63007328 41.5216427 -7.63007328 41.5216427 -9.73828125 41.203125 Z " fill="#0F265C" transform="translate(382.73828125,537.796875)"/>
<path d="M0 0 C10.81403247 -0.06963247 21.62801125 -0.12287851 32.4422226 -0.15543652 C37.46416669 -0.17106586 42.48595693 -0.1922542 47.5078125 -0.22631836 C52.35778813 -0.25900927 57.20761614 -0.27687355 62.05769348 -0.28463173 C63.90438662 -0.29015779 65.75107204 -0.30094878 67.59770203 -0.31719017 C70.19226287 -0.33909397 72.78622036 -0.34196155 75.38085938 -0.34057617 C76.51590912 -0.35675491 76.51590912 -0.35675491 77.67388916 -0.3732605 C83.65468348 -0.33889824 89.2922887 0.74705874 94.0234375 4.68359375 C94.46945312 5.26238281 94.91546875 5.84117187 95.375 6.4375 C96.06722656 7.30181641 96.06722656 7.30181641 96.7734375 8.18359375 C97.17820312 8.78300781 97.58296875 9.38242187 98 10 C98.57621094 10.85271484 98.57621094 10.85271484 99.1640625 11.72265625 C100 14 100 14 100 22 C65.35 22 30.7 22 -5 22 C-3.68 16.39 -2.36 10.78 -1 5 C-0.67 3.35 -0.34 1.7 0 0 Z " fill="#0061FF" transform="translate(401,566)"/>
<path d="M0 0 C4.30016841 3.3418096 7.47445076 6.38112285 10.0625 11.1875 C9.671875 13.390625 9.671875 13.390625 9.0625 15.1875 C6.78515625 15.4453125 6.78515625 15.4453125 4.0625 15.1875 C2.24609375 13.4296875 2.24609375 13.4296875 0.5 11.0625 C-5.49710803 3.8340466 -13.6857845 0.05147392 -22.9375 -1.05078125 C-30.87292767 -1.34526001 -39.31700997 0.77383998 -45.9375 5.1875 C-48.625 4.8125 -48.625 4.8125 -50.9375 4.1875 C-50.80078125 1.890625 -50.80078125 1.890625 -49.9375 -0.8125 C-47.35546875 -2.578125 -47.35546875 -2.578125 -44.125 -4.0625 C-43.06667969 -4.56265625 -42.00835938 -5.0628125 -40.91796875 -5.578125 C-27.3639551 -11.19158282 -11.77916762 -8.08836176 0 0 Z " fill="#0061FF" transform="translate(809.9375,350.8125)"/>
<path d="M0 0 C1.21128621 0.97105199 2.40098788 1.9699292 3.5625 3 C4.12710938 3.49113281 4.69171875 3.98226563 5.2734375 4.48828125 C7.27210234 6.83217002 6.75958178 9.04377331 6.5625 12 C4.3125 12.3125 4.3125 12.3125 1.5625 12 C1.005625 11.278125 0.44875 10.55625 -0.125 9.8125 C-4.13999272 4.92940075 -9.28948523 2.42316279 -15.546875 1.58203125 C-21.38325261 1.42958855 -25.32919958 2.00977537 -30.4375 5 C-33.3125 5.1875 -33.3125 5.1875 -35.4375 5 C-35.7675 3.35 -36.0975 1.7 -36.4375 0 C-35.04672699 -0.82113177 -33.64961107 -1.63152495 -32.25 -2.4375 C-31.47269531 -2.88996094 -30.69539062 -3.34242188 -29.89453125 -3.80859375 C-20.19884364 -8.5100003 -8.4238222 -6.21353491 0 0 Z " fill="#0061FF" transform="translate(802.4375,361)"/>
<path d="M0 0 C1.32 0.33 2.64 0.66 4 1 C4 4.59923873 3.42522032 4.99618927 1.0625 7.5625 C0.42054688 8.26761719 -0.22140625 8.97273437 -0.8828125 9.69921875 C-1.58148437 10.45847656 -2.28015625 11.21773437 -3 12 C-3.69867187 12.79019531 -4.39734375 13.58039062 -5.1171875 14.39453125 C-10.51922264 20.49825423 -16.18288562 26.29218422 -22 32 C-23.32 31.34 -24.64 30.68 -26 30 C-25.43345199 26.23913026 -23.90804041 24.56569277 -21.2109375 21.953125 C-20.43363281 21.19 -19.65632812 20.426875 -18.85546875 19.640625 C-18.03691406 18.85171875 -17.21835937 18.0628125 -16.375 17.25 C-10.6608473 11.69328748 -5.14130355 6.09602754 0 0 Z " fill="#99C0FF" transform="translate(795,757)"/>
<path d="M0 0 C0.99 0.66 1.98 1.32 3 2 C2.64182153 4.71618672 2.17683958 5.8303398 0.171875 7.75390625 C-0.62734375 8.35074219 -1.4265625 8.94757813 -2.25 9.5625 C-6.524001 12.84640868 -10.69893134 16.20674277 -14.8125 19.6875 C-15.35100586 20.13875244 -15.88951172 20.59000488 -16.44433594 21.05493164 C-19.80274045 23.89437625 -22.93399623 26.85465418 -26 30 C-27.32 29.34 -28.64 28.68 -30 28 C-29.59201319 23.56445108 -26.56365716 21.29981775 -23.4375 18.5 C-22.87264893 17.9853418 -22.30779785 17.47068359 -21.72583008 16.94042969 C-14.86306644 10.80675922 -7.44872855 5.39291772 0 0 Z " fill="#99C0FF" transform="translate(334,267)"/>
<path d="M0 0 C0.99 0.33 1.98 0.66 3 1 C3.6875 3.0625 3.6875 3.0625 4 5 C-4.30469479 11.00743528 -12.62986516 16.9574249 -21.375 22.3125 C-21.99834229 22.70300537 -22.62168457 23.09351074 -23.26391602 23.49584961 C-25.0234375 24.55078125 -25.0234375 24.55078125 -28 26 C-28.99 25.67 -29.98 25.34 -31 25 C-31.6875 22.9375 -31.6875 22.9375 -32 21 C-31.11441406 20.48953125 -30.22882812 19.9790625 -29.31640625 19.453125 C-21.06037919 14.6262124 -13.203149 9.46652521 -5.54907227 3.72363281 C-4.86772217 3.22444336 -4.18637207 2.72525391 -3.484375 2.2109375 C-2.88334961 1.76024902 -2.28232422 1.30956055 -1.66308594 0.84521484 C-0.8398584 0.4268335 -0.8398584 0.4268335 0 0 Z " fill="#99C0FF" transform="translate(738,810)"/>
<path d="M0 0 C2.0625 0.4375 2.0625 0.4375 4 1 C4 4.42410108 3.55701148 4.93177395 1.5078125 7.51953125 C0.9718042 8.2060376 0.4357959 8.89254395 -0.11645508 9.59985352 C-0.6967749 10.33002686 -1.27709473 11.0602002 -1.875 11.8125 C-3.0656488 13.33710126 -4.25442435 14.86316714 -5.44140625 16.390625 C-6.03840332 17.15826172 -6.63540039 17.92589844 -7.25048828 18.71679688 C-9.85028625 22.10966746 -12.34240671 25.57453118 -14.8125 29.0625 C-15.23837402 29.66360596 -15.66424805 30.26471191 -16.10302734 30.8840332 C-17.07111486 32.25430861 -18.03597531 33.62686325 -19 35 C-20.32 34.34 -21.64 33.68 -23 33 C-22.38974176 29.9150423 -21.40714169 27.83646954 -19.59375 25.27734375 C-19.10108643 24.57867187 -18.60842285 23.88 -18.10083008 23.16015625 C-17.57255615 22.42667969 -17.04428223 21.69320313 -16.5 20.9375 C-15.96334717 20.1846875 -15.42669434 19.431875 -14.8737793 18.65625 C-5.18956085 5.18956085 -5.18956085 5.18956085 0 0 Z " fill="#99C0FF" transform="translate(276,322)"/>
<path d="M0 0 C1.65 0.66 3.3 1.32 5 2 C3.46309139 7.34096971 1.03100175 11.8817401 -1.6875 16.6875 C-2.13013184 17.47753418 -2.57276367 18.26756836 -3.02880859 19.08154297 C-6.47990406 25.19366395 -10.11155899 31.15446285 -14 37 C-15.65 36.67 -17.3 36.34 -19 36 C-18.33072267 32.42002241 -16.8358075 29.75697019 -14.98046875 26.640625 C-14.37009766 25.60679687 -13.75972656 24.57296875 -13.13085938 23.5078125 C-12.48955078 22.43273437 -11.84824219 21.35765625 -11.1875 20.25 C-7.23188362 13.59387582 -3.34896988 6.98475331 0 0 Z " fill="#99C0FF" transform="translate(838,691)"/>
<path d="M0 0 C6.73696597 2.01619463 12.87362635 4.73569295 19.125 7.9375 C19.97964844 8.36740234 20.83429687 8.79730469 21.71484375 9.24023438 C26.56113078 11.69315538 31.30970483 14.26081677 36 17 C35.505 19.475 35.505 19.475 35 22 C31.15373483 21.40112598 28.22038152 20.25413908 24.796875 18.41796875 C23.81589844 17.89783203 22.83492187 17.37769531 21.82421875 16.84179688 C20.80972656 16.29587891 19.79523437 15.74996094 18.75 15.1875 C11.92794238 11.5387995 5.1297415 8.01324449 -2 5 C-1.34 3.35 -0.68 1.7 0 0 Z " fill="#99C0FF" transform="translate(672,227)"/>
<path d="M0 0 C1.5 1.375 1.5 1.375 3 3 C3 3.66 3 4.32 3 5 C-5.06705171 8.64620052 -13.22182972 11.90785156 -21.5625 14.875 C-22.84688965 15.34015015 -22.84688965 15.34015015 -24.15722656 15.81469727 C-31.66749928 18.44299598 -31.66749928 18.44299598 -36 18 C-36.33 16.68 -36.66 15.36 -37 14 C-29.95247142 11.12561582 -22.84936072 8.44994104 -15.6875 5.875 C-13.77447019 5.18564297 -11.8617006 4.49556329 -9.94921875 3.8046875 C-8.70144653 3.35585205 -8.70144653 3.35585205 -7.4284668 2.89794922 C-4.93358512 1.97544245 -2.4653588 0.99845246 0 0 Z " fill="#99C0FF" transform="translate(671,849)"/>
<path d="M0 0 C2.475 0.495 2.475 0.495 5 1 C3.33620623 6.47441822 1.00835869 11.56268992 -1.375 16.75 C-2.15579791 18.45213945 -2.93444748 20.15526604 -3.7109375 21.859375 C-4.09475586 22.69791016 -4.47857422 23.53644531 -4.87402344 24.40039062 C-6.38828762 27.89646284 -7.65926557 31.47267167 -8.89697266 35.07519531 C-10 37 -10 37 -11.99755859 37.90136719 C-12.65836426 37.93391602 -13.31916992 37.96646484 -14 38 C-14.66 37.34 -15.32 36.68 -16 36 C-11.26172551 23.65915647 -6.14756515 11.70653364 0 0 Z " fill="#99C0FF" transform="translate(233,388)"/>
<path d="M0 0 C0.495 1.98 0.495 1.98 1 4 C0.05382812 4.46148437 -0.89234375 4.92296875 -1.8671875 5.3984375 C-3.20367635 6.05617252 -4.53956462 6.71512867 -5.875 7.375 C-6.58229248 7.72425537 -7.28958496 8.07351074 -8.01831055 8.43334961 C-12.06134474 10.45420442 -16.03628056 12.55699429 -19.96484375 14.79296875 C-20.7738916 15.2533252 -21.58293945 15.71368164 -22.41650391 16.18798828 C-23.9981854 17.09535193 -25.57483872 18.01154446 -27.14599609 18.93701172 C-27.8673877 19.35096191 -28.5887793 19.76491211 -29.33203125 20.19140625 C-30.28686401 20.75130249 -30.28686401 20.75130249 -31.26098633 21.32250977 C-33 22 -33 22 -36 21 C-36.6875 18.9375 -36.6875 18.9375 -37 17 C-33.56616927 15.09746602 -30.12727376 13.20426468 -26.6875 11.3125 C-25.73037109 10.78205078 -24.77324219 10.25160156 -23.78710938 9.70507812 C-6.10362347 0 -6.10362347 0 0 0 Z " fill="#99C0FF" transform="translate(404,228)"/>
<path d="M0 0 C7.31470392 2.40218893 14.56765763 4.95775609 21.8125 7.5625 C22.93076172 7.96146484 24.04902344 8.36042969 25.20117188 8.77148438 C26.27560547 9.15755859 27.35003906 9.54363281 28.45703125 9.94140625 C29.42616455 10.28888916 30.39529785 10.63637207 31.39379883 10.99438477 C33.68268343 11.87756188 35.83150566 12.85732226 38 14 C37.67 15.65 37.34 17.3 37 19 C27.4757978 16.43389371 18.18755766 13.47692134 9 9.875 C8.12182617 9.53855469 7.24365234 9.20210937 6.33886719 8.85546875 C5.52579102 8.52933594 4.71271484 8.20320312 3.875 7.8671875 C3.15054687 7.57956543 2.42609375 7.29194336 1.6796875 6.99560547 C0 6 0 6 -1 3 C-0.67 2.01 -0.34 1.02 0 0 Z " fill="#99C0FF" transform="translate(404,849)"/>
<path d="M0 0 C0.26216309 0.8470752 0.52432617 1.69415039 0.79443359 2.56689453 C1.77422425 5.73160536 2.75459549 8.89613515 3.73535156 12.06054688 C4.1584334 13.42603544 4.58128865 14.79159424 5.00390625 16.15722656 C5.6139764 18.1284438 6.22488084 20.09940088 6.8359375 22.0703125 C7.20251465 23.25383301 7.5690918 24.43735352 7.94677734 25.65673828 C8.63621108 27.84521894 9.36447252 30.0219339 10.13525391 32.18310547 C11 35 11 35 11 39 C8.525 39.495 8.525 39.495 6 40 C-2.93190367 13.0423526 -2.93190367 13.0423526 -5 1 C-2 0 -2 0 0 0 Z " fill="#99C0FF" transform="translate(211,618)"/>
<path d="M0 0 C1.65 0.33 3.3 0.66 5 1 C3.71025151 9.44480719 1.51149366 17.42610144 -1.0625 25.5625 C-1.42666016 26.73619141 -1.79082031 27.90988281 -2.16601562 29.11914062 C-4.83602151 37.67204301 -4.83602151 37.67204301 -6 40 C-7.65 39.34 -9.3 38.68 -11 38 C-8.74778035 29.56038748 -6.30788023 21.18307926 -3.8125 12.8125 C-3.44447266 11.57435547 -3.07644531 10.33621094 -2.69726562 9.06054688 C-1.79927584 6.04003579 -0.90016681 3.01986286 0 0 Z " fill="#99C0FF" transform="translate(865,618)"/>
<path d="M0 0 C0.495 2.475 0.495 2.475 1 5 C-0.13260254 5.24907104 -0.13260254 5.24907104 -1.28808594 5.50317383 C-4.77577811 6.27120137 -8.26288915 7.04183757 -11.75 7.8125 C-12.93722656 8.07353516 -14.12445313 8.33457031 -15.34765625 8.60351562 C-22.93102738 10.28180268 -30.47611424 12.07232858 -38 14 C-38.66 12.35 -39.32 10.7 -40 9 C-31.93306535 6.27550698 -23.79325177 4.15546518 -15.5 2.25 C-14.54464355 2.02739502 -13.58928711 1.80479004 -12.60498047 1.57543945 C-11.69377441 1.37007568 -10.78256836 1.16471191 -9.84375 0.953125 C-9.03099609 0.76911133 -8.21824219 0.58509766 -7.38085938 0.39550781 C-4.87919801 -0.0200676 -2.53129372 -0.06862619 0 0 Z " fill="#99C0FF" transform="translate(479,205)"/>
<path d="M0 0 C1.65 0 3.3 0 5 0 C5.22187016 14.15702269 5.15884511 27.98678218 3 42 C1.35 41.67 -0.3 41.34 -2 41 C-1.34 27.47 -0.68 13.94 0 0 Z " fill="#99C0FF" transform="translate(874,539)"/>
<path d="M0 0 C1.65 0.33 3.3 0.66 5 1 C4.87955322 1.70745361 4.75910645 2.41490723 4.63500977 3.14379883 C3.69832464 8.69748762 2.79927231 14.25418892 1.96484375 19.82421875 C1.79533203 20.95408203 1.62582031 22.08394531 1.45117188 23.24804688 C1.1023613 25.58361884 0.75609478 27.91957188 0.41210938 30.25585938 C0.15977539 31.92938477 0.15977539 31.92938477 -0.09765625 33.63671875 C-0.24726807 34.64436279 -0.39687988 35.65200684 -0.55102539 36.69018555 C-1 39 -1 39 -2 40 C-3.66617115 40.04063832 -5.33388095 40.042721 -7 40 C-5.43878605 26.43290685 -3.49359892 13.21183349 0 0 Z " fill="#99C0FF" transform="translate(206,462)"/>
<path d="M0 0 C2.34863364 7.91092654 3.9396551 15.78523699 5.1875 23.9375 C5.36474609 25.04673828 5.54199219 26.15597656 5.72460938 27.29882812 C6.39907053 31.6034007 7 35.63381423 7 40 C5.35 40 3.7 40 2 40 C1.82984375 39.07703125 1.6596875 38.1540625 1.484375 37.203125 C1.23993676 35.88535106 0.99511153 34.56764887 0.75 33.25 C0.61940186 32.54786377 0.48880371 31.84572754 0.35424805 31.12231445 C-0.43026041 26.93842112 -1.24385274 22.76176249 -2.08984375 18.58984375 C-2.36296387 17.2426123 -2.36296387 17.2426123 -2.64160156 15.86816406 C-3.00166336 14.10006096 -3.36423855 12.33246757 -3.72949219 10.56542969 C-3.89481445 9.75364258 -4.06013672 8.94185547 -4.23046875 8.10546875 C-4.37895264 7.38512451 -4.52743652 6.66478027 -4.68041992 5.92260742 C-5 4 -5 4 -5 1 C-3 0 -3 0 0 0 Z " fill="#99C0FF" transform="translate(870,461)"/>
<path d="M0 0 C0.495 2.475 0.495 2.475 1 5 C-2.12435491 5.48343366 -5.24959131 5.96093059 -8.375 6.4375 C-9.24511719 6.57220703 -10.11523438 6.70691406 -11.01171875 6.84570312 C-18.83824453 8.03417556 -26.69165386 9.17583352 -34.625 9.0625 C-35.88183594 9.04896484 -35.88183594 9.04896484 -37.1640625 9.03515625 C-37.76992188 9.02355469 -38.37578125 9.01195312 -39 9 C-39.33 7.35 -39.66 5.7 -40 4 C-39.18321777 3.91435791 -38.36643555 3.82871582 -37.52490234 3.74047852 C-33.80806864 3.34969116 -30.09153442 2.9561231 -26.375 2.5625 C-25.08980469 2.42779297 -23.80460938 2.29308594 -22.48046875 2.15429688 C-20.61455078 1.95610352 -20.61455078 1.95610352 -18.7109375 1.75390625 C-17.56931152 1.63345947 -16.42768555 1.5130127 -15.25146484 1.38891602 C-13.09124181 1.13052622 -10.93659907 0.81996142 -8.79150391 0.45678711 C-5.81736809 -0.02988493 -3.00831296 -0.0716265 0 0 Z " fill="#99C0FF" transform="translate(597,872)"/>
<path d="M0 0 C8.81090034 0.46612505 17.08421469 2.22425073 25.625 4.375 C26.90246094 4.67921875 28.17992187 4.9834375 29.49609375 5.296875 C30.70652344 5.59851563 31.91695312 5.90015625 33.1640625 6.2109375 C34.26186035 6.48212402 35.3596582 6.75331055 36.49072266 7.03271484 C37.31878418 7.35191895 38.1468457 7.67112305 39 8 C39.495 9.485 39.495 9.485 40 11 C39.67 11.66 39.34 12.32 39 13 C33.71575379 12.40347414 28.62866038 11.56073467 23.4375 10.37109375 C22.76074219 10.21713638 22.08398438 10.06317902 21.38671875 9.90455627 C19.25695981 9.41918261 17.12848045 8.92844631 15 8.4375 C13.54305051 8.10445982 12.08601988 7.77177442 10.62890625 7.43945312 C7.08499174 6.63039416 3.5422025 5.81652603 0 5 C0 3.35 0 1.7 0 0 Z " fill="#99C0FF" transform="translate(596,205)"/>
<path d="M0 0 C9.13239831 0.63918215 18.21749083 1.52321246 27.3125 2.5625 C29.15618164 2.77036133 29.15618164 2.77036133 31.03710938 2.98242188 C34.02497681 3.31957423 37.01259336 3.65879303 40 4 C40 5.65 40 7.3 40 9 C32.08112091 9.20302303 24.46936289 8.61790552 16.625 7.5625 C15.04525391 7.36043945 15.04525391 7.36043945 13.43359375 7.15429688 C8.91830202 6.56770955 4.45855844 5.93242682 0 5 C0 3.35 0 1.7 0 0 Z " fill="#99C0FF" transform="translate(479,872)"/>
<path d="M0 0 C13.53 0 27.06 0 41 0 C41 1.65 41 3.3 41 5 C27.8 5 14.6 5 1 5 C0.67 3.35 0.34 1.7 0 0 Z " fill="#99C0FF" transform="translate(517,200)"/>
<path d="M0 0 C1.65 0 3.3 0 5 0 C5.28927276 4.08905506 5.57389476 8.17840665 5.85449219 12.26806641 C5.95026685 13.65487069 6.04724011 15.0415928 6.14550781 16.42822266 C6.70185741 24.29091855 7.16924695 32.11356239 7 40 C5.35 40 3.7 40 2 40 C0.66719416 26.6311776 -0.32469196 13.43863932 0 0 Z " fill="#99C0FF" transform="translate(197,541)"/>
<path d="M0 0 C3.5 1.8125 3.5 1.8125 6 4 C6.639375 4.474375 7.27875 4.94875 7.9375 5.4375 C9 7 9 7 8.6875 9.6875 C8.460625 10.450625 8.23375 11.21375 8 12 C4.61005808 11.6011833 2.90528065 10.93349493 0.0625 8.9375 C-3.44185687 6.7204579 -4.93857851 6.49232231 -9 7 C-12.27564363 7.92414941 -12.27564363 7.92414941 -15 9 C-15.66 8.34 -16.32 7.68 -17 7 C-17 5.68 -17 4.36 -17 3 C-11.54729587 -0.53688917 -6.30430628 -0.86308955 0 0 Z " fill="#0061FF" transform="translate(790,368)"/>
<path d="M0 0 C3.32015435 1.49043425 4.66735868 4.28185559 6.390625 7.3359375 C6.74833984 7.96064941 7.10605469 8.58536133 7.47460938 9.22900391 C10.45569399 14.8093104 11.06518099 19.66882038 10.140625 25.9609375 C6.34772274 21.59201037 3.66036639 16.81774849 0.890625 11.7734375 C0.43171875 10.95423828 -0.0271875 10.13503906 -0.5 9.29101562 C-3.859375 3.21714565 -3.859375 3.21714565 -3.859375 0.9609375 C-1.859375 -0.0390625 -1.859375 -0.0390625 0 0 Z " fill="#99C0FF" transform="translate(236.859375,692.0390625)"/>
<path d="M0 0 C3.0625 0.375 3.0625 0.375 5.0625 2 C6.0625 4.375 6.0625 4.375 5.25 7.625 C4.858125 8.5325 4.46625 9.44 4.0625 10.375 C0.6875 10.5 0.6875 10.5 -2.9375 10.375 C-4.9375 8.375 -4.9375 8.375 -5.1875 5.375 C-4.8467171 1.28560516 -4.06103243 0.51842967 0 0 Z " fill="#0061FF" transform="translate(783.9375,379.625)"/>
<path d="M0 0 C1.98 0 3.96 0 6 0 C6 0.33 6 0.66 6 1 C4.02 1 2.04 1 0 1 C0 0.67 0 0.34 0 0 Z " fill="#000000" transform="translate(289,531)"/>
</svg>
