<?xml version="1.0" encoding="UTF-8"?>
<svg version="1.1" xmlns="http://www.w3.org/2000/svg" width="1080" height="1080">
<path d="M0 0 C0.72256485 0.0028299 1.4451297 0.00565979 2.18959045 0.00857544 C4.47162241 0.01966864 6.75324522 0.04475162 9.03515625 0.0703125 C10.59309324 0.08035639 12.15103646 0.08947976 13.70898438 0.09765625 C17.50536324 0.11957217 21.30144065 0.15402512 25.09765625 0.1953125 C25.21882813 1.00355469 25.34 1.81179688 25.46484375 2.64453125 C25.71621094 4.24748047 25.71621094 4.24748047 25.97265625 5.8828125 C26.21628906 7.46642578 26.21628906 7.46642578 26.46484375 9.08203125 C27.05754789 11.99798926 27.98457567 14.45002551 29.09765625 17.1953125 C29.09765625 18.1853125 29.09765625 19.1753125 29.09765625 20.1953125 C28.36651611 20.21513184 27.63537598 20.23495117 26.88208008 20.25537109 C23.55775356 20.35084164 20.23403639 20.46043216 16.91015625 20.5703125 C15.18442383 20.61671875 15.18442383 20.61671875 13.42382812 20.6640625 C12.31201172 20.70273437 11.20019531 20.74140625 10.0546875 20.78125 C8.5229187 20.82838135 8.5229187 20.82838135 6.96020508 20.87646484 C4.01893937 21.20408045 1.77741622 21.96843444 -0.90234375 23.1953125 C-0.55447667 25.17067995 -0.55447667 25.17067995 0.09765625 27.1953125 C3.15501328 28.72399102 6.35004211 28.31042865 9.703125 28.30078125 C11.25977942 28.31424484 12.81642098 28.32926937 14.37304688 28.34570312 C16.82442608 28.36847135 19.27435993 28.38286758 21.72583008 28.37036133 C37.12420988 28.31271284 37.12420988 28.31271284 41.4609375 32.10546875 C41.90348877 32.62890869 42.34604004 33.15234863 42.80200195 33.69165039 C47.36215982 38.98390822 56.26064183 40.91280058 62.82421875 41.56640625 C72.0313253 41.72324073 79.91919516 40.94174081 88.09765625 36.1953125 C89.27329727 35.01360952 90.44363682 33.82662066 91.61012268 32.63587952 C96.52116002 28.31220399 100.61302225 28.22705887 106.96069336 28.36889648 C108.55009987 28.36254433 108.55009987 28.36254433 110.1716156 28.35606384 C113.65705872 28.35076567 117.13988736 28.39539095 120.625 28.44140625 C123.0582251 28.44939449 125.49146093 28.45456478 127.92469788 28.45704651 C133.01812744 28.46927225 138.11069303 28.50419322 143.20385742 28.55737305 C149.7181078 28.62519275 156.23174734 28.65419192 162.74631405 28.66836452 C168.97678965 28.68353021 175.20711558 28.71792683 181.4375 28.75390625 C183.21037038 28.76182096 183.21037038 28.76182096 185.01905632 28.76989555 C188.38130166 28.78844841 191.74313229 28.82063447 195.10522461 28.85717773 C196.5807077 28.86288788 196.5807077 28.86288788 198.08599854 28.86871338 C208.63086286 29.01516107 217.18027796 30.65740537 225.046875 38.01953125 C233.13584746 46.65116015 233.52029056 54.77622572 233.28515625 66.1953125 C233.27162109 67.44699219 233.25808594 68.69867187 233.24414062 69.98828125 C233.20899411 73.05774366 233.15978851 76.12629759 233.09765625 79.1953125 C232.08859978 79.20078094 232.08859978 79.20078094 231.05915833 79.20635986 C224.00109401 79.24845959 216.94366345 79.31799472 209.88598633 79.40283203 C207.25877244 79.43090297 204.63147628 79.45218583 202.00415039 79.46630859 C198.20807183 79.48793046 194.41296825 79.53468092 190.6171875 79.5859375 C188.8804351 79.58778046 188.8804351 79.58778046 187.1085968 79.58966064 C174.36565604 79.81397572 163.56563358 82.79696666 154.421875 91.85546875 C147.08425057 99.84856335 143.5182819 109.59287776 143.78515625 120.41796875 C144.8056739 129.48781937 147.80064772 137.54762311 154.09765625 144.1953125 C154.59910156 144.73671875 155.10054687 145.278125 155.6171875 145.8359375 C163.4315671 153.36512076 174.22941869 156.22969577 184.82763672 156.40063477 C185.92832489 156.42057999 187.02901306 156.44052521 188.16305542 156.46107483 C189.33514557 156.47778732 190.50723572 156.49449982 191.71484375 156.51171875 C193.53328293 156.5428904 193.53328293 156.5428904 195.38845825 156.57469177 C199.24980155 156.63992232 203.11121116 156.69894901 206.97265625 156.7578125 C209.59505886 156.80102291 212.21745484 156.844638 214.83984375 156.88867188 C221.25904507 156.99557654 227.67831194 157.0973916 234.09765625 157.1953125 C234.38805478 187.68178092 234.38805478 187.68178092 225.84765625 197.8828125 C217.24271156 205.11878871 209.14603919 207.50003893 198.01617432 207.47619629 C197.1357584 207.48213853 196.25534248 207.48808078 195.34824729 207.49420309 C192.41604488 207.51146192 189.48400687 207.51458368 186.55175781 207.51757812 C184.44199276 207.52684254 182.33223103 207.53689294 180.22247314 207.54766846 C174.50331649 207.57384015 168.78420672 207.58679101 163.06499958 207.59568977 C159.48818907 207.60156265 155.91139121 207.60977433 152.3345871 207.61869812 C141.13261358 207.64602585 129.93066917 207.66537088 118.72866464 207.6731019 C105.81740496 207.68206285 92.90656879 207.71716647 79.99543786 207.77510309 C70.00110776 207.81838779 60.00689662 207.83851312 50.01247382 207.84118414 C44.04955468 207.84327626 38.08703426 207.85500656 32.12421417 207.89082336 C26.51303594 207.9238746 20.90255429 207.92805318 15.29131317 207.91054535 C13.23870472 207.90900944 11.1860581 207.91762629 9.13354492 207.93746185 C-3.27579173 208.05029932 -13.13185929 207.82227994 -23.02318954 199.38657379 C-31.87125577 190.24607409 -32.49098215 179.63035986 -32.41992188 167.53125 C-32.42535161 165.96965892 -32.43247903 164.40807296 -32.44116211 162.84649658 C-32.45929737 158.63154634 -32.4523688 154.41699056 -32.43964577 150.202034 C-32.429467 145.77579238 -32.43892492 141.34958289 -32.44519043 136.92333984 C-32.4524527 129.49245181 -32.44291654 122.06172317 -32.42382812 114.63085938 C-32.40206208 106.0590379 -32.40911446 97.48759709 -32.43113375 88.91578484 C-32.44932835 81.53541256 -32.45182628 74.15515439 -32.44137907 66.77476692 C-32.43516639 62.37588391 -32.43424683 57.97717941 -32.44752502 53.57830811 C-32.45914226 49.44125438 -32.45095163 45.30468795 -32.427948 41.16768646 C-32.42269207 39.65608272 -32.42412083 38.14443745 -32.43299866 36.63285065 C-32.48564 26.75348716 -31.74438712 18.03947189 -25.65234375 9.8828125 C-18.25598101 2.65454891 -10.37020324 -0.15611239 0 0 Z " fill="#0E255B" transform="translate(435.90234375,524.8046875)"/>
<path d="M0 0 C1.12581482 -0.00428513 2.25162964 -0.00857025 3.41156006 -0.01298523 C5.77469208 -0.01869412 8.13784167 -0.01925439 10.50097656 -0.01489258 C14.11293247 -0.01171562 17.72408155 -0.03529428 21.3359375 -0.06054688 C23.64062397 -0.06281854 25.94531264 -0.06352398 28.25 -0.0625 C29.32509827 -0.07170975 30.40019653 -0.08091949 31.50787354 -0.09040833 C37.00148082 -0.05647312 41.18643672 0.05853805 45.859375 3.30078125 C47.97013935 6.46692778 48.11350559 7.25332907 48.1340332 10.87646484 C48.14356522 11.80107513 48.15309723 12.72568542 48.16291809 13.67831421 C48.16200668 14.67521271 48.16109528 15.67211121 48.16015625 16.69921875 C48.16444138 17.72632965 48.1687265 18.75344055 48.17314148 19.81167603 C48.17888684 21.98544579 48.17938353 24.15923478 48.17504883 26.33300781 C48.17189384 29.65593391 48.19532872 32.97796559 48.22070312 36.30078125 C48.22297661 38.41275929 48.22367939 40.52473973 48.22265625 42.63671875 C48.231866 43.62956879 48.24107574 44.62241882 48.25056458 45.64535522 C48.19027449 54.65592029 48.19027449 54.65592029 44.859375 58.30078125 C40.24319589 61.26005595 34.54797465 60.56966097 29.2578125 60.53125 C27.70944199 60.53056267 27.70944199 60.53056267 26.12979126 60.52986145 C23.94605358 60.52684373 21.76231796 60.5189718 19.57861328 60.5065918 C16.26717325 60.48846083 12.95601551 60.48608148 9.64453125 60.48632812 C7.51562262 60.48140729 5.38671587 60.47557652 3.2578125 60.46875 C1.79158951 60.46708076 1.79158951 60.46708076 0.29574585 60.46537781 C-22.44926479 60.31166415 -22.44926479 60.31166415 -31.21484375 52.4375 C-37.6057423 45.53747327 -40.52992194 38.00994892 -40.3515625 28.5390625 C-39.50817305 19.58976333 -35.89597807 12.40022355 -29.1015625 6.54296875 C-20.34791813 0.1401264 -10.53937151 -0.00900248 0 0 Z M-11.515625 25.17578125 C-12.83663584 29.6672181 -12.62446125 32.40222821 -10.390625 36.55078125 C-7.81432808 39.8434554 -7.81432808 39.8434554 -4.140625 41.30078125 C0.68704637 41.22415155 2.87443668 41.01328982 6.796875 38.17578125 C9.30678937 34.67711274 9.859375 32.59826326 9.859375 28.30078125 C8.55286011 24.30438277 7.51722361 22.72981295 3.984375 20.42578125 C-2.50649236 18.089069 -7.25442742 19.36505728 -11.515625 25.17578125 Z " fill="#0061FF" transform="translate(631.140625,612.69921875)"/>
<path d="M0 0 C9.88248939 6.82271864 17.28427603 16.35818196 19.5234375 28.24609375 C21.21522742 41.28525508 18.74829025 53.01223597 10.6875 63.56640625 C3.08970527 72.41976876 -7.2504069 78.01339901 -18.93359375 78.93359375 C-32.38479587 79.3490749 -43.45847793 75.16930934 -53.40625 66.08984375 C-63.03474752 55.97308571 -64.64240131 44.74363708 -64.4296875 31.5 C-63.97040004 19.84273863 -58.2325179 11.24028192 -49.84375 3.46484375 C-35.99927019 -7.7798808 -15.26736289 -9.09956955 0 0 Z M-22.30859375 21.70703125 C-24.64881711 24.25010696 -26.62613147 26.98120757 -28.65625 29.77734375 C-36.08224769 39.88773925 -36.08224769 39.88773925 -42.484375 41.1875 C-44.03168955 41.36469247 -45.58506041 41.49807223 -47.140625 41.57421875 C-49.36254526 41.64503426 -49.36254526 41.64503426 -52.15625 42.71484375 C-48.56777693 48.74347851 -43.81755512 54.0649085 -37.15625 56.71484375 C-29.64150006 57.63808446 -23.39947047 57.1009037 -17.15625 52.71484375 C-16.52460937 52.27527344 -15.89296875 51.83570313 -15.2421875 51.3828125 C-10.02085411 47.2743928 -6.53292406 42.21484625 -2.81933594 36.79101562 C0.27272606 32.33246948 3.45240669 28.96061924 7.84375 25.71484375 C4.45303381 19.97670866 1.12725706 16.62692904 -5.53125 14.77734375 C-12.28956431 14.66082109 -17.35146823 17.2128719 -22.30859375 21.70703125 Z M-41.15625 16.71484375 C-42.51452971 18.3612434 -43.84879251 20.02780182 -45.15625 21.71484375 C-44.516875 21.81796875 -43.8775 21.92109375 -43.21875 22.02734375 C-42.538125 22.25421875 -41.8575 22.48109375 -41.15625 22.71484375 C-40.82625 23.70484375 -40.49625 24.69484375 -40.15625 25.71484375 C-39.49625 24.72484375 -38.83625 23.73484375 -38.15625 22.71484375 C-37.16625 22.05484375 -36.17625 21.39484375 -35.15625 20.71484375 C-35.795625 20.61171875 -36.435 20.50859375 -37.09375 20.40234375 C-37.774375 20.17546875 -38.455 19.94859375 -39.15625 19.71484375 C-39.48625 18.72484375 -39.81625 17.73484375 -40.15625 16.71484375 C-40.48625 16.71484375 -40.81625 16.71484375 -41.15625 16.71484375 Z M-4.84375 51.21484375 C-5.276875 51.70984375 -5.71 52.20484375 -6.15625 52.71484375 C-5.49625 54.36484375 -4.83625 56.01484375 -4.15625 57.71484375 C-2.17625 57.38484375 -0.19625 57.05484375 1.84375 56.71484375 C2.01062448 54.29838593 2.01062448 54.29838593 1.84375 51.71484375 C1.18375 51.05484375 0.52375 50.39484375 -0.15625 49.71484375 C-3.15884517 49.38266183 -3.15884517 49.38266183 -4.84375 51.21484375 Z " fill="#0061FF" transform="translate(619.15625,423.28515625)"/>
<path d="M0 0 C7.78599057 7.06171238 11.76671664 16.66077433 12.34765625 27.17578125 C11.82155515 36.6982112 8.41291709 45.76248248 1.84765625 52.67578125 C1.32300781 53.22878906 0.79835938 53.78179688 0.2578125 54.3515625 C-6.80108014 61.04505364 -15.29561399 63.32769081 -24.8515625 63.765625 C-35.70643341 63.47016698 -44.42602914 59.62423737 -51.96484375 51.79296875 C-58.70724507 43.46610312 -61.77811303 33.5649439 -60.93359375 22.91796875 C-59.97864972 16.32518207 -57.86665004 11.17923226 -54.15234375 5.67578125 C-53.76691406 5.05960937 -53.38148438 4.4434375 -52.984375 3.80859375 C-48.12699575 -2.91700829 -39.03139377 -7.19057555 -31.109375 -9.03125 C-19.16119151 -10.21501983 -9.31567587 -7.46365283 0 0 Z M-40.15234375 9.67578125 C-41.47234375 11.32578125 -42.79234375 12.97578125 -44.15234375 14.67578125 C-43.16234375 14.67578125 -42.17234375 14.67578125 -41.15234375 14.67578125 C-40.82234375 15.66578125 -40.49234375 16.65578125 -40.15234375 17.67578125 C-38.50234375 16.35578125 -36.85234375 15.03578125 -35.15234375 13.67578125 C-36.14234375 13.34578125 -37.13234375 13.01578125 -38.15234375 12.67578125 C-38.81234375 11.68578125 -39.47234375 10.69578125 -40.15234375 9.67578125 Z M-24.8984375 15.28515625 C-26.38287545 17.03912629 -27.77431922 18.83715674 -29.15234375 20.67578125 C-36.52664913 29.83881974 -36.52664913 29.83881974 -42.15234375 31.67578125 C-44.87407867 31.88818525 -47.41388688 31.81742557 -50.15234375 31.67578125 C-46.64030483 38.07825928 -43.35715894 42.27417619 -36.15234375 44.67578125 C-29.5797961 45.46656114 -24.60640197 44.44648817 -19.15234375 40.67578125 C-13.80453658 36.34099482 -9.97184393 30.85979318 -6.01953125 25.27734375 C-3.86382203 22.27378237 -1.56941238 19.47051686 0.84765625 16.67578125 C-2.90160022 12.47206945 -5.95288694 10.53973747 -11.15234375 8.67578125 C-15.98431964 8.67578125 -21.42985509 12.08816307 -24.8984375 15.28515625 Z M-8.15234375 38.67578125 C-8.81234375 39.33578125 -9.47234375 39.99578125 -10.15234375 40.67578125 C-10.06662714 42.76869282 -10.06662714 42.76869282 -9.15234375 44.67578125 C-8.16234375 45.00578125 -7.17234375 45.33578125 -6.15234375 45.67578125 C-5.16234375 44.68578125 -4.17234375 43.69578125 -3.15234375 42.67578125 C-3.81234375 41.35578125 -4.47234375 40.03578125 -5.15234375 38.67578125 C-6.14234375 38.67578125 -7.13234375 38.67578125 -8.15234375 38.67578125 Z " fill="#0061FF" transform="translate(527.15234375,498.32421875)"/>
<path d="M0 0 C9.76531885 0.18636105 17.14991444 4.21930336 23.97265625 10.94921875 C29.91675328 17.4482929 32.71653809 24.94665094 32.515625 33.8203125 C31.35722183 44.41629445 27.36484684 52.33242564 19.25 59.25 C10.68816444 64.81963697 1.16912949 65.46884755 -8.75 64.25 C-17.88712418 61.51994415 -24.22867096 56.22329743 -29.0234375 48.08984375 C-33.37434694 39.34173859 -33.54980438 30.51674386 -30.75 21.25 C-27.75864381 12.97890013 -22.43269557 7.43977181 -14.6875 3.375 C-9.68912762 1.07559793 -5.47145353 0.36476357 0 0 Z M3.25 19.25 C-1.37685056 23.17456075 -5.22849845 27.87901124 -9.07421875 32.55078125 C-12.75184257 36.27984037 -16.66811723 36.66362891 -21.75 37.25 C-20.55838951 41.88404081 -18.28344734 43.6548178 -14.50390625 46.234375 C-10.57190166 48.51125962 -7.20453611 48.61512591 -2.75 48.25 C4.06494553 46.14794411 7.9802201 41.7342094 12.25 36.25 C12.87261719 35.46496094 13.49523437 34.67992187 14.13671875 33.87109375 C16.89025689 30.36711545 19.58134814 26.81891996 22.25 23.25 C16.69586654 16.85433117 10.72269204 14.24596515 3.25 19.25 Z M-14.75 18.25 C-14.75 18.91 -14.75 19.57 -14.75 20.25 C-15.74 20.745 -15.74 20.745 -16.75 21.25 C-14.77 22.24 -14.77 22.24 -12.75 23.25 C-12.09 22.26 -11.43 21.27 -10.75 20.25 C-11.41 20.25 -12.07 20.25 -12.75 20.25 C-12.75 19.59 -12.75 18.93 -12.75 18.25 C-13.41 18.25 -14.07 18.25 -14.75 18.25 Z M13.25 43.25 C12.92 44.24 12.59 45.23 12.25 46.25 C13.24 47.24 14.23 48.23 15.25 49.25 C16.24 48.59 17.23 47.93 18.25 47.25 C17.92 45.93 17.59 44.61 17.25 43.25 C15.93 43.25 14.61 43.25 13.25 43.25 Z " fill="#0061FF" transform="translate(465.75,354.75)"/>
<path d="M0 0 C10.29241713 -0.1160787 20.58467738 -0.20480898 30.87761688 -0.25906086 C35.6575795 -0.28510511 40.43709281 -0.32040809 45.21679688 -0.37719727 C49.83338306 -0.43170233 54.44953828 -0.46145942 59.06642151 -0.47438622 C60.82384521 -0.48359302 62.58124652 -0.50157196 64.33848572 -0.52865028 C80.95217961 -0.77437504 80.95217961 -0.77437504 86.64855957 3.59992981 C91.70984849 8.84334239 92 12.34415841 92 20 C60.32 20 28.64 20 -4 20 C-2.515 14.555 -2.515 14.555 -1 9 C-0.60343047 6.0077026 -0.24658792 3.00837257 0 0 Z " fill="#0F265C" transform="translate(544,525)"/>
<path d="M0 0 C3 0.4375 3 0.4375 4.66259766 1.88867188 C6.68427224 5.74158948 6.42859805 9.3669502 6.3984375 13.65625 C6.40274277 14.99858704 6.40274277 14.99858704 6.40713501 16.36804199 C6.4091739 18.25757481 6.40365629 20.14712881 6.39111328 22.03662109 C6.375057 24.92723835 6.39096776 27.81645743 6.41015625 30.70703125 C6.40817379 32.54427392 6.40433005 34.38151571 6.3984375 36.21875 C6.40754654 37.51419739 6.40754654 37.51419739 6.4168396 38.83581543 C6.37542724 42.37266932 6.32175091 44.80678618 4.69775391 47.99023438 C3 49.4375 3 49.4375 -0.5625 49.8125 C-4 49.4375 -4 49.4375 -6 47.4375 C-6.26069641 45.54676819 -6.26069641 45.54676819 -6.2746582 43.21899414 C-6.28419022 42.34791519 -6.29372223 41.47683624 -6.30354309 40.57936096 C-6.30263168 39.63664841 -6.30172028 38.69393585 -6.30078125 37.72265625 C-6.30506638 36.75597519 -6.3093515 35.78929413 -6.31376648 34.7933197 C-6.31951612 32.74641707 -6.3200054 30.69949401 -6.31567383 28.65258789 C-6.31251619 25.51608487 -6.33595722 22.38052676 -6.36132812 19.24414062 C-6.36360123 17.25781369 -6.36430456 15.27148422 -6.36328125 13.28515625 C-6.372491 12.34446793 -6.38170074 11.4037796 -6.39118958 10.43458557 C-6.38496078 9.56035446 -6.37873199 8.68612335 -6.37231445 7.78540039 C-6.37294388 7.01643936 -6.3735733 6.24747833 -6.3742218 5.45521545 C-5.65699085 1.58807577 -3.7323268 0.54429766 0 0 Z " fill="#0061FF" transform="translate(597,356.5625)"/>
<path d="M0 0 C3 0.4375 3 0.4375 4.66479492 1.55664062 C6.64149395 4.34115138 6.37183168 6.58370519 6.36328125 9.96875 C6.36263672 11.25394531 6.36199219 12.53914063 6.36132812 13.86328125 C6.35302979 14.53182129 6.34473145 15.20036133 6.33618164 15.88916016 C6.31258192 17.93041452 6.31562347 19.97036255 6.32226562 22.01171875 C6.26696034 32.0370595 6.26696034 32.0370595 4 35.4375 C0.5625 35.875 0.5625 35.875 -3 35.4375 C-5.32559406 33.18748607 -5.95245009 31.78895066 -6.38818359 28.56835938 C-6.39156738 27.48361328 -6.39495117 26.39886719 -6.3984375 25.28125 C-6.40423828 23.50041016 -6.40423828 23.50041016 -6.41015625 21.68359375 C-6.39855469 20.44738281 -6.38695312 19.21117187 -6.375 17.9375 C-6.38660156 16.70128906 -6.39820313 15.46507812 -6.41015625 14.19140625 C-6.40628906 13.00417969 -6.40242187 11.81695312 -6.3984375 10.59375 C-6.39505371 9.50900391 -6.39166992 8.42425781 -6.38818359 7.30664062 C-5.78313123 2.83458065 -4.55690261 0.6645483 0 0 Z " fill="#0061FF" transform="translate(572,370.5625)"/>
<path d="M0 0 C3 0.4375 3 0.4375 4.6640625 1.46484375 C6.76335174 4.56467142 6.43282154 7.82686596 6.375 11.4375 C6.38660156 12.16195313 6.39820313 12.88640625 6.41015625 13.6328125 C6.38114832 18.8735788 6.38114832 18.8735788 4.6640625 21.4140625 C2.03696576 23.02978866 0.00274151 22.81284269 -3 22.4375 C-4.6640625 21.37890625 -4.6640625 21.37890625 -6 19.4375 C-6.29939499 16.85741966 -6.41940289 14.57290077 -6.375 12 C-6.38273438 10.68128906 -6.39046875 9.36257813 -6.3984375 8.00390625 C-5.85894312 3.17490263 -4.9930727 0.72815643 0 0 Z " fill="#0061FF" transform="translate(621,383.5625)"/>
<path d="M0 0 C1.32 0.66 2.64 1.32 4 2 C3.43928229 5.94311163 1.55781148 7.89439727 -1.125 10.75 C-1.94097656 11.62914062 -2.75695312 12.50828125 -3.59765625 13.4140625 C-4.39042969 14.26742187 -5.18320312 15.12078125 -6 16 C-7.193197 17.37005919 -8.38126253 18.74461626 -9.5625 20.125 C-12.06677765 22.97288783 -14.5909563 25.79828282 -17.1875 28.5625 C-17.82042969 29.24441406 -18.45335937 29.92632813 -19.10546875 30.62890625 C-21 32 -21 32 -23.23828125 31.71484375 C-23.81964844 31.47894531 -24.40101563 31.24304688 -25 31 C-25 27 -25 27 -23.85766602 25.43530273 C-23.32842529 24.93973877 -22.79918457 24.4441748 -22.25390625 23.93359375 C-21.66770508 23.3705957 -21.08150391 22.80759766 -20.47753906 22.22753906 C-19.52959473 21.34146973 -19.52959473 21.34146973 -18.5625 20.4375 C-13.1781599 15.24964874 -8.2999745 9.99019316 -3.671875 4.109375 C-2 2 -2 2 0 0 Z " fill="#99C0FF" transform="translate(798,756)"/>
<path d="M0 0 C5.64926301 0.5640166 10.14676101 2.68441594 15.1875 5.125 C16.02450439 5.52517334 16.86150879 5.92534668 17.72387695 6.33764648 C24.13612941 9.45670192 30.14861054 12.91060197 36 17 C35.67 18.32 35.34 19.64 35 21 C31.28712551 20.4023117 28.35612753 19.35095779 25.015625 17.63671875 C24.07976563 17.16169922 23.14390625 16.68667969 22.1796875 16.19726562 C21.21289062 15.69904297 20.24609375 15.20082031 19.25 14.6875 C12.57217815 11.27167649 5.89476697 7.95841569 -1 5 C-0.67 3.35 -0.34 1.7 0 0 Z " fill="#99C0FF" transform="translate(675,227)"/>
<path d="M0 0 C2.5 0.125 2.5 0.125 3.5 1.125 C3.60012401 3.33150656 3.6308118 5.54122386 3.6328125 7.75 C3.63376923 8.41209473 3.63472595 9.07418945 3.63571167 9.75634766 C3.63639326 11.15852961 3.63454042 12.5607147 3.63037109 13.96289062 C3.62502246 16.11595713 3.6303167 18.26881502 3.63671875 20.421875 C3.63605796 21.78125046 3.63477679 23.1406258 3.6328125 24.5 C3.63168457 25.74523437 3.63055664 26.99046875 3.62939453 28.2734375 C3.5 31.125 3.5 31.125 2.5 32.125 C0 32.25 0 32.25 -2.5 32.125 C-4.38319268 30.24180732 -3.63054285 27.00569863 -3.6328125 24.5 C-3.63376923 23.83790527 -3.63472595 23.17581055 -3.63571167 22.49365234 C-3.63639326 21.09147039 -3.63454042 19.6892853 -3.63037109 18.28710938 C-3.62502246 16.13404287 -3.6303167 13.98118498 -3.63671875 11.828125 C-3.63605796 10.46874954 -3.63477679 9.1093742 -3.6328125 7.75 C-3.63168457 6.50476563 -3.63055664 5.25953125 -3.62939453 3.9765625 C-3.4567941 0.1728397 -3.4567941 0.1728397 0 0 Z " fill="#0061FF" transform="translate(466.5,317.875)"/>
<path d="M0 0 C2.93701297 1.23845736 3.49021557 2.88555022 4.89233398 5.71313477 C5.39829102 6.71151367 5.90424805 7.70989258 6.42553711 8.73852539 C7.19994141 10.31730469 7.19994141 10.31730469 7.98999023 11.92797852 C9.01681813 13.98292592 10.04671747 16.03634173 11.07983398 18.08813477 C11.57338379 19.07571777 12.06693359 20.06330078 12.57543945 21.08081055 C14.2639592 24.26415869 16.1741826 27.21585542 18.26953125 30.14453125 C19.29489207 32.39827881 18.85880742 33.5811741 18.05249023 35.86547852 C16.27539062 35.70019531 16.27539062 35.70019531 14.05249023 34.86547852 C12.26904297 32.55224609 12.26904297 32.55224609 10.48608398 29.51000977 C9.83575195 28.41237305 9.18541992 27.31473633 8.51538086 26.18383789 C7.84013923 25.01528248 7.16500996 23.84666213 6.48999023 22.67797852 C5.81206155 21.52823607 5.13303611 20.37913957 4.45288086 19.23071289 C-3.94750977 4.94087263 -3.94750977 4.94087263 -3.94750977 0.86547852 C-1.94750977 -0.13452148 -1.94750977 -0.13452148 0 0 Z " fill="#99C0FF" transform="translate(240.947509765625,691.134521484375)"/>
<path d="M0 0 C3.3178226 0.57424714 4.83141337 1.49739623 7.06640625 3.9921875 C7.62956543 4.6102124 8.19272461 5.2282373 8.77294922 5.86499023 C9.36350098 6.52829346 9.95405273 7.19159668 10.5625 7.875 C11.80434209 9.23978216 13.04785229 10.6030482 14.29296875 11.96484375 C15.22181885 12.98360596 15.22181885 12.98360596 16.16943359 14.02294922 C20.30363185 18.48797156 24.65830596 22.73805137 29 27 C28.34 28.32 27.68 29.64 27 31 C22.39362914 30.13750423 19.97517556 27.38759335 16.8125 24.125 C16.24168701 23.54580811 15.67087402 22.96661621 15.08276367 22.36987305 C10.67478254 17.83812437 6.62428839 13.10832833 2.70703125 8.14453125 C1.02944559 5.95420261 1.02944559 5.95420261 -1 4 C-0.625 1.875 -0.625 1.875 0 0 Z " fill="#99C0FF" transform="translate(282,757)"/>
<path d="M0 0 C1.8253125 0.0309375 1.8253125 0.0309375 3.6875 0.0625 C3.6875 1.3825 3.6875 2.7025 3.6875 4.0625 C-1.20347671 5.35202592 -6.09646096 6.63352356 -10.99145508 7.90771484 C-12.65543898 8.34205108 -14.31885915 8.77855315 -15.98168945 9.21728516 C-18.3756555 9.84851925 -20.77155891 10.47186695 -23.16796875 11.09375 C-23.9077446 11.29061401 -24.64752045 11.48747803 -25.40971375 11.69030762 C-29.12020904 12.64494948 -32.47553071 13.29963458 -36.3125 13.0625 C-36.6425 11.4125 -36.9725 9.7625 -37.3125 8.0625 C-33.41680588 7.08237192 -29.52071816 6.10382555 -25.62426758 5.12670898 C-24.30026661 4.79445572 -22.97637179 4.46177916 -21.65258789 4.12866211 C-19.74393589 3.64844842 -17.83486268 3.16990987 -15.92578125 2.69140625 C-14.20548706 2.2593689 -14.20548706 2.2593689 -12.45043945 1.81860352 C-8.23869175 0.80376008 -4.34099944 -0.07357626 0 0 Z " fill="#99C0FF" transform="translate(479.3125,204.9375)"/>
<path d="M0 0 C1.65 0 3.3 0 5 0 C4.49159452 8.42104356 2.00541327 16.08721971 -0.5625 24.0625 C-0.99230165 25.41837747 -1.42134424 26.7744958 -1.84960938 28.13085938 C-2.89100546 31.42339507 -3.94262727 34.71255523 -5 38 C-6.98 38 -8.96 38 -11 38 C-8.74778035 29.56038748 -6.30788023 21.18307926 -3.8125 12.8125 C-3.44447266 11.57435547 -3.07644531 10.33621094 -2.69726562 9.06054688 C-1.79927584 6.04003579 -0.90016681 3.01986286 0 0 Z " fill="#99C0FF" transform="translate(868,618)"/>
<path d="M0 0 C4.35742068 0.60475495 8.20128755 1.66969507 12.31640625 3.21484375 C13.49267578 3.65376953 14.66894531 4.09269531 15.88085938 4.54492188 C17.70327148 5.23424805 17.70327148 5.23424805 19.5625 5.9375 C20.78130859 6.39318359 22.00011719 6.84886719 23.25585938 7.31835938 C28.18968861 9.16685382 33.114218 11.02751437 38 13 C38 14.32 38 15.64 38 17 C31.1836046 16.48464752 25.40219046 15.03661142 19 12.6875 C18.16210938 12.39166016 17.32421875 12.09582031 16.4609375 11.79101562 C10.85237665 9.78113662 5.40992083 7.4934312 0 5 C0 3.35 0 1.7 0 0 Z " fill="#99C0FF" transform="translate(407,849)"/>
<path d="M0 0 C1.65 0 3.3 0 5 0 C5.2945105 1.01984985 5.2945105 1.01984985 5.5949707 2.06030273 C6.49893282 5.18658252 7.40569779 8.31204288 8.3125 11.4375 C8.62123047 12.50677734 8.92996094 13.57605469 9.24804688 14.67773438 C10.85972053 20.22528473 12.52704854 25.7272724 14.45507812 31.17382812 C15.14740627 33.49399593 15.23256345 35.59684439 15 38 C13.02 38.495 13.02 38.495 11 39 C-0.34076922 9.11898446 -0.34076922 9.11898446 0 0 Z " fill="#99C0FF" transform="translate(210,618)"/>
<path d="M0 0 C1.32 0 2.64 0 4 0 C4.02950823 4.39581876 4.04696682 8.7916114 4.0625 13.1875 C4.07087891 14.41404297 4.07925781 15.64058594 4.08789062 16.90429688 C4.10921323 24.98556584 3.7501017 32.95353136 3 41 C1.02 41 -0.96 41 -3 41 C-2.73948587 35.32139859 -2.47285005 29.64313107 -2.20043945 23.96508789 C-2.10856871 22.03189977 -2.01839607 20.09863019 -1.92993164 18.1652832 C-1.80276632 15.39251092 -1.66957352 12.62008523 -1.53515625 9.84765625 C-1.49656998 8.97786636 -1.4579837 8.10807648 -1.41822815 7.21192932 C-1.11387171 1.11387171 -1.11387171 1.11387171 0 0 Z " fill="#99C0FF" transform="translate(878,539)"/>
<path d="M0 0 C5.45726319 0.33778031 8.69466462 3.62337207 12.6875 7 C13.39068359 7.58579834 14.09386719 8.17159668 14.81835938 8.77514648 C16.88745614 10.50690083 18.94395164 12.25279352 21 14 C22.08980297 14.90760105 23.17964238 15.81515835 24.26953125 16.72265625 C25.17058594 17.49480469 26.07164062 18.26695312 27 19.0625 C27.78375 19.73410156 28.5675 20.40570313 29.375 21.09765625 C31 23 31 23 31 27 C29.328125 27.82421875 29.328125 27.82421875 27 28 C25.05270844 26.3286781 23.44699407 24.71400655 21.75 22.8125 C14.90676604 15.52325335 7.10730978 9.8026938 -1 4 C-0.67 2.68 -0.34 1.36 0 0 Z " fill="#99C0FF" transform="translate(743,267)"/>
<path d="M0 0 C1.32 0 2.64 0 4 0 C3.41736257 4.38593099 2.31769927 8.04040383 0.56640625 12.09765625 C0.08236328 13.22880859 -0.40167969 14.35996094 -0.90039062 15.52539062 C-1.40763672 16.69263672 -1.91488281 17.85988281 -2.4375 19.0625 C-3.43646769 21.38660281 -4.4351755 23.71081735 -5.43359375 26.03515625 C-5.87759521 27.0600415 -6.32159668 28.08492676 -6.77905273 29.14086914 C-7.89177383 31.74656335 -8.95982887 34.36463767 -10 37 C-11.98 37 -13.96 37 -16 37 C-13.75339829 29.87590773 -10.9998548 23.08790432 -8 16.25 C-7.56171875 15.23550781 -7.1234375 14.22101563 -6.671875 13.17578125 C-2.26630999 3.07748314 -2.26630999 3.07748314 0 0 Z " fill="#99C0FF" transform="translate(236,388)"/>
<path d="M0 0 C4.15893084 0.57678603 7.04319413 2.99811599 10.3125 5.4375 C15.58660049 9.29442465 20.9273492 13.0169855 26.375 16.625 C27.03540283 17.06255615 27.69580566 17.5001123 28.3762207 17.95092773 C29.9162209 18.96919267 31.45791182 19.98489994 33 21 C32.67 22.32 32.34 23.64 32 25 C28.05270656 24.43359778 25.49122757 23.27816572 22.19921875 21.05078125 C21.30396484 20.44943359 20.40871094 19.84808594 19.48632812 19.22851562 C18.1009082 18.28008789 18.1009082 18.28008789 16.6875 17.3125 C15.77548828 16.69955078 14.86347656 16.08660156 13.92382812 15.45507812 C8.49747292 11.78693981 3.19463333 7.98941195 -2 4 C-1.34 2.68 -0.68 1.36 0 0 Z " fill="#99C0FF" transform="translate(340,810)"/>
<path d="M0 0 C2.475 0.495 2.475 0.495 5 1 C4.43664781 6.15211184 1.95082499 10.13938177 -0.5625 14.5625 C-1.22934814 15.75045166 -1.22934814 15.75045166 -1.90966797 16.96240234 C-5.63607014 23.5251806 -9.66273127 29.82120935 -14 36 C-15.65 35.67 -17.3 35.34 -19 35 C-17.40173716 30.39947547 -14.94483893 26.61647855 -12.3125 22.5625 C-7.65515198 15.27214816 -3.69126827 7.82255528 0 0 Z " fill="#99C0FF" transform="translate(841,691)"/>
<path d="M0 0 C3.5458163 0.56214161 4.936093 1.66260978 7.171875 4.4296875 C7.7505835 5.13778564 8.32929199 5.84588379 8.92553711 6.57543945 C9.52760986 7.33429443 10.12968262 8.09314941 10.75 8.875 C11.36818604 9.64352295 11.98637207 10.4120459 12.62329102 11.20385742 C14.42793509 13.45972157 16.21580688 15.7279456 18 18 C18.47743652 18.59925293 18.95487305 19.19850586 19.44677734 19.81591797 C24.54295715 26.2379962 24.54295715 26.2379962 26 29 C25.69140625 31.29296875 25.69140625 31.29296875 25 33 C20.14820954 32.1601428 18.22002107 28.98871131 15.375 25.25 C14.85591064 24.58057373 14.33682129 23.91114746 13.80200195 23.22143555 C12.72814683 21.83515647 11.65794436 20.44604067 10.59130859 19.05419922 C9.07450373 17.09617588 7.52442566 15.17154496 5.95703125 13.25390625 C5.03365938 12.10692762 4.11047293 10.95979968 3.1875 9.8125 C2.35605469 8.78769531 1.52460937 7.76289063 0.66796875 6.70703125 C-1 4 -1 4 -0.76171875 1.63671875 C-0.38466797 0.82654297 -0.38466797 0.82654297 0 0 Z " fill="#99C0FF" transform="translate(800,321)"/>
<path d="M0 0 C1.32 0.66 2.64 1.32 4 2 C3.41214475 5.02507358 2.56912285 6.86023112 0.59375 9.21484375 C0.10100586 9.81288818 -0.39173828 10.41093262 -0.89941406 11.02709961 C-1.42760742 11.65753174 -1.95580078 12.28796387 -2.5 12.9375 C-8.06569614 19.71891419 -13.12833677 26.70480733 -18 34 C-19.65 33.67 -21.3 33.34 -23 33 C-21.71842574 29.48019965 -20.2254156 26.67099826 -17.98828125 23.671875 C-17.39466797 22.87136719 -16.80105469 22.07085937 -16.18945312 21.24609375 C-15.57005859 20.42238281 -14.95066406 19.59867187 -14.3125 18.75 C-13.71244141 17.94175781 -13.11238281 17.13351562 -12.49414062 16.30078125 C-8.40378189 10.80889251 -4.22366386 5.38984505 0 0 Z " fill="#99C0FF" transform="translate(279,321)"/>
<path d="M0 0 C0 0.99 0 1.98 0 3 C-0.64437012 3.30180176 -1.28874023 3.60360352 -1.95263672 3.91455078 C-4.92935821 5.31257056 -7.90216628 6.71873307 -10.875 8.125 C-11.88820313 8.599375 -12.90140625 9.07375 -13.9453125 9.5625 C-19.8466676 12.36186075 -25.44889639 15.36088366 -30.94580078 18.89404297 C-33 20 -33 20 -36 20 C-36.66 18.35 -37.32 16.7 -38 15 C-34.42669768 13.20088963 -30.85202599 11.40453175 -27.27612305 9.6105957 C-26.06253738 9.00130512 -24.84931329 8.39129374 -23.63647461 7.78051758 C-4.92384286 -1.64128095 -4.92384286 -1.64128095 0 0 Z " fill="#99C0FF" transform="translate(408,229)"/>
<path d="M0 0 C1.65 0 3.3 0 5 0 C19.41268528 29.6781643 19.41268528 29.6781643 19 37 C17.68 37 16.36 37 15 37 C14.65219482 36.21351074 14.30438965 35.42702148 13.94604492 34.61669922 C12.64445417 31.67527323 11.34157422 28.7344226 10.0378418 25.79394531 C9.47580767 24.5256168 8.91427523 23.25706585 8.35327148 21.98828125 C7.54285222 20.15565316 6.73042737 18.32391239 5.91796875 16.4921875 C5.18743286 14.84259033 5.18743286 14.84259033 4.44213867 13.15966797 C3.46692268 11.02300885 2.42253634 8.91680521 1.31762695 6.84423828 C0 4 0 4 0 0 Z " fill="#99C0FF" transform="translate(842,387)"/>
<path d="M0 0 C0.53367187 0.25265625 1.06734375 0.5053125 1.6171875 0.765625 C1.23480234 3.17709772 0.92342514 4.4675374 -0.85058594 6.19433594 C-1.47481445 6.62520508 -2.09904297 7.05607422 -2.7421875 7.5 C-3.43997314 7.98831299 -4.13775879 8.47662598 -4.85668945 8.97973633 C-5.60781006 9.48657959 -6.35893066 9.99342285 -7.1328125 10.515625 C-7.8961792 11.03987061 -8.6595459 11.56411621 -9.44604492 12.10424805 C-11.74805798 13.67392254 -14.06275393 15.2227785 -16.3828125 16.765625 C-17.04684082 17.21180176 -17.71086914 17.65797852 -18.39501953 18.11767578 C-20.1508204 19.28928133 -21.91832633 20.43897786 -23.6953125 21.578125 C-25.20544922 22.54685547 -25.20544922 22.54685547 -26.74609375 23.53515625 C-29.3828125 24.765625 -29.3828125 24.765625 -31.67578125 24.65234375 C-33.3828125 23.765625 -33.3828125 23.765625 -34.3828125 20.765625 C-33.91085449 20.48477051 -33.43889648 20.20391602 -32.95263672 19.91455078 C-30.71727117 18.57939787 -28.48675005 17.23648298 -26.2578125 15.890625 C-25.44554199 15.40045898 -24.63327148 14.91029297 -23.79638672 14.40527344 C-17.89133294 10.79720805 -12.24621789 6.94798016 -6.80029297 2.67626953 C-2.8850818 -0.28377854 -2.8850818 -0.28377854 0 0 Z " fill="#99C0FF" transform="translate(743.3828125,810.234375)"/>
<path d="M0 0 C1.65 0 3.3 0 5 0 C4.34196911 8.46824568 2.9175703 16.76695594 1.4375 25.125 C1.20084072 26.47650455 0.96451031 27.82806674 0.72851562 29.1796875 C0.1555627 32.45370422 -0.42068405 35.72710426 -1 39 C-2.98 39 -4.96 39 -7 39 C-6.16578402 34.08836781 -5.3295493 29.17708519 -4.49145508 24.26611328 C-4.206722 22.59596013 -3.92253745 20.92571338 -3.63891602 19.25537109 C-3.23077815 16.85228965 -2.82065854 14.44955353 -2.41015625 12.046875 C-2.28407486 11.30193787 -2.15799347 10.55700073 -2.02809143 9.78948975 C-1.46308809 6.49298521 -0.88773222 3.22677769 0 0 Z " fill="#99C0FF" transform="translate(209,462)"/>
<path d="M0 0 C1.65 0 3.3 0 5 0 C5.82510099 4.06004242 6.63266119 8.12339656 7.4375 12.1875 C7.66759766 13.31865234 7.89769531 14.44980469 8.13476562 15.61523438 C9.66588378 23.40396588 10.56759137 31.07469643 11 39 C9.35 39 7.7 39 6 39 C5.30152018 35.05387767 4.60798152 31.10691957 3.91870117 27.15917969 C3.57006077 25.16817772 3.21768871 23.17783035 2.86523438 21.1875 C1.63675136 14.13707574 0.55462335 7.1374868 0 0 Z " fill="#99C0FF" transform="translate(869,461)"/>
<path d="M0 0 C1.65 0 3.3 0 5 0 C6.19388403 28.15153143 6.19388403 28.15153143 6 40 C4.35 40 2.7 40 1 40 C0.15567207 30.8742143 -0.12761945 21.84930552 -0.0625 12.6875 C-0.05798828 11.45837891 -0.05347656 10.22925781 -0.04882812 8.96289062 C-0.03720289 5.97520644 -0.02086559 2.98763145 0 0 Z " fill="#99C0FF" transform="translate(201,540)"/>
<path d="M0 0 C0 1.32 0 2.64 0 4 C-13.48711507 6.48776252 -26.23757996 8.19414072 -40 8 C-40.33 6.35 -40.66 4.7 -41 3 C-36.60802563 2.56721 -32.21553688 2.14019898 -27.82250977 1.71826172 C-26.33180018 1.5742956 -24.84123539 1.428821 -23.35083008 1.28173828 C-15.5553623 0.51342868 -7.84463995 -0.21225632 0 0 Z " fill="#99C0FF" transform="translate(601,872)"/>
<path d="M0 0 C0 1.65 0 3.3 0 5 C-8.71500412 8.46403944 -17.43466087 11.90919919 -26.3125 14.9375 C-27.48425781 15.33839844 -28.65601563 15.73929688 -29.86328125 16.15234375 C-32.75671421 16.93425527 -35.02665062 17.18409105 -38 17 C-38.33 15.68 -38.66 14.36 -39 13 C-37.89785156 12.64808594 -36.79570313 12.29617188 -35.66015625 11.93359375 C-26.7598013 9.0498234 -18.05565735 5.9482691 -9.48461914 2.18530273 C-6.02057566 0.69313179 -3.84069891 0 0 0 Z " fill="#99C0FF" transform="translate(676,849)"/>
<path d="M0 0 C0.89078247 0.31130859 0.89078247 0.31130859 1.79956055 0.62890625 C1.54224596 3.87561083 0.63281071 4.79081167 -1.75512695 7.109375 C-2.85403863 8.0212736 -3.96135056 8.92311354 -5.07543945 9.81640625 C-5.94531494 10.53280273 -5.94531494 10.53280273 -6.83276367 11.26367188 C-8.61462228 12.72805335 -10.40649001 14.17937528 -12.20043945 15.62890625 C-13.26869691 16.49932649 -14.33643396 17.37038596 -15.40356445 18.2421875 C-17.2509533 19.7512177 -19.10205224 21.25572725 -20.95825195 22.75390625 C-23.17784206 24.52899894 -23.17784206 24.52899894 -24.8371582 26.3984375 C-25.28704102 26.80449219 -25.73692383 27.21054687 -26.20043945 27.62890625 C-28.88793945 27.31640625 -28.88793945 27.31640625 -31.20043945 26.62890625 C-31.20043945 25.96890625 -31.20043945 25.30890625 -31.20043945 24.62890625 C-29.6965332 23.1484375 -29.6965332 23.1484375 -27.63793945 21.44140625 C-24.97540906 19.18635877 -22.46724327 16.91752156 -20.07543945 14.37890625 C-16.60200802 10.86517979 -12.84787242 7.73586196 -9.01293945 4.62890625 C-8.40627441 4.12327148 -7.79960937 3.61763672 -7.17456055 3.09667969 C-2.7065985 -0.45645509 -2.7065985 -0.45645509 0 0 Z " fill="#99C0FF" transform="translate(338.200439453125,267.37109375)"/>
<path d="M0 0 C7.38001421 -0.4170524 13.97530318 1.14588322 21.125 2.875 C22.27871094 3.14441406 23.43242188 3.41382813 24.62109375 3.69140625 C29.84000263 4.92540431 34.92675391 6.24979143 40 8 C40 9.32 40 10.64 40 12 C31.23064535 11.49945412 22.87664756 9.49265452 14.375 7.4375 C12.97540173 7.1042237 11.57566291 6.77153707 10.17578125 6.43945312 C6.7822088 5.63308532 3.39060101 4.81878389 0 4 C0 2.68 0 1.36 0 0 Z " fill="#99C0FF" transform="translate(599,205)"/>
<path d="M0 0 C13.02591897 0.71841063 26.00804965 1.82683098 39 3 C39.495 5.475 39.495 5.475 40 8 C26.76616656 8.60975 12.83679225 7.40856708 0 4 C0 2.68 0 1.36 0 0 Z " fill="#99C0FF" transform="translate(483,872)"/>
<path d="M0 0 C4.55555556 0.55555556 4.55555556 0.55555556 6 2 C6.24966567 5.1382345 6.18521791 8.29049613 6.1875 11.4375 C6.19974609 12.32244141 6.21199219 13.20738281 6.22460938 14.11914062 C6.22750977 15.38854492 6.22750977 15.38854492 6.23046875 16.68359375 C6.23457764 17.46275146 6.23868652 18.24190918 6.24291992 19.04467773 C6 21 6 21 4 23 C-0.55555556 22.44444444 -0.55555556 22.44444444 -2 21 C-2.24966567 17.8617655 -2.18521791 14.70950387 -2.1875 11.5625 C-2.19974609 10.67755859 -2.21199219 9.79261719 -2.22460938 8.88085938 C-2.22654297 8.03458984 -2.22847656 7.18832031 -2.23046875 6.31640625 C-2.23457764 5.53724854 -2.23868652 4.75809082 -2.24291992 3.95532227 C-2 2 -2 2 0 0 Z " fill="#0061FF" transform="translate(450,327)"/>
<path d="M0 0 C13.2 0 26.4 0 40 0 C40.495 1.98 40.495 1.98 41 4 C27.47 4 13.94 4 0 4 C0 2.68 0 1.36 0 0 Z " fill="#99C0FF" transform="translate(521,200)"/>
<path d="M0 0 C2.5 0.125 2.5 0.125 3.5 1.125 C3.59873816 3.12299572 3.62971799 5.12457158 3.625 7.125 C3.62757813 8.218125 3.63015625 9.31125 3.6328125 10.4375 C3.5 13.125 3.5 13.125 2.5 14.125 C0 14.25 0 14.25 -2.5 14.125 C-3.5 13.125 -3.5 13.125 -3.6328125 10.4375 C-3.63023437 9.344375 -3.62765625 8.25125 -3.625 7.125 C-3.62757813 6.031875 -3.63015625 4.93875 -3.6328125 3.8125 C-3.45293603 0.1726468 -3.45293603 0.1726468 0 0 Z " fill="#0061FF" transform="translate(481.5,335.875)"/>
<path d="M0 0 C0.33 0 0.66 0 1 0 C1 1.65 1 3.3 1 5 C0.67 5 0.34 5 0 5 C0 3.35 0 1.7 0 0 Z " fill="#000000" transform="translate(395,887)"/>
</svg>
