<?xml version="1.0" encoding="UTF-8"?>
<svg version="1.1" xmlns="http://www.w3.org/2000/svg" width="1080" height="1080">
<path d="M0 0 C5.83667395 5.04076386 8.24733487 9.32281564 9 17 C9.70125 17.185625 10.4025 17.37125 11.125 17.5625 C15.07203759 19.5360188 17.67521467 22.25716379 20 26 C21.78837723 31.41916874 22.59921379 36.71407447 23.23681641 42.37255859 C23.3981884 43.74229073 23.3981884 43.74229073 23.56282043 45.13969421 C23.91491477 48.14195996 24.25849524 51.14512788 24.6015625 54.1484375 C24.84496256 56.24683793 25.08873256 58.34519548 25.33285522 60.44351196 C25.84253895 64.83593875 26.34806171 69.22881883 26.85058594 73.62207031 C27.49314074 79.23698108 28.14551091 84.85069846 28.80095863 90.46411705 C29.30575927 94.79610059 29.80556931 99.12864879 30.30387497 103.46138382 C30.54241686 105.53068625 30.78243052 107.5998196 31.02397537 109.66877365 C31.36166205 112.56818255 31.69266709 115.46828115 32.02197266 118.36865234 C32.12168869 119.21361771 32.22140472 120.05858307 32.32414246 120.92915344 C32.92712254 126.31974188 33.08506679 131.57530379 33 137 C33.66 137 34.32 137 35 137 C35.33 135.35 35.66 133.7 36 132 C41.92909506 132.5861719 47.31580266 133.80404381 53 135.5625 C53.77472656 135.79646484 54.54945313 136.03042969 55.34765625 136.27148438 C57.2335214 136.84190038 59.1170209 137.42012803 61 138 C58.8538794 149.21085377 55.88677928 160.10461989 52.5 171 C52.12045166 172.2274292 51.74090332 173.4548584 51.34985352 174.71948242 C49.68070212 180.0216411 47.98475318 185.09761731 45.609375 190.125 C43.20712079 196.02057209 44.40944397 200.93899926 45.75 207 C45.98227295 208.17119385 46.2145459 209.3423877 46.45385742 210.54907227 C46.9798125 213.19605889 47.51543319 215.83914213 48.06591797 218.48095703 C49.70220378 226.35658337 51.23737177 234.25224962 52.76696777 242.14916992 C53.30175596 244.88258493 53.85350517 247.61216333 54.40722656 250.34179688 C58.90715382 272.97204902 58.90715382 272.97204902 55.625 281.625 C55.08875 282.40875 54.5525 283.1925 54 284 C51.74749565 287.37875652 51.72741824 288.83946963 51.5625 292.8125 C50.95213239 301.00323954 48.41181404 304.96868052 42.5234375 310.484375 C36.33162805 314.20329461 28.19133737 314.46556555 21.13269043 315.27226257 C19.70347928 315.44126807 19.70347928 315.44126807 18.24539518 315.61368781 C15.07491116 315.98740733 11.90369099 316.35444243 8.73242188 316.72143555 C6.45011582 316.98898544 4.16785477 317.25691939 1.88563538 317.52520752 C-4.29758851 318.25070436 -10.48150879 318.97008667 -16.66563988 319.68780494 C-20.53116596 320.13670899 -24.39653683 320.58692584 -28.26185608 321.03760719 C-41.05623204 322.52933902 -53.85106273 324.0170591 -66.64649552 325.49969508 C-67.33501235 325.57947588 -68.02352918 325.65925668 -68.73291016 325.74145508 C-69.42227309 325.82133298 -70.11163602 325.90121089 -70.82188874 325.98350934 C-82.00004256 327.27900372 -93.17701846 328.58437228 -104.35350448 329.89416983 C-115.84630905 331.24091726 -127.33998884 332.57993102 -138.83455801 333.91153938 C-145.28122342 334.65850166 -151.72748454 335.40860932 -158.17286682 336.16657066 C-164.23261383 336.87891591 -170.29340653 337.58157938 -176.35513496 338.27685547 C-178.57710137 338.53337149 -180.7986746 338.79332053 -183.019804 339.05698586 C-186.05643806 339.41691119 -189.09425905 339.76431521 -192.13269043 340.10868835 C-193.44404488 340.26859466 -193.44404488 340.26859466 -194.78189135 340.4317314 C-202.53991497 341.2868765 -210.29539989 341.4697334 -217 337 C-224.30876208 330.07683208 -225.34226816 322.6794881 -226.38525391 313.00146484 C-226.50924561 311.9008371 -226.6332373 310.80020935 -226.76098633 309.66622925 C-227.02995651 307.27345257 -227.296075 304.88035402 -227.55968094 302.48698044 C-227.98318049 298.65099289 -228.4162949 294.81620101 -228.85214233 290.9815979 C-230.01457318 280.7477552 -231.16746803 270.512851 -232.301512 260.27582121 C-235.92821602 227.53757605 -240.03080758 195.08811606 -246.454216 162.76663971 C-247.42913125 157.82468604 -248.37243318 152.87667535 -249.31884766 147.92919922 C-250.9045309 139.65425544 -252.49787506 131.38084897 -254.1015625 123.109375 C-254.39622123 121.58907086 -254.39622123 121.58907086 -254.69683266 120.03805351 C-255.71120808 114.80732859 -256.72840338 109.57716637 -257.74902344 104.34765625 C-258.76312704 99.14993409 -259.77000427 93.95085609 -260.77223206 88.7508316 C-261.14906108 86.80314718 -261.52858775 84.85598247 -261.91099548 82.90938568 C-262.43903202 80.22048493 -262.95783493 77.52995165 -263.47460938 74.83886719 C-263.63035431 74.05778595 -263.78609924 73.27670471 -263.94656372 72.47195435 C-265.42253698 64.68194793 -266.11958727 57.0885312 -262 50 C-251.95121959 36.0622848 -221.76469471 35.99009028 -205.64812422 32.93173027 C-201.49046425 32.14192023 -197.33361507 31.34786417 -193.17666626 30.55432129 C-185.25591562 29.04293462 -177.33446378 27.53525705 -169.41274607 26.02894831 C-158.91619875 24.03282641 -148.42073858 22.0310061 -137.9252305 20.02942848 C-128.51345049 18.23461193 -119.10133716 16.44158857 -109.68817139 14.65405273 C-106.32691986 14.01559443 -102.96569444 13.37699888 -99.60449219 12.73828125 C-98.7821375 12.58202459 -97.95978282 12.42576794 -97.1125083 12.26477623 C-85.90036687 10.13341917 -74.69348549 7.9763348 -63.49049735 5.79740047 C-59.08315947 4.9411284 -54.67492102 4.08950301 -50.26666558 3.23796892 C-46.8496067 2.57736293 -43.43330083 1.91329306 -40.01856613 1.24076843 C-36.3129164 0.51228549 -32.60525645 -0.20498848 -28.89697266 -0.91992188 C-27.82915684 -1.1331459 -26.76134102 -1.34636993 -25.66116714 -1.5660553 C-16.72082319 -3.27026688 -8.2238705 -4.67631852 0 0 Z " fill="#E8F6FE" transform="translate(621,375)"/>
<path d="M0 0 C1.91172726 2.86759089 2.34803984 4.01479288 2.859375 7.26953125 C3.00213867 8.14125977 3.14490234 9.01298828 3.29199219 9.91113281 C3.44313477 10.86858398 3.59427734 11.82603516 3.75 12.8125 C5.24498799 21.83083707 6.92179752 30.79345159 8.75 39.75 C11.13356539 51.47735762 13.36847618 63.22712533 15.54174805 74.99514771 C16.55939324 80.5007728 17.58490744 86.00493924 18.60940552 91.5092926 C19.33786467 95.42581369 20.06403272 99.34267528 20.77880859 103.26171875 C21.42323349 106.78116662 22.08375798 110.29712978 22.75 113.8125 C22.924104 114.78872314 23.09820801 115.76494629 23.27758789 116.77075195 C24.77377841 124.51056593 27.32403331 129.37817691 34 134 C42.30006026 136.76668675 51.8308656 134.79954951 60.22265625 133.171875 C61.24822128 132.98159729 62.27378632 132.79131958 63.33042908 132.59527588 C66.57642933 131.99022075 69.81935706 131.37016593 73.0625 130.75 C75.20750718 130.34932181 77.35268871 129.94957585 79.49804688 129.55078125 C88.86405881 127.79948395 98.21131678 125.98518443 107.52734375 123.984375 C119.85419905 121.33857868 132.2692916 119.16501937 144.67529297 116.92724609 C154.97565199 115.06615669 165.26684295 113.20478916 175.5 111 C187.83491081 108.3423766 200.25911919 106.16685425 212.67529297 103.92724609 C223.96808348 101.88684219 235.23206483 99.78887246 246.45089722 97.37231445 C254.64949744 95.61859371 262.90405575 94.25141264 271.18359375 92.93359375 C277.97890203 91.78197585 283.88217729 90.21340183 290 87 C290.61193543 101.00652209 290.61193543 101.00652209 285.3359375 106.83984375 C278.2228293 113.76874795 269.67353398 114.18188787 260.13269043 115.27226257 C259.179883 115.3849329 258.22707557 115.49760323 257.24539518 115.61368781 C254.07491116 115.98740733 250.90369099 116.35444243 247.73242188 116.72143555 C245.45011582 116.98898544 243.16785477 117.25691939 240.88563538 117.52520752 C234.70241149 118.25070436 228.51849121 118.97008667 222.33436012 119.68780494 C218.46883404 120.13670899 214.60346317 120.58692584 210.73814392 121.03760719 C197.94376796 122.52933902 185.14893727 124.0170591 172.35350448 125.49969508 C171.66498765 125.57947588 170.97647082 125.65925668 170.26708984 125.74145508 C169.57772691 125.82133298 168.88836398 125.90121089 168.17811126 125.98350934 C156.99995744 127.27900372 145.82298154 128.58437228 134.64649552 129.89416983 C123.15369095 131.24091726 111.66001116 132.57993102 100.16544199 133.91153938 C93.71877658 134.65850166 87.27251546 135.40860932 80.82713318 136.16657066 C74.76738617 136.87891591 68.70659347 137.58157938 62.64486504 138.27685547 C60.42289863 138.53337149 58.2013254 138.79332053 55.980196 139.05698586 C52.94356194 139.41691119 49.90574095 139.76431521 46.86730957 140.10868835 C45.55595512 140.26859466 45.55595512 140.26859466 44.21810865 140.4317314 C36.46008503 141.2868765 28.70460011 141.4697334 22 137 C14.52766219 129.92188625 13.60493216 122.24717471 12.48779297 112.36669922 C12.35095093 111.20181976 12.21410889 110.03694031 12.07312012 108.83676147 C11.62326054 104.99343235 11.18259318 101.14911049 10.7421875 97.3046875 C10.43232179 94.63228052 10.12066565 91.96008303 9.80911255 89.28787231 C9.15765859 83.69159336 8.51104004 78.09477306 7.86767578 72.49755859 C7.12415744 66.0292315 6.37463397 59.5616238 5.62153137 53.09440601 C4.81885387 46.20145199 4.01969752 39.30809366 3.22204065 32.41455698 C2.99230139 30.43067102 2.76195704 28.44685516 2.5316124 26.4630394 C2.1031552 22.76713453 1.67779864 19.0708866 1.25341797 15.37451172 C1.12564972 14.27623047 0.99788147 13.17794922 0.86624146 12.04638672 C0.75133362 11.03986053 0.63642578 10.03333435 0.51803589 8.99630737 C0.36707112 7.6861456 0.36707112 7.6861456 0.21305656 6.34951591 C0 4 0 4 0 0 Z " fill="#0363FF" transform="translate(382,575)"/>
<path d="M0 0 C5.11565979 1.35414524 8.26877771 4.6028122 11 9 C12.78837723 14.41916874 13.59921379 19.71407447 14.23681641 25.37255859 C14.34439774 26.28571335 14.45197906 27.1988681 14.56282043 28.13969421 C14.91491477 31.14195996 15.25849524 34.14512788 15.6015625 37.1484375 C15.84496256 39.24683793 16.08873256 41.34519548 16.33285522 43.44351196 C16.84253895 47.83593875 17.34806171 52.22881883 17.85058594 56.62207031 C18.49314074 62.23698108 19.14551091 67.85069846 19.80095863 73.46411705 C20.30575927 77.79610059 20.80556931 82.12864879 21.30387497 86.46138382 C21.54241686 88.53068625 21.78243052 90.5998196 22.02397537 92.66877365 C22.36166205 95.56818255 22.69266709 98.46828115 23.02197266 101.36865234 C23.12168869 102.21361771 23.22140472 103.05858307 23.32414246 103.92915344 C23.92712254 109.31974188 24.08506679 114.57530379 24 120 C24.66 120 25.32 120 26 120 C26.33 118.35 26.66 116.7 27 115 C32.92909506 115.5861719 38.31580266 116.80404381 44 118.5625 C45.16208984 118.91344727 45.16208984 118.91344727 46.34765625 119.27148438 C48.2335214 119.84190038 50.1170209 120.42012803 52 121 C47.49852802 144.51468231 40.10217704 167.30769414 30 189 C29.61328125 189.8367627 29.2265625 190.67352539 28.828125 191.53564453 C26.58751568 196.37442707 24.31136151 201.19463532 22 206 C20.35369672 205.85957123 18.70795821 205.71250671 17.0625 205.5625 C15.68771484 205.44068359 15.68771484 205.44068359 14.28515625 205.31640625 C12 205 12 205 11 204 C9.93462813 182.09119228 13.15488528 149.69022945 23 130 C22.8032158 123.18209402 21.46032779 116.40039394 20.21484375 109.7109375 C20.0381868 108.74589798 19.86152985 107.78085846 19.67951965 106.78657532 C19.10334445 103.64853557 18.52073776 100.51173416 17.9375 97.375 C17.53222205 95.17944419 17.12694867 92.98388754 16.72167969 90.78833008 C14.02564462 76.24008395 11.18828513 61.72393411 8.2507019 47.2227478 C6.0579973 36.39600593 3.9452332 25.56163756 2 14.6875 C1.79213867 13.53016357 1.58427734 12.37282715 1.37011719 11.18041992 C0 3.39462702 0 3.39462702 0 0 Z " fill="#10275D" transform="translate(630,392)"/>
<path d="M0 0 C9.24878105 1.34154674 9.24878105 1.34154674 11.9140625 3.14453125 C12.5625 4.9140625 12.5625 4.9140625 13.1640625 7.01953125 C14.04793316 9.89603338 14.53230703 10.89731214 17.09765625 12.55859375 C19.34723009 13.53422796 21.57842175 14.40025998 23.9140625 15.14453125 C23.31198897 22.68488029 21.63203219 29.66282915 19.640625 36.94921875 C19.31621429 38.15015167 18.99180359 39.35108459 18.65756226 40.58840942 C17.7991886 43.75491 16.93393099 46.91943827 16.0668335 50.08355713 C15.53738274 52.02569298 15.01458961 53.96949635 14.49414062 55.9140625 C13.49086492 59.65785503 12.47399425 63.39769022 11.453125 67.13671875 C11.14363922 68.29605927 10.83415344 69.45539978 10.51528931 70.64987183 C10.21843231 71.72173737 9.92157532 72.79360291 9.61572266 73.89794922 C9.35892731 74.84121063 9.10213196 75.78447205 8.83755493 76.75631714 C7.85763835 79.29044794 7.16982032 80.62171986 4.9140625 82.14453125 C2.7265625 81.83203125 2.7265625 81.83203125 0.9140625 81.14453125 C1.39796076 73.72898043 2.83127471 66.88610463 4.8203125 59.73828125 C5.10507446 58.69176392 5.38983643 57.64524658 5.68322754 56.5670166 C6.28135132 54.37438776 6.88325142 52.18278585 7.48876953 49.9921875 C8.41850784 46.62844828 9.33719514 43.26184168 10.25390625 39.89453125 C10.83791083 37.75894197 11.42252434 35.6235191 12.0078125 33.48828125 C12.28387329 32.48003296 12.55993408 31.47178467 12.84436035 30.4329834 C13.1013269 29.50441528 13.35829346 28.57584717 13.62304688 27.61914062 C13.84875366 26.80102905 14.07446045 25.98291748 14.30700684 25.14001465 C14.9140625 23.14453125 14.9140625 23.14453125 15.9140625 21.14453125 C14.9240625 21.14453125 13.9340625 21.14453125 12.9140625 21.14453125 C12.74658005 22.13801323 12.74658005 22.13801323 12.57571411 23.15156555 C11.37713594 30.02438082 9.84635615 36.74922206 8.09375 43.5 C7.83022736 44.52764969 7.56670471 45.55529938 7.29519653 46.61408997 C6.46341939 49.85434228 5.62633868 53.09319604 4.7890625 56.33203125 C4.21969886 58.54613316 3.65068522 60.7603251 3.08203125 62.97460938 C1.69674854 68.36562971 0.30712423 73.75551612 -1.0859375 79.14453125 C-4.65894332 80.16552933 -6.68879272 79.95534575 -10.2890625 78.9296875 C-11.26875 78.65576172 -12.2484375 78.38183594 -13.2578125 78.09960938 C-14.27359375 77.80505859 -15.289375 77.51050781 -16.3359375 77.20703125 C-17.8828125 76.77100586 -17.8828125 76.77100586 -19.4609375 76.32617188 C-22.0052127 75.60764971 -24.54656651 74.88016281 -27.0859375 74.14453125 C-26.46278889 67.10433439 -24.66674503 60.63131178 -22.6640625 53.8671875 C-22.3221991 52.70126572 -21.98033569 51.53534393 -21.62811279 50.33409119 C-20.90506551 47.87647251 -20.17870013 45.41982789 -19.44921875 42.96411133 C-18.34166699 39.22636703 -17.25236789 35.48362116 -16.1640625 31.74023438 C-15.45683833 29.34472435 -14.74854014 26.94953108 -14.0390625 24.5546875 C-13.71802551 23.44505142 -13.39698853 22.33541534 -13.06622314 21.19215393 C-6.84414603 0.47421986 -6.84414603 0.47421986 0 0 Z " fill="#0F265C" transform="translate(688.0859375,419.85546875)"/>
<path d="M0 0 C0.33 2.64 0.66 5.28 1 8 C-1.81171152 8.60802104 -4.62430884 9.21139078 -7.4375 9.8125 C-8.5831543 10.0609668 -8.5831543 10.0609668 -9.75195312 10.31445312 C-15.10861129 11.45462534 -20.48329552 12.45036953 -25.87890625 13.38671875 C-35.78228069 15.10773897 -45.63926888 17.05161457 -55.5 19 C-66.65803123 21.20471942 -77.81510435 23.36503558 -89.02539062 25.2890625 C-92.85350403 25.95868535 -96.66118725 26.71944137 -100.4703064 27.48904419 C-107.08645834 28.82539626 -113.71345042 30.10828635 -120.33764648 31.40405273 C-122.14180809 31.75725523 -123.94584651 32.11108758 -125.74975586 32.46557617 C-135.59198516 34.39946579 -145.43769951 36.27999701 -155.3195343 38.00086975 C-160.56605144 38.91621453 -165.78523806 39.92025065 -171 41 C-176.12488419 42.05338499 -181.25109305 43.1001636 -186.37841797 44.14160156 C-187.9670505 44.46541178 -189.55526526 44.79127799 -191.14306641 45.11914062 C-193.46408695 45.59793755 -195.78653202 46.06919744 -198.109375 46.5390625 C-198.81261902 46.68590485 -199.51586304 46.83274719 -200.24041748 46.98403931 C-204.22156562 47.78080912 -207.94206517 48.14780557 -212 48 C-212.33 45.36 -212.66 42.72 -213 40 C-207.94178668 38.13679766 -202.92111923 37.15046262 -197.6328125 36.23046875 C-196.27904007 35.98886772 -196.27904007 35.98886772 -194.8979187 35.74238586 C-192.97213392 35.3987707 -191.04602695 35.05695712 -189.11962891 34.71679688 C-184.08037527 33.82611516 -179.0438667 32.9202958 -174.0078125 32.01171875 C-173.02596985 31.83458344 -172.0441272 31.65744812 -171.03253174 31.47494507 C-164.33022778 30.25869824 -157.65599461 28.94995208 -151 27.5 C-138.74119105 24.83798872 -126.38999327 22.68653713 -114.04492188 20.46923828 C-102.79313589 18.44608781 -91.57463029 16.36187829 -80.40161133 13.93579102 C-68.02626501 11.29590708 -55.54854309 9.15754959 -43.09179688 6.94140625 C-41.27335769 6.61633153 -39.45499735 6.29081545 -37.63671875 5.96484375 C-36.74830292 5.80603729 -35.85988708 5.64723083 -34.94454956 5.48361206 C-28.04376058 4.23225784 -21.18651261 2.80924123 -14.35490417 1.22190857 C-9.4606092 0.13221285 -5.01605753 -0.1589309 0 0 Z " fill="#162D61" transform="translate(623,506)"/>
<path d="M0 0 C0.33 2.64 0.66 5.28 1 8 C-0.68416016 8.29003906 -0.68416016 8.29003906 -2.40234375 8.5859375 C-3.91408162 8.84884843 -5.42579929 9.11187552 -6.9375 9.375 C-7.67291016 9.50132812 -8.40832031 9.62765625 -9.16601562 9.7578125 C-9.90400391 9.88671875 -10.64199219 10.015625 -11.40234375 10.1484375 C-12.39995728 10.32125244 -12.39995728 10.32125244 -13.41772461 10.49755859 C-15.60685332 10.92350422 -17.77164358 11.39921753 -19.94555664 11.89501953 C-26.08892763 13.27088953 -32.27817785 14.39068174 -38.46875 15.53125 C-40.41796271 15.89279901 -42.36717508 16.25434983 -44.3163681 16.61600494 C-48.39607717 17.37242526 -52.47631445 18.12599086 -56.55645752 18.88006592 C-59.92653019 19.50302452 -63.29648176 20.12662191 -66.6661377 20.75183105 C-69.18238482 21.21855623 -71.69889248 21.6838797 -74.21569824 22.14758301 C-78.99311069 23.03387366 -83.76209174 23.92028825 -88.5 25 C-94.45447634 26.35695284 -100.46367103 27.42485752 -106.46875 28.53125 C-108.41796271 28.89279901 -110.36717508 29.25434983 -112.3163681 29.61600494 C-116.39607717 30.37242526 -120.47631445 31.12599086 -124.55645752 31.88006592 C-127.92653019 32.50302452 -131.29648176 33.12662191 -134.6661377 33.75183105 C-137.18238482 34.21855623 -139.69889248 34.6838797 -142.21569824 35.14758301 C-147.75927206 36.17600952 -153.2751604 37.2566152 -158.77215576 38.50958252 C-163.2522296 39.49578545 -167.7651926 40.31807865 -172.2734375 41.1640625 C-173.31899811 41.36099701 -174.36455872 41.55793152 -175.44180298 41.76083374 C-177.63504627 42.17336724 -179.82843862 42.58510902 -182.02197266 42.99609375 C-185.38633031 43.62712515 -188.74981479 44.26267524 -192.11328125 44.8984375 C-194.24994838 45.29975407 -196.3866654 45.7008052 -198.5234375 46.1015625 C-199.52966156 46.2921524 -200.53588562 46.48274231 -201.57260132 46.67910767 C-202.50432159 46.85283905 -203.43604187 47.02657043 -204.39599609 47.20556641 C-205.21490326 47.35941803 -206.03381042 47.51326965 -206.87753296 47.67178345 C-209 48 -209 48 -212 48 C-212.33 45.03 -212.66 42.06 -213 39 C-198.58281734 36.15604861 -184.15466994 33.38116825 -169.69921875 30.73828125 C-168.63349136 30.54337601 -167.56776398 30.34847076 -166.46974182 30.1476593 C-161.15580817 29.17692013 -155.84115228 28.21031782 -150.52563477 27.24829102 C-141.50766299 25.60983262 -132.50763718 23.93702313 -123.546875 22.0078125 C-111.19601402 19.34911348 -98.75645759 17.16966396 -86.32470703 14.92724609 C-75.21396713 12.91973546 -64.12677557 10.86703886 -53.0871582 8.49714661 C-44.20537676 6.59757995 -35.28683062 4.89789741 -26.35986328 3.2253418 C-24.4239914 2.86127096 -22.48878359 2.49365419 -20.55419922 2.12280273 C-17.71454321 1.57846048 -14.87320444 1.04391327 -12.03125 0.51171875 C-10.73302307 0.2603138 -10.73302307 0.2603138 -9.40856934 0.00382996 C-8.60922974 -0.14350082 -7.80989014 -0.2908316 -6.98632812 -0.44262695 C-6.28640747 -0.57490189 -5.58648682 -0.70717682 -4.86535645 -0.84346008 C-3 -1 -3 -1 0 0 Z " fill="#162D61" transform="translate(618,479)"/>
<path d="M0 0 C0.33 2.64 0.66 5.28 1 8 C-11.22901066 10.79046357 -23.48525578 13.31013034 -35.8125 15.625 C-37.6152022 15.96588573 -39.41785364 16.30703998 -41.22045898 16.6484375 C-47.14621199 17.76967415 -53.07303681 18.88518083 -59 20 C-61.15039387 20.40460516 -63.30078444 20.80922786 -65.45117188 21.21386719 C-67.08326096 21.52097626 -67.08326096 21.52097626 -68.74832153 21.83428955 C-74.35313189 22.88907941 -79.95783646 23.94443033 -85.5625 25 C-86.68763 25.21180908 -87.81276001 25.42361816 -88.97198486 25.6418457 C-105.35997609 28.72823358 -121.73424279 31.87818663 -138.09838867 35.08837891 C-150.68327092 37.55599672 -163.27672659 39.97671022 -175.875 42.375 C-177.20958755 42.62929779 -177.20958755 42.62929779 -178.57113647 42.88873291 C-183.37551361 43.80381502 -188.18051735 44.71544625 -192.98678589 45.62054443 C-194.82489816 45.96699637 -196.66259371 46.3156574 -198.50024414 46.66455078 C-199.47856201 46.84743652 -200.45687988 47.03032227 -201.46484375 47.21875 C-202.67321899 47.44594727 -202.67321899 47.44594727 -203.90600586 47.67773438 C-206.62067462 48.0955218 -209.26032422 48.14809058 -212 48 C-212.33 45.36 -212.66 42.72 -213 40 C-209.54248618 39.26691655 -206.08381539 38.5394154 -202.625 37.8125 C-201.69816406 37.61591797 -200.77132813 37.41933594 -199.81640625 37.21679688 C-176.36753944 32.300099 -152.77154307 28.07584259 -129.21264648 23.72680664 C-116.77550712 21.42949057 -104.34975703 19.12733257 -91.98597717 16.4606781 C-80.48753432 14.00347212 -68.89469856 12.01422135 -57.32470703 9.92724609 C-44.47175566 7.60494922 -31.66453431 5.16148269 -18.89758301 2.40390015 C-6.06378093 -0.32777194 -6.06378093 -0.32777194 0 0 Z " fill="#152C60" transform="translate(628,533)"/>
<path d="M0 0 C-0.36897687 7.13355277 -2.27478242 13.014044 -4.84375 19.66796875 C-5.93094165 22.80099064 -6.56203001 25.72020199 -7 29 C-3.30545232 26.97954424 -0.73516659 24.88036584 2 21.6875 C2.68964844 20.8934375 3.37929688 20.099375 4.08984375 19.28125 C5.62722101 17.44520026 7.09867223 15.58129698 8.5625 13.6875 C11.56449076 10.37761275 13.90260846 8.78795267 18 7 C20.171875 7.62109375 20.171875 7.62109375 22 9 C22.57421875 11.12890625 22.57421875 11.12890625 22.6875 13.5625 C22.62268451 16.58093901 22.62268451 16.58093901 24 19 C30.73089387 19.7766416 35.65257728 17.85571255 41.8515625 15.2890625 C44.8676913 14.05417106 47.89812055 12.9967 51 12 C49.11269627 17.09572007 45.2505491 19.89264383 40.546875 22.20703125 C34.08210355 24.82064599 27.95620932 26.10253645 21 25 C17.875 23.4375 17.875 23.4375 16 21 C15.1875 17.25 15.1875 17.25 15 14 C10.9470728 17.95818345 6.99167202 21.93872353 3.3125 26.25 C-0.6175896 30.78608982 -3.79206172 34.29052134 -10 35 C-11.5625 33.5625 -11.5625 33.5625 -13 31 C-13.13576955 22.58228764 -9.47738127 15.47583801 -6 8 C-6.495 7.505 -6.495 7.505 -7 7 C-8.43952597 8.10152406 -9.87654071 9.2063304 -11.3125 10.3125 C-12.11300781 10.92738281 -12.91351562 11.54226563 -13.73828125 12.17578125 C-14.48464844 12.77777344 -15.23101563 13.37976563 -16 14 C-16.56332031 14.43699219 -17.12664063 14.87398437 -17.70703125 15.32421875 C-19.65532108 17.84934364 -19.8434366 20.37965382 -20.375 23.5 C-21.68149188 30.22109727 -23.86801694 35.93410396 -27 42 C-27.99 42 -28.98 42 -30 42 C-29.38388165 37.68068613 -28.35761422 33.74791225 -26.9375 29.625 C-26.57527344 28.56539062 -26.21304688 27.50578125 -25.83984375 26.4140625 C-25.42412109 25.21910156 -25.42412109 25.21910156 -25 24 C-25.89203125 24.91523437 -26.7840625 25.83046875 -27.703125 26.7734375 C-28.88514805 27.97422282 -30.06745461 29.17472909 -31.25 30.375 C-32.12978516 31.27992188 -32.12978516 31.27992188 -33.02734375 32.203125 C-33.60097656 32.78320312 -34.17460938 33.36328125 -34.765625 33.9609375 C-35.55114746 34.76217041 -35.55114746 34.76217041 -36.35253906 35.57958984 C-39.4141043 38.21921441 -41.56746635 38.97017009 -45.625 39.25 C-49 39 -49 39 -51 37 C-51.70838889 30.19372294 -48.67351138 25.50606397 -45 20 C-41.18517002 15.60443475 -35.78712671 12.32684396 -29.91796875 11.8203125 C-27.94441699 11.81298949 -25.97118294 11.90305658 -24 12 C-20.09319025 12.42699345 -20.09319025 12.42699345 -18.0703125 10.390625 C-17.42835938 9.68421875 -16.78640625 8.9778125 -16.125 8.25 C-7.53864903 -0.71796657 -7.53864903 -0.71796657 0 0 Z " fill="#0C69FF" transform="translate(594,611)"/>
<path d="M0 0 C0.495 3.96 0.495 3.96 1 8 C-5.79866761 9.95838152 -12.51711894 11.5656711 -19.5 12.6875 C-31.4644648 14.6900688 -43.38752814 16.90120598 -55.3125 19.125 C-56.25851074 19.30098724 -57.20452148 19.47697449 -58.17919922 19.65829468 C-60.92822622 20.16974641 -63.67704768 20.68228633 -66.42578125 21.1953125 C-67.24182327 21.34729599 -68.0578653 21.49927948 -68.89863586 21.65586853 C-69.68530136 21.80310867 -70.47196686 21.95034882 -71.2824707 22.10205078 C-72.04814362 22.24467346 -72.81381653 22.38729614 -73.60269165 22.53424072 C-75.32173762 22.86822429 -77.03672314 23.22337426 -78.74862671 23.59222412 C-80.09738388 23.8808432 -80.09738388 23.8808432 -81.47338867 24.17529297 C-82.29191818 24.35623505 -83.11044769 24.53717712 -83.95378113 24.72360229 C-86 25 -86 25 -88 24 C-88.59355614 21.35139573 -88.74209269 18.70802678 -89 16 C-76.33463232 13.51604645 -63.6667119 11.04538061 -50.99713135 8.58300781 C-48.00878533 8.00170894 -45.02072653 7.41895222 -42.03271484 6.8359375 C-37.21628668 5.89675187 -32.39870052 4.96372245 -27.58026123 4.03491211 C-25.74186834 3.67961462 -23.90385071 3.32236962 -22.06622314 2.96313477 C-19.48914349 2.45974618 -16.91079687 1.96341842 -14.33203125 1.46875 C-13.57435959 1.31913818 -12.81668793 1.16952637 -12.03605652 1.01538086 C-7.96680752 0.24327272 -4.14102784 -0.15332609 0 0 Z " fill="#162D61" transform="translate(509,584)"/>
<path d="M0 0 C5.11565979 1.35414524 8.26877771 4.6028122 11 9 C12.90058446 14.68844494 13.66280907 20.30026194 14.32861328 26.24633789 C14.44594818 27.25209366 14.56328308 28.25784943 14.68417358 29.29408264 C15.06865643 32.60296914 15.44466786 35.91275567 15.8203125 39.22265625 C16.08608126 41.53003144 16.35227203 43.83735806 16.61886597 46.14463806 C17.17552979 50.97337205 17.72819736 55.80254104 18.27783203 60.63208008 C18.98209336 66.81884994 19.69456411 73.00463953 20.40980721 79.19014835 C20.95980115 83.95191644 21.50631641 88.71407854 22.05169296 93.47637749 C22.31317249 95.75741985 22.57552836 98.03836193 22.83877945 100.31920052 C23.20597993 103.50677524 23.56870597 106.69482765 23.93017578 109.88305664 C24.03924255 110.82296448 24.14830933 111.76287231 24.26068115 112.73126221 C24.76050869 117.18123613 25.12672288 121.51267412 25 126 C22.14995499 123.14995499 22.02216195 119.89308844 21.3359375 116.05859375 C21.1830275 115.2411116 21.03011749 114.42362946 20.87257385 113.58137512 C20.36640413 110.86799588 19.87088855 108.1527753 19.375 105.4375 C18.84057043 102.56025476 18.30330292 99.68354825 17.76591492 96.80685425 C17.39581478 94.82469975 17.02661583 92.8423768 16.65827942 90.8598938 C14.97642355 81.81940613 13.2132884 72.79587107 11.43463135 63.77401733 C8.53914778 49.07317266 5.72707366 34.35801503 3 19.625 C2.84602753 18.79778442 2.69205505 17.97056885 2.53341675 17.11828613 C2.10265452 14.80074518 1.67564406 12.48254823 1.25 10.1640625 C1.12230728 9.47863373 0.99461456 8.79320496 0.86305237 8.08700562 C0.36263312 5.33767777 0 2.8025657 0 0 Z " fill="#0463FE" transform="translate(630,392)"/>
<path d="M0 0 C4.40986252 0.44078829 6.90865755 3.4235829 9.89453125 6.390625 C10.44614426 6.93225281 10.99775726 7.47388062 11.56608582 8.03192139 C12.72727707 9.17794774 13.88444936 10.32805863 15.0378418 11.48193359 C16.80823767 13.2457535 18.60122344 14.98419648 20.39648438 16.72265625 C21.52229863 17.83967093 22.64669771 18.95811413 23.76953125 20.078125 C24.57871758 20.8549765 24.57871758 20.8549765 25.4042511 21.64752197 C26.88208008 23.15332031 26.88208008 23.15332031 29 26 C28.8269043 28.87011719 28.8269043 28.87011719 28 31 C24.48157214 30.41884626 22.83744782 29.20392497 20.35546875 26.68359375 C19.67806641 26.00103516 19.00066406 25.31847656 18.30273438 24.61523438 C17.60470703 23.89658203 16.90667969 23.17792969 16.1875 22.4375 C15.50107422 21.74591797 14.81464844 21.05433594 14.10742188 20.34179688 C10.06385098 16.23701771 6.19359817 12.01887945 2.4387207 7.64868164 C1.33987265 6.38947226 0.18175194 5.18175194 -1 4 C-0.625 1.875 -0.625 1.875 0 0 Z " fill="#99C0FF" transform="translate(280,757)"/>
<path d="M0 0 C4.56596067 0.6133574 8.53032508 1.81215614 12.82421875 3.46875 C13.45229935 3.70911987 14.08037994 3.94948975 14.72749329 4.19714355 C16.71623845 4.95948633 18.70190332 5.72949875 20.6875 6.5 C22.68445047 7.2687429 24.6819965 8.03592101 26.67964172 8.80285645 C28.48490737 9.49691313 30.28875668 10.19465042 32.0925293 10.89257812 C34.04630932 11.63675028 36.01658282 12.33886094 38 13 C38 14.32 38 15.64 38 17 C31.06192698 16.47118346 25.05945053 14.96468916 18.5 12.6875 C17.61441406 12.39166016 16.72882813 12.09582031 15.81640625 11.79101562 C10.05870785 9.83373636 4.51150882 7.56816795 -1 5 C-0.67 3.35 -0.34 1.7 0 0 Z " fill="#99C0FF" transform="translate(406,849)"/>
<path d="M0 0 C4.17770317 0.55539507 7.54226909 1.50377906 11.3359375 3.328125 C12.31820312 3.79863281 13.30046875 4.26914063 14.3125 4.75390625 C15.8284375 5.49447266 15.8284375 5.49447266 17.375 6.25 C18.87933594 6.96736328 18.87933594 6.96736328 20.4140625 7.69921875 C26.18674313 10.48733282 31.6345042 13.49129869 37 17 C36.67 18.32 36.34 19.64 36 21 C32.28712551 20.4023117 29.35612753 19.35095779 26.015625 17.63671875 C25.07976563 17.16169922 24.14390625 16.68667969 23.1796875 16.19726562 C22.21289062 15.69904297 21.24609375 15.20082031 20.25 14.6875 C13.57217815 11.27167649 6.89476697 7.95841569 0 5 C0 3.35 0 1.7 0 0 Z " fill="#99C0FF" transform="translate(673,227)"/>
<path d="M0 0 C1.32 0.66 2.64 1.32 4 2 C3.41038729 5.42314715 2.25538288 7.12308266 -0.11328125 9.62890625 C-4.91194299 14.91270203 -8.9281068 20.70668854 -13.01367188 26.54882812 C-13.60083984 27.36673828 -14.18800781 28.18464844 -14.79296875 29.02734375 C-15.3139917 29.76718506 -15.83501465 30.50702637 -16.37182617 31.26928711 C-18.24089787 33.25606913 -19.30791431 33.73533345 -22 34 C-22.66 33.67 -23.32 33.34 -24 33 C-22.29226862 29.20401015 -19.92544772 25.92209795 -17.5 22.5625 C-17.06365234 21.9550293 -16.62730469 21.34755859 -16.17773438 20.72167969 C-13.01738564 16.34737726 -9.78608534 12.0305266 -6.5 7.75 C-6.07912109 7.20158447 -5.65824219 6.65316895 -5.22460938 6.08813477 C-3.56473317 3.94435439 -1.91943476 1.91943476 0 0 Z " fill="#99C0FF" transform="translate(278,321)"/>
<path d="M0 0 C4.01627878 0.45470619 6.90851351 2.74998804 10.19140625 4.96484375 C10.77792465 5.35821426 11.36444305 5.75158478 11.96873474 6.15687561 C13.83701559 7.41169667 15.69978546 8.67443468 17.5625 9.9375 C18.81930412 10.78373408 20.07646197 11.62944305 21.33398438 12.47460938 C23.63967859 14.02533446 25.94277591 15.57966903 28.24438477 17.13647461 C30.1584806 18.43091011 32.07738289 19.71825526 34 21 C33.67 22.32 33.34 23.64 33 25 C28.02340728 24.4630266 24.55116834 22.14601224 20.4375 19.5 C19.73874756 19.0551123 19.03999512 18.61022461 18.32006836 18.15185547 C0.73019923 6.82387542 0.73019923 6.82387542 -0.87890625 2.8046875 C-0.91886719 2.20914063 -0.95882813 1.61359375 -1 1 C-0.67 0.67 -0.34 0.34 0 0 Z " fill="#99C0FF" transform="translate(338,810)"/>
<path d="M0 0 C1.32 0.66 2.64 1.32 4 2 C3.4234559 5.40013186 2.39002339 6.92670485 -0.125 9.25 C-2.64391031 11.65673212 -4.9962052 14.09335299 -7.25 16.75 C-11.86999205 22.1206086 -16.9531974 27.03533342 -22 32 C-24.475 31.01 -24.475 31.01 -27 30 C-27 29.34 -27 28.68 -27 28 C-25.49609375 26.51953125 -25.49609375 26.51953125 -23.4375 24.8125 C-16.51612817 18.89897705 -10.70320102 12.57253834 -5.015625 5.453125 C-3.41908062 3.51004385 -1.82047747 1.7283014 0 0 Z " fill="#99C0FF" transform="translate(797,756)"/>
<path d="M0 0 C1.87231445 0.29223633 1.87231445 0.29223633 4 1 C5.56803535 3.55143037 6.89326378 6.00203223 8.1875 8.6875 C11.49490082 15.29600316 15.06732075 21.50114165 19.34448242 27.53198242 C22.05391391 31.50088793 22.05391391 31.50088793 21.7421875 34.38671875 C21.49726563 34.91910156 21.25234375 35.45148437 21 36 C19.26171875 35.875 19.26171875 35.875 17 35 C15.41916479 33.01715507 14.12014901 31.15250143 12.8125 29 C12.43174316 28.38785645 12.05098633 27.77571289 11.65869141 27.14501953 C8.59114433 22.13531996 5.69050283 17.02997331 2.875 11.875 C2.4725708 11.153125 2.0701416 10.43125 1.65551758 9.6875 C-1.09360565 4.51727047 -1.09360565 4.51727047 -0.59716797 1.77392578 C-0.40010254 1.18853027 -0.20303711 0.60313477 0 0 Z " fill="#99C0FF" transform="translate(237,691)"/>
<path d="M0 0 C0 1.32 0 2.64 0 4 C-4.26668976 5.12759231 -8.53510509 6.24833501 -12.80517578 7.36303711 C-14.2545499 7.74238942 -15.70345479 8.12353961 -17.15185547 8.5065918 C-19.24583079 9.06003048 -21.34146452 9.6067663 -23.4375 10.15234375 C-25.32275391 10.6472229 -25.32275391 10.6472229 -27.24609375 11.15209961 C-31.17929711 12.0404981 -34.99494021 12.56340191 -39 13 C-39.33 11.35 -39.66 9.7 -40 8 C-36.5432712 7.03581666 -33.08434213 6.07976067 -29.625 5.125 C-28.65949219 4.85558594 -27.69398438 4.58617187 -26.69921875 4.30859375 C-17.77265026 1.85228967 -9.30078148 -0.34447339 0 0 Z " fill="#99C0FF" transform="translate(481,205)"/>
<path d="M0 0 C2.0625 0.4375 2.0625 0.4375 4 1 C3.67989644 3.92012838 3.08004496 4.92444354 0.91015625 6.97265625 C-5.40492906 11.60718388 -11.86631686 15.95707599 -18.5 20.125 C-19.27722412 20.62265869 -20.05444824 21.12031738 -20.85522461 21.63305664 C-21.59393799 22.08672607 -22.33265137 22.54039551 -23.09375 23.0078125 C-23.75052734 23.41660645 -24.40730469 23.82540039 -25.08398438 24.24658203 C-27 25 -27 25 -29.18164062 24.81201172 C-30.08172852 24.41006592 -30.08172852 24.41006592 -31 24 C-31.33 23.01 -31.66 22.02 -32 21 C-30.77990234 20.34257813 -30.77990234 20.34257813 -29.53515625 19.671875 C-13.83717904 11.13187067 -13.83717904 11.13187067 0 0 Z " fill="#99C0FF" transform="translate(739,810)"/>
<path d="M0 0 C0 1.65 0 3.3 0 5 C-8.71500412 8.46403944 -17.43466087 11.90919919 -26.3125 14.9375 C-27.48425781 15.33839844 -28.65601563 15.73929688 -29.86328125 16.15234375 C-32.75671421 16.93425527 -35.02665062 17.18409105 -38 17 C-38.33 15.68 -38.66 14.36 -39 13 C-38.18845459 12.71278076 -37.37690918 12.42556152 -36.54077148 12.12963867 C-33.50040489 11.05236735 -30.4607817 9.97302992 -27.42163086 8.89233398 C-26.11169916 8.42699957 -24.80148301 7.96246501 -23.4909668 7.4987793 C-21.59607678 6.8281687 -19.70232585 6.15434225 -17.80859375 5.48046875 C-16.67220459 5.07723389 -15.53581543 4.67399902 -14.36499023 4.25854492 C-11.95282128 3.35636608 -9.66212713 2.40591272 -7.32446289 1.3449707 C-4 0 -4 0 0 0 Z " fill="#99C0FF" transform="translate(675,849)"/>
<path d="M0 0 C4.14912398 0.56123416 6.94297582 2.98005801 10.125 5.5 C10.69468506 5.9448877 11.26437012 6.38977539 11.85131836 6.84814453 C17.11027342 10.99913856 22.13412138 15.39399335 27 20 C27.75667969 20.69867188 28.51335938 21.39734375 29.29296875 22.1171875 C29.85628906 22.73851562 30.41960938 23.35984375 31 24 C30.75 26.25 30.75 26.25 30 28 C25.5938827 27.55728008 23.12825299 24.56677624 20.125 21.625 C13.446536 15.25498106 6.33681888 9.58786206 -1 4 C-0.67 2.68 -0.34 1.36 0 0 Z " fill="#99C0FF" transform="translate(742,267)"/>
<path d="M0 0 C1.32 0.33 2.64 0.66 4 1 C3.39374873 5.91737138 1.25655948 9.76876257 -1.0625 14.0625 C-1.46299561 14.80822266 -1.86349121 15.55394531 -2.27612305 16.32226562 C-11.99729269 34.16770605 -11.99729269 34.16770605 -16.10546875 35.875 C-18 36 -18 36 -20 35 C-18.40172706 31.62764409 -16.48944522 28.53039057 -14.5 25.375 C-9.33643575 17.10378024 -4.68253101 8.54945723 0 0 Z " fill="#99C0FF" transform="translate(840,691)"/>
<path d="M0 0 C0.59159912 0.21793213 1.18319824 0.43586426 1.79272461 0.66040039 C1.79272461 1.98040039 1.79272461 3.30040039 1.79272461 4.66040039 C-0.25256281 6.527179 -2.22422481 8.11167163 -4.45727539 9.72290039 C-10.5844056 14.30160462 -16.1234321 19.19411279 -21.58618164 24.54321289 C-24.29043595 26.7275733 -25.77098771 27.46068453 -29.20727539 27.66040039 C-29.86727539 27.33040039 -30.52727539 27.00040039 -31.20727539 26.66040039 C-31.20727539 24.66040039 -31.20727539 24.66040039 -29.94946289 23.35571289 C-29.02520508 22.5784082 -29.02520508 22.5784082 -28.08227539 21.78540039 C-27.35911133 21.17051758 -26.63594727 20.55563477 -25.89086914 19.92211914 C-25.0052832 19.17575195 -24.11969727 18.42938477 -23.20727539 17.66040039 C-21.46259849 16.16711486 -19.72098626 14.67029564 -17.97924805 13.17358398 C-15.64253673 11.16651254 -13.30514354 9.16046528 -10.95288086 7.17163086 C-9.7307455 6.1135864 -8.53349159 5.02642866 -7.35620117 3.91870117 C-6.75146973 3.36037598 -6.14673828 2.80205078 -5.52368164 2.22680664 C-4.98300049 1.71190674 -4.44231934 1.19700684 -3.88525391 0.66650391 C-2.20727539 -0.33959961 -2.20727539 -0.33959961 0 0 Z " fill="#99C0FF" transform="translate(336.207275390625,267.339599609375)"/>
<path d="M0 0 C1.32 0 2.64 0 4 0 C3.4305588 5.28177343 1.6354817 9.3117129 -0.6875 14 C-1.41216037 15.4977299 -2.13478545 16.9964461 -2.85546875 18.49609375 C-3.21560059 19.24487793 -3.57573242 19.99366211 -3.94677734 20.76513672 C-6.46257389 26.10347738 -8.72263067 31.55674226 -11 37 C-12.65 37 -14.3 37 -16 37 C-12.8785257 24.05888779 -6.76288958 11.41237617 0 0 Z " fill="#99C0FF" transform="translate(235,388)"/>
<path d="M0 0 C2.25390625 0.0234375 2.25390625 0.0234375 5 1 C6.58420954 3.57014341 7.76831463 5.87294045 8.9375 8.625 C9.27523437 9.38321045 9.61296875 10.1414209 9.9609375 10.92260742 C10.99735765 13.27239678 12.00227766 15.63355041 13 18 C13.31211426 18.72880371 13.62422852 19.45760742 13.94580078 20.20849609 C19 32.0654778 19 32.0654778 19 37 C17.35 37 15.7 37 14 37 C13.71801758 36.28457031 13.43603516 35.56914062 13.14550781 34.83203125 C11.85073091 31.55320227 10.55041132 28.27659818 9.25 25 C8.58484375 23.31197266 8.58484375 23.31197266 7.90625 21.58984375 C5.99039531 16.7720327 4.08694358 12.02911186 1.671875 7.4375 C0 4 0 4 0 0 Z " fill="#99C0FF" transform="translate(841,387)"/>
<path d="M0 0 C13.36319744 0.68161276 26.67534564 1.78641952 40 3 C40 4.65 40 6.3 40 8 C26.76616656 8.60975 12.83679225 7.40856708 0 4 C0 2.68 0 1.36 0 0 Z " fill="#99C0FF" transform="translate(481,872)"/>
<path d="M0 0 C8.55360245 3.64673676 14.32726264 13.56334337 19.625 20.875 C20.17027344 21.61242432 20.71554687 22.34984863 21.27734375 23.10961914 C22.02564453 24.16524048 22.02564453 24.16524048 22.7890625 25.2421875 C23.23975098 25.8697998 23.69043945 26.49741211 24.15478516 27.14404297 C25.2235123 29.49079737 24.85943177 30.62291825 24 33 C21.47179597 32.62430535 20.26085074 32.2757194 18.47949219 30.39282227 C18.00672852 29.70760498 17.53396484 29.0223877 17.046875 28.31640625 C16.51336426 27.5579541 15.97985352 26.79950195 15.43017578 26.01806641 C14.59848877 24.80256104 14.59848877 24.80256104 13.75 23.5625 C12.5987317 21.91370193 11.44509463 20.26655524 10.2890625 18.62109375 C9.45036621 17.42589111 9.45036621 17.42589111 8.59472656 16.20654297 C5.99567338 12.61036375 3.13615869 9.267159 0.1953125 5.9453125 C-1 4 -1 4 -0.6953125 1.7421875 C-0.46585938 1.16726563 -0.23640625 0.59234375 0 0 Z " fill="#99C0FF" transform="translate(799,321)"/>
<path d="M0 0 C7.2443376 -0.40540089 13.6234163 1.10816843 20.625 2.875 C21.73101563 3.14441406 22.83703125 3.41382813 23.9765625 3.69140625 C29.06515507 4.9452061 34.04023515 6.29780503 39 8 C39 9.32 39 10.64 39 12 C30.38189798 11.51330978 22.22279896 9.52959508 13.875 7.4375 C12.52359228 7.10418953 11.17203057 6.77150277 9.8203125 6.43945312 C6.54531352 5.6323998 3.2719987 4.81911651 0 4 C0 2.68 0 1.36 0 0 Z " fill="#99C0FF" transform="translate(598,205)"/>
<path d="M0 0 C1.32 0 2.64 0 4 0 C3.41295293 6.97297378 2.01233573 13.39503698 0.125 20.125 C-0.13152344 21.07503906 -0.38804687 22.02507813 -0.65234375 23.00390625 C-2.08908364 28.20938093 -3.73232318 33.09801598 -6 38 C-7.98 38 -9.96 38 -12 38 C-11.82476807 37.47937988 -11.64953613 36.95875977 -11.46899414 36.42236328 C-9.40293631 30.25730619 -7.40822234 24.07112058 -5.4375 17.875 C-5.13392578 16.92496094 -4.83035156 15.97492187 -4.51757812 14.99609375 C-2.93270411 10.0170342 -1.40139556 5.03386864 0 0 Z " fill="#99C0FF" transform="translate(867,618)"/>
<path d="M0 0 C0 1.32 0 2.64 0 4 C-13.1812092 6.40621385 -25.55225097 8.18706297 -39 8 C-39.33 6.35 -39.66 4.7 -40 3 C-35.58965421 2.56785354 -31.17885222 2.14080122 -26.76757812 1.71826172 C-25.27005019 1.57411982 -23.77265055 1.42863801 -22.27539062 1.28173828 C-20.11100907 1.06962889 -17.94619679 0.86250077 -15.78125 0.65625 C-13.8331543 0.46772461 -13.8331543 0.46772461 -11.84570312 0.27539062 C-7.87000298 -0.00930908 -3.98360433 -0.04650122 0 0 Z " fill="#99C0FF" transform="translate(599,872)"/>
<path d="M0 0 C0 1.32 0 2.64 0 4 C-0.64437012 4.30180176 -1.28874023 4.60360352 -1.95263672 4.91455078 C-4.92935821 6.31257056 -7.90216628 7.71873307 -10.875 9.125 C-11.88820313 9.599375 -12.90140625 10.07375 -13.9453125 10.5625 C-19.8466676 13.36186075 -25.44889639 16.36088366 -30.94580078 19.89404297 C-33 21 -33 21 -36 21 C-36.66 19.35 -37.32 17.7 -38 16 C-34.02189557 14.08112308 -30.04232532 12.16530485 -26.0625 10.25 C-24.38704102 9.44175781 -24.38704102 9.44175781 -22.67773438 8.6171875 C-19.45653525 7.0679891 -16.23009317 5.53055774 -13 4 C-12.11425293 3.57654297 -11.22850586 3.15308594 -10.31591797 2.71679688 C-9.52975098 2.35134766 -8.74358398 1.98589844 -7.93359375 1.609375 C-7.26255615 1.29452148 -6.59151855 0.97966797 -5.90014648 0.65527344 C-4 0 -4 0 0 0 Z " fill="#99C0FF" transform="translate(406,228)"/>
<path d="M0 0 C1.32 0 2.64 0 4 0 C4.19110352 0.67466309 4.38220703 1.34932617 4.57910156 2.04443359 C5.46392147 5.15620997 6.35690969 8.26558762 7.25 11.375 C7.55035156 12.43589844 7.85070312 13.49679687 8.16015625 14.58984375 C9.87032449 20.52085276 11.77213525 26.21166402 14.25683594 31.86572266 C15 34 15 34 15 38 C12.525 38.495 12.525 38.495 10 39 C8.72375314 35.05705474 7.46097102 31.11010681 6.2097168 27.15917969 C5.78357479 25.8198303 5.35397404 24.48157568 4.9206543 23.14453125 C2.43860936 15.47745141 0.28572857 8.10799659 0 0 Z " fill="#99C0FF" transform="translate(209,618)"/>
<path d="M0 0 C0.99 0 1.98 0 3 0 C3.02489563 4.5532187 3.04295187 9.10639693 3.05493164 13.65966797 C3.05993092 15.20557344 3.06673253 16.75147425 3.07543945 18.29736328 C3.08769956 20.53158728 3.09327249 22.76574826 3.09765625 25 C3.10281754 25.68054443 3.10797882 26.36108887 3.11329651 27.06225586 C3.11383862 31.79987721 2.66044355 36.31976335 2 41 C0.02 41 -1.96 41 -4 41 C-3.86722656 39.95585938 -3.73445312 38.91171875 -3.59765625 37.8359375 C-2.3880892 27.89276999 -1.66736833 18.01227095 -1.34204102 7.99951172 C-1.29454712 6.65203857 -1.29454712 6.65203857 -1.24609375 5.27734375 C-1.22216553 4.47546631 -1.1982373 3.67358887 -1.17358398 2.84741211 C-1 1 -1 1 0 0 Z " fill="#99C0FF" transform="translate(877,539)"/>
<path d="M0 0 C1.32 0 2.64 0 4 0 C3.39302355 7.40511264 2.28344598 14.67611712 1.09326172 22.00439453 C0.18454899 27.66048377 -0.53181231 33.28811023 -1 39 C-2.98 39 -4.96 39 -7 39 C-5.28470538 25.82341857 -3.10809308 12.92146312 0 0 Z " fill="#99C0FF" transform="translate(208,462)"/>
<path d="M0 0 C1.32 0 2.64 0 4 0 C4.86776004 3.94415402 5.7215989 7.89105866 6.56347656 11.84082031 C6.85082039 13.17982968 7.14174326 14.51807681 7.43652344 15.85546875 C9.15231779 23.6524118 10.50960329 30.99970024 10 39 C8.35 39 6.7 39 5 39 C4.91959473 38.35562988 4.83918945 37.71125977 4.75634766 37.04736328 C4.3829906 34.0727568 4.00402511 31.09888936 3.625 28.125 C3.49867188 27.11179687 3.37234375 26.09859375 3.2421875 25.0546875 C2.51063886 19.34860811 1.61951644 13.73675785 0.39257812 8.11523438 C-0.11346848 5.38862506 -0.14546876 2.76390649 0 0 Z " fill="#99C0FF" transform="translate(868,461)"/>
<path d="M0 0 C1.32 0 2.64 0 4 0 C4.02505615 0.6077124 4.0501123 1.2154248 4.07592773 1.84155273 C4.60458803 14.56895942 5.19795563 27.28674343 6 40 C4.35 40 2.7 40 1 40 C0.25331277 34.68792752 -0.11933785 29.5957861 -0.09765625 24.21875 C-0.0962413 23.51979614 -0.09482635 22.82084229 -0.09336853 22.10070801 C-0.0878367 19.90042571 -0.07529777 17.70025077 -0.0625 15.5 C-0.05747616 13.99479315 -0.05291482 12.48958468 -0.04882812 10.984375 C-0.03788977 7.32288265 -0.02067359 3.66145183 0 0 Z " fill="#99C0FF" transform="translate(200,540)"/>
<path d="M0 0 C0 3 0 3 -1.35546875 4.6484375 C-1.96003906 5.21820312 -2.56460938 5.78796875 -3.1875 6.375 C-3.82558594 6.98601563 -4.46367188 7.59703125 -5.12109375 8.2265625 C-5.74113281 8.81179688 -6.36117187 9.39703125 -7 10 C-7.9075 10.9075 -8.815 11.815 -9.75 12.75 C-10.4925 13.4925 -11.235 14.235 -12 15 C-12.515625 15.598125 -13.03125 16.19625 -13.5625 16.8125 C-15 18 -15 18 -19 18 C-19.54550158 14.25941772 -19.69351594 12.13109148 -17.6875 8.859375 C-12.87540958 3.05908744 -7.91174912 -0.71924992 0 0 Z " fill="#E1F2FF" transform="translate(568,627)"/>
<path d="M0 0 C12.87 0 25.74 0 39 0 C39.495 1.98 39.495 1.98 40 4 C26.8 4 13.6 4 0 4 C0 2.68 0 1.36 0 0 Z " fill="#99C0FF" transform="translate(520,200)"/>
<path d="M0 0 C3.79456881 0.94708304 7.58506522 1.90955453 11.375 2.875 C12.45523438 3.14441406 13.53546875 3.41382813 14.6484375 3.69140625 C15.6796875 3.95566406 16.7109375 4.21992188 17.7734375 4.4921875 C18.72653809 4.73308105 19.67963867 4.97397461 20.66162109 5.22216797 C23 6 23 6 25 8 C24.34 9.32 23.68 10.64 23 12 C14.45269656 10.67429579 6.27758852 8.48931859 -2 6 C-1.34 4.02 -0.68 2.04 0 0 Z " fill="#0F265C" transform="translate(660,497)"/>
<path d="M0 0 C2.97 0.99 5.94 1.98 9 3 C8.06915029 4.77433812 7.13005387 6.54435149 6.1875 8.3125 C5.66542969 9.29863281 5.14335938 10.28476562 4.60546875 11.30078125 C3 14 3 14 0 17 C0 11.39 0 5.78 0 0 Z " fill="#162D61" transform="translate(641,598)"/>
<path d="M0 0 C2.45905074 3.68857611 2.9241468 7.21621363 3.625 11.5 C3.7590625 12.27214844 3.893125 13.04429687 4.03125 13.83984375 C4.55545069 16.92620906 5 19.86403827 5 23 C4.34 23 3.68 23 3 23 C1.81990204 20.63980407 1.70232315 18.83904283 1.46484375 16.2109375 C1.37783203 15.26992188 1.29082031 14.32890625 1.20117188 13.359375 C1.11416016 12.37453125 1.02714844 11.3896875 0.9375 10.375 C0.84662109 9.38242187 0.75574219 8.38984375 0.66210938 7.3671875 C0.43781564 4.91176132 0.21726893 2.45605611 0 0 Z " fill="#1E74FF" transform="translate(382,575)"/>
<path d="M0 0 C3.3 0.33 6.6 0.66 10 1 C9.01 2.485 9.01 2.485 8 4 C5.36 3.34 2.72 2.68 0 2 C0 1.34 0 0.68 0 0 Z " fill="#C0CFE0" transform="translate(642,597)"/>
</svg>
