<?xml version="1.0" encoding="UTF-8"?>
<svg version="1.1" xmlns="http://www.w3.org/2000/svg" width="1080" height="1080">
<path d="M0 0 C1.19934085 -0.00453111 2.3986817 -0.00906223 3.63436621 -0.01373065 C6.95556918 -0.02419092 10.27655536 -0.02570221 13.59775937 -0.02334189 C17.18274235 -0.0229333 20.76769318 -0.03397694 24.35266113 -0.04345703 C31.37337554 -0.06005866 38.39405636 -0.0655662 45.41478876 -0.06668179 C51.12252565 -0.06763265 56.83025146 -0.07174484 62.53798485 -0.07808304 C78.72618396 -0.09569307 94.91435657 -0.10492227 111.10256533 -0.10342209 C111.9749851 -0.10334218 112.84740486 -0.10326227 113.7462616 -0.10317993 C115.05649201 -0.10305729 115.05649201 -0.10305729 116.39319172 -0.10293217 C130.54846885 -0.10211931 144.70363957 -0.12125756 158.85888592 -0.14945666 C173.39899648 -0.17819355 187.93905515 -0.19199652 202.47919482 -0.19026911 C210.64013488 -0.18960549 218.80096337 -0.19508543 226.96187782 -0.21662521 C233.91034924 -0.2348476 240.85865851 -0.23917571 247.80714349 -0.22560637 C251.35060495 -0.21908201 254.89375543 -0.21893982 258.43718719 -0.23631287 C262.28305669 -0.25497438 266.12847355 -0.24247507 269.97436523 -0.22705078 C271.08799574 -0.23733791 272.20162625 -0.24762503 273.34900314 -0.25822389 C280.9451566 -0.19093718 287.64071721 0.92911721 293.33390808 6.30258179 C293.77734558 6.97160522 294.22078308 7.64062866 294.67765808 8.32992554 C295.14172058 9.0015271 295.60578308 9.67312866 296.08390808 10.36508179 C298.47168706 14.51811166 298.32596027 18.45142368 298.3248291 23.09120178 C298.32850579 23.8966639 298.33218248 24.70212601 298.33597058 25.53199607 C298.34701389 28.24028039 298.35085237 30.94852636 298.35466003 33.65682983 C298.36092422 35.59500755 298.36757098 37.53318406 298.37457275 39.47135925 C298.39198707 44.74427369 298.40253582 50.01717905 298.41077828 55.29011512 C298.41592781 58.58427383 298.42200358 61.87842972 298.42828941 65.17258644 C298.44734319 75.47862253 298.46157362 85.78465144 298.46990138 96.09070176 C298.47967376 107.98827231 298.5059926 119.88565682 298.54640228 131.78316182 C298.57656145 140.97817731 298.59137009 150.17313947 298.5946824 159.36820346 C298.59703319 164.86038228 298.60599761 170.35236237 298.63114357 175.84448814 C298.65442554 181.01307513 298.65865691 186.18133258 298.64838219 191.34995842 C298.64788674 193.24459174 298.65420972 195.13924128 298.66793823 197.03382492 C298.6856661 199.62585362 298.67854695 202.21670082 298.66540527 204.80873108 C298.68185914 205.92631909 298.68185914 205.92631909 298.69864541 207.06648463 C298.62534859 213.07816841 296.86992326 218.26933537 292.80114537 222.80030173 C286.07424737 228.82526437 278.87949088 228.5584167 270.35531616 228.53485107 C269.15597531 228.53938219 267.95663446 228.5439133 266.72094995 228.54858172 C263.39974698 228.55904199 260.0787608 228.56055329 256.7575568 228.55819297 C253.17257381 228.55778437 249.58762298 228.56882801 246.00265503 228.57830811 C238.98194062 228.59490973 231.9612598 228.60041727 224.9405274 228.60153286 C219.23279052 228.60248372 213.5250647 228.60659591 207.81733131 228.61293411 C191.6291322 228.63054415 175.44095959 228.63977334 159.25275084 228.63827316 C158.38033107 228.63819325 157.5079113 228.63811334 156.60905457 228.63803101 C155.73556763 228.63794924 154.86208069 228.63786748 153.96212444 228.63778324 C139.80684731 228.63697039 125.6516766 228.65610863 111.49643024 228.68430774 C96.95631968 228.71304462 82.41626102 228.7268476 67.87612134 228.72512019 C59.71518129 228.72445657 51.5543528 228.7299365 43.39343834 228.75147629 C36.44496692 228.76969867 29.49665765 228.77402678 22.54817268 228.76045744 C19.00471122 228.75393308 15.46156073 228.75379089 11.91812897 228.77116394 C8.07225947 228.78982546 4.22684261 228.77732614 0.38095093 228.76190186 C-0.73267958 228.77218898 -1.84631009 228.78247611 -2.99368697 228.79307497 C-10.58984044 228.72578826 -17.28540105 227.60573386 -22.97859192 222.23226929 C-23.42202942 221.56324585 -23.86546692 220.89422241 -24.32234192 220.20492554 C-25.01843567 219.19752319 -25.01843567 219.19752319 -25.72859192 218.16976929 C-28.1163709 214.01673942 -27.9706441 210.08342739 -27.96951294 205.44364929 C-27.97318963 204.63818718 -27.97686632 203.83272506 -27.98065442 203.002855 C-27.99169773 200.29457068 -27.9955362 197.58632472 -27.99934387 194.87802124 C-28.00560806 192.93984352 -28.01225482 191.00166701 -28.01925659 189.06349182 C-28.03667091 183.79057739 -28.04721966 178.51767202 -28.05546212 173.24473596 C-28.06061165 169.95057725 -28.06668742 166.65642135 -28.07297325 163.36226463 C-28.09202703 153.05622855 -28.10625746 142.75019963 -28.11458522 132.44414932 C-28.1243576 120.54657876 -28.15067644 108.64919425 -28.19108611 96.75168926 C-28.22124528 87.55667376 -28.23605393 78.36171161 -28.23936623 69.16664761 C-28.24171703 63.6744688 -28.25068144 58.1824887 -28.27582741 52.69036293 C-28.29910938 47.52177594 -28.30334075 42.35351849 -28.29306602 37.18489265 C-28.29257058 35.29025934 -28.29889356 33.3956098 -28.31262207 31.50102615 C-28.33034994 28.90899746 -28.32323079 26.31815026 -28.31008911 23.72612 C-28.32105836 22.98106132 -28.3320276 22.23600265 -28.34332925 21.46836644 C-28.27003243 15.45668266 -26.5146071 10.2655157 -22.44582921 5.73454934 C-15.71893121 -0.29041329 -8.52417472 -0.02356563 0 0 Z " fill="#0262FF" transform="translate(404.8223419189453,425.7325744628906)"/>
<path d="M0 0 C1.19934085 -0.00453111 2.3986817 -0.00906223 3.63436621 -0.01373065 C6.95556918 -0.02419092 10.27655536 -0.02570221 13.59775937 -0.02334189 C17.18274235 -0.0229333 20.76769318 -0.03397694 24.35266113 -0.04345703 C31.37337554 -0.06005866 38.39405636 -0.0655662 45.41478876 -0.06668179 C51.12252565 -0.06763265 56.83025146 -0.07174484 62.53798485 -0.07808304 C78.72618396 -0.09569307 94.91435657 -0.10492227 111.10256533 -0.10342209 C111.9749851 -0.10334218 112.84740486 -0.10326227 113.7462616 -0.10317993 C115.05649201 -0.10305729 115.05649201 -0.10305729 116.39319172 -0.10293217 C130.54846885 -0.10211931 144.70363957 -0.12125756 158.85888592 -0.14945666 C173.39899648 -0.17819355 187.93905515 -0.19199652 202.47919482 -0.19026911 C210.64013488 -0.18960549 218.80096337 -0.19508543 226.96187782 -0.21662521 C233.91034924 -0.2348476 240.85865851 -0.23917571 247.80714349 -0.22560637 C251.35060495 -0.21908201 254.89375543 -0.21893982 258.43718719 -0.23631287 C262.28305669 -0.25497438 266.12847355 -0.24247507 269.97436523 -0.22705078 C271.08799574 -0.23733791 272.20162625 -0.24762503 273.34900314 -0.25822389 C280.9451566 -0.19093718 287.64071721 0.92911721 293.33390808 6.30258179 C293.77734558 6.97160522 294.22078308 7.64062866 294.67765808 8.32992554 C295.14172058 9.0015271 295.60578308 9.67312866 296.08390808 10.36508179 C307.70310398 30.57418323 298.17765808 56.95619446 298.17765808 80.26742554 C190.59765808 80.26742554 83.01765808 80.26742554 -27.82234192 80.26742554 C-27.82234192 15.26742554 -27.82234192 15.26742554 -23.82234192 7.26742554 C-16.60902875 0.05411237 -9.66812211 -0.02672814 0 0 Z " fill="#0F2861" transform="translate(404.8223419189453,425.7325744628906)"/>
<path d="M0 0 C1.11143875 -0.00700928 2.2228775 -0.01401855 3.36799622 -0.02124023 C7.03009259 -0.03879887 10.69141183 -0.02720421 14.35351562 -0.01367188 C16.90507149 -0.01636738 19.45662636 -0.02025029 22.00817871 -0.02526855 C27.35110215 -0.03116076 32.69374886 -0.02299285 38.03662109 -0.00390625 C44.2005806 0.01786024 50.36401075 0.0108079 56.52795744 -0.01121187 C62.47443741 -0.03159889 68.4207539 -0.02938024 74.36726379 -0.01768494 C76.8902036 -0.01501966 79.41315695 -0.01828035 81.93608093 -0.02760315 C85.46425991 -0.03777993 88.99142745 -0.02224995 92.51953125 0 C93.55870193 -0.00809692 94.59787262 -0.01619385 95.66853333 -0.02453613 C101.89455529 0.04807545 105.80847478 0.60989603 110.75976562 4.51757812 C114.83062001 9.88925469 115.34156599 14.12758409 115.27734375 20.73828125 C115.28435303 21.63514145 115.2913623 22.53200165 115.29858398 23.45603943 C115.31610775 26.40395591 115.30456115 29.35090284 115.29101562 32.29882812 C115.29371215 34.35713891 115.29759591 36.41544845 115.3026123 38.47375488 C115.30849975 42.78096685 115.29996854 47.08784631 115.28125 51.39501953 C115.25846111 56.90636923 115.27158821 62.41693967 115.29553986 67.9282608 C115.31001809 72.17659336 115.30538251 76.42474225 115.29502869 80.67308044 C115.29236701 82.70478915 115.29561142 84.73651473 115.3049469 86.76820374 C115.31514575 89.61154127 115.29956471 92.45363008 115.27734375 95.296875 C115.28544067 96.13032944 115.2935376 96.96378387 115.30187988 97.82249451 C115.21972811 103.51828964 114.0137211 106.81830671 110.75976562 111.51757812 C105.61211235 116.32205452 100.5734279 116.11872091 93.89257812 116.12695312 C92.34049149 116.15175751 92.34049149 116.15175751 90.75704956 116.17706299 C87.46622748 116.22547982 84.17586734 116.24690054 80.88476562 116.26757812 C78.6477633 116.29574299 76.41078243 116.32567113 74.17382812 116.35742188 C68.70255764 116.43123695 63.23141673 116.48291652 57.75976562 116.51757812 C58.80777344 117.1440625 59.85578125 117.77054688 60.93554688 118.41601562 C62.31447655 119.24149733 63.69338151 120.06702032 65.07226562 120.89257812 C65.76255859 121.30507813 66.45285156 121.71757813 67.1640625 122.14257812 C67.83115234 122.5421875 68.49824219 122.94179688 69.18554688 123.35351562 C69.79825439 123.72009277 70.41096191 124.08666992 71.04223633 124.46435547 C72.63903678 125.44354483 74.20123448 126.47855736 75.75976562 127.51757812 C75.94726562 130.14257812 75.94726562 130.14257812 75.75976562 132.51757812 C70.66120111 132.00177004 67.08275343 129.48253847 62.88476562 126.76757812 C62.20285156 126.33703125 61.5209375 125.90648437 60.81835938 125.46289062 C57.60143236 123.41631229 54.69908381 121.46256559 51.85913086 118.88793945 C46.55593644 115.11189854 40.41780372 115.86918279 34.16210938 115.95117188 C32.16415753 115.94256263 30.1662055 115.93393187 28.16825962 115.92403507 C24.67784266 115.91375087 21.18762638 115.93656963 17.69726562 115.95507812 C13.52612677 115.97333309 9.35537199 115.98379818 5.18421936 115.96534729 C2.59212527 115.95606759 -0.00011631 115.96522937 -2.59205627 115.99497986 C-13.80049192 115.96092098 -13.80049192 115.96092098 -18.24023438 111.51757812 C-22.07315606 105.9544202 -22.82266775 101.97273124 -22.7578125 95.296875 C-22.76482178 94.4000148 -22.77183105 93.5031546 -22.77905273 92.57911682 C-22.7965765 89.63120034 -22.7850299 86.68425341 -22.77148438 83.73632812 C-22.7741809 81.67801734 -22.77806466 79.6197078 -22.78308105 77.56140137 C-22.7889685 73.2541894 -22.78043729 68.94730994 -22.76171875 64.64013672 C-22.73892986 59.12878702 -22.75205696 53.61821658 -22.77600861 48.10689545 C-22.79048684 43.85856289 -22.78585126 39.610414 -22.77549744 35.36207581 C-22.77283576 33.3303671 -22.77608017 31.29864152 -22.78541565 29.26695251 C-22.7956145 26.42361498 -22.78003346 23.58152617 -22.7578125 20.73828125 C-22.76590942 19.90482681 -22.77400635 19.07137238 -22.78234863 18.21266174 C-22.70009267 12.50964258 -21.7180876 9.10676282 -18.24023438 4.51757812 C-12.42753924 -0.0699457 -7.22235535 -0.05627455 0 0 Z " fill="#11285D" transform="translate(291.240234375,690.482421875)"/>
<path d="M0 0 C0.93783829 -0.00571014 1.87567657 -0.01142029 2.8419342 -0.01730347 C3.86900482 -0.01842133 4.89607544 -0.01953918 5.95426941 -0.02069092 C7.57906975 -0.02813828 7.57906975 -0.02813828 9.23669434 -0.03573608 C12.82769908 -0.05036643 16.41865965 -0.05716118 20.00968933 -0.06268311 C22.50209556 -0.06843383 24.99450177 -0.07419157 27.48690796 -0.07995605 C32.04792072 -0.08912439 36.60892079 -0.0954237 41.16994172 -0.09845281 C47.2094484 -0.10248618 53.24879961 -0.11476168 59.28825378 -0.14080811 C65.76913655 -0.16832863 72.24988584 -0.18120014 78.73082542 -0.18312836 C81.20157163 -0.18615649 83.67231695 -0.19419036 86.14303017 -0.20731354 C89.59979846 -0.22436344 93.0560699 -0.22249607 96.51286316 -0.21600342 C98.04436005 -0.22982559 98.04436005 -0.22982559 99.60679626 -0.243927 C105.71960787 -0.20795187 110.39604172 0.31045322 115.07218933 4.67559814 C119.17343758 10.03876893 119.58370058 13.15678981 119.60466003 19.79351807 C119.61123123 20.68964813 119.61780243 21.5857782 119.62457275 22.50906372 C119.64433211 25.48384683 119.65597546 28.45857935 119.66593933 31.43341064 C119.67001486 32.44886774 119.67409039 33.46432484 119.67828941 34.51055336 C119.69916341 39.88726219 119.71345823 45.26394542 119.7228241 50.64068604 C119.73387913 56.19132655 119.76826495 61.74156513 119.8079958 67.29206371 C119.83416183 71.56180052 119.84251604 75.83144167 119.84610558 80.1012516 C119.85097314 82.14694235 119.86259192 84.19262878 119.88114357 86.2382412 C119.90552983 89.10594705 119.90457059 91.97261494 119.89762878 94.84039307 C119.91684387 96.10235756 119.91684387 96.10235756 119.93644714 97.38981628 C119.8861206 103.11003573 118.69453162 106.42108299 115.42765808 111.14044189 C113.57609558 112.66387939 113.57609558 112.66387939 111.80265808 113.51544189 C110.00613792 114.38043308 108.21106929 115.24873629 106.42765808 116.14044189 C106.64422058 117.30059814 106.64422058 117.30059814 106.86515808 118.48419189 C107.9317007 124.46868105 108.66137445 130.06381624 108.42765808 136.14044189 C106.77765808 136.14044189 105.12765808 136.14044189 103.42765808 136.14044189 C102.43765808 129.21044189 101.44765808 122.28044189 100.42765808 115.14044189 C97.21773132 115.16138916 94.00780457 115.18233643 90.7006073 115.20391846 C80.09556809 115.27019454 69.49051974 115.31437984 58.88532829 115.34769058 C52.45531638 115.36856601 46.02551663 115.39688357 39.59562683 115.44219971 C33.39052876 115.48565794 27.18563478 115.50957933 20.98039627 115.51995087 C18.61289888 115.52734219 16.24541268 115.54177561 13.87800217 115.56336212 C10.56211447 115.59239483 7.24707038 115.59639782 3.93107605 115.59454346 C2.95211868 115.60892456 1.97316132 115.62330566 0.96453857 115.63812256 C-4.72704214 115.60367688 -8.09742634 115.0167005 -12.57234192 111.14044189 C-17.47714022 104.91002243 -17.72220765 99.6002171 -17.73347473 91.89703369 C-17.73843964 91.0801004 -17.74340454 90.26316711 -17.7485199 89.42147827 C-17.76308613 86.72753039 -17.76993415 84.03364139 -17.77546692 81.33966064 C-17.78122279 79.46025085 -17.78698046 77.58084106 -17.79273987 75.70143127 C-17.803234 71.76321134 -17.8090871 67.82501173 -17.81257629 63.88677979 C-17.81805865 58.85316914 -17.8420879 53.8198293 -17.87054825 48.78630352 C-17.88921845 44.90427375 -17.89438255 41.02230867 -17.89591217 37.14023781 C-17.89892916 35.28517997 -17.90692533 33.43012301 -17.92009735 31.57510948 C-17.93725028 28.97387746 -17.93525527 26.37330011 -17.92878723 23.77203369 C-17.93800201 23.01383835 -17.9472168 22.25564301 -17.95671082 21.47447205 C-17.91018621 15.46817121 -16.81433494 9.82573808 -12.85359192 5.08184814 C-12.26577942 4.62680908 -11.67796692 4.17177002 -11.07234192 3.70294189 C-10.19062317 2.99331299 -10.19062317 2.99331299 -9.29109192 2.26934814 C-6.22161415 0.25325934 -3.56515189 0.01300655 0 0 Z " fill="#0463FF" transform="translate(765.5723419189453,351.85955810546875)"/>
<path d="M0 0 C52.14 0 104.28 0 158 0 C158 4.95 158 9.9 158 15 C105.86 15 53.72 15 0 15 C0 10.05 0 5.1 0 0 Z " fill="#E8F6FF" transform="translate(512,542)"/>
<path d="M0 0 C1.20785156 -0.00386719 2.41570312 -0.00773438 3.66015625 -0.01171875 C4.90925781 -0.00011719 6.15835937 0.01148438 7.4453125 0.0234375 C8.68667969 0.01183594 9.92804688 0.00023437 11.20703125 -0.01171875 C18.95331139 0.01302975 25.65489109 0.07646847 31.8125 5.30078125 C32.35132813 5.97238281 32.89015625 6.64398437 33.4453125 7.3359375 C34.27675781 8.33947266 34.27675781 8.33947266 35.125 9.36328125 C39.0157599 14.84189182 39.41740972 19.76284259 38.5703125 26.3984375 C36.6734282 29.05407552 35.42546195 29.97086277 32.5703125 31.3984375 C31.02467252 31.5135142 29.47430151 31.56788756 27.92456055 31.59130859 C26.95983322 31.60737152 25.9951059 31.62343445 25.00114441 31.63998413 C20.58711413 31.68440263 16.17323466 31.7254975 11.7590332 31.74853516 C9.43015554 31.76509924 7.10132881 31.79239492 4.77270508 31.83056641 C1.41721182 31.88529752 -1.93708941 31.90720397 -5.29296875 31.921875 C-6.85257072 31.95587906 -6.85257072 31.95587906 -8.44367981 31.99057007 C-15.70549862 31.96932516 -15.70549862 31.96932516 -19.56323242 28.92822266 C-20.1791626 28.09339355 -20.79509277 27.25856445 -21.4296875 26.3984375 C-21.7596875 26.0684375 -22.0896875 25.7384375 -22.4296875 25.3984375 C-22.95736011 18.93444802 -21.9295627 13.56115839 -17.8828125 8.44140625 C-12.66867489 2.96194747 -7.7371038 0.02400342 0 0 Z " fill="#E7F5FF" transform="translate(429.4296875,593.6015625)"/>
<path d="M0 0 C52.14 0 104.28 0 158 0 C158 1.98 158 3.96 158 6 C105.86 6 53.72 6 0 6 C0 4.02 0 2.04 0 0 Z " fill="#E8F6FF" transform="translate(512,575)"/>
<path d="M0 0 C3.90943422 1.33103305 6.59339363 3.57254203 9.4375 6.5625 C11.6469719 11.42333817 11.66722744 15.74256932 11 21 C9.40290501 24.75317323 7.06353956 27.31940288 4 30 C-1.13852448 31.71284149 -7.06257698 32.17813909 -12.171875 30.12890625 C-16.55888533 27.26985038 -18.53567351 24.08207428 -20 19 C-20.66168956 14.73210235 -20.34010007 11.65500755 -18.3125 7.75 C-12.8190817 1.21728635 -8.38176351 -0.97558231 0 0 Z " fill="#E5F4FF" transform="translate(442,559)"/>
<path d="M0 0 C37.62 0 75.24 0 114 0 C114 1.98 114 3.96 114 6 C76.38 6 38.76 6 0 6 C0 4.02 0 2.04 0 0 Z " fill="#E9F7FF" transform="translate(512,591)"/>
<path d="M0 0 C42.9 0 85.8 0 130 0 C130 1.65 130 3.3 130 5 C87.1 5 44.2 5 0 5 C0 3.35 0 1.7 0 0 Z " fill="#E8F6FF" transform="translate(512,606)"/>
<path d="M0 0 C34.65 0 69.3 0 105 0 C105 1.98 105 3.96 105 6 C70.35 6 35.7 6 0 6 C0 4.02 0 2.04 0 0 Z " fill="#E8F6FE" transform="translate(286,745)"/>
<path d="M0 0 C34.65 0 69.3 0 105 0 C105 1.98 105 3.96 105 6 C70.35 6 35.7 6 0 6 C0 4.02 0 2.04 0 0 Z " fill="#E7F6FF" transform="translate(766,406)"/>
<path d="M0 0 C28.71 0 57.42 0 87 0 C87 2.31 87 4.62 87 7 C58.29 7 29.58 7 0 7 C0 4.69 0 2.38 0 0 Z " fill="#DFEDF7" transform="translate(286,776)"/>
<path d="M0 0 C9.89189376 -0.02312428 19.78378114 -0.04091552 29.67569637 -0.05181217 C34.2684264 -0.05704082 38.861138 -0.06413812 43.45385742 -0.07543945 C47.88233688 -0.086269 52.31079856 -0.09227698 56.73929024 -0.09487724 C58.43265628 -0.09673137 60.12602129 -0.10035175 61.81937981 -0.10573006 C64.18291232 -0.1129414 66.54637045 -0.1139909 68.90991211 -0.11352539 C69.61697296 -0.11712067 70.32403381 -0.12071594 71.05252075 -0.12442017 C75.88594784 -0.11405216 75.88594784 -0.11405216 77 1 C77 2.98 77 4.96 77 7 C51.59 7 26.18 7 0 7 C0 4.69 0 2.38 0 0 Z " fill="#D7E6F2" transform="translate(286,760)"/>
<path d="M0 0 C28.38 0 56.76 0 86 0 C86 1.98 86 3.96 86 6 C57.62 6 29.24 6 0 6 C0 4.02 0 2.04 0 0 Z " fill="#E9F7FF" transform="translate(766,438)"/>
<path d="M0 0 C6 0 6 0 7.65917969 1.14575195 C8.07586914 1.67128662 8.49255859 2.19682129 8.921875 2.73828125 C9.38980469 3.31126953 9.85773438 3.88425781 10.33984375 4.47460938 C11.03787109 5.38436523 11.03787109 5.38436523 11.75 6.3125 C12.23082031 6.90740234 12.71164062 7.50230469 13.20703125 8.11523438 C15.26036208 10.67474843 17.17948798 13.26923198 19 16 C19.33 10.72 19.66 5.44 20 0 C21.98 0 23.96 0 26 0 C26 9.57 26 19.14 26 29 C21 29 21 29 18.71875 27.05859375 C17.9865625 26.19363281 17.254375 25.32867187 16.5 24.4375 C15.72785156 23.53128906 14.95570313 22.62507813 14.16015625 21.69140625 C11.62963935 18.53855608 9.25904663 15.35213371 7 12 C6.67 17.61 6.34 23.22 6 29 C4.02 29 2.04 29 0 29 C0 19.43 0 9.86 0 0 Z " fill="#E6F5FD" transform="translate(411,455)"/>
<path d="M0 0 C25.08 0 50.16 0 76 0 C76 1.98 76 3.96 76 6 C50.92 6 25.84 6 0 6 C0 4.02 0 2.04 0 0 Z " fill="#E8F6FF" transform="translate(766,422)"/>
<path d="M0 0 C7.26 0 14.52 0 22 0 C22 1.65 22 3.3 22 5 C16.72 5 11.44 5 6 5 C6 7.64 6 10.28 6 13 C10.62 13 15.24 13 20 13 C20 14.65 20 16.3 20 18 C15.38 18 10.76 18 6 18 C6 21.63 6 25.26 6 29 C4.02 29 2.04 29 0 29 C0 19.43 0 9.86 0 0 Z " fill="#E8F6FE" transform="translate(449,455)"/>
<path d="M0 0 C8.58 0 17.16 0 26 0 C26 1.65 26 3.3 26 5 C22.7 5 19.4 5 16 5 C16 12.92 16 20.84 16 29 C14.02 29 12.04 29 10 29 C10 21.08 10 13.16 10 5 C6.7 5 3.4 5 0 5 C0 3.35 0 1.7 0 0 Z " fill="#E7F5FE" transform="translate(475,455)"/>
<path d="M0 0 C0.495 2.475 0.495 2.475 1 5 C-3.61905229 7.31218777 -8.24546163 9.60864995 -12.87939453 11.89086914 C-14.45475958 12.66946614 -16.02802712 13.45232215 -17.59912109 14.23950195 C-19.85757395 15.37015507 -22.12312284 16.48528573 -24.390625 17.59765625 C-25.09181458 17.952798 -25.79300415 18.30793976 -26.51544189 18.67384338 C-31.43327536 21.05990083 -31.43327536 21.05990083 -34.1552124 20.77220154 C-35.06838226 20.38996178 -35.06838226 20.38996178 -36 20 C-36.33 19.01 -36.66 18.02 -37 17 C-33.56616927 15.09746602 -30.12727376 13.20426468 -26.6875 11.3125 C-25.73037109 10.78205078 -24.77324219 10.25160156 -23.78710938 9.70507812 C-6.10362347 0 -6.10362347 0 0 0 Z " fill="#99C0FF" transform="translate(401,215)"/>
<path d="M0 0 C2.93701297 1.23845736 3.49021557 2.88555022 4.89233398 5.71313477 C5.39829102 6.71151367 5.90424805 7.70989258 6.42553711 8.73852539 C7.19994141 10.31730469 7.19994141 10.31730469 7.98999023 11.92797852 C9.01681813 13.98292592 10.04671747 16.03634173 11.07983398 18.08813477 C11.57338379 19.07571777 12.06693359 20.06330078 12.57543945 21.08081055 C14.2639592 24.26415869 16.1741826 27.21585542 18.26953125 30.14453125 C19.29489207 32.39827881 18.85880742 33.5811741 18.05249023 35.86547852 C16.27539062 35.70019531 16.27539062 35.70019531 14.05249023 34.86547852 C12.26904297 32.55224609 12.26904297 32.55224609 10.48608398 29.51000977 C9.83575195 28.41237305 9.18541992 27.31473633 8.51538086 26.18383789 C7.84013923 25.01528248 7.16500996 23.84666213 6.48999023 22.67797852 C5.81206155 21.52823607 5.13303611 20.37913957 4.45288086 19.23071289 C-3.94750977 4.94087263 -3.94750977 4.94087263 -3.94750977 0.86547852 C-1.94750977 -0.13452148 -1.94750977 -0.13452148 0 0 Z " fill="#99C0FF" transform="translate(234.947509765625,679.134521484375)"/>
<path d="M0 0 C1.65 0 3.3 0 5 0 C4.39255947 8.8395853 2.99119736 17.4702568 1.4375 26.1875 C1.20076043 27.53443296 0.96442974 28.88143785 0.72851562 30.22851562 C0.15634168 33.486404 -0.41991133 36.74351327 -1 40 C-2.98 40 -4.96 40 -7 40 C-6.16590525 34.94594164 -5.32966784 29.89224421 -4.49145508 24.83886719 C-4.20668774 23.12021445 -3.92250303 21.40146507 -3.63891602 19.68261719 C-3.2308675 17.21002895 -2.82071536 14.73779744 -2.41015625 12.265625 C-2.28407486 11.49881409 -2.15799347 10.73200317 -2.02809143 9.94195557 C-1.46927895 6.58837749 -0.85459701 3.29005769 0 0 Z " fill="#99C0FF" transform="translate(203,449)"/>
<path d="M0 0 C8.49038539 3.46817082 14.36398775 14.70128712 19.625 21.9375 C20.17027344 22.67105713 20.71554687 23.40461426 21.27734375 24.16040039 C21.77621094 24.8589917 22.27507813 25.55758301 22.7890625 26.27734375 C23.23975098 26.89859131 23.69043945 27.51983887 24.15478516 28.15991211 C25.22820447 30.49681602 24.85585904 31.62985326 24 34 C21.62199486 33.613717 20.3008118 33.29973234 18.57128906 31.57641602 C18.14041992 30.97498779 17.70955078 30.37355957 17.265625 29.75390625 C16.77755371 29.08568848 16.28948242 28.4174707 15.78662109 27.72900391 C15.27953613 27.01405762 14.77245117 26.29911133 14.25 25.5625 C13.18611375 24.10197664 12.12100791 22.64234089 11.0546875 21.18359375 C10.27689941 20.11214111 10.27689941 20.11214111 9.48339844 19.01904297 C5.91746225 14.16547282 2.26170607 9.26170607 -2 5 C-1.46428571 1.46428571 -1.46428571 1.46428571 0 0 Z " fill="#99C0FF" transform="translate(795,308)"/>
<path d="M0 0 C2.475 0.495 2.475 0.495 5 1 C4.39586232 4.61636252 3.40432169 7.63070731 1.85546875 10.94921875 C1.21061523 12.34624023 1.21061523 12.34624023 0.55273438 13.77148438 C-0.12305664 15.21491211 -0.12305664 15.21491211 -0.8125 16.6875 C-4.08557211 23.71907782 -7.20024787 30.76525102 -10 38 C-11.65 37.67 -13.3 37.34 -15 37 C-13.02441396 29.82203739 -10.48782345 23.06381518 -7.5 16.25 C-7.10941406 15.34378906 -6.71882812 14.43757813 -6.31640625 13.50390625 C-4.33442763 8.93267611 -2.2867256 4.42686623 0 0 Z " fill="#99C0FF" transform="translate(230,375)"/>
<path d="M0 0 C0.59159912 0.2077002 1.18319824 0.41540039 1.79272461 0.62939453 C1.53541003 3.87609911 0.62597477 4.79129995 -1.76196289 7.10986328 C-2.86087457 8.02176188 -3.9681865 8.92360182 -5.08227539 9.81689453 C-5.95215088 10.53329102 -5.95215088 10.53329102 -6.83959961 11.26416016 C-8.62145822 12.72854164 -10.41332595 14.17986356 -12.20727539 15.62939453 C-13.27553285 16.49981478 -14.3432699 17.37087424 -15.41040039 18.24267578 C-17.25778924 19.75170598 -19.10888817 21.25621553 -20.96508789 22.75439453 C-23.18171458 24.53578356 -23.18171458 24.53578356 -24.87915039 26.38720703 C-25.31743164 26.79712891 -25.75571289 27.20705078 -26.20727539 27.62939453 C-28.33227539 27.50439453 -28.33227539 27.50439453 -30.20727539 26.62939453 C-30.53727539 25.63939453 -30.86727539 24.64939453 -31.20727539 23.62939453 C-28.54976185 21.2855006 -25.8800271 18.95589456 -23.20727539 16.62939453 C-22.39540771 15.92218262 -22.39540771 15.92218262 -21.56713867 15.20068359 C-19.76270105 13.63173783 -17.95413607 12.06765904 -16.14477539 10.50439453 C-15.27925049 9.75077637 -15.27925049 9.75077637 -14.39624023 8.98193359 C-3.32286562 -0.55791505 -3.32286562 -0.55791505 0 0 Z " fill="#99C0FF" transform="translate(332.207275390625,255.37060546875)"/>
<path d="M0 0 C0 0.99 0 1.98 0 3 C-32.9115512 16.35880361 -32.9115512 16.35880361 -39 16 C-39.33 14.35 -39.66 12.7 -40 11 C-39.01080566 10.67201416 -38.02161133 10.34402832 -37.00244141 10.00610352 C-33.33803671 8.79066149 -29.67429076 7.57324444 -26.01074219 6.35522461 C-24.42400775 5.82799101 -22.83709435 5.30129567 -21.25 4.77514648 C-18.9708829 4.01947672 -16.69241301 3.26188366 -14.4140625 2.50390625 C-13.70255035 2.26845596 -12.99103821 2.03300568 -12.25796509 1.79042053 C-4.02552247 -0.95341322 -4.02552247 -0.95341322 0 0 Z " fill="#99C0FF" transform="translate(671,838)"/>
<path d="M0 0 C6.95772286 -0.46587373 13.32901254 1.25836147 20.0625 2.875 C21.22072266 3.14441406 22.37894531 3.41382813 23.57226562 3.69140625 C28.80850179 4.92452333 33.91126479 6.24297742 39 8 C39 9.65 39 11.3 39 13 C32.87843617 12.37160417 27.13231431 11.12827088 21.1875 9.5625 C14.16407578 7.75490601 7.17506444 6.10259018 0 5 C0 3.35 0 1.7 0 0 Z " fill="#99C0FF" transform="translate(594,192)"/>
<path d="M0 0 C-0.34825737 2.75941431 -0.77154315 3.80024715 -2.8984375 5.65991211 C-3.71570313 6.19366455 -4.53296875 6.72741699 -5.375 7.27734375 C-6.27863281 7.87353516 -7.18226563 8.46972656 -8.11328125 9.08398438 C-9.06589844 9.69564453 -10.01851562 10.30730469 -11 10.9375 C-11.92167969 11.54529297 -12.84335937 12.15308594 -13.79296875 12.77929688 C-16.50836066 14.55445083 -19.24427386 16.28821603 -22 18 C-22.84304688 18.52480957 -23.68609375 19.04961914 -24.5546875 19.59033203 C-25.34101562 20.05681152 -26.12734375 20.52329102 -26.9375 21.00390625 C-27.62714844 21.41584229 -28.31679688 21.82777832 -29.02734375 22.25219727 C-31.47547516 23.1802451 -32.62294418 23.06755733 -35 22 C-35.33 21.01 -35.66 20.02 -36 19 C-35.19820312 18.56171875 -34.39640625 18.1234375 -33.5703125 17.671875 C-25.41068451 13.12024578 -17.65416532 8.20312033 -10.04345703 2.77441406 C-9.31497559 2.27006836 -8.58649414 1.76572266 -7.8359375 1.24609375 C-7.19188965 0.78904053 -6.5478418 0.3319873 -5.88427734 -0.13891602 C-3.51815259 -1.2201964 -2.39702001 -0.87203655 0 0 Z " fill="#99C0FF" transform="translate(739,799)"/>
<path d="M0 0 C1.65 0 3.3 0 5 0 C4.6896523 8.80660288 2.13074579 16.81476422 -0.5625 25.125 C-0.99243683 26.47627636 -1.42147995 27.82783741 -1.84960938 29.1796875 C-2.88946975 32.45646726 -3.94132609 35.72924306 -5 39 C-6.98 39 -8.96 39 -11 39 C-10.59136719 37.83597656 -10.18273437 36.67195312 -9.76171875 35.47265625 C-7.45518557 28.55305671 -5.66619525 21.48820693 -3.8125 14.4375 C-3.44101823 13.03313352 -3.06927542 11.62883607 -2.69726562 10.22460938 C-1.79516817 6.81719622 -0.89659987 3.40886443 0 0 Z " fill="#99C0FF" transform="translate(862,605)"/>
<path d="M0 0 C1.65 0 3.3 0 5 0 C5.23187012 0.78648926 5.46374023 1.57297852 5.70263672 2.38330078 C6.75900643 5.96418821 7.81698744 9.54459764 8.875 13.125 C9.23980469 14.3625 9.60460937 15.6 9.98046875 16.875 C10.33496094 18.07382812 10.68945312 19.27265625 11.0546875 20.5078125 C11.37937012 21.60754395 11.70405273 22.70727539 12.03857422 23.84033203 C12.69010809 25.98155887 13.38337151 28.11044961 14.11376953 30.22607422 C14.99869124 32.99590354 15.16968959 35.11527694 15 38 C13.68 38 12.36 38 11 38 C7.7462131 29.69222109 4.67884114 21.3650073 2.125 12.8125 C1.80269409 11.75397827 1.80269409 11.75397827 1.47387695 10.67407227 C0.4119577 7.02775474 -0.25099639 3.80185711 0 0 Z " fill="#99C0FF" transform="translate(204,606)"/>
<path d="M0 0 C4.15799911 0.59169009 7.87201386 1.54089456 11.80859375 2.99609375 C12.88560547 3.38990234 13.96261719 3.78371094 15.07226562 4.18945312 C16.18279297 4.60130859 17.29332031 5.01316406 18.4375 5.4375 C28.11726726 9.03306593 28.11726726 9.03306593 38 12 C38 13.65 38 15.3 38 17 C31.19034562 16.46197306 25.37531394 14.58041416 19 12.1875 C18.05382812 11.84396484 17.10765625 11.50042969 16.1328125 11.14648438 C10.5513244 9.08628136 5.26822443 6.76457532 0 4 C0 2.68 0 1.36 0 0 Z " fill="#99C0FF" transform="translate(401,837)"/>
<path d="M0 0 C1.32 0 2.64 0 4 0 C3.39149398 4.87755604 1.30092835 8.67767969 -1 12.9375 C-1.39501709 13.67734131 -1.79003418 14.41718262 -2.19702148 15.17944336 C-6.09187696 22.36550938 -10.4510695 29.21424315 -15 36 C-16.65 35.67 -18.3 35.34 -20 35 C-18.57314471 31.0904165 -16.72163405 27.76455223 -14.5 24.25 C-12.03042449 20.34138178 -9.64605325 16.4080438 -7.390625 12.37109375 C-6.95169922 11.59411133 -6.51277344 10.81712891 -6.06054688 10.01660156 C-5.19572813 8.47964724 -4.34256332 6.93606943 -3.50195312 5.38574219 C-2.296875 3.26171875 -2.296875 3.26171875 0 0 Z " fill="#99C0FF" transform="translate(836,679)"/>
<path d="M0 0 C0.99 0.33 1.98 0.66 3 1 C1.5688221 9.89374838 -8.74768969 18.00638007 -14.8125 24.25 C-15.45848145 24.9303833 -16.10446289 25.6107666 -16.77001953 26.31176758 C-17.3886084 26.93591553 -18.00719727 27.56006348 -18.64453125 28.203125 C-19.19471924 28.76676758 -19.74490723 29.33041016 -20.31176758 29.91113281 C-22 31 -22 31 -24.1472168 30.86230469 C-24.75863525 30.57774414 -25.37005371 30.29318359 -26 30 C-26.33 29.01 -26.66 28.02 -27 27 C-26.52691406 26.59910156 -26.05382812 26.19820312 -25.56640625 25.78515625 C-17.99558018 19.27690226 -10.98321399 12.32812078 -4.5078125 4.7265625 C-3.06727105 3.07703058 -1.56673075 1.52920426 0 0 Z " fill="#99C0FF" transform="translate(793,744)"/>
<path d="M0 0 C1.32 0 2.64 0 4 0 C4.02953635 4.22915147 4.04697584 8.45827572 4.0625 12.6875 C4.07087891 13.86634766 4.07925781 15.04519531 4.08789062 16.25976562 C4.10970358 24.22149544 3.73348042 32.07229225 3 40 C1.02 40 -0.96 40 -3 40 C-2.8453125 38.8346875 -2.690625 37.669375 -2.53125 36.46875 C-1.67908037 28.81122574 -1.63909604 21.09504088 -1.44775391 13.3984375 C-1.39625612 11.38010221 -1.33885525 9.36192021 -1.28125 7.34375 C-1.25095703 6.14943359 -1.22066406 4.95511719 -1.18945312 3.72460938 C-1 1 -1 1 0 0 Z " fill="#99C0FF" transform="translate(872,527)"/>
<path d="M0 0 C0.99 0.33 1.98 0.66 3 1 C2.40275524 4.05003556 1.49517558 5.9861695 -0.40625 8.43359375 C-0.89899414 9.07683594 -1.39173828 9.72007812 -1.89941406 10.3828125 C-2.42760742 11.06085938 -2.95580078 11.73890625 -3.5 12.4375 C-8.89421272 19.48273754 -14.02025776 26.65613771 -19 34 C-20.65 33.67 -22.3 33.34 -24 33 C-22.43651278 28.28258167 -19.82460233 24.73798565 -16.875 20.8125 C-16.38580078 20.15411133 -15.89660156 19.49572266 -15.39257812 18.81738281 C-4.78071909 4.60581473 -4.78071909 4.60581473 0 0 Z " fill="#99C0FF" transform="translate(274,309)"/>
<path d="M0 0 C3.5805031 0.60755143 5.59210754 2.01875075 8.375 4.3125 C9.24125 5.02535156 10.1075 5.73820312 11 6.47265625 C14.46449362 9.39131169 17.92762659 12.31112993 21.375 15.25 C22.26711182 16.01050659 22.26711182 16.01050659 23.17724609 16.78637695 C26.23985379 19.41848193 29.19032468 22.09343933 32 25 C31.505 26.485 31.505 26.485 31 28 C26.97834867 27.49127829 25.23314617 26.64720929 22.5625 23.625 C17.41329797 18.18099633 11.52583686 13.77957923 5.59619141 9.23242188 C3.37436641 7.51694733 1.18541331 5.76150075 -1 4 C-0.67 2.68 -0.34 1.36 0 0 Z " fill="#99C0FF" transform="translate(737,254)"/>
<path d="M0 0 C0 1.65 0 3.3 0 5 C-13.45662509 7.24946569 -26.35692583 8.42098629 -40 8 C-40.33 6.68 -40.66 5.36 -41 4 C-40.21351074 3.91435791 -39.42702148 3.82871582 -38.61669922 3.74047852 C-35.03593949 3.34956703 -31.45546969 2.95605879 -27.875 2.5625 C-26.6375 2.42779297 -25.4 2.29308594 -24.125 2.15429688 C-22.92617188 2.02216797 -21.72734375 1.89003906 -20.4921875 1.75390625 C-19.39245605 1.63345947 -18.29272461 1.5130127 -17.15966797 1.38891602 C-5.15379357 -0.08885851 -5.15379357 -0.08885851 0 0 Z " fill="#99C0FF" transform="translate(595,859)"/>
<path d="M0 0 C4.41381187 0.56405757 7.88334141 1.67484906 11.87890625 3.6171875 C12.96494141 4.14183594 14.05097656 4.66648438 15.16992188 5.20703125 C16.28947266 5.75746094 17.40902344 6.30789062 18.5625 6.875 C19.68591797 7.41769531 20.80933594 7.96039063 21.96679688 8.51953125 C32.7437211 13.75751343 32.7437211 13.75751343 36 16 C36.3125 18.6875 36.3125 18.6875 36 21 C32.39607829 20.42457727 29.68676665 19.47929531 26.5234375 17.671875 C25.69231445 17.20370361 24.86119141 16.73553223 24.00488281 16.25317383 C23.13702148 15.75712646 22.26916016 15.2610791 21.375 14.75 C14.37280833 10.8152356 7.42581183 7.08273381 0 4 C0 2.68 0 1.36 0 0 Z " fill="#99C0FF" transform="translate(669,215)"/>
<path d="M0 0 C13.07038177 0.67806989 26.02062678 2.37490298 39 4 C39.495 5.98 39.495 5.98 40 8 C26.35692583 8.42098629 13.45662509 7.24946569 0 5 C0 3.35 0 1.7 0 0 Z " fill="#99C0FF" transform="translate(477,859)"/>
<path d="M0 0 C1.65 0 3.3 0 5 0 C6.19388403 26.9576474 6.19388403 26.9576474 6 39 C4.68 39 3.36 39 2 39 C-0.11865386 25.96649546 -0.22520096 13.179453 0 0 Z " fill="#99C0FF" transform="translate(195,528)"/>
<path d="M0 0 C0 1.65 0 3.3 0 5 C-0.67466309 5.13575439 -1.34932617 5.27150879 -2.04443359 5.41137695 C-5.15561809 6.04026737 -8.26529397 6.67634091 -11.375 7.3125 C-12.96634766 7.63250977 -12.96634766 7.63250977 -14.58984375 7.95898438 C-20.43754769 9.1608131 -26.10658065 10.53518666 -31.76806641 12.43823242 C-34.2502055 13.06297559 -36.45045148 13.09572738 -39 13 C-39.33 11.68 -39.66 10.36 -40 9 C-35.80088844 7.87858572 -31.60166677 6.75758499 -27.40234375 5.63696289 C-25.97457921 5.25589098 -24.54684453 4.87470722 -23.11914062 4.4934082 C-21.06388104 3.94452794 -19.00851351 3.39605352 -16.953125 2.84765625 C-15.71723633 2.51773682 -14.48134766 2.18781738 -13.20800781 1.84790039 C-12.14936523 1.56809326 -11.09072266 1.28828613 -10 1 C-9.26362305 0.79818115 -8.52724609 0.5963623 -7.76855469 0.38842773 C-5.17584912 -0.18100829 -2.64285321 -0.06006485 0 0 Z " fill="#99C0FF" transform="translate(477,192)"/>
<path d="M0 0 C1.32 0 2.64 0 4 0 C4 0.66 4 1.32 4 2 C4.99 2.33 5.98 2.66 7 3 C7 3.66 7 4.32 7 5 C6.01 5 5.02 5 4 5 C4 6.65 4 8.3 4 10 C4.99 10 5.98 10 7 10 C7 10.99 7 11.98 7 13 C4.625 13.125 4.625 13.125 2 13 C0 11 0 11 -0.125 7.875 C-0.08375 6.92625 -0.0425 5.9775 0 5 C-0.66 5 -1.32 5 -2 5 C-2 7.64 -2 10.28 -2 13 C-3.62463842 13.05395478 -5.24978541 13.09277195 -6.875 13.125 C-7.77992188 13.14820313 -8.68484375 13.17140625 -9.6171875 13.1953125 C-12 13 -12 13 -14 11 C-14.1953125 8.8359375 -14.1953125 8.8359375 -14.125 6.375 C-14.10695313 5.55773437 -14.08890625 4.74046875 -14.0703125 3.8984375 C-14.04710937 3.27195312 -14.02390625 2.64546875 -14 2 C-12.68 2 -11.36 2 -10 2 C-10 4.64 -10 7.28 -10 10 C-9.01 9.67 -8.02 9.34 -7 9 C-6.67 6.69 -6.34 4.38 -6 2 C-4.35 2 -2.7 2 -1 2 C-0.67 1.34 -0.34 0.68 0 0 Z " fill="#D1E7FF" transform="translate(438,526)"/>
<path d="M0 0 C13.53 0 27.06 0 41 0 C41 1.32 41 2.64 41 4 C27.8 4 14.6 4 1 4 C0.67 2.68 0.34 1.36 0 0 Z " fill="#99C0FF" transform="translate(514,187)"/>
<path d="M0 0 C9.70499801 -1.50594797 15.41938298 3.69906129 23 9 C23.95777344 9.53625 24.91554688 10.0725 25.90234375 10.625 C26.59457031 11.07875 27.28679687 11.5325 28 12 C28.3125 14.6875 28.3125 14.6875 28 17 C22.90143548 16.48419192 19.32298781 13.96496034 15.125 11.25 C14.44308594 10.81945312 13.76117188 10.38890625 13.05859375 9.9453125 C8.59741201 7.10715116 4.23716381 4.16404399 0 1 C0 0.67 0 0.34 0 0 Z " fill="#99C0FF" transform="translate(339,806)"/>
<path d="M0 0 C2.64 0 5.28 0 8 0 C8.33 0.99 8.66 1.98 9 3 C7.35 3 5.7 3 4 3 C4 4.32 4 5.64 4 7 C5.32 7.33 6.64 7.66 8 8 C6.68 8 5.36 8 4 8 C4 9.32 4 10.64 4 12 C5.98 12 7.96 12 10 12 C9.67 10.35 9.34 8.7 9 7 C9.66 6.67 10.32 6.34 11 6 C11 6.66 11 7.32 11 8 C11.99 8.33 12.98 8.66 14 9 C13.625 11.4375 13.625 11.4375 13 14 C9.14854957 15.92572521 4.19956748 15.04883218 0 15 C0 10.05 0 5.1 0 0 Z " fill="#D6EAFF" transform="translate(766,374)"/>
<path d="M0 0 C1.9375 1.5 1.9375 1.5 3 3 C-0.1964086 4.06546953 -2.65747276 4.07427838 -6 4 C-7.00217064 7.58327753 -7.00217064 7.58327753 -6 11 C-3.47266765 11.65555119 -3.47266765 11.65555119 -1 12 C-1 10.35 -1 8.7 -1 7 C0.32 7 1.64 7 3 7 C3 9.31 3 11.62 3 14 C-0.20580406 15.60290203 -3.52182314 15.48117071 -7 15 C-9.5 13.4375 -9.5 13.4375 -11 11 C-11.56288002 7.05983987 -11.60396028 4.94217804 -9.4375 1.5625 C-6.09493717 -0.58016848 -3.89504791 -0.49573337 0 0 Z " fill="#D2E1ED" transform="translate(297,713)"/>
<path d="M0 0 C2.32421875 0.16015625 2.32421875 0.16015625 5 1 C6.58203125 3.43359375 6.58203125 3.43359375 7.8125 6.4375 C8.44091797 7.92056641 8.44091797 7.92056641 9.08203125 9.43359375 C10 12 10 12 10 14 C8.68 14 7.36 14 6 14 C6 13.01 6 12.02 6 11 C3.69 11 1.38 11 -1 11 C-1.33 11.99 -1.66 12.98 -2 14 C-2.99 14 -3.98 14 -5 14 C-4.34580901 8.93001981 -2.1453591 4.58009223 0 0 Z " fill="#CCE4FF" transform="translate(413,525)"/>
<path d="M0 0 C1.91015625 0.23046875 1.91015625 0.23046875 3.91015625 2.23046875 C4.22265625 5.73046875 4.22265625 5.73046875 3.91015625 9.23046875 C0.44091744 11.54329462 -1.0118995 11.65525461 -5.08984375 11.23046875 C-7.02734375 10.16796875 -7.02734375 10.16796875 -8.08984375 8.23046875 C-7.58234025 0.87166801 -7.30478431 0.14583054 0 0 Z " fill="#D8ECFF" transform="translate(796.08984375,377.76953125)"/>
<path d="M0 0 C1.875 1.125 1.875 1.125 3 3 C3.3125 6.0625 3.3125 6.0625 3 9 C1 11 1 11 -2.4375 11.3125 C-6 11 -6 11 -7.9375 9.8125 C-9.38718434 7.33950907 -9.42317323 5.82115488 -9 3 C-6.73529086 -0.64869805 -4.03159541 -0.50394943 0 0 Z " fill="#D7EBFF" transform="translate(469,528)"/>
<path d="M0 0 C1.65 0 3.3 0 5 0 C7.13777332 7.12591106 8.12843079 13.55101395 8 21 C6.35 21 4.7 21 3 21 C2.01 14.07 1.02 7.14 0 0 Z " fill="#99C0FF" transform="translate(866,467)"/>
<path d="M0 0 C1.8125 1.25 1.8125 1.25 3 3 C3 4.32 3 5.64 3 7 C0.36 7 -2.28 7 -5 7 C-5 7.66 -5 8.32 -5 9 C-2.69 9 -0.38 9 2 9 C1.67 9.99 1.34 10.98 1 12 C-5.32597793 12.35807422 -5.32597793 12.35807422 -8 10.9375 C-9.63378851 7.77203476 -8.85267564 5.34979714 -8 2 C-4.76746204 -0.15502531 -3.74849077 -0.46856135 0 0 Z " fill="#B4C4D7" transform="translate(348,716)"/>
<path d="M0 0 C2 2 2 2 2 6 C-0.64 6.33 -3.28 6.66 -6 7 C-3.69 7.33 -1.38 7.66 1 8 C0.67 8.99 0.34 9.98 0 11 C-6.3782235 11.36103152 -6.3782235 11.36103152 -8.9375 9.875 C-10.52225401 7.07837528 -10.45947423 5.1506804 -10 2 C-6.94783427 -1.63912068 -4.35383535 -1.23043173 0 0 Z " fill="#D5E4F0" transform="translate(312,717)"/>
<path d="M0 0 C8.625 -0.25 8.625 -0.25 12 2 C12.29296875 4.3828125 12.29296875 4.3828125 12.1875 7.125 C12.16042969 8.03507813 12.13335937 8.94515625 12.10546875 9.8828125 C12.07066406 10.58148437 12.03585937 11.28015625 12 12 C11.01 12 10.02 12 9 12 C8.67 9.36 8.34 6.72 8 4 C7.01 4 6.02 4 5 4 C4.34 6.64 3.68 9.28 3 12 C2.01 12 1.02 12 0 12 C0 8.04 0 4.08 0 0 Z " fill="#CAD9E8" transform="translate(316,716)"/>
<path d="M0 0 C0.99 0 1.98 0 3 0 C3 1.65 3 3.3 3 5 C3.763125 4.79375 4.52625 4.5875 5.3125 4.375 C8 4 8 4 11 6 C11.29296875 8.1640625 11.29296875 8.1640625 11.1875 10.625 C11.16042969 11.44226563 11.13335937 12.25953125 11.10546875 13.1015625 C11.07066406 13.72804688 11.03585937 14.35453125 11 15 C10.01 15 9.02 15 8 15 C7.67 12.69 7.34 10.38 7 8 C6.01 8 5.02 8 4 8 C3.67 10.31 3.34 12.62 3 15 C2.01 15 1.02 15 0 15 C0 10.05 0 5.1 0 0 Z " fill="#E6F5FF" transform="translate(447,524)"/>
<path d="M0 0 C1.32 0 2.64 0 4 0 C4 0.66 4 1.32 4 2 C4.99 2.33 5.98 2.66 7 3 C7 3.66 7 4.32 7 5 C6.01 5 5.02 5 4 5 C4 6.65 4 8.3 4 10 C4.99 10 5.98 10 7 10 C7 10.99 7 11.98 7 13 C4.625 13.125 4.625 13.125 2 13 C0 11 0 11 -0.125 7.875 C-0.08375 6.92625 -0.0425 5.9775 0 5 C-0.66 5 -1.32 5 -2 5 C-2 7.64 -2 10.28 -2 13 C-2.33 13 -2.66 13 -3 13 C-3 9.37 -3 5.74 -3 2 C-2.34 2 -1.68 2 -1 2 C-0.67 1.34 -0.34 0.68 0 0 Z " fill="#BDDAFF" transform="translate(438,526)"/>
<path d="M0 0 C1.4540625 0.0309375 1.4540625 0.0309375 2.9375 0.0625 C3.2675 1.0525 3.5975 2.0425 3.9375 3.0625 C1.9575 3.0625 -0.0225 3.0625 -2.0625 3.0625 C-2.0625 3.7225 -2.0625 4.3825 -2.0625 5.0625 C0.9075 5.5575 0.9075 5.5575 3.9375 6.0625 C4.5625 7.9375 4.5625 7.9375 4.9375 10.0625 C2.9375 12.0625 2.9375 12.0625 -0.6875 12.1875 C-1.80125 12.14625 -2.915 12.105 -4.0625 12.0625 C-4.3925 11.0725 -4.7225 10.0825 -5.0625 9.0625 C-3.4125 8.7325 -1.7625 8.4025 -0.0625 8.0625 C-2.5375 7.0725 -2.5375 7.0725 -5.0625 6.0625 C-3.98897059 0.08140756 -3.98897059 0.08140756 0 0 Z " fill="#CEDDEB" transform="translate(358.0625,715.9375)"/>
<path d="M0 0 C1.32 0.33 2.64 0.66 4 1 C4.625 3.375 4.625 3.375 5 6 C4 7 3 8 2 9 C2 9.99 2 10.98 2 12 C0.02 12 -1.96 12 -4 12 C-4 9.03 -4 6.06 -4 3 C-2.35 3 -0.7 3 1 3 C0.67 2.01 0.34 1.02 0 0 Z " fill="#8ABAFF" transform="translate(774,374)"/>
<path d="M0 0 C2.31 0 4.62 0 7 0 C7 0.99 7 1.98 7 3 C6.01 3.495 6.01 3.495 5 4 C4.59270772 6.32156597 4.25561323 8.6568787 4 11 C2.68 11 1.36 11 0 11 C0 7.37 0 3.74 0 0 Z " fill="#C6E0FF" transform="translate(474,528)"/>
<path d="M0 0 C2.31 0 4.62 0 7 0 C7 0.66 7 1.32 7 2 C6.01 2.66 5.02 3.32 4 4 C3.26393501 7.56769552 3.26393501 7.56769552 3 11 C2.01 11 1.02 11 0 11 C0 7.37 0 3.74 0 0 Z " fill="#E5F3FC" transform="translate(331,717)"/>
<path d="M0 0 C5.75 0.75 5.75 0.75 8 3 C8 4.32 8 5.64 8 7 C5.03 6.67 2.06 6.34 -1 6 C-0.34 4.68 0.32 3.36 1 2 C0.67 1.34 0.34 0.68 0 0 Z " fill="#A5B5CC" transform="translate(306,716)"/>
<path d="M0 0 C0.33 0.66 0.66 1.32 1 2 C1.99 2.33 2.98 2.66 4 3 C3.67 4.65 3.34 6.3 3 8 C1.68 8.33 0.36 8.66 -1 9 C-1 8.34 -1 7.68 -1 7 C-2.65 7 -4.3 7 -6 7 C-6 6.67 -6 6.34 -6 6 C-4.02 6 -2.04 6 0 6 C-0.2784375 4.7934375 -0.2784375 4.7934375 -0.5625 3.5625 C-0.706875 2.716875 -0.85125 1.87125 -1 1 C-0.67 0.67 -0.34 0.34 0 0 Z " fill="#C8E1FF" transform="translate(776,380)"/>
<path d="M0 0 C0.99 0 1.98 0 3 0 C3 3.63 3 7.26 3 11 C2.01 11 1.02 11 0 11 C0 7.37 0 3.74 0 0 Z " fill="#D4E9FF" transform="translate(782,378)"/>
<path d="M0 0 C2.0625 0.4375 2.0625 0.4375 4 1 C3.67 2.65 3.34 4.3 3 6 C1.35 5.67 -0.3 5.34 -2 5 C-1.125 1.125 -1.125 1.125 0 0 Z " fill="#136DFF" transform="translate(793,380)"/>
<path d="M0 0 C0.99 0.33 1.98 0.66 3 1 C2.67 4.3 2.34 7.6 2 11 C1.34 11 0.68 11 0 11 C0 7.37 0 3.74 0 0 Z " fill="#E6F4FC" transform="translate(317,717)"/>
<path d="M0 0 C2.5625 0.1875 2.5625 0.1875 4.5625 2.1875 C4.5625 3.5075 4.5625 4.8275 4.5625 6.1875 C3.5725 6.1875 2.5825 6.1875 1.5625 6.1875 C1.2325 5.1975 0.9025 4.2075 0.5625 3.1875 C-1.43766466 1.97867904 -1.43766466 1.97867904 -3.4375 1.1875 C-2.4375 0.1875 -2.4375 0.1875 0 0 Z " fill="#E0EEF8" transform="translate(346.4375,716.8125)"/>
<path d="M0 0 C1.98 0.495 1.98 0.495 4 1 C3.67 2.32 3.34 3.64 3 5 C1.68 5 0.36 5 -1 5 C-0.67 3.35 -0.34 1.7 0 0 Z " fill="#116CFF" transform="translate(465,531)"/>
<path d="M0 0 C2.97 0.495 2.97 0.495 6 1 C6 1.99 6 2.98 6 4 C3.69 3.67 1.38 3.34 -1 3 C-0.67 2.01 -0.34 1.02 0 0 Z " fill="#DAE9F4" transform="translate(293,713)"/>
<path d="M0 0 C1.98 0 3.96 0 6 0 C6 0.99 6 1.98 6 3 C4.02 3 2.04 3 0 3 C0 2.01 0 1.02 0 0 Z " fill="#0162FF" transform="translate(770,383)"/>
</svg>
