<?xml version="1.0" encoding="UTF-8"?>
<svg version="1.1" xmlns="http://www.w3.org/2000/svg" width="1080" height="1080">
<path d="M0 0 C0.67059574 -0.00623996 1.34119148 -0.01247993 2.03210831 -0.01890898 C4.26623551 -0.03479059 6.49926427 -0.02225497 8.73339844 -0.00964355 C10.34029779 -0.01506687 11.94719216 -0.02219071 13.55407715 -0.03088379 C17.90948209 -0.04909531 22.26450738 -0.04205868 26.61991882 -0.02936745 C31.18151866 -0.0192285 35.74308636 -0.02863561 40.3046875 -0.03491211 C47.96457749 -0.04218591 55.62431314 -0.03260784 63.28417969 -0.0135498 C72.13546748 0.00821845 80.9863867 0.00116689 89.83766556 -0.02085543 C97.4420957 -0.03901706 105.046415 -0.04156402 112.65085983 -0.03110075 C117.1905191 -0.02487001 121.73000523 -0.02401863 126.26965332 -0.0372467 C130.53796104 -0.04881572 134.80579434 -0.0407605 139.0740509 -0.01766968 C140.63893344 -0.01238817 142.20385602 -0.01388685 143.76872253 -0.02272034 C145.90819987 -0.03368243 148.0461654 -0.01990717 150.18554688 0 C151.3816156 0.0015081 152.57768433 0.0030162 153.80999756 0.00457001 C158.59707459 0.73859664 161.73820069 2.96652421 164.90527344 6.57043457 C166.89205557 9.81202648 167.21624938 12.45140726 167.20629883 16.16296387 C167.2062233 17.10371262 167.20614777 18.04446136 167.20606995 19.01371765 C167.20090866 20.02630142 167.19574738 21.03888519 167.19042969 22.08215332 C167.18830727 23.64060722 167.18830727 23.64060722 167.18614197 25.23054504 C167.18053999 28.55220405 167.16798716 31.8737959 167.15527344 35.19543457 C167.15025869 37.44608464 167.14569574 39.69673576 167.14160156 41.9473877 C167.13056993 47.46759294 167.11382987 52.98775896 167.09277344 58.50793457 C167.87378418 58.64513916 168.65479492 58.78234375 169.45947266 58.92370605 C172.47554512 59.59285694 173.89051406 60.5671662 176.21777344 62.57043457 C176.88035156 63.11828613 177.54292969 63.6661377 178.22558594 64.23059082 C183.07476607 70.14496742 183.53106029 76.71302876 183.47372437 84.03393555 C183.47840434 84.9620928 183.48308431 85.89025006 183.4879061 86.8465333 C183.49982151 89.94019491 183.49041228 93.03341071 183.48095703 96.1270752 C183.48502426 98.35170245 183.49036699 100.57632768 183.49688721 102.8009491 C183.51054853 108.83186242 183.50526695 114.86262155 183.49574995 120.89353752 C183.48814728 127.20922126 183.49520066 133.52489191 183.49990845 139.84057617 C183.50571353 151.12507294 183.49639873 162.40949152 183.48113044 173.69397265 C183.46772805 183.91568605 183.47005639 194.13729723 183.48388672 204.35900879 C183.49995837 216.24272449 183.50590821 228.12637814 183.49704993 240.01010847 C183.49237622 246.29581118 183.49174034 252.58144355 183.50165939 258.86714172 C183.51033405 264.77692984 183.50429777 270.68652517 183.48697662 276.5962925 C183.48301449 278.76343783 183.48414113 280.93059943 183.49076462 283.09773827 C183.49898081 286.05935475 183.48865729 289.02035614 183.47372437 291.98193359 C183.48041653 292.83641917 183.4871087 293.69090474 183.49400365 294.57128382 C183.43166924 300.95931263 182.40863599 306.61814086 178.29589844 311.75012207 C177.65136719 312.2889502 177.00683594 312.82777832 176.34277344 313.38293457 C175.70855469 313.93723145 175.07433594 314.49152832 174.42089844 315.06262207 C167.2786891 319.49654397 159.28638406 318.79294758 151.16932678 318.76863098 C149.74180398 318.77165343 148.3142828 318.77554339 146.88676447 318.78022355 C142.97305227 318.79050012 139.05943172 318.78832261 135.14571202 318.78404295 C130.92136532 318.78157514 126.69704065 318.79059056 122.47270203 318.79808044 C114.2004886 318.81082761 105.92830763 318.81262114 97.65608604 318.81028018 C90.93244253 318.80849699 84.20880888 318.81024668 77.48516655 318.81450462 C76.52814977 318.81509981 75.571133 318.815695 74.58511571 318.81630823 C72.6409303 318.81751998 70.69674489 318.81873411 68.75255948 318.8199506 C50.52161457 318.83082607 32.29068816 318.82866353 14.0597422 318.82256576 C-2.61806982 318.8173958 -19.29582345 318.82865412 -35.97362392 318.84766398 C-53.10035764 318.86703584 -70.22706372 318.87529957 -87.35380846 318.87154073 C-96.96840974 318.86962779 -106.5829613 318.87212527 -116.19755363 318.88625526 C-124.38191406 318.89816167 -132.56619417 318.89958221 -140.75055569 318.8874651 C-144.92572202 318.8815714 -149.10074139 318.88049054 -153.27589798 318.8924675 C-157.09972207 318.90330912 -160.92327618 318.90024358 -164.74708755 318.88620581 C-166.78183477 318.88230026 -168.81659392 318.89311997 -170.85131305 318.90450269 C-179.0068599 318.8562038 -186.23061324 318.33065489 -192.71972656 312.82043457 C-193.26242187 312.38344238 -193.80511719 311.9464502 -194.36425781 311.49621582 C-198.92046097 305.62505782 -199.34396517 299.10515383 -199.28817749 291.98193359 C-199.29285746 291.05377634 -199.29753743 290.12561908 -199.30235922 289.16933584 C-199.31427464 286.07567423 -199.30486541 282.98245843 -199.29541016 279.88879395 C-199.29947738 277.66416669 -199.30482011 275.43954146 -199.31134033 273.21492004 C-199.32500165 267.18400672 -199.31972007 261.15324759 -199.31020308 255.12233162 C-199.30260041 248.80664789 -199.30965378 242.49097723 -199.31436157 236.17529297 C-199.32016666 224.8907962 -199.31085185 213.60637762 -199.29558356 202.32189649 C-199.28218117 192.10018309 -199.28450952 181.87857191 -199.29833984 171.65686035 C-199.3144115 159.77314465 -199.32036133 147.88949101 -199.31150305 136.00576067 C-199.30682934 129.72005796 -199.30619346 123.43442559 -199.31611252 117.14872742 C-199.32478718 111.2389393 -199.31875089 105.32934397 -199.30142975 99.41957664 C-199.29746761 97.25243131 -199.29859426 95.08526971 -199.30521774 92.91813087 C-199.31343394 89.9565144 -199.30311041 86.995513 -199.28817749 84.03393555 C-199.29486966 83.17944997 -199.30156182 82.3249644 -199.30845678 81.44458532 C-199.24612676 75.05700712 -198.24061171 69.36371938 -194.07519531 64.26574707 C-193.42164063 63.72691895 -192.76808594 63.18809082 -192.09472656 62.63293457 C-191.12599609 61.80148926 -191.12599609 61.80148926 -190.13769531 60.95324707 C-185.28455281 57.80847872 -180.61120603 57.25876565 -174.92166138 57.26742554 C-174.24274869 57.26571669 -173.563836 57.26400784 -172.8643502 57.2622472 C-170.60265404 57.2589682 -168.34125841 57.26992947 -166.07958984 57.28088379 C-164.45310981 57.28144825 -162.82662927 57.28113067 -161.20014954 57.27999878 C-156.79357575 57.27942562 -152.38711113 57.29117403 -147.98056269 57.30514669 C-143.37212841 57.31766013 -138.76369156 57.31882504 -134.15524292 57.32119751 C-125.43246589 57.32741047 -116.70973907 57.34381882 -107.98698413 57.36389649 C-98.05475565 57.38626119 -88.12252474 57.39725036 -78.19027734 57.40728736 C-57.76256574 57.42818519 -37.33489931 57.46335762 -16.90722656 57.50793457 C-16.91610901 56.93243866 -16.92499146 56.35694275 -16.93414307 55.76400757 C-17.02279558 49.76175898 -17.08303493 43.75969709 -17.12695312 37.75695801 C-17.14703972 35.51827436 -17.17431436 33.27964299 -17.20898438 31.0411377 C-17.2576312 27.81900108 -17.2802253 24.59755956 -17.29785156 21.37512207 C-17.3184967 20.37802216 -17.33914185 19.38092224 -17.3604126 18.35360718 C-17.36227099 12.5683744 -16.98100083 8.96336073 -12.90722656 4.50793457 C-8.47483251 1.03260375 -5.611767 0.00707578 0 0 Z " fill="#E7F6FE" transform="translate(547.9072265625,370.4920654296875)"/>
<path d="M0 0 C0.67059574 -0.00623996 1.34119148 -0.01247993 2.03210831 -0.01890898 C4.26623551 -0.03479059 6.49926427 -0.02225497 8.73339844 -0.00964355 C10.34029779 -0.01506687 11.94719216 -0.02219071 13.55407715 -0.03088379 C17.90948209 -0.04909531 22.26450738 -0.04205868 26.61991882 -0.02936745 C31.18151866 -0.0192285 35.74308636 -0.02863561 40.3046875 -0.03491211 C47.96457749 -0.04218591 55.62431314 -0.03260784 63.28417969 -0.0135498 C72.13546748 0.00821845 80.9863867 0.00116689 89.83766556 -0.02085543 C97.4420957 -0.03901706 105.046415 -0.04156402 112.65085983 -0.03110075 C117.1905191 -0.02487001 121.73000523 -0.02401863 126.26965332 -0.0372467 C130.53796104 -0.04881572 134.80579434 -0.0407605 139.0740509 -0.01766968 C140.63893344 -0.01238817 142.20385602 -0.01388685 143.76872253 -0.02272034 C145.90819987 -0.03368243 148.0461654 -0.01990717 150.18554688 0 C151.3816156 0.0015081 152.57768433 0.0030162 153.80999756 0.00457001 C158.59707459 0.73859664 161.73820069 2.96652421 164.90527344 6.57043457 C166.89205557 9.81202648 167.21624938 12.45140726 167.20629883 16.16296387 C167.2062233 17.10371262 167.20614777 18.04446136 167.20606995 19.01371765 C167.20090866 20.02630142 167.19574738 21.03888519 167.19042969 22.08215332 C167.18830727 23.64060722 167.18830727 23.64060722 167.18614197 25.23054504 C167.18053999 28.55220405 167.16798716 31.8737959 167.15527344 35.19543457 C167.15025869 37.44608464 167.14569574 39.69673576 167.14160156 41.9473877 C167.13056993 47.46759294 167.11382987 52.98775896 167.09277344 58.50793457 C167.87378418 58.64513916 168.65479492 58.78234375 169.45947266 58.92370605 C172.47554512 59.59285694 173.89051406 60.5671662 176.21777344 62.57043457 C176.88035156 63.11828613 177.54292969 63.6661377 178.22558594 64.23059082 C184.05342012 71.33859779 183.46750031 79.27068057 183.28027344 88.00793457 C183.26673828 89.21191895 183.25320313 90.41590332 183.23925781 91.65637207 C183.20413024 94.60708782 183.15033111 97.55757112 183.09277344 100.50793457 C177.81277344 100.50793457 172.53277344 100.50793457 167.09277344 100.50793457 C167.10848389 101.8094043 167.12419434 103.11087402 167.14038086 104.45178223 C167.19479794 109.29351582 167.22916649 114.13522251 167.25756836 118.97717285 C167.27262812 121.0703181 167.29308015 123.16343193 167.3190918 125.25646973 C167.35559845 128.27005785 167.37252816 131.28322769 167.38574219 134.29699707 C167.40122604 135.22847565 167.4167099 136.15995422 167.43266296 137.11965942 C167.43440256 143.87910892 166.15395737 148.00108924 161.78027344 153.32043457 C158.77646879 155.76539184 156.90826087 156.24173777 153.09277344 156.50793457 C153.09277344 158.81793457 153.09277344 161.12793457 153.09277344 163.50793457 C152.43277344 163.50793457 151.77277344 163.50793457 151.09277344 163.50793457 C150.76277344 161.52793457 150.43277344 159.54793457 150.09277344 157.50793457 C97.62277344 157.50793457 45.15277344 157.50793457 -8.90722656 157.50793457 C-9.23722656 156.51793457 -9.56722656 155.52793457 -9.90722656 154.50793457 C-11.11378906 153.33230957 -11.11378906 153.33230957 -12.34472656 152.13293457 C-24.56598127 139.61360048 -16.90722656 111.74141411 -16.90722656 100.50793457 C-76.96722656 100.50793457 -137.02722656 100.50793457 -198.90722656 100.50793457 C-198.90722656 70.17957636 -198.90722656 70.17957636 -194.07519531 64.26574707 C-193.42164063 63.72691895 -192.76808594 63.18809082 -192.09472656 62.63293457 C-191.12599609 61.80148926 -191.12599609 61.80148926 -190.13769531 60.95324707 C-185.28455281 57.80847872 -180.61120603 57.25876565 -174.92166138 57.26742554 C-174.24274869 57.26571669 -173.563836 57.26400784 -172.8643502 57.2622472 C-170.60265404 57.2589682 -168.34125841 57.26992947 -166.07958984 57.28088379 C-164.45310981 57.28144825 -162.82662927 57.28113067 -161.20014954 57.27999878 C-156.79357575 57.27942562 -152.38711113 57.29117403 -147.98056269 57.30514669 C-143.37212841 57.31766013 -138.76369156 57.31882504 -134.15524292 57.32119751 C-125.43246589 57.32741047 -116.70973907 57.34381882 -107.98698413 57.36389649 C-98.05475565 57.38626119 -88.12252474 57.39725036 -78.19027734 57.40728736 C-57.76256574 57.42818519 -37.33489931 57.46335762 -16.90722656 57.50793457 C-16.91610901 56.93243866 -16.92499146 56.35694275 -16.93414307 55.76400757 C-17.02279558 49.76175898 -17.08303493 43.75969709 -17.12695312 37.75695801 C-17.14703972 35.51827436 -17.17431436 33.27964299 -17.20898438 31.0411377 C-17.2576312 27.81900108 -17.2802253 24.59755956 -17.29785156 21.37512207 C-17.3184967 20.37802216 -17.33914185 19.38092224 -17.3604126 18.35360718 C-17.36227099 12.5683744 -16.98100083 8.96336073 -12.90722656 4.50793457 C-8.47483251 1.03260375 -5.611767 0.00707578 0 0 Z " fill="#0161FD" transform="translate(547.9072265625,370.4920654296875)"/>
<path d="M0 0 C0.67891269 -0.00170885 1.35782538 -0.0034177 2.05731118 -0.00517833 C4.31900734 -0.00845734 6.58040297 0.00250393 8.84207153 0.01345825 C10.46855156 0.01402271 12.09503211 0.01370513 13.72151184 0.01257324 C18.12808563 0.01200008 22.53455024 0.02374849 26.94109869 0.03772116 C31.54953296 0.05023459 36.15796982 0.0513995 40.76641846 0.05377197 C49.48919549 0.05998493 58.21192231 0.07639328 66.93467724 0.09647095 C76.86690573 0.11883566 86.79913663 0.12982482 96.73138404 0.13986182 C117.15910187 0.16075966 137.58675088 0.19743363 158.01443481 0.24050903 C158.01443481 14.10050903 158.01443481 27.96050903 158.01443481 42.24050903 C98.28443481 42.24050903 38.55443481 42.24050903 -22.98556519 42.24050903 C-22.98556519 13.24050903 -22.98556519 13.24050903 -18.98556519 7.24050903 C-13.06815803 1.58038045 -8.10115114 -0.01233052 0 0 Z " fill="#11285D" transform="translate(372.9855651855469,427.7594909667969)"/>
<path d="M0 0 C0.67059574 -0.00623996 1.34119148 -0.01247993 2.03210831 -0.01890898 C4.26623551 -0.03479059 6.49926427 -0.02225497 8.73339844 -0.00964355 C10.34029779 -0.01506687 11.94719216 -0.02219071 13.55407715 -0.03088379 C17.90948209 -0.04909531 22.26450738 -0.04205868 26.61991882 -0.02936745 C31.18151866 -0.0192285 35.74308636 -0.02863561 40.3046875 -0.03491211 C47.96457749 -0.04218591 55.62431314 -0.03260784 63.28417969 -0.0135498 C72.13546748 0.00821845 80.9863867 0.00116689 89.83766556 -0.02085543 C97.4420957 -0.03901706 105.046415 -0.04156402 112.65085983 -0.03110075 C117.1905191 -0.02487001 121.73000523 -0.02401863 126.26965332 -0.0372467 C130.53796104 -0.04881572 134.80579434 -0.0407605 139.0740509 -0.01766968 C140.63893344 -0.01238817 142.20385602 -0.01388685 143.76872253 -0.02272034 C145.90819987 -0.03368243 148.0461654 -0.01990717 150.18554688 0 C151.3816156 0.0015081 152.57768433 0.0030162 153.80999756 0.00457001 C158.59707459 0.73859664 161.73820069 2.96652421 164.90527344 6.57043457 C169.22781198 13.62299746 167.09277344 18.93799343 167.09277344 28.50793457 C106.37277344 28.50793457 45.65277344 28.50793457 -16.90722656 28.50793457 C-16.90722656 10.50793457 -16.90722656 10.50793457 -12.90722656 4.50793457 C-8.56468226 0.89735703 -5.60201556 0.00706348 0 0 Z " fill="#0F265C" transform="translate(547.9072265625,370.4920654296875)"/>
<path d="M0 0 C44.55 0 89.1 0 135 0 C135 6.93 135 13.86 135 21 C90.45 21 45.9 21 0 21 C0 14.07 0 7.14 0 0 Z " fill="#142B60" transform="translate(375,489)"/>
<path d="M0 0 C32.01 0 64.02 0 97 0 C97 6.27 97 12.54 97 19 C64.99 19 32.98 19 0 19 C0 12.73 0 6.46 0 0 Z " fill="#DFF0FF" transform="translate(549,416)"/>
<path d="M0 0 C1.32 0 2.64 0 4 0 C4 21.12 4 42.24 4 64 C8.29 64 12.58 64 17 64 C17.66 62.68 18.32 61.36 19 60 C20.59610611 57.82273331 22.21043904 55.68566449 23.875 53.5625 C24.30941406 53.00240234 24.74382812 52.44230469 25.19140625 51.86523438 C27.76516448 48.55335629 30.37232078 45.26932182 33 42 C37.36778087 43.67926332 41.58165008 45.63305917 45.8125 47.625 C46.50537109 47.94984375 47.19824219 48.2746875 47.91210938 48.609375 C49.60866023 49.40499885 51.30441165 50.20232699 53 51 C53.59425781 50.45472656 54.18851562 49.90945313 54.80078125 49.34765625 C59.27596573 45.27614316 63.79543611 41.30526067 68.5 37.5 C72.0947765 34.5918662 75.58260628 31.61458668 79 28.5 C83.28621542 24.59357582 87.73031614 20.93139907 92.23828125 17.28515625 C96.61706191 13.66197848 100.81306622 9.84180691 105 6 C106.32 6.66 107.64 7.32 109 8 C106.28202769 11.61345275 103.4896234 14.3991616 99.9375 17.1875 C95.99946002 20.34106986 92.20823373 23.57906128 88.5 27 C84.03497583 31.10934657 79.4193052 34.96235486 74.69921875 38.7734375 C71.98412207 41.01309756 69.35986861 43.32637832 66.75 45.6875 C65.9353125 46.42097656 65.120625 47.15445313 64.28125 47.91015625 C62.84280157 49.22791294 61.42304393 50.56665328 60.03125 51.93359375 C59.4434375 52.49175781 58.855625 53.04992187 58.25 53.625 C57.76015625 54.11226562 57.2703125 54.59953125 56.765625 55.1015625 C53.89726352 56.56112697 52.05932785 55.83931679 49 55 C46.28933685 53.79183473 43.71202115 52.38893919 41.125 50.9375 C40.09246094 50.37192383 40.09246094 50.37192383 39.0390625 49.79492188 C37.3550787 48.87106965 35.67692533 47.93660333 34 47 C33.34 48.32 32.68 49.64 32 51 C29.03 54.96 26.06 58.92 23 63 C53.69 63.33 84.38 63.66 116 64 C116 65.65 116 67.3 116 69 C77.72 69 39.44 69 0 69 C0 46.23 0 23.46 0 0 Z " fill="#263C6D" transform="translate(377,590)"/>
<path d="M0 0 C47.52 0 95.04 0 144 0 C144 1.98 144 3.96 144 6 C96.48 6 48.96 6 0 6 C0 4.02 0 2.04 0 0 Z " fill="#DFF0FF" transform="translate(549,471)"/>
<path d="M0 0 C47.52 0 95.04 0 144 0 C144 1.98 144 3.96 144 6 C96.48 6 48.96 6 0 6 C0 4.02 0 2.04 0 0 Z " fill="#D5EAFF" transform="translate(549,452)"/>
<path d="M0 0 C44.55 0 89.1 0 135 0 C135 1.98 135 3.96 135 6 C90.45 6 45.9 6 0 6 C0 4.02 0 2.04 0 0 Z " fill="#0061FF" transform="translate(375,541)"/>
<path d="M0 0 C44.55 0 89.1 0 135 0 C135 1.98 135 3.96 135 6 C90.45 6 45.9 6 0 6 C0 4.02 0 2.04 0 0 Z " fill="#0A67FF" transform="translate(375,524)"/>
<path d="M0 0 C4.42977671 2.1357852 7.19613671 4.39012714 9 9 C9.54711883 13.60491678 9.6141973 17.58734622 7.75 21.875 C2.15515904 28.66873545 2.15515904 28.66873545 -3.26953125 29.23828125 C-9.05034894 29.40699943 -12.51856577 29.04422113 -17 25 C-20.87224199 19.59557593 -20.94243568 14.44870343 -20 8 C-16.00450819 -0.29223101 -8.22696375 -0.96577401 0 0 Z " fill="#E6F5FF" transform="translate(684,410)"/>
<path d="M0 0 C32.01 0 64.02 0 97 0 C97 2.31 97 4.62 97 7 C64.99 7 32.98 7 0 7 C0 4.69 0 2.38 0 0 Z " fill="#1971FF" transform="translate(375,557)"/>
<path d="M0 0 C7.88391039 1.12627291 7.88391039 1.12627291 10.875 4.9375 C11.44992187 5.64777344 12.02484375 6.35804688 12.6171875 7.08984375 C15.23345733 10.7038436 15.11698894 13.09254281 15.09765625 17.5390625 C15.09443359 18.84101563 15.09121094 20.14296875 15.08789062 21.484375 C15.07953466 22.86458399 15.07106971 24.24479232 15.0625 25.625 C15.05748501 27.01301926 15.0529221 28.40104022 15.04882812 29.7890625 C15.03700985 33.19272673 15.0190739 36.5963687 15 40 C10.05 40 5.1 40 0 40 C0 26.8 0 13.6 0 0 Z " fill="#11285D" transform="translate(715,430)"/>
<path d="M0 0 C27.72 0 55.44 0 84 0 C84 1.98 84 3.96 84 6 C56.28 6 28.56 6 0 6 C0 4.02 0 2.04 0 0 Z " fill="#D5EAFF" transform="translate(549,487)"/>
<path d="M0 0 C4.40986252 0.44078829 6.90865755 3.4235829 9.89453125 6.390625 C10.44614426 6.93225281 10.99775726 7.47388062 11.56608582 8.03192139 C12.72727707 9.17794774 13.88444936 10.32805863 15.0378418 11.48193359 C16.80823767 13.2457535 18.60122344 14.98419648 20.39648438 16.72265625 C21.52229863 17.83967093 22.64669771 18.95811413 23.76953125 20.078125 C24.57871758 20.8549765 24.57871758 20.8549765 25.4042511 21.64752197 C26.88208008 23.15332031 26.88208008 23.15332031 29 26 C28.8269043 28.87011719 28.8269043 28.87011719 28 31 C24.48157214 30.41884626 22.83744782 29.20392497 20.35546875 26.68359375 C19.67806641 26.00103516 19.00066406 25.31847656 18.30273438 24.61523438 C17.60470703 23.89658203 16.90667969 23.17792969 16.1875 22.4375 C15.50107422 21.74591797 14.81464844 21.05433594 14.10742188 20.34179688 C10.06385098 16.23701771 6.19359817 12.01887945 2.4387207 7.64868164 C1.33987265 6.38947226 0.18175194 5.18175194 -1 4 C-0.625 1.875 -0.625 1.875 0 0 Z " fill="#99C0FF" transform="translate(280,747)"/>
<path d="M0 0 C4.56596067 0.6133574 8.53032508 1.81215614 12.82421875 3.46875 C13.45229935 3.70911987 14.08037994 3.94948975 14.72749329 4.19714355 C16.71623845 4.95948633 18.70190332 5.72949875 20.6875 6.5 C22.68445047 7.2687429 24.6819965 8.03592101 26.67964172 8.80285645 C28.48490737 9.49691313 30.28875668 10.19465042 32.0925293 10.89257812 C34.04630932 11.63675028 36.01658282 12.33886094 38 13 C38 14.32 38 15.64 38 17 C31.06192698 16.47118346 25.05945053 14.96468916 18.5 12.6875 C17.61441406 12.39166016 16.72882813 12.09582031 15.81640625 11.79101562 C10.05870785 9.83373636 4.51150882 7.56816795 -1 5 C-0.67 3.35 -0.34 1.7 0 0 Z " fill="#99C0FF" transform="translate(406,839)"/>
<path d="M0 0 C4.17770317 0.55539507 7.54226909 1.50377906 11.3359375 3.328125 C12.31820312 3.79863281 13.30046875 4.26914063 14.3125 4.75390625 C15.8284375 5.49447266 15.8284375 5.49447266 17.375 6.25 C18.87933594 6.96736328 18.87933594 6.96736328 20.4140625 7.69921875 C26.18674313 10.48733282 31.6345042 13.49129869 37 17 C36.67 18.32 36.34 19.64 36 21 C32.28712551 20.4023117 29.35612753 19.35095779 26.015625 17.63671875 C25.07976563 17.16169922 24.14390625 16.68667969 23.1796875 16.19726562 C22.21289062 15.69904297 21.24609375 15.20082031 20.25 14.6875 C13.57217815 11.27167649 6.89476697 7.95841569 0 5 C0 3.35 0 1.7 0 0 Z " fill="#99C0FF" transform="translate(673,217)"/>
<path d="M0 0 C1.32 0.66 2.64 1.32 4 2 C3.41038729 5.42314715 2.25538288 7.12308266 -0.11328125 9.62890625 C-4.91194299 14.91270203 -8.9281068 20.70668854 -13.01367188 26.54882812 C-13.60083984 27.36673828 -14.18800781 28.18464844 -14.79296875 29.02734375 C-15.3139917 29.76718506 -15.83501465 30.50702637 -16.37182617 31.26928711 C-18.24089787 33.25606913 -19.30791431 33.73533345 -22 34 C-22.66 33.67 -23.32 33.34 -24 33 C-22.29226862 29.20401015 -19.92544772 25.92209795 -17.5 22.5625 C-17.06365234 21.9550293 -16.62730469 21.34755859 -16.17773438 20.72167969 C-13.01738564 16.34737726 -9.78608534 12.0305266 -6.5 7.75 C-6.07912109 7.20158447 -5.65824219 6.65316895 -5.22460938 6.08813477 C-3.56473317 3.94435439 -1.91943476 1.91943476 0 0 Z " fill="#99C0FF" transform="translate(278,311)"/>
<path d="M0 0 C4.01627878 0.45470619 6.90851351 2.74998804 10.19140625 4.96484375 C10.77792465 5.35821426 11.36444305 5.75158478 11.96873474 6.15687561 C13.83701559 7.41169667 15.69978546 8.67443468 17.5625 9.9375 C18.81930412 10.78373408 20.07646197 11.62944305 21.33398438 12.47460938 C23.63967859 14.02533446 25.94277591 15.57966903 28.24438477 17.13647461 C30.1584806 18.43091011 32.07738289 19.71825526 34 21 C33.67 22.32 33.34 23.64 33 25 C28.02340728 24.4630266 24.55116834 22.14601224 20.4375 19.5 C19.73874756 19.0551123 19.03999512 18.61022461 18.32006836 18.15185547 C0.73019923 6.82387542 0.73019923 6.82387542 -0.87890625 2.8046875 C-0.91886719 2.20914063 -0.95882813 1.61359375 -1 1 C-0.67 0.67 -0.34 0.34 0 0 Z " fill="#99C0FF" transform="translate(338,800)"/>
<path d="M0 0 C1.32 0.66 2.64 1.32 4 2 C3.4234559 5.40013186 2.39002339 6.92670485 -0.125 9.25 C-2.64391031 11.65673212 -4.9962052 14.09335299 -7.25 16.75 C-11.86999205 22.1206086 -16.9531974 27.03533342 -22 32 C-24.475 31.01 -24.475 31.01 -27 30 C-27 29.34 -27 28.68 -27 28 C-25.49609375 26.51953125 -25.49609375 26.51953125 -23.4375 24.8125 C-16.51612817 18.89897705 -10.70320102 12.57253834 -5.015625 5.453125 C-3.41908062 3.51004385 -1.82047747 1.7283014 0 0 Z " fill="#99C0FF" transform="translate(797,746)"/>
<path d="M0 0 C1.87231445 0.29223633 1.87231445 0.29223633 4 1 C5.56803535 3.55143037 6.89326378 6.00203223 8.1875 8.6875 C11.49490082 15.29600316 15.06732075 21.50114165 19.34448242 27.53198242 C22.05391391 31.50088793 22.05391391 31.50088793 21.7421875 34.38671875 C21.49726563 34.91910156 21.25234375 35.45148437 21 36 C19.26171875 35.875 19.26171875 35.875 17 35 C15.41916479 33.01715507 14.12014901 31.15250143 12.8125 29 C12.43174316 28.38785645 12.05098633 27.77571289 11.65869141 27.14501953 C8.59114433 22.13531996 5.69050283 17.02997331 2.875 11.875 C2.4725708 11.153125 2.0701416 10.43125 1.65551758 9.6875 C-1.09360565 4.51727047 -1.09360565 4.51727047 -0.59716797 1.77392578 C-0.40010254 1.18853027 -0.20303711 0.60313477 0 0 Z " fill="#99C0FF" transform="translate(237,681)"/>
<path d="M0 0 C0 1.32 0 2.64 0 4 C-4.26668976 5.12759231 -8.53510509 6.24833501 -12.80517578 7.36303711 C-14.2545499 7.74238942 -15.70345479 8.12353961 -17.15185547 8.5065918 C-19.24583079 9.06003048 -21.34146452 9.6067663 -23.4375 10.15234375 C-25.32275391 10.6472229 -25.32275391 10.6472229 -27.24609375 11.15209961 C-31.17929711 12.0404981 -34.99494021 12.56340191 -39 13 C-39.33 11.35 -39.66 9.7 -40 8 C-36.5432712 7.03581666 -33.08434213 6.07976067 -29.625 5.125 C-28.65949219 4.85558594 -27.69398438 4.58617187 -26.69921875 4.30859375 C-17.77265026 1.85228967 -9.30078148 -0.34447339 0 0 Z " fill="#99C0FF" transform="translate(481,195)"/>
<path d="M0 0 C2.0625 0.4375 2.0625 0.4375 4 1 C3.67989644 3.92012838 3.08004496 4.92444354 0.91015625 6.97265625 C-5.40492906 11.60718388 -11.86631686 15.95707599 -18.5 20.125 C-19.27722412 20.62265869 -20.05444824 21.12031738 -20.85522461 21.63305664 C-21.59393799 22.08672607 -22.33265137 22.54039551 -23.09375 23.0078125 C-23.75052734 23.41660645 -24.40730469 23.82540039 -25.08398438 24.24658203 C-27 25 -27 25 -29.18164062 24.81201172 C-30.08172852 24.41006592 -30.08172852 24.41006592 -31 24 C-31.33 23.01 -31.66 22.02 -32 21 C-30.77990234 20.34257813 -30.77990234 20.34257813 -29.53515625 19.671875 C-13.83717904 11.13187067 -13.83717904 11.13187067 0 0 Z " fill="#99C0FF" transform="translate(739,800)"/>
<path d="M0 0 C0 1.65 0 3.3 0 5 C-8.71500412 8.46403944 -17.43466087 11.90919919 -26.3125 14.9375 C-27.48425781 15.33839844 -28.65601563 15.73929688 -29.86328125 16.15234375 C-32.75671421 16.93425527 -35.02665062 17.18409105 -38 17 C-38.33 15.68 -38.66 14.36 -39 13 C-38.18845459 12.71278076 -37.37690918 12.42556152 -36.54077148 12.12963867 C-33.50040489 11.05236735 -30.4607817 9.97302992 -27.42163086 8.89233398 C-26.11169916 8.42699957 -24.80148301 7.96246501 -23.4909668 7.4987793 C-21.59607678 6.8281687 -19.70232585 6.15434225 -17.80859375 5.48046875 C-16.67220459 5.07723389 -15.53581543 4.67399902 -14.36499023 4.25854492 C-11.95282128 3.35636608 -9.66212713 2.40591272 -7.32446289 1.3449707 C-4 0 -4 0 0 0 Z " fill="#99C0FF" transform="translate(675,839)"/>
<path d="M0 0 C4.14912398 0.56123416 6.94297582 2.98005801 10.125 5.5 C10.69468506 5.9448877 11.26437012 6.38977539 11.85131836 6.84814453 C17.11027342 10.99913856 22.13412138 15.39399335 27 20 C27.75667969 20.69867188 28.51335938 21.39734375 29.29296875 22.1171875 C29.85628906 22.73851562 30.41960938 23.35984375 31 24 C30.75 26.25 30.75 26.25 30 28 C25.5938827 27.55728008 23.12825299 24.56677624 20.125 21.625 C13.446536 15.25498106 6.33681888 9.58786206 -1 4 C-0.67 2.68 -0.34 1.36 0 0 Z " fill="#99C0FF" transform="translate(742,257)"/>
<path d="M0 0 C1.32 0.33 2.64 0.66 4 1 C3.39374873 5.91737138 1.25655948 9.76876257 -1.0625 14.0625 C-1.46299561 14.80822266 -1.86349121 15.55394531 -2.27612305 16.32226562 C-11.99729269 34.16770605 -11.99729269 34.16770605 -16.10546875 35.875 C-18 36 -18 36 -20 35 C-18.40172706 31.62764409 -16.48944522 28.53039057 -14.5 25.375 C-9.33643575 17.10378024 -4.68253101 8.54945723 0 0 Z " fill="#99C0FF" transform="translate(840,681)"/>
<path d="M0 0 C0.59159912 0.21793213 1.18319824 0.43586426 1.79272461 0.66040039 C1.79272461 1.98040039 1.79272461 3.30040039 1.79272461 4.66040039 C-0.25256281 6.527179 -2.22422481 8.11167163 -4.45727539 9.72290039 C-10.5844056 14.30160462 -16.1234321 19.19411279 -21.58618164 24.54321289 C-24.29043595 26.7275733 -25.77098771 27.46068453 -29.20727539 27.66040039 C-29.86727539 27.33040039 -30.52727539 27.00040039 -31.20727539 26.66040039 C-31.20727539 24.66040039 -31.20727539 24.66040039 -29.94946289 23.35571289 C-29.02520508 22.5784082 -29.02520508 22.5784082 -28.08227539 21.78540039 C-27.35911133 21.17051758 -26.63594727 20.55563477 -25.89086914 19.92211914 C-25.0052832 19.17575195 -24.11969727 18.42938477 -23.20727539 17.66040039 C-21.46259849 16.16711486 -19.72098626 14.67029564 -17.97924805 13.17358398 C-15.64253673 11.16651254 -13.30514354 9.16046528 -10.95288086 7.17163086 C-9.7307455 6.1135864 -8.53349159 5.02642866 -7.35620117 3.91870117 C-6.75146973 3.36037598 -6.14673828 2.80205078 -5.52368164 2.22680664 C-4.98300049 1.71190674 -4.44231934 1.19700684 -3.88525391 0.66650391 C-2.20727539 -0.33959961 -2.20727539 -0.33959961 0 0 Z " fill="#99C0FF" transform="translate(336.207275390625,257.339599609375)"/>
<path d="M0 0 C1.32 0 2.64 0 4 0 C3.4305588 5.28177343 1.6354817 9.3117129 -0.6875 14 C-1.41216037 15.4977299 -2.13478545 16.9964461 -2.85546875 18.49609375 C-3.21560059 19.24487793 -3.57573242 19.99366211 -3.94677734 20.76513672 C-6.46257389 26.10347738 -8.72263067 31.55674226 -11 37 C-12.65 37 -14.3 37 -16 37 C-12.8785257 24.05888779 -6.76288958 11.41237617 0 0 Z " fill="#99C0FF" transform="translate(235,378)"/>
<path d="M0 0 C2.25390625 0.0234375 2.25390625 0.0234375 5 1 C6.58420954 3.57014341 7.76831463 5.87294045 8.9375 8.625 C9.27523437 9.38321045 9.61296875 10.1414209 9.9609375 10.92260742 C10.99735765 13.27239678 12.00227766 15.63355041 13 18 C13.31211426 18.72880371 13.62422852 19.45760742 13.94580078 20.20849609 C19 32.0654778 19 32.0654778 19 37 C17.35 37 15.7 37 14 37 C13.71801758 36.28457031 13.43603516 35.56914062 13.14550781 34.83203125 C11.85073091 31.55320227 10.55041132 28.27659818 9.25 25 C8.58484375 23.31197266 8.58484375 23.31197266 7.90625 21.58984375 C5.99039531 16.7720327 4.08694358 12.02911186 1.671875 7.4375 C0 4 0 4 0 0 Z " fill="#99C0FF" transform="translate(841,377)"/>
<path d="M0 0 C13.36319744 0.68161276 26.67534564 1.78641952 40 3 C40 4.65 40 6.3 40 8 C26.76616656 8.60975 12.83679225 7.40856708 0 4 C0 2.68 0 1.36 0 0 Z " fill="#99C0FF" transform="translate(481,862)"/>
<path d="M0 0 C8.55360245 3.64673676 14.32726264 13.56334337 19.625 20.875 C20.17027344 21.61242432 20.71554687 22.34984863 21.27734375 23.10961914 C22.02564453 24.16524048 22.02564453 24.16524048 22.7890625 25.2421875 C23.23975098 25.8697998 23.69043945 26.49741211 24.15478516 27.14404297 C25.2235123 29.49079737 24.85943177 30.62291825 24 33 C21.47179597 32.62430535 20.26085074 32.2757194 18.47949219 30.39282227 C18.00672852 29.70760498 17.53396484 29.0223877 17.046875 28.31640625 C16.51336426 27.5579541 15.97985352 26.79950195 15.43017578 26.01806641 C14.59848877 24.80256104 14.59848877 24.80256104 13.75 23.5625 C12.5987317 21.91370193 11.44509463 20.26655524 10.2890625 18.62109375 C9.45036621 17.42589111 9.45036621 17.42589111 8.59472656 16.20654297 C5.99567338 12.61036375 3.13615869 9.267159 0.1953125 5.9453125 C-1 4 -1 4 -0.6953125 1.7421875 C-0.46585938 1.16726563 -0.23640625 0.59234375 0 0 Z " fill="#99C0FF" transform="translate(799,311)"/>
<path d="M0 0 C7.2443376 -0.40540089 13.6234163 1.10816843 20.625 2.875 C21.73101563 3.14441406 22.83703125 3.41382813 23.9765625 3.69140625 C29.06515507 4.9452061 34.04023515 6.29780503 39 8 C39 9.32 39 10.64 39 12 C30.38189798 11.51330978 22.22279896 9.52959508 13.875 7.4375 C12.52359228 7.10418953 11.17203057 6.77150277 9.8203125 6.43945312 C6.54531352 5.6323998 3.2719987 4.81911651 0 4 C0 2.68 0 1.36 0 0 Z " fill="#99C0FF" transform="translate(598,195)"/>
<path d="M0 0 C1.32 0 2.64 0 4 0 C3.41295293 6.97297378 2.01233573 13.39503698 0.125 20.125 C-0.13152344 21.07503906 -0.38804687 22.02507813 -0.65234375 23.00390625 C-2.08908364 28.20938093 -3.73232318 33.09801598 -6 38 C-7.98 38 -9.96 38 -12 38 C-11.82476807 37.47937988 -11.64953613 36.95875977 -11.46899414 36.42236328 C-9.40293631 30.25730619 -7.40822234 24.07112058 -5.4375 17.875 C-5.13392578 16.92496094 -4.83035156 15.97492187 -4.51757812 14.99609375 C-2.93270411 10.0170342 -1.40139556 5.03386864 0 0 Z " fill="#99C0FF" transform="translate(867,608)"/>
<path d="M0 0 C0 1.32 0 2.64 0 4 C-13.1812092 6.40621385 -25.55225097 8.18706297 -39 8 C-39.33 6.35 -39.66 4.7 -40 3 C-35.58965421 2.56785354 -31.17885222 2.14080122 -26.76757812 1.71826172 C-25.27005019 1.57411982 -23.77265055 1.42863801 -22.27539062 1.28173828 C-20.11100907 1.06962889 -17.94619679 0.86250077 -15.78125 0.65625 C-13.8331543 0.46772461 -13.8331543 0.46772461 -11.84570312 0.27539062 C-7.87000298 -0.00930908 -3.98360433 -0.04650122 0 0 Z " fill="#99C0FF" transform="translate(599,862)"/>
<path d="M0 0 C0 1.32 0 2.64 0 4 C-0.64437012 4.30180176 -1.28874023 4.60360352 -1.95263672 4.91455078 C-4.92935821 6.31257056 -7.90216628 7.71873307 -10.875 9.125 C-11.88820313 9.599375 -12.90140625 10.07375 -13.9453125 10.5625 C-19.8466676 13.36186075 -25.44889639 16.36088366 -30.94580078 19.89404297 C-33 21 -33 21 -36 21 C-36.66 19.35 -37.32 17.7 -38 16 C-34.02189557 14.08112308 -30.04232532 12.16530485 -26.0625 10.25 C-24.38704102 9.44175781 -24.38704102 9.44175781 -22.67773438 8.6171875 C-19.45653525 7.0679891 -16.23009317 5.53055774 -13 4 C-12.11425293 3.57654297 -11.22850586 3.15308594 -10.31591797 2.71679688 C-9.52975098 2.35134766 -8.74358398 1.98589844 -7.93359375 1.609375 C-7.26255615 1.29452148 -6.59151855 0.97966797 -5.90014648 0.65527344 C-4 0 -4 0 0 0 Z " fill="#99C0FF" transform="translate(406,218)"/>
<path d="M0 0 C1.32 0 2.64 0 4 0 C4.19110352 0.67466309 4.38220703 1.34932617 4.57910156 2.04443359 C5.46392147 5.15620997 6.35690969 8.26558762 7.25 11.375 C7.55035156 12.43589844 7.85070312 13.49679687 8.16015625 14.58984375 C9.87032449 20.52085276 11.77213525 26.21166402 14.25683594 31.86572266 C15 34 15 34 15 38 C12.525 38.495 12.525 38.495 10 39 C8.72375314 35.05705474 7.46097102 31.11010681 6.2097168 27.15917969 C5.78357479 25.8198303 5.35397404 24.48157568 4.9206543 23.14453125 C2.43860936 15.47745141 0.28572857 8.10799659 0 0 Z " fill="#99C0FF" transform="translate(209,608)"/>
<path d="M0 0 C0.99 0 1.98 0 3 0 C3.02489563 4.5532187 3.04295187 9.10639693 3.05493164 13.65966797 C3.05993092 15.20557344 3.06673253 16.75147425 3.07543945 18.29736328 C3.08769956 20.53158728 3.09327249 22.76574826 3.09765625 25 C3.10281754 25.68054443 3.10797882 26.36108887 3.11329651 27.06225586 C3.11383862 31.79987721 2.66044355 36.31976335 2 41 C0.02 41 -1.96 41 -4 41 C-3.86722656 39.95585938 -3.73445312 38.91171875 -3.59765625 37.8359375 C-2.3880892 27.89276999 -1.66736833 18.01227095 -1.34204102 7.99951172 C-1.29454712 6.65203857 -1.29454712 6.65203857 -1.24609375 5.27734375 C-1.22216553 4.47546631 -1.1982373 3.67358887 -1.17358398 2.84741211 C-1 1 -1 1 0 0 Z " fill="#99C0FF" transform="translate(877,529)"/>
<path d="M0 0 C1.32 0 2.64 0 4 0 C3.39302355 7.40511264 2.28344598 14.67611712 1.09326172 22.00439453 C0.18454899 27.66048377 -0.53181231 33.28811023 -1 39 C-2.98 39 -4.96 39 -7 39 C-5.28470538 25.82341857 -3.10809308 12.92146312 0 0 Z " fill="#99C0FF" transform="translate(208,452)"/>
<path d="M0 0 C1.32 0 2.64 0 4 0 C4.86776004 3.94415402 5.7215989 7.89105866 6.56347656 11.84082031 C6.85082039 13.17982968 7.14174326 14.51807681 7.43652344 15.85546875 C9.15231779 23.6524118 10.50960329 30.99970024 10 39 C8.35 39 6.7 39 5 39 C4.91959473 38.35562988 4.83918945 37.71125977 4.75634766 37.04736328 C4.3829906 34.0727568 4.00402511 31.09888936 3.625 28.125 C3.49867188 27.11179687 3.37234375 26.09859375 3.2421875 25.0546875 C2.51063886 19.34860811 1.61951644 13.73675785 0.39257812 8.11523438 C-0.11346848 5.38862506 -0.14546876 2.76390649 0 0 Z " fill="#99C0FF" transform="translate(868,451)"/>
<path d="M0 0 C1.32 0 2.64 0 4 0 C4.02505615 0.6077124 4.0501123 1.2154248 4.07592773 1.84155273 C4.60458803 14.56895942 5.19795563 27.28674343 6 40 C4.35 40 2.7 40 1 40 C0.25331277 34.68792752 -0.11933785 29.5957861 -0.09765625 24.21875 C-0.0962413 23.51979614 -0.09482635 22.82084229 -0.09336853 22.10070801 C-0.0878367 19.90042571 -0.07529777 17.70025077 -0.0625 15.5 C-0.05747616 13.99479315 -0.05291482 12.48958468 -0.04882812 10.984375 C-0.03788977 7.32288265 -0.02067359 3.66145183 0 0 Z " fill="#99C0FF" transform="translate(200,530)"/>
<path d="M0 0 C12.87 0 25.74 0 39 0 C39.495 1.98 39.495 1.98 40 4 C26.8 4 13.6 4 0 4 C0 2.68 0 1.36 0 0 Z " fill="#99C0FF" transform="translate(520,190)"/>
<path d="M0 0 C3.625 0.375 3.625 0.375 6.125 2 C7.625 4.375 7.625 4.375 7.5625 7.4375 C6.17211802 11.79403019 6.17211802 11.79403019 3.625 13.375 C0.00918138 13.91352618 -1.71611489 13.79736225 -4.8125 11.8125 C-6.375 9.375 -6.375 9.375 -6.25 5.75 C-5.09824284 1.3075081 -4.60142226 0.51126914 0 0 Z " fill="#DFEDF7" transform="translate(381.375,443.625)"/>
<path d="M0 0 C1.9375 1.0625 1.9375 1.0625 3 3 C3.4375 6.5 3.4375 6.5 3 10 C1.4375 12 1.4375 12 -1 13 C-7.32727273 12.67272727 -7.32727273 12.67272727 -10 10 C-10.54587156 3.99541284 -10.54587156 3.99541284 -8.9375 1.0625 C-5.88023824 -0.6140629 -3.4093712 -0.36528977 0 0 Z " fill="#E2F1FA" transform="translate(437,444)"/>
<path d="M0 0 C3.5625 0.3125 3.5625 0.3125 5.5 1.375 C7.19585287 4.46743758 6.99310657 6.86764741 6.5625 10.3125 C5 12.3125 5 12.3125 2.5625 13.3125 C-1.0625 13.1875 -1.0625 13.1875 -4.4375 12.3125 C-6.4375 9.3125 -6.4375 9.3125 -6.1875 5.75 C-5.19120735 1.18365869 -4.69283396 0.42662127 0 0 Z " fill="#E3F2FB" transform="translate(407.4375,443.6875)"/>
<path d="M0 0 C2.25 1.25 2.25 1.25 3.25 2.25 C3.4375 5.1875 3.4375 5.1875 3.25 8.25 C1.25 10.25 1.25 10.25 -2.25 10.5 C-5.75 10.25 -5.75 10.25 -7.75 8.25 C-8.1875 5.3125 -8.1875 5.3125 -7.75 2.25 C-4.93014202 -0.32815587 -3.73790549 -1.01942877 0 0 Z " fill="#F5F6F8" transform="translate(689.75,379.75)"/>
<path d="M0 0 C3.96 0 7.92 0 12 0 C12 0.99 12 1.98 12 3 C8.04 3 4.08 3 0 3 C0 2.01 0 1.02 0 0 Z " fill="#418BFF" transform="translate(657,654)"/>
<path d="M0 0 C3.96 0 7.92 0 12 0 C12 0.99 12 1.98 12 3 C8.04 3 4.08 3 0 3 C0 2.01 0 1.02 0 0 Z " fill="#418BFF" transform="translate(634,654)"/>
<path d="M0 0 C3.96 0 7.92 0 12 0 C12 0.99 12 1.98 12 3 C8.04 3 4.08 3 0 3 C0 2.01 0 1.02 0 0 Z " fill="#418BFF" transform="translate(611,654)"/>
<path d="M0 0 C3.96 0 7.92 0 12 0 C12 0.99 12 1.98 12 3 C8.04 3 4.08 3 0 3 C0 2.01 0 1.02 0 0 Z " fill="#418BFF" transform="translate(588,654)"/>
<path d="M0 0 C3.96 0 7.92 0 12 0 C12 0.99 12 1.98 12 3 C8.04 3 4.08 3 0 3 C0 2.01 0 1.02 0 0 Z " fill="#418BFF" transform="translate(565,654)"/>
<path d="M0 0 C3.96 0 7.92 0 12 0 C12 0.99 12 1.98 12 3 C8.04 3 4.08 3 0 3 C0 2.01 0 1.02 0 0 Z " fill="#3D88FF" transform="translate(680,654)"/>
<path d="M0 0 C3.63 0.33 7.26 0.66 11 1 C11 1.99 11 2.98 11 4 C2.42857143 4.28571429 2.42857143 4.28571429 -1 2 C-0.67 1.34 -0.34 0.68 0 0 Z " fill="#3281FF" transform="translate(543,653)"/>
<path d="M0 0 C0.66 0.33 1.32 0.66 2 1 C-0.64 3.64 -3.28 6.28 -6 9 C-6.33 8.34 -6.66 7.68 -7 7 C-2.25 1.125 -2.25 1.125 0 0 Z " fill="#0B317D" transform="translate(539,372)"/>
</svg>
