<?xml version="1.0" encoding="UTF-8"?>
<svg version="1.1" xmlns="http://www.w3.org/2000/svg" width="1080" height="1080">
<path d="M0 0 C10.47067012 2.5716245 19.77852039 0.22887078 30.16845703 -1.89916992 C66.09895738 -8.91067229 102.73134959 -8.36254343 138.60595703 -1.02416992 C139.57001465 -0.83121338 140.53407227 -0.63825684 141.52734375 -0.43945312 C145.24214049 0.3857956 148.14436194 1.15573 151.34814453 3.24536133 C153.31658715 6.50941731 153.12079894 9.01259855 152.98095703 12.78833008 C152.94486328 14.05161133 152.90876953 15.31489258 152.87158203 16.61645508 C152.82517578 17.58067383 152.77876953 18.54489258 152.73095703 19.53833008 C153.34616211 19.51738281 153.96136719 19.49643555 154.59521484 19.47485352 C157.39029512 19.39155991 160.18511418 19.33962995 162.98095703 19.28833008 C164.43308594 19.23805664 164.43308594 19.23805664 165.91455078 19.18676758 C173.10878769 19.08753672 173.10878769 19.08753672 176.34033203 21.42895508 C178.92916951 25.35584339 178.87678908 28.44443921 178.87139893 33.03425598 C178.87585561 34.20759059 178.87585561 34.20759059 178.88040233 35.40462893 C178.88911188 38.04010835 178.89059947 40.67554246 178.89208984 43.31103516 C178.89671643 45.19482013 178.90174087 47.07860416 178.90713501 48.96238708 C178.92027659 54.09053964 178.92670742 59.21867909 178.93114567 64.34684587 C178.93407363 67.54867814 178.93817792 70.7505068 178.94264984 73.95233727 C178.95632955 83.96417405 178.96599382 93.97600262 178.96985173 103.9878481 C178.97433345 115.55602326 178.99188469 127.12408032 179.02085233 138.69221956 C179.04244994 147.62644914 179.05255499 156.56064546 179.05389285 165.49490088 C179.05494228 170.83437775 179.06087933 176.17374368 179.07871246 181.51319313 C179.09515989 186.53562166 179.09736485 191.55785546 179.08857346 196.58030128 C179.08780129 198.42458619 179.09216939 200.26888141 179.10203171 202.11314011 C179.11469967 204.62947791 179.1089027 207.14512066 179.09844971 209.66145325 C179.11053431 210.75815369 179.11053431 210.75815369 179.12286305 211.87700969 C179.0802163 216.26172899 178.42971751 219.05090786 175.73095703 222.53833008 C173.14875241 223.82943239 171.29771155 223.66731081 168.4047718 223.67255116 C167.26766955 223.677009 166.13056729 223.68146684 164.95900738 223.68605977 C163.6991124 223.68587541 162.43921742 223.68569105 161.1411438 223.6855011 C159.79758245 223.68879891 158.4540221 223.6925243 157.11046302 223.69664258 C153.40578961 223.70667994 149.70113241 223.71038214 145.99644732 223.71303189 C142.00590495 223.71692973 138.01537547 223.72650833 134.02484131 223.73524475 C124.38226903 223.75502252 114.73969568 223.76507643 105.09710819 223.77397254 C100.55994556 223.77835275 96.0227841 223.7837202 91.48562241 223.78896141 C76.40994318 223.80597399 61.3342647 223.82046964 46.25857735 223.82771015 C42.34491093 223.82962014 38.43124452 223.83154046 34.51757812 223.83349609 C33.54481795 223.83397983 32.57205778 223.83446357 31.56982003 223.83496197 C15.80075515 223.84326782 0.03176599 223.86861394 -15.73726581 223.90107677 C-31.91460751 223.93410963 -48.09191066 223.95215544 -64.26928627 223.95535439 C-73.35736607 223.95752285 -82.44533541 223.96632057 -91.53338242 223.99181557 C-99.27076368 224.013471 -107.00800766 224.02159848 -114.74541579 224.01184878 C-118.6953023 224.0072892 -122.64490524 224.00928585 -126.59475327 224.02861023 C-130.2083046 224.04613717 -133.82136333 224.04533051 -137.43491913 224.02971294 C-139.36650358 224.0261846 -141.29809257 224.04244097 -143.22960651 224.05931741 C-144.37192426 224.05073652 -145.51424202 224.04215562 -146.69117546 224.0333147 C-147.67888306 224.03429151 -148.66659065 224.03526832 -149.68422878 224.03627473 C-152.99549557 223.39838455 -154.16300777 222.11153411 -156.26904297 219.53833008 C-157.78426976 216.50787649 -157.41338898 213.36683449 -157.40948486 210.04240417 C-157.41245599 209.2601811 -157.41542711 208.47795803 -157.41848826 207.67203122 C-157.42719782 205.03655181 -157.42868541 202.40111769 -157.43017578 199.765625 C-157.43480237 197.88184003 -157.43982681 195.998056 -157.44522095 194.11427307 C-157.45836252 188.98612052 -157.46479335 183.85798106 -157.46923161 178.72981429 C-157.47215957 175.52798202 -157.47626385 172.32615335 -157.48073578 169.12432289 C-157.49441549 159.11248611 -157.50407976 149.10065754 -157.50793767 139.08881205 C-157.51241939 127.5206369 -157.52997063 115.95257984 -157.55893826 104.3844406 C-157.58053588 95.45021101 -157.59064093 86.5160147 -157.59197879 77.58175927 C-157.59302822 72.2422824 -157.59896527 66.90291648 -157.6167984 61.56346703 C-157.63324583 56.54103849 -157.63545079 51.51880469 -157.62665939 46.49635887 C-157.62588722 44.65207397 -157.63025533 42.80777874 -157.64011765 40.96352005 C-157.65278561 38.44718225 -157.64698863 35.9315395 -157.63653564 33.41520691 C-157.64459205 32.68407328 -157.65264845 31.95293966 -157.66094899 31.19965047 C-157.61830224 26.81493117 -156.96780345 24.0257523 -154.26904297 20.53833008 C-151.81629156 19.31195437 -150.21846486 19.42417693 -147.47998047 19.44067383 C-146.53896484 19.44389648 -145.59794922 19.44711914 -144.62841797 19.45043945 C-143.15115234 19.46300781 -143.15115234 19.46300781 -141.64404297 19.47583008 C-140.65146484 19.4803418 -139.65888672 19.48485352 -138.63623047 19.48950195 C-136.18044137 19.50130863 -133.72477193 19.51777608 -131.26904297 19.53833008 C-131.31544922 18.57411133 -131.36185547 17.60989258 -131.40966797 16.61645508 C-131.46380859 14.7215332 -131.46380859 14.7215332 -131.51904297 12.78833008 C-131.56544922 11.53536133 -131.61185547 10.28239258 -131.65966797 8.99145508 C-131.26904297 5.53833008 -131.26904297 5.53833008 -129.88623047 3.24536133 C-125.90514276 0.64874143 -121.76690039 -0.09890304 -117.14404297 -1.02416992 C-116.12197754 -1.23323975 -115.09991211 -1.44230957 -114.046875 -1.65771484 C-76.78686057 -8.98240561 -36.92215215 -9.48933817 0 0 Z " fill="#E7F5FD" transform="translate(529.26904296875,431.461669921875)"/>
<path d="M0 0 C0.94101562 0.00322266 1.88203125 0.00644531 2.8515625 0.00976562 C3.83640625 0.01814453 4.82125 0.02652344 5.8359375 0.03515625 C6.82851563 0.03966797 7.82109375 0.04417969 8.84375 0.04882812 C11.2995391 0.0606348 13.75520854 0.07710225 16.2109375 0.09765625 C16.21240406 1.00102596 16.21387062 1.90439568 16.21538162 2.83514023 C16.25240954 24.80120656 16.3113708 46.76711809 16.39484024 68.73305893 C16.43467455 79.35557056 16.4670447 89.97800764 16.48193359 100.60058594 C16.49492737 109.85764333 16.52183371 119.11453698 16.56555057 128.37150216 C16.58821665 133.27446774 16.60384511 138.17723098 16.60282135 143.0802536 C16.60207777 147.69321425 16.6199065 152.30572673 16.65210533 156.91857147 C16.6606383 158.61328082 16.66233133 160.30804024 16.65674019 162.00276184 C16.65012947 164.31403478 16.66794808 166.62386951 16.69195557 168.93499756 C16.69564274 170.22919491 16.69932991 171.52339226 16.70312881 172.85680771 C16.96261672 176.16428693 16.96261672 176.16428693 19.04561996 178.55167007 C21.19713719 180.41846478 21.19713719 180.41846478 24.375 179.99609375 C27.93419776 179.16247309 31.48206098 178.30556729 35.01928711 177.38354492 C66.02710413 169.39931961 97.870205 168.70214857 129.2109375 175.09765625 C130.09861816 175.27377441 130.98629883 175.44989258 131.90087891 175.63134766 C145.42259389 178.3418334 145.42259389 178.3418334 151.4296875 180.7265625 C157.33416068 183.01534682 162.4321079 181.8155378 168.26953125 179.703125 C177.63717031 176.51668284 187.51399554 174.96506454 197.2109375 173.09765625 C198.479375 172.845 199.7478125 172.59234375 201.0546875 172.33203125 C227.56971455 167.91286007 259.27127483 170.02517679 284.72363281 178.61010742 C289.24395272 180.09753857 292.58886566 180.30615335 297.2109375 179.09765625 C299.68739042 175.38297687 299.47045367 173.49428626 299.4894104 169.05525208 C299.498099 167.97334934 299.498099 167.97334934 299.50696313 166.86958998 C299.52400274 164.44662505 299.526843 162.02385014 299.52978516 159.60083008 C299.53908061 157.8664147 299.54924871 156.13200381 299.56022644 154.39759827 C299.5875837 149.68305978 299.60269278 144.96855127 299.61565447 140.25395417 C299.63126 135.32915438 299.6580584 130.40441604 299.6836853 125.47966003 C299.73051883 116.15121721 299.76724078 106.82276289 299.80035818 97.4942624 C299.83854729 86.87525175 299.88796583 76.25630274 299.93834233 65.637344 C300.0417302 43.7908269 300.13096827 21.9442708 300.2109375 0.09765625 C303.62731703 -0.01866888 307.04318647 -0.08963272 310.4609375 -0.15234375 C311.91306641 -0.20261719 311.91306641 -0.20261719 313.39453125 -0.25390625 C320.58876816 -0.3531371 320.58876816 -0.3531371 323.8203125 1.98828125 C326.40914998 5.91516956 326.35676955 9.00376538 326.35137939 13.59358215 C326.35583608 14.76691676 326.35583608 14.76691676 326.3603828 15.9639551 C326.36909235 18.59943452 326.37057994 21.23486864 326.37207031 23.87036133 C326.3766969 25.7541463 326.38172134 27.63793033 326.38711548 29.52171326 C326.40025705 34.64986581 326.40668789 39.77800527 326.41112614 44.90617204 C326.4140541 48.10800431 326.41815838 51.30983297 326.42263031 54.51166344 C326.43631002 64.52350022 326.44597429 74.53532879 326.4498322 84.54717427 C326.45431392 96.11534943 326.47186516 107.68340649 326.5008328 119.25154573 C326.52243041 128.18577531 326.53253546 137.11997163 326.53387332 146.05422705 C326.53492275 151.39370392 326.5408598 156.73306985 326.55869293 162.0725193 C326.57514036 167.09494784 326.57734532 172.11718163 326.56855392 177.13962746 C326.56778176 178.98391236 326.57214986 180.82820758 326.58201218 182.67246628 C326.59468014 185.18880408 326.58888317 187.70444683 326.57843018 190.22077942 C326.59051478 191.31747986 326.59051478 191.31747986 326.60284352 192.43633586 C326.56019677 196.82105516 325.90969798 199.61023403 323.2109375 203.09765625 C320.62873288 204.38875856 318.77769202 204.22663698 315.88475227 204.23187733 C314.74765001 204.23633517 313.61054775 204.24079301 312.43898785 204.24538594 C311.17909287 204.24520158 309.91919789 204.24501722 308.62112427 204.24482727 C307.27756292 204.24812508 305.93400257 204.25185047 304.59044349 204.25596875 C300.88577008 204.26600612 297.18111288 204.26970832 293.47642779 204.27235806 C289.48588542 204.2762559 285.49535594 204.2858345 281.50482178 204.29457092 C271.8622495 204.31434869 262.21967615 204.3244026 252.57708865 204.33329871 C248.03992603 204.33767893 243.50276457 204.34304637 238.96560287 204.34828758 C223.88992365 204.36530016 208.81424517 204.37979581 193.73855782 204.38703632 C189.8248914 204.38894632 185.91122499 204.39086664 181.99755859 204.39282227 C181.02479842 204.39330601 180.05203825 204.39378975 179.0498005 204.39428815 C163.28073562 204.40259399 147.51174645 204.42794011 131.74271466 204.46040294 C115.56537296 204.49343581 99.3880698 204.51148161 83.21069419 204.51468056 C74.12261439 204.51684902 65.03464506 204.52564674 55.94659805 204.55114174 C48.20921679 204.57279717 40.47197281 204.58092465 32.73456468 204.57117496 C28.78467817 204.56661537 24.83507522 204.56861202 20.8852272 204.5879364 C17.27167587 204.60546334 13.65861714 204.60465668 10.04506133 204.58903911 C8.11347689 204.58551077 6.1818879 204.60176714 4.25037396 204.61864358 C3.10805621 204.61006269 1.96573845 204.6014818 0.78880501 204.59264088 C-0.19890259 204.59361769 -1.18661018 204.59459449 -2.20424831 204.5956009 C-5.5155151 203.95771072 -6.6830273 202.67086028 -8.7890625 200.09765625 C-10.3042893 197.06720266 -9.93340851 193.92616066 -9.92950439 190.60173035 C-9.93247552 189.81950727 -9.93544664 189.0372842 -9.9385078 188.2313574 C-9.94721735 185.59587798 -9.94870494 182.96044386 -9.95019531 180.32495117 C-9.9548219 178.4411662 -9.95984634 176.55738217 -9.96524048 174.67359924 C-9.97838205 169.54544669 -9.98481289 164.41730723 -9.98925114 159.28914046 C-9.9921791 156.08730819 -9.99628338 152.88547953 -10.00075531 149.68364906 C-10.01443502 139.67181228 -10.02409929 129.65998371 -10.0279572 119.64813823 C-10.03243892 108.07996307 -10.04999016 96.51190601 -10.0789578 84.94376677 C-10.10055541 76.00953719 -10.11066046 67.07534087 -10.11199832 58.14108545 C-10.11304775 52.80160858 -10.1189848 47.46224265 -10.13681793 42.1227932 C-10.15326536 37.10036466 -10.15547032 32.07813087 -10.14667892 27.05568504 C-10.14590676 25.21140014 -10.15027486 23.36710492 -10.16013718 21.52284622 C-10.17280514 19.00650842 -10.16700817 16.49086567 -10.15655518 13.97453308 C-10.16461158 13.24339945 -10.17266798 12.51226583 -10.18096852 11.75897664 C-10.13832177 7.37425734 -9.48782298 4.58507847 -6.7890625 1.09765625 C-4.33631109 -0.12871945 -2.7384844 -0.01649689 0 0 Z " fill="#0E265C" transform="translate(381.7890625,450.90234375)"/>
<path d="M0 0 C4.14538318 0.46192462 7.14932602 2.00291476 10.734375 4.0703125 C11.85481201 4.71274902 12.97524902 5.35518555 14.12963867 6.01708984 C15.33665979 6.71932449 16.54344169 7.42197046 17.75 8.125 C18.99111637 8.84226417 20.23241096 9.55922005 21.47387695 10.27587891 C25.3239433 12.50360778 29.16330088 14.74934513 33 17 C33.62187195 17.36440186 34.2437439 17.72880371 34.88446045 18.10424805 C38.99377826 20.51401067 43.09327749 22.93967449 47.1875 25.375 C48.26161133 26.01066895 49.33572266 26.64633789 50.44238281 27.30126953 C51.42432617 27.89020996 52.40626953 28.47915039 53.41796875 29.0859375 C54.28188232 29.6020459 55.1457959 30.1181543 56.03588867 30.64990234 C58 32 58 32 59 34 C59.09160337 36.06292985 59.1175118 38.12888885 59.11352539 40.19384766 C59.11344986 41.49504547 59.11337433 42.79624329 59.11329651 44.13687134 C59.10818947 45.56260211 59.10297347 46.9883325 59.09765625 48.4140625 C59.09579147 49.86851961 59.09436785 51.32297734 59.09336853 52.7774353 C59.08954805 56.60792776 59.07972176 60.43838237 59.06866455 64.26885986 C59.05844035 68.17663053 59.05386874 72.08440731 59.04882812 75.9921875 C59.03809908 83.6614756 59.02102828 91.3307325 59 99 C54.24368318 100.16638843 52.48791623 99.60138927 48.23046875 97.08984375 C46.54232056 96.10890747 46.54232056 96.10890747 44.82006836 95.1081543 C43.6089909 94.3849734 42.39813966 93.66141355 41.1875 92.9375 C39.94289561 92.20679836 38.6975249 91.47740054 37.45141602 90.74926758 C34.89364281 89.25212926 32.34072055 87.74716325 29.79101562 86.23632812 C26.18416587 84.10264026 22.55626704 82.00832316 18.921875 79.921875 C16.76029267 78.67729867 14.59882846 77.43251716 12.4375 76.1875 C11.42776123 75.60798584 10.41802246 75.02847168 9.37768555 74.43139648 C7.98223511 73.62037476 7.98223511 73.62037476 6.55859375 72.79296875 C5.74704834 72.3239917 4.93550293 71.85501465 4.09936523 71.37182617 C1.97191301 69.98164661 0.54732159 69.01688995 -1 67 C-1.36749268 64.14035034 -1.36749268 64.14035034 -1.35644531 60.61669922 C-1.35944641 59.29878387 -1.36244751 57.98086853 -1.36553955 56.62301636 C-1.3535356 55.18356943 -1.3410527 53.74412643 -1.328125 52.3046875 C-1.32506749 50.83163648 -1.32319131 49.35858257 -1.32244873 47.88552856 C-1.31784718 44.80036333 -1.30342491 41.71545934 -1.28125 38.63037109 C-1.25291806 34.66777254 -1.24203347 30.70537936 -1.2375679 26.74268913 C-1.23342016 23.70246307 -1.22360894 20.66227888 -1.21169281 17.62207413 C-1.20598051 16.16037457 -1.201225 14.69867096 -1.19742584 13.23696518 C-1.19058362 11.19945627 -1.17605724 9.16197746 -1.16113281 7.12451172 C-1.15430481 5.96329803 -1.14747681 4.80208435 -1.14044189 3.60568237 C-1 1 -1 1 0 0 Z " fill="#0061FF" transform="translate(686,762)"/>
<path d="M0 0 C1.79387158 1.79387158 1.16503671 4.48586611 1.19287109 6.90917969 C1.20893402 8.17429382 1.22499695 9.43940796 1.24154663 10.74285889 C1.25303442 12.13585745 1.26364291 13.5288635 1.2734375 14.921875 C1.27876118 15.62080116 1.28408485 16.31972733 1.28956985 17.03983307 C1.31632369 20.74138799 1.33568866 24.44290896 1.35009766 28.14453125 C1.36672379 31.96590648 1.41147618 35.78641555 1.4624691 39.60746384 C1.49615868 42.54662037 1.507677 45.48557215 1.51332474 48.42490387 C1.52003597 49.83312831 1.53525513 51.24133933 1.55921555 52.64937592 C1.59088783 54.62376057 1.58790063 56.59860842 1.58349609 58.57324219 C1.59158295 59.69607605 1.5996698 60.81890991 1.60800171 61.97576904 C0.80505265 65.96967788 -0.92397338 67.41971984 -4 70 C-6.78881836 71.83007812 -6.78881836 71.83007812 -9.83984375 73.53125 C-10.97542725 74.1713501 -12.11101074 74.8114502 -13.28100586 75.47094727 C-14.49967212 76.14759565 -15.71850704 76.82394034 -16.9375 77.5 C-19.46040204 78.91169292 -21.98045703 80.32841607 -24.5 81.74609375 C-25.13151474 82.10050034 -25.76302948 82.45490692 -26.41368103 82.8200531 C-30.51113345 85.12918145 -34.54963013 87.51822433 -38.5625 89.97265625 C-40.05728882 90.88337891 -40.05728882 90.88337891 -41.58227539 91.8125 C-43.44791794 92.95597378 -45.30684706 94.11049369 -47.15795898 95.27734375 C-47.99141846 95.78523437 -48.82487793 96.293125 -49.68359375 96.81640625 C-50.40087646 97.26443604 -51.11815918 97.71246582 -51.85717773 98.17407227 C-54.59008886 99.22744339 -56.19654803 98.65358978 -59 98 C-59.20884949 89.49857851 -59.36859675 80.99823405 -59.46630955 72.49487877 C-59.51321686 68.54595508 -59.57679045 64.59879017 -59.67895508 60.65087891 C-59.77699952 56.83817006 -59.83060624 53.0271483 -59.85389519 49.21327591 C-59.87048204 47.76101742 -59.90287767 46.30884797 -59.95157051 44.85731125 C-60.31671438 33.5177546 -60.31671438 33.5177546 -57.14385986 29.86045837 C-54.82707547 28.28763079 -52.5616521 27.12173679 -50 26 C-48.46206787 25.06764526 -48.46206787 25.06764526 -46.89306641 24.11645508 C-45.51127197 23.32597778 -45.51127197 23.32597778 -44.1015625 22.51953125 C-43.05379639 21.91761963 -42.00603027 21.31570801 -40.92651367 20.69555664 C-39.83701416 20.07414795 -38.74751465 19.45273926 -37.625 18.8125 C-35.32132549 17.49529714 -33.01794252 16.17758428 -30.71484375 14.859375 C-29.58288574 14.21162109 -28.45092773 13.56386719 -27.28466797 12.89648438 C-24.25832895 11.14915261 -21.25222723 9.37299509 -18.25390625 7.578125 C-17.3913623 7.06531982 -16.52881836 6.55251465 -15.64013672 6.02416992 C-14.04676986 5.07458926 -12.45822677 4.11685014 -10.87548828 3.1496582 C-4.32209953 -0.73269878 -4.32209953 -0.73269878 0 0 Z " fill="#0F265C" transform="translate(813,763)"/>
<path d="M0 0 C5.39988733 0.6235164 9.33578677 3.29503067 13.9609375 6.0390625 C14.95738281 6.61648193 15.95382812 7.19390137 16.98046875 7.78881836 C20.18942444 9.65194564 23.38757761 11.53281494 26.5859375 13.4140625 C28.78572597 14.69526869 30.98624486 15.9752216 33.1875 17.25390625 C37.2829061 19.63472698 41.37418136 22.02233227 45.4609375 24.41796875 C49.48768311 26.77697547 53.52809993 29.10898533 57.5859375 31.4140625 C57.5859375 33.0640625 57.5859375 34.7140625 57.5859375 36.4140625 C54.9432929 37.93866516 52.30064104 39.46325523 49.65795898 40.98779297 C47.34224724 42.3238499 45.02663659 43.66008029 42.71118164 44.99658203 C37.12690101 48.21954964 31.54172589 51.44091233 25.95159912 54.6537323 C23.55206038 56.03292961 21.15317335 57.41325821 18.7543335 58.79367065 C17.03754126 59.78095181 15.31979968 60.76658153 13.60205078 61.75219727 C12.56419434 62.34959717 11.52633789 62.94699707 10.45703125 63.5625 C9.53849365 64.09020996 8.61995605 64.61791992 7.67358398 65.16162109 C5.67072891 66.2484092 5.67072891 66.2484092 4.5859375 67.4140625 C-2.85153671 68.64679303 -7.99062855 64.66291289 -14.1640625 60.9140625 C-15.87723784 59.89394558 -17.59042293 58.87384471 -19.30410767 57.85458374 C-20.49570057 57.14412945 -21.68593131 56.43138597 -22.87484741 55.71646118 C-26.62169883 53.46521147 -30.3953796 51.27061287 -34.20056152 49.1194458 C-36.71351277 47.69846871 -39.21801711 46.26298073 -41.72180176 44.82592773 C-42.93059193 44.13623447 -44.14276439 43.45243479 -45.35827637 42.7746582 C-47.05603 41.82558015 -48.73936465 40.85084602 -50.421875 39.875 C-51.38754395 39.32634277 -52.35321289 38.77768555 -53.34814453 38.21240234 C-55.4140625 36.4140625 -55.4140625 36.4140625 -55.99267578 33.88452148 C-55.4140625 31.4140625 -55.4140625 31.4140625 -53.65527344 29.81518555 C-52.41438965 29.12743042 -52.41438965 29.12743042 -51.1484375 28.42578125 C-50.20814697 27.89170654 -49.26785645 27.35763184 -48.29907227 26.80737305 C-47.26451904 26.24445557 -46.22996582 25.68153809 -45.1640625 25.1015625 C-44.10823975 24.50706299 -43.05241699 23.91256348 -41.96459961 23.30004883 C-39.67726742 22.01283085 -37.38723585 20.7325543 -35.09130859 19.4609375 C-29.31610757 16.25604917 -23.59198932 12.96116696 -17.86071777 9.67861938 C-15.99015706 8.60933368 -14.11707889 7.54459609 -12.24316406 6.48120117 C-11.10459961 5.8338501 -9.96603516 5.18649902 -8.79296875 4.51953125 C-7.7779126 3.94356201 -6.76285645 3.36759277 -5.71704102 2.77416992 C-1.43709339 0.24649175 -1.43709339 0.24649175 0 0 Z " fill="#0061FF" transform="translate(748.4140625,718.5859375)"/>
<path d="M0 0 C0.88768066 0.17611816 1.77536133 0.35223633 2.68994141 0.53369141 C16.21165639 3.24417715 16.21165639 3.24417715 22.21875 5.62890625 C28.12322318 7.91769057 33.2211704 6.71788155 39.05859375 4.60546875 C48.42623281 1.41902659 58.30305804 -0.13259171 68 -2 C69.2684375 -2.25265625 70.536875 -2.5053125 71.84375 -2.765625 C98.35877705 -7.18479618 130.06033733 -5.07247946 155.51269531 3.51245117 C160.60633888 5.18853699 165.10388743 5.44805629 170 3 C170.48120301 10.33834586 170.48120301 10.33834586 168.5 13.0625 C162.28539443 15.39297709 155.36524802 12.29319052 149.27539062 10.59033203 C143.95976575 9.15209367 138.62675261 8.15940707 133.1875 7.3125 C132.42397217 7.19342285 131.66044434 7.0743457 130.8737793 6.95166016 C99.47723057 2.26802906 68.05253546 5.05571655 37.59765625 13.73046875 C30.99725754 15.57250194 27.0824384 16.35082706 20.5 13.875 C12.35243338 11.03983985 3.9911644 9.61943504 -4.5 8.25 C-5.80001953 8.03972168 -7.10003906 7.82944336 -8.43945312 7.61279297 C-11.9571617 7.05695866 -15.47725441 6.52282471 -19 6 C-20.0988855 5.82658081 -20.0988855 5.82658081 -21.2199707 5.6496582 C-46.13641933 2.02669485 -74.27156981 5.09141995 -98.19384766 12.51245117 C-102.50576916 13.82057922 -105.63581972 14.26827892 -110 13 C-112 11 -112 11 -112.1953125 9.0546875 C-112.13020833 7.03645833 -112.06510417 5.01822917 -112 3 C-111.484375 3.350625 -110.96875 3.70125 -110.4375 4.0625 C-105.28971284 6.04241814 -99.36672607 3.63483708 -94.19165039 2.28588867 C-63.18383337 -5.69833664 -31.3407325 -6.39550768 0 0 Z " fill="#0563FC" transform="translate(511,626)"/>
<path d="M0 0 C12.87 0 25.74 0 39 0 C37.83072423 15.20058507 37.83072423 15.20058507 35.375 22.125 C35.1157373 22.88345215 34.85647461 23.6419043 34.58935547 24.42333984 C32.25981476 30.914846 29.12872082 36.45432174 25 42 C24.19691406 41.731875 23.39382813 41.46375 22.56640625 41.1875 C19.92935962 40.30944723 17.29132407 39.4347005 14.65234375 38.5625 C13.08072006 38.04169416 11.50910565 37.52086028 9.9375 37 C9.14794922 36.73960937 8.35839844 36.47921875 7.54492188 36.2109375 C3.64529946 34.91651128 -0.2069766 33.58742227 -4 32 C-3.91435791 31.45698242 -3.82871582 30.91396484 -3.74047852 30.35449219 C-3.34340982 27.82033063 -2.95294827 25.28518971 -2.5625 22.75 C-2.42779297 21.89664062 -2.29308594 21.04328125 -2.15429688 20.1640625 C-1.12217496 13.4175095 -0.5703483 6.84417964 0 0 Z " fill="#0F265C" transform="translate(385,277)"/>
<path d="M0 0 C12.87 0 25.74 0 39 0 C40.4375 12.0625 40.4375 12.0625 40.88452148 15.82446289 C41.53057213 21.22624891 42.19563973 26.61937647 43 32 C41.845 32.37125 40.69 32.7425 39.5 33.125 C34.13633755 34.904333 28.86200919 36.90874404 23.5859375 38.93017578 C20.42198896 40.13355135 17.31761316 41.30065738 14 42 C5.71797888 29.13582974 0 15.495906 0 0 Z " fill="#0F265C" transform="translate(268,277)"/>
<path d="M0 0 C5.45928425 1.79767023 10.86276959 3.73471582 16.26953125 5.68359375 C20.49622611 7.17510806 24.74367541 8.59575804 29 10 C28.91435791 10.61407715 28.82871582 11.2281543 28.74047852 11.86083984 C28.34585335 14.69862378 27.95416351 17.53680585 27.5625 20.375 C27.42779297 21.34050781 27.29308594 22.30601562 27.15429688 23.30078125 C27.02216797 24.26113281 26.89003906 25.22148437 26.75390625 26.2109375 C26.57323608 27.51490479 26.57323608 27.51490479 26.38891602 28.84521484 C25.84942953 33.22138833 25.4387419 37.61258099 25 42 C12.13 42 -0.74 42 -14 42 C-12.65544102 25.86529218 -8.93923512 13.40885268 0 0 Z " fill="#0F265C" transform="translate(282,228)"/>
<path d="M0 0 C9.53813935 8.02273403 13.13774449 24.2628896 15 36 C15 37.98 15 39.96 15 42 C2.13 42 -10.74 42 -24 42 C-25.4375 29.9375 -25.4375 29.9375 -25.88452148 26.17553711 C-26.53057213 20.77375109 -27.19563973 15.38062353 -28 10 C-26.7625 9.5875 -25.525 9.175 -24.25 8.75 C-23.43273437 8.47671875 -22.61546875 8.2034375 -21.7734375 7.921875 C-19.84319114 7.28027199 -17.91071667 6.64534961 -15.9765625 6.015625 C-10.52819739 4.23152559 -5.22032653 2.37287569 0 0 Z " fill="#0F265C" transform="translate(409,228)"/>
<path d="M0 0 C9.9 0 19.8 0 30 0 C30 10.13369345 30 10.13369345 29.37890625 14.18359375 C29.24806641 15.04791016 29.11722656 15.91222656 28.98242188 16.80273438 C28.84384766 17.67220703 28.70527344 18.54167969 28.5625 19.4375 C28.42779297 20.33404297 28.29308594 21.23058594 28.15429688 22.15429688 C27.14000307 28.71999387 27.14000307 28.71999387 26 31 C17.42 30.34 8.84 29.68 0 29 C0 19.43 0 9.86 0 0 Z " fill="#0F265C" transform="translate(349,277)"/>
<path d="M0 0 C9.9 0 19.8 0 30 0 C30 9.57 30 19.14 30 29 C17.13 29.99 17.13 29.99 4 31 C1.44557977 20.44913384 0.44385008 10.82994186 0 0 Z " fill="#0F265C" transform="translate(313,277)"/>
<path d="M0 0 C2.61712752 10.64956923 4 19.96181858 4 31 C-5.9 31 -15.8 31 -26 31 C-26 21.43 -26 11.86 -26 2 C-22.4525 1.67 -18.905 1.34 -15.25 1 C-14.13786133 0.89558594 -13.02572266 0.79117188 -11.87988281 0.68359375 C-10.99655273 0.60238281 -10.11322266 0.52117187 -9.203125 0.4375 C-8.30239258 0.35371094 -7.40166016 0.26992187 -6.47363281 0.18359375 C-4.32080902 0.02381054 -2.15874522 0 0 0 Z " fill="#0F265C" transform="translate(375,239)"/>
<path d="M0 0 C8.58 0.66 17.16 1.32 26 2 C26 11.57 26 21.14 26 31 C16.1 31 6.2 31 -4 31 C-3.55614992 20.17005814 -2.55442023 10.55086616 0 0 Z " fill="#0F265C" transform="translate(317,239)"/>
<path d="M0 0 C1.78591553 0.2477417 1.78591553 0.2477417 3.60791016 0.50048828 C9.49728615 1.39444897 14.81923713 2.28285154 20.0625 5.1875 C21.125 7.75 21.125 7.75 21.0625 10.1875 C20.4025 10.8475 19.7425 11.5075 19.0625 12.1875 C14.87613094 11.96716479 10.96648821 11.39850462 6.8828125 10.4453125 C-14.58606705 5.75875875 -38.52743081 6.75862181 -59.9375 11.1875 C-63.80078125 11.91015625 -63.80078125 11.91015625 -66.9375 12.1875 C-68.9375 10.1875 -68.9375 10.1875 -69.0625 7.5625 C-69.02125 6.77875 -68.98 5.995 -68.9375 5.1875 C-63.00088859 3.08231865 -57.13101373 1.34400488 -50.9375 0.1875 C-49.9784375 0.00058594 -49.019375 -0.18632813 -48.03125 -0.37890625 C-31.96935927 -3.11325193 -16.07141649 -2.24627197 0 0 Z " fill="#2E2B2C" transform="translate(634.9375,569.8125)"/>
<path d="M0 0 C17.66828166 -0.6809971 35.08164459 1.02042377 51.78271484 7.09423828 C51.90771484 9.46923828 51.90771484 9.46923828 51.78271484 12.09423828 C51.12271484 12.75423828 50.46271484 13.41423828 49.78271484 14.09423828 C45.96669608 13.86976659 42.42797578 13.2452873 38.70605469 12.37402344 C28.27990551 9.99820748 18.26228319 9.58471399 7.59521484 9.65673828 C6.73986145 9.65745331 5.88450806 9.65816833 5.00323486 9.65890503 C-6.56143409 9.68285096 -17.49825467 10.29940835 -28.72509766 13.31689453 C-32.08935284 14.06576118 -33.96605615 14.09996866 -37.21728516 13.09423828 C-37.54728516 11.44423828 -37.87728516 9.79423828 -38.21728516 8.09423828 C-35.38600452 5.73154165 -33.23884509 4.62900871 -29.61962891 3.96142578 C-28.30297241 3.71247559 -28.30297241 3.71247559 -26.9597168 3.45849609 C-26.03408936 3.29704102 -25.10846191 3.13558594 -24.15478516 2.96923828 C-23.19886475 2.7974707 -22.24294434 2.62570312 -21.25805664 2.44873047 C-14.1428759 1.19800325 -7.21694635 0.30673214 0 0 Z " fill="#2E2B2C" transform="translate(462.21728515625,567.90576171875)"/>
<path d="M0 0 C0.9375 1.9375 0.9375 1.9375 1 4 C-0.265625 5.63671875 -0.265625 5.63671875 -2 7 C-6.29566891 6.8543841 -10.23528544 6.16260235 -14.43652344 5.26928711 C-23.54793849 3.37059545 -32.18232733 2.5512717 -41.48217773 2.66381836 C-43.56598553 2.68753968 -45.64851144 2.68432517 -47.73242188 2.67773438 C-58.68284225 2.70079347 -69.45240363 3.59297201 -80.125 6.1875 C-83.66054671 6.92882431 -85.6122412 7.09282542 -89 6 C-89.33 4.35 -89.66 2.7 -90 1 C-71.80744051 -11.82667326 -18.90329027 -11.07823119 0 0 Z " fill="#2B2729" transform="translate(514,546)"/>
<path d="M0 0 C17.85649203 3.85421412 17.85649203 3.85421412 26 8 C25.29262471 13.81916278 19.94460778 17.23782684 15.66503906 20.72607422 C4.00530906 29.64696442 -10.26329234 35.66917595 -25 36 C-22.98207649 33.86659292 -21.29039753 32.54967536 -18.75 30.9375 C-8.77838286 23.86290005 -4.31422115 10.95771663 0 0 Z " fill="#0F265C" transform="translate(379,315)"/>
<path d="M0 0 C0.73125092 -0.00045319 1.46250183 -0.00090637 2.21591187 -0.00137329 C34.03639029 0.05618704 34.03639029 0.05618704 44.375 7.375 C43.5 12.25 43.5 12.25 42.375 13.375 C36.5007229 13.22072606 30.71480729 12.14229296 24.9921875 10.875 C16.23747622 9.20245814 7.51041462 9.09728776 -1.375 9.0625 C-2.10610992 9.05855225 -2.83721985 9.05460449 -3.59048462 9.05053711 C-14.338336 9.02346258 -24.36208171 9.8490409 -34.82421875 12.5 C-38.26080437 13.2911564 -41.12048471 13.55160549 -44.625 13.375 C-45.285 11.725 -45.945 10.075 -46.625 8.375 C-37.66094456 -2.03954984 -12.94321766 -0.03155577 0 0 Z " fill="#2A2728" transform="translate(611.625,539.625)"/>
<path d="M0 0 C0.65355469 1.57587891 0.65355469 1.57587891 1.3203125 3.18359375 C6.64874324 15.83108221 12.49421607 29.40004081 26 35 C26 35.33 26 35.66 26 36 C9.94940387 36.48576836 -6.24906273 28.43828267 -18.375 18.3125 C-18.91648682 17.86124756 -19.45797363 17.40999512 -20.01586914 16.94506836 C-23.07831584 14.23970046 -24.8263838 11.92383731 -26 8 C-23.50206261 7.03599018 -21.00186341 6.07872453 -18.5 5.125 C-17.80390625 4.85558594 -17.1078125 4.58617187 -16.390625 4.30859375 C-5.04115854 0 -5.04115854 0 0 0 Z " fill="#0F265C" transform="translate(313,315)"/>
<path d="M0 0 C0.99 0.99 0.99 0.99 2 2 C1.625 4.625 1.625 4.625 1 7 C-3.27127871 8.18957108 -6.2813566 7.71516924 -10.5625 6.6875 C-11.81417969 6.40648437 -13.06585937 6.12546875 -14.35546875 5.8359375 C-16.48456184 5.34759246 -18.61268573 4.85491322 -20.73828125 4.3515625 C-39.33153562 0.55027494 -60.10711143 2.3343865 -78.37890625 7.12109375 C-81.85113503 7.96386772 -83.65716109 8.11427964 -87 7 C-88 6 -88 6 -88.0625 3.4375 C-88.041875 2.633125 -88.02125 1.82875 -88 1 C-82.53165606 -1.63127303 -77.4908381 -2.79215047 -71.5 -3.625 C-70.27603516 -3.80675781 -70.27603516 -3.80675781 -69.02734375 -3.9921875 C-67.42065444 -4.22945141 -65.81306327 -4.4606959 -64.20458984 -4.68554688 C-62.32253101 -4.95399558 -60.44566883 -5.25846509 -58.5703125 -5.5703125 C-40.16627879 -7.78523997 -17.421975 -6.97609481 0 0 Z " fill="#2A2728" transform="translate(654,459)"/>
<path d="M0 0 C-1.98024068 1.5085429 -3.95705437 2.97199912 -6.04296875 4.33203125 C-16.84757545 11.79094917 -22.61302402 23.96337243 -27 36 C-36.27707956 34.31201067 -44.42561495 31.97311249 -53 28 C-47.48869202 15.72851622 -32.94307214 8.70297059 -21.05859375 4.03125 C-14.22965825 1.72877366 -7.25117334 -0.2537243 0 0 Z " fill="#0F265C" transform="translate(340,196)"/>
<path d="M0 0 C1.80859375 1.52734375 1.80859375 1.52734375 2.18359375 4.15234375 C1.80859375 6.52734375 1.80859375 6.52734375 0.80859375 7.52734375 C-4.00917837 7.8292407 -8.11854073 7.1959266 -12.80029297 6.10400391 C-34.40533201 1.15241239 -57.51773538 2.2508925 -79.04296875 7.16015625 C-81.499142 7.57993859 -83.70481872 7.71734878 -86.19140625 7.52734375 C-86.85140625 6.86734375 -87.51140625 6.20734375 -88.19140625 5.52734375 C-87.81640625 2.90234375 -87.81640625 2.90234375 -87.19140625 0.52734375 C-62.3176521 -8.30581949 -24.36324786 -11.24228206 0 0 Z " fill="#292527" transform="translate(512.19140625,516.47265625)"/>
<path d="M0 0 C0.625 2.375 0.625 2.375 1 5 C-1 7 -1 7 -3.28515625 7.046875 C-8.50921664 6.48846629 -13.53512494 5.72469434 -18.64306641 4.50195312 C-37.8550908 0.41039293 -60.30407063 1.52999054 -79.203125 6.58984375 C-82.13976899 7.26016466 -85.00643966 7.11296454 -88 7 C-89 6 -89 6 -89.375 3.625 C-89 1 -89 1 -86.9921875 -0.5625 C-83.32934569 -2.32219424 -79.72724233 -3.00553571 -75.75 -3.625 C-75.03714844 -3.74617187 -74.32429687 -3.86734375 -73.58984375 -3.9921875 C-71.39645496 -4.35577627 -69.20092164 -4.68537324 -67 -5 C-65.98655518 -5.14791992 -65.98655518 -5.14791992 -64.95263672 -5.29882812 C-43.59319286 -8.05872838 -20.37353055 -7.23504462 0 0 Z " fill="#282526" transform="translate(655,517)"/>
<path d="M0 0 C1.74579346 0.00410889 1.74579346 0.00410889 3.52685547 0.00830078 C37.77790965 0.41443976 37.77790965 0.41443976 48.125 7.3125 C48.375 9.875 48.375 9.875 48.125 12.3125 C47.125 13.3125 47.125 13.3125 43.9375 13.5625 C38.70707157 13.51537902 33.75800364 12.25912699 28.6875 11.06640625 C9.75240946 7.05930924 -10.07106692 8.74690707 -28.890625 12.4375 C-32.98199725 13.22679261 -36.7163741 13.49630667 -40.875 13.3125 C-41.5625 11 -41.5625 11 -41.875 8.3125 C-39.49538926 4.84654522 -36.39688006 4.5224543 -32.4375 3.75 C-31.30441406 3.52183594 -30.17132813 3.29367187 -29.00390625 3.05859375 C-27.62779885 2.80882083 -26.25147146 2.56025876 -24.875 2.3125 C-23.54033691 2.05327759 -23.54033691 2.05327759 -22.17871094 1.78881836 C-14.74082456 0.42064324 -7.55580911 -0.03650149 0 0 Z " fill="#292527" transform="translate(465.875,481.6875)"/>
<path d="M0 0 C1 1 1 1 1.1875 3.4375 C1 6 1 6 -1 8 C-7.20907565 7.6417841 -13.19620237 6.12153077 -19.2421875 4.71875 C-39.30653631 0.88107829 -59.54632807 2.54175761 -79.25 7.25 C-82.70035603 7.94007121 -84.6901298 8.06770007 -88 7 C-88.33 5.35 -88.66 3.7 -89 2 C-83.11385282 -1.92774505 -76.86857237 -2.75877575 -70 -4 C-68.86433594 -4.20882813 -67.72867187 -4.41765625 -66.55859375 -4.6328125 C-44.74580813 -8.09361201 -21.09841044 -6.77434455 0 0 Z " fill="#2A2728" transform="translate(513,459)"/>
<path d="M0 0 C18.08332955 0.46803912 34.79603012 9.15489534 47.63671875 21.44921875 C49.65547138 23.62813687 50.90818238 25.2736484 52 28 C43.42561495 31.97311249 35.27707956 34.31201067 26 36 C25.5875 34.97261719 25.175 33.94523437 24.75 32.88671875 C20.12555348 21.66697265 15.18806172 11.15554613 4.76171875 4.21875 C2.95424108 2.96834416 1.5064366 1.5945052 0 0 Z " fill="#0F265C" transform="translate(353,196)"/>
<path d="M0 0 C10.76237485 -0.33108632 21.29498402 0.0196669 31.98095703 1.390625 C33.37181519 1.56706543 33.37181519 1.56706543 34.79077148 1.74707031 C40.97855699 2.6202722 46.79924142 4.12142712 52.73095703 6.078125 C53.85595703 10.828125 53.85595703 10.828125 52.73095703 13.078125 C46.34362107 12.75085867 40.12699575 12.20318881 33.85107422 10.93334961 C14.50015183 7.12065636 -6.37441033 7.42285214 -25.40966797 12.66796875 C-28.7133044 13.39671208 -31.89551931 13.18873233 -35.26904297 13.078125 C-36.26904297 12.078125 -36.26904297 12.078125 -36.45654297 9.640625 C-36.26904297 7.078125 -36.26904297 7.078125 -34.26904297 5.078125 C-32.39648438 4.49975586 -32.39648438 4.49975586 -30.12060547 4.04296875 C-29.28674316 3.8737793 -28.45288086 3.70458984 -27.59375 3.53027344 C-26.70284668 3.36043945 -25.81194336 3.19060547 -24.89404297 3.015625 C-23.52094971 2.75120605 -23.52094971 2.75120605 -22.12011719 2.48144531 C-14.70860786 1.09285369 -7.53665096 0.25949304 0 0 Z " fill="#282526" transform="translate(602.26904296875,481.921875)"/>
<path d="M0 0 C0 10.89 0 21.78 0 33 C-7.51563261 31.49687348 -11.82335126 26.98754551 -16.1875 20.8125 C-19.47346013 15.59097431 -24 8.29603739 -24 2 C-21.50072231 1.66029235 -19.00080405 1.32811968 -16.5 1 C-15.80390625 0.90460938 -15.1078125 0.80921875 -14.390625 0.7109375 C-13.69453125 0.62070312 -12.9984375 0.53046875 -12.28125 0.4375 C-11.65283203 0.35371094 -11.02441406 0.26992188 -10.37695312 0.18359375 C-6.92770103 -0.08282342 -3.4595257 0 0 0 Z " fill="#0F265C" transform="translate(343,312)"/>
<path d="M0 0 C4.5478125 0.2165625 4.5478125 0.2165625 9.1875 0.4375 C10.13391357 0.48060303 11.08032715 0.52370605 12.05541992 0.56811523 C16.12378036 0.77237534 20.02740865 1.02124561 24 2 C21.16265062 13.47384265 16.34199943 23.45453892 7 31 C4.29887379 32.59705371 3.20709431 33 0 33 C0 22.11 0 11.22 0 0 Z " fill="#0F265C" transform="translate(349,312)"/>
<path d="M0 0 C7.53009174 1.25501529 10.37241687 3.47815539 14.859375 9.4921875 C24 23.28125 24 23.28125 24 30 C21.87649028 30.34269897 19.75107732 30.6736086 17.625 31 C16.44164062 31.185625 15.25828125 31.37125 14.0390625 31.5625 C9.38432972 32.06668769 4.68195925 32 0 32 C0 21.44 0 10.88 0 0 Z " fill="#0F265C" transform="translate(349,203)"/>
<path d="M0 0 C0 10.56 0 21.12 0 32 C-6.3545865 32 -11.52478464 31.95689653 -17.625 31 C-18.83414062 30.814375 -20.04328125 30.62875 -21.2890625 30.4375 C-22.18367188 30.293125 -23.07828125 30.14875 -24 30 C-20.48035183 19.10979449 -13.68336671 0 0 0 Z " fill="#0F265C" transform="translate(343,203)"/>
<path d="M0 0 C4.12344484 1.58146237 6.58791068 4.58670085 9.4375 7.8125 C15.72324572 14.78556373 22.31479397 21.41183728 29 28 C28.34 29.32 27.68 30.64 27 32 C23.26821668 31.42772709 21.55066944 29.92534766 18.91796875 27.28125 C18.15033203 26.51296875 17.38269531 25.7446875 16.59179688 24.953125 C15.79837891 24.14359375 15.00496094 23.3340625 14.1875 22.5 C13.40568359 21.72140625 12.62386719 20.9428125 11.81835938 20.140625 C6.77933459 15.05529339 2.25467921 9.75658355 -2 4 C-1.34 2.68 -0.68 1.36 0 0 Z " fill="#99C0FF" transform="translate(281,756)"/>
<path d="M0 0 C4.50330784 1.45402006 7.6347285 3.97919899 11.125 7.0625 C12.27009578 8.05423767 13.4159425 9.04510885 14.5625 10.03515625 C15.13484375 10.53160645 15.7071875 11.02805664 16.296875 11.53955078 C19.72202904 14.47665965 23.24697706 17.29132867 26.7578125 20.125 C28.61360061 21.67687856 30.32993421 23.25352597 32 25 C31.34 26.32 30.68 27.64 30 29 C25.75794155 28.49452107 23.72663491 26.09346062 20.75 23.1875 C13.67861507 16.44031435 5.89385765 10.74007669 -2 5 C-1.34 3.35 -0.68 1.7 0 0 Z " fill="#99C0FF" transform="translate(742,266)"/>
<path d="M0 0 C5.34359665 3.64803233 8.72762126 8.66189576 12.5 13.8125 C13.15097656 14.68970703 13.80195312 15.56691406 14.47265625 16.47070312 C15.74091379 18.18349134 17.00286981 19.90096746 18.2578125 21.62353516 C19.35946258 23.12626244 20.47736894 24.61732221 21.6171875 26.09130859 C22.82068116 27.6725563 23.92252107 29.33033523 25 31 C24.67 31.99 24.34 32.98 24 34 C21.9375 34.6875 21.9375 34.6875 20 35 C19.39414062 34.14019531 18.78828125 33.28039062 18.1640625 32.39453125 C12.96905984 25.05438053 7.64554904 17.84386891 2.12890625 10.7421875 C1.42636719 9.83726562 0.72382812 8.93234375 0 8 C-0.91458984 6.92105469 -0.91458984 6.92105469 -1.84765625 5.8203125 C-2.22792969 5.21960938 -2.60820313 4.61890625 -3 4 C-2.67 3.01 -2.34 2.02 -2 1 C-1.34 0.67 -0.68 0.34 0 0 Z " fill="#99C0FF" transform="translate(800,320)"/>
<path d="M0 0 C3.45064019 0.63765582 5.77558685 1.98946939 8.66796875 3.94921875 C9.56193359 4.55056641 10.45589844 5.15191406 11.37695312 5.77148438 C12.76817383 6.71991211 12.76817383 6.71991211 14.1875 7.6875 C15.09564453 8.30044922 16.00378906 8.91339844 16.93945312 9.54492188 C18.74541894 10.76398112 20.54996722 11.98514325 22.35302734 13.20849609 C26.2213917 15.82665305 30.10931115 18.41517629 34 21 C33.625 22.9375 33.625 22.9375 33 25 C32.01 25.495 32.01 25.495 31 26 C28.92797852 24.95532227 28.92797852 24.95532227 26.37890625 23.31640625 C25.44771973 22.72166504 24.5165332 22.12692383 23.55712891 21.51416016 C22.56890137 20.8701123 21.58067383 20.22606445 20.5625 19.5625 C19.56653809 18.92103027 18.57057617 18.27956055 17.54443359 17.61865234 C10.86646323 13.29080335 4.30664799 8.85823123 -2 4 C-1.34 2.68 -0.68 1.36 0 0 Z " fill="#99C0FF" transform="translate(338,810)"/>
<path d="M0 0 C2.475 0.495 2.475 0.495 5 1 C3.38930146 6.69796245 0.6719882 11.60608938 -2.1875 16.75 C-2.67710205 17.63655273 -3.1667041 18.52310547 -3.67114258 19.43652344 C-7.10071071 25.57287384 -10.70187431 31.42563904 -15 37 C-16.32 36.34 -17.64 35.68 -19 35 C-18.32876752 31.41430241 -16.82960568 28.73257131 -14.98046875 25.60546875 C-14.37009766 24.56712891 -13.75972656 23.52878906 -13.13085938 22.45898438 C-12.48955078 21.37939453 -11.84824219 20.29980469 -11.1875 19.1875 C-9.93078899 17.05610784 -8.67427358 14.92460035 -7.41796875 12.79296875 C-6.82677246 11.79313965 -6.23557617 10.79331055 -5.62646484 9.76318359 C-3.72062694 6.52537612 -1.85143278 3.2691546 0 0 Z " fill="#99C0FF" transform="translate(840,691)"/>
<path d="M0 0 C1.99731445 0.16723633 1.99731445 0.16723633 4 1 C5.56803535 3.55143037 6.89326378 6.00203223 8.1875 8.6875 C11.49490082 15.29600316 15.06732075 21.50114165 19.34448242 27.53198242 C22.05391391 31.50088793 22.05391391 31.50088793 21.7421875 34.38671875 C21.49726563 34.91910156 21.25234375 35.45148437 21 36 C19.68 36 18.36 36 17 36 C15.66308594 34.6015625 15.66308594 34.6015625 14.484375 32.625 C14.04134033 31.89394043 13.59830566 31.16288086 13.1418457 30.40966797 C12.45288208 29.21688232 12.45288208 29.21688232 11.75 28 C11.27199951 27.19578613 10.79399902 26.39157227 10.30151367 25.56298828 C5.80959636 17.90264492 1.81167085 10.01652265 -2 2 C-1.34 1.34 -0.68 0.68 0 0 Z " fill="#99C0FF" transform="translate(237,691)"/>
<path d="M0 0 C7.70602193 2.97590278 15.10920407 6.44565154 22.5 10.125 C23.37237305 10.5566748 24.24474609 10.98834961 25.14355469 11.43310547 C25.97274414 11.84963379 26.80193359 12.26616211 27.65625 12.6953125 C28.39681641 13.06672363 29.13738281 13.43813477 29.90039062 13.82080078 C32.09014806 15.05062966 34.02585619 16.45135668 36 18 C35.625 19.9375 35.625 19.9375 35 22 C34.01 22.495 34.01 22.495 33 23 C30.42138672 21.8918457 30.42138672 21.8918457 27.1796875 20.17578125 C26.60219757 19.87310837 26.02470764 19.57043549 25.42971802 19.2585907 C23.57410587 18.28401394 21.72452304 17.29857566 19.875 16.3125 C18.65143679 15.66656868 17.42748248 15.02137764 16.203125 14.37695312 C13.85375434 13.14011009 11.50600882 11.90037014 9.15917969 10.65869141 C5.46434507 8.71876046 1.7435711 6.84377878 -2 5 C-1.34 3.35 -0.68 1.7 0 0 Z " fill="#99C0FF" transform="translate(674,226)"/>
<path d="M0 0 C1.32 0.66 2.64 1.32 4 2 C3.41398209 5.82223624 1.69717772 7.80702305 -0.8125 10.6875 C-5.59254719 16.35131798 -9.82557211 22.31254861 -14.01293945 28.42456055 C-14.50238037 29.13265869 -14.99182129 29.84075684 -15.49609375 30.5703125 C-15.93107178 31.20727051 -16.3660498 31.84422852 -16.81420898 32.50048828 C-18 34 -18 34 -20 35 C-20.99 34.34 -21.98 33.68 -23 33 C-22.4132322 28.85215869 -20.0387701 25.91118407 -17.625 22.625 C-16.96866577 21.71874878 -16.96866577 21.71874878 -16.29907227 20.79418945 C-4.14377689 4.14377689 -4.14377689 4.14377689 0 0 Z " fill="#99C0FF" transform="translate(278,321)"/>
<path d="M0 0 C2.0625 0.4375 2.0625 0.4375 4 1 C3.43565385 6.77514228 1.17855935 11.44081904 -1.25 16.625 C-2.06768029 18.40306049 -2.8840906 20.18170557 -3.69921875 21.9609375 C-4.09415527 22.82041992 -4.4890918 23.67990234 -4.89599609 24.56542969 C-7.05445703 29.3253086 -9.04041007 34.1551847 -11 39 C-12.65 38.34 -14.3 37.68 -16 37 C-5.81939163 5.81939163 -5.81939163 5.81939163 0 0 Z " fill="#99C0FF" transform="translate(235,387)"/>
<path d="M0 0 C15 30.79039301 15 30.79039301 15 38 C13.02 38.495 13.02 38.495 11 39 C7.8631131 32.89771889 5.10008829 26.69696343 2.4375 20.375 C1.66712506 18.54873554 0.8950332 16.72319423 0.12109375 14.8984375 C-0.23871582 14.04862305 -0.59852539 13.19880859 -0.96923828 12.32324219 C-1.84216202 10.35575231 -2.82949095 8.43964123 -3.83984375 6.5390625 C-5 4 -5 4 -4 1 C-2 0 -2 0 0 0 Z " fill="#99C0FF" transform="translate(845,386)"/>
<path d="M0 0 C0.495 1.485 0.495 1.485 1 3 C-5.66834818 6.54509508 -12.51706396 9.15550635 -19.625 11.6875 C-20.73101563 12.09033203 -21.83703125 12.49316406 -22.9765625 12.90820312 C-24.0490625 13.29298828 -25.1215625 13.67777344 -26.2265625 14.07421875 C-27.67409912 14.59375122 -27.67409912 14.59375122 -29.15087891 15.1237793 C-32.09015806 16.02772727 -34.95918894 16.56258453 -38 17 C-38.33 15.35 -38.66 13.7 -39 12 C-38.29504395 11.74831055 -37.59008789 11.49662109 -36.86376953 11.23730469 C-33.61681759 10.07680524 -30.37090642 8.91342039 -27.125 7.75 C-26.01640625 7.35425781 -24.9078125 6.95851563 -23.765625 6.55078125 C-17.79525045 4.40847038 -11.91269204 2.19205831 -6.11669922 -0.38964844 C-3.62427944 -1.10833926 -2.36770495 -1.04756539 0 0 Z " fill="#99C0FF" transform="translate(675,850)"/>
<path d="M0 0 C5.77761454 0.639835 10.82308355 2.70084766 16.1875 4.8125 C18.05966406 5.5383585 19.93205796 6.26362447 21.8046875 6.98828125 C22.69897461 7.33584473 23.59326172 7.6834082 24.51464844 8.04150391 C28.984171 9.76521172 33.4870923 11.39353168 38 13 C37.67 14.65 37.34 16.3 37 18 C28.07846817 16.02591276 19.73590043 13.17710192 11.25 9.8125 C10.0640625 9.34908203 8.878125 8.88566406 7.65625 8.40820312 C4.76821778 7.27860988 1.88295377 6.14247779 -1 5 C-0.67 3.35 -0.34 1.7 0 0 Z " fill="#99C0FF" transform="translate(406,849)"/>
<path d="M0 0 C1.65 0.33 3.3 0.66 5 1 C3.71025151 9.44480719 1.51149366 17.42610144 -1.0625 25.5625 C-1.42666016 26.73619141 -1.79082031 27.90988281 -2.16601562 29.11914062 C-4.83602151 37.67204301 -4.83602151 37.67204301 -6 40 C-7.65 39.67 -9.3 39.34 -11 39 C-9.31774661 30.65343508 -6.85139557 22.57326698 -4.375 14.4375 C-3.95022001 13.03329409 -3.52573848 11.62899786 -3.1015625 10.22460938 C-2.07114603 6.8153584 -1.03669985 3.4073463 0 0 Z " fill="#99C0FF" transform="translate(867,617)"/>
<path d="M0 0 C2.02652555 3.03978832 2.84797998 5.3991139 3.875 8.8828125 C4.22046875 10.05070313 4.5659375 11.21859375 4.921875 12.421875 C5.45554688 14.25492188 5.45554688 14.25492188 6 16.125 C6.35578125 17.32382812 6.7115625 18.52265625 7.078125 19.7578125 C8.95269649 26.13695129 10.65561443 32.48813238 12 39 C9.525 39.495 9.525 39.495 7 40 C5.72132967 36.25262774 4.45356976 32.5016463 3.1875 28.75 C2.65286133 27.18378906 2.65286133 27.18378906 2.10742188 25.5859375 C-4 7.43176606 -4 7.43176606 -4 1 C-2.68 0.67 -1.36 0.34 0 0 Z " fill="#99C0FF" transform="translate(212,617)"/>
<path d="M0 0 C0.495 2.475 0.495 2.475 1 5 C-3.57048724 6.1253195 -8.14203844 7.24617452 -12.71459961 8.36303711 C-14.26762901 8.7430182 -15.82036903 9.12418421 -17.37280273 9.5065918 C-19.61365587 10.05835242 -21.85554028 10.60574039 -24.09765625 11.15234375 C-24.78336197 11.3221727 -25.46906769 11.49200165 -26.17555237 11.66697693 C-30.44330422 12.70192376 -34.65095084 13.44369752 -39 14 C-39.33 12.35 -39.66 10.7 -40 9 C-8.13537118 0 -8.13537118 0 0 0 Z " fill="#99C0FF" transform="translate(481,204)"/>
<path d="M0 0 C7.59609067 0.65455675 14.8349911 2.19254587 22.25 3.9375 C23.40757812 4.20240234 24.56515625 4.46730469 25.7578125 4.74023438 C30.67399615 5.88412699 35.34492071 7.01919452 40 9 C39.67 10.65 39.34 12.3 39 14 C30.40076947 12.37242582 21.89178265 10.38014027 13.375 8.375 C11.97529529 8.04672627 10.57555594 7.71860021 9.17578125 7.390625 C5.78345365 6.59544967 2.3915972 5.79828563 -1 5 C-0.67 3.35 -0.34 1.7 0 0 Z " fill="#99C0FF" transform="translate(598,204)"/>
<path d="M0 0 C0.495 2.475 0.495 2.475 1 5 C-12.59202898 7.7701146 -26.17244157 9.02740876 -40 10 C-40 8.02 -40 6.04 -40 4 C-39.12263184 3.91435791 -38.24526367 3.82871582 -37.34130859 3.74047852 C-34.06477829 3.41967054 -30.78843808 3.09703765 -27.51220703 2.77319336 C-26.09821575 2.63379714 -24.68415397 2.49511407 -23.27001953 2.35717773 C-21.22929933 2.15799539 -19.18885223 1.95619104 -17.1484375 1.75390625 C-15.31031494 1.57323608 -15.31031494 1.57323608 -13.43505859 1.38891602 C-11.21670899 1.13775533 -9.00374957 0.82949464 -6.80322266 0.45288086 C-4 0 -4 0 0 0 Z " fill="#99C0FF" transform="translate(599,871)"/>
<path d="M0 0 C2.91206427 13.2856692 5.66515645 26.45233416 7 40 C4.525 40.495 4.525 40.495 2 41 C0.43461986 33.2129534 -1.10635588 25.42129509 -2.625 17.625 C-2.85445312 16.46355469 -3.08390625 15.30210937 -3.3203125 14.10546875 C-3.536875 12.99042969 -3.7534375 11.87539063 -3.9765625 10.7265625 C-4.17330566 9.72189941 -4.37004883 8.71723633 -4.57275391 7.68212891 C-5 5 -5 5 -5 1 C-2 0 -2 0 0 0 Z " fill="#99C0FF" transform="translate(872,460)"/>
<path d="M0 0 C1.65 0.33 3.3 0.66 5 1 C4.87955322 1.71470459 4.75910645 2.42940918 4.63500977 3.16577148 C3.72055219 8.61855012 2.82411779 14.07339053 1.96484375 19.53515625 C1.79533203 20.61087891 1.62582031 21.68660156 1.45117188 22.79492188 C1.10323629 25.00821552 0.75693107 27.22176596 0.41210938 29.43554688 C0.24388672 30.49966797 0.07566406 31.56378906 -0.09765625 32.66015625 C-0.32207397 34.09307007 -0.32207397 34.09307007 -0.55102539 35.55493164 C-1 38 -1 38 -2 41 C-3.65 40.67 -5.3 40.34 -7 40 C-6.04743031 30.43670163 -4.74020671 21.0055211 -2.9375 11.5625 C-2.7631543 10.64509033 -2.58880859 9.72768066 -2.40917969 8.7824707 C-1.1354612 2.27092241 -1.1354612 2.27092241 0 0 Z " fill="#99C0FF" transform="translate(208,461)"/>
<path d="M0 0 C1.65 0 3.3 0 5 0 C5.24984036 13.82450015 4.6516039 27.27104257 3 41 C1.35 41 -0.3 41 -2 41 C-1.35503394 27.33220856 -0.68988521 13.6655985 0 0 Z " fill="#99C0FF" transform="translate(876,539)"/>
<path d="M0 0 C13.53 0 27.06 0 41 0 C41 1.65 41 3.3 41 5 C27.47 5.33 13.94 5.66 0 6 C0 4.02 0 2.04 0 0 Z " fill="#99C0FF" transform="translate(519,199)"/>
<path d="M0 0 C1.04414063 0.12117187 2.08828125 0.24234375 3.1640625 0.3671875 C15.42646856 1.76981484 27.70502889 2.92319459 40 4 C40 5.98 40 7.96 40 10 C35.74920394 9.61681018 31.49920894 9.22586884 27.24975586 8.828125 C25.807889 8.69422242 24.365833 8.56233893 22.92358398 8.43261719 C15.15808624 7.7327803 7.57439752 6.94649322 0 5 C0 3.35 0 1.7 0 0 Z " fill="#99C0FF" transform="translate(481,871)"/>
<path d="M0 0 C1.65 0 3.3 0 5 0 C5.28811432 4.41060113 5.57281568 8.82140602 5.85449219 13.23242188 C5.9505821 14.72987672 6.04756974 16.22727427 6.14550781 17.72460938 C6.28692608 19.88917463 6.42500768 22.05393223 6.5625 24.21875 C6.64628906 25.51748047 6.73007813 26.81621094 6.81640625 28.15429688 C7.00549385 32.11507868 7.03085045 36.03571775 7 40 C5.35 40 3.7 40 2 40 C0.28529924 26.60390033 -0.24179823 13.50040145 0 0 Z " fill="#99C0FF" transform="translate(199,540)"/>
</svg>
