<svg width="16" height="16" viewBox="0 0 16 16" fill="none" xmlns="http://www.w3.org/2000/svg">
<path fill-rule="evenodd" clip-rule="evenodd" d="M0.5 3.22217C0.5 2.55913 0.763392 1.92324 1.23223 1.4544C1.70107 0.98556 2.33696 0.722168 3 0.722168H13C13.663 0.722168 14.2989 0.98556 14.7678 1.4544C15.2366 1.92324 15.5 2.55913 15.5 3.22217V13.2222C15.5 13.8852 15.2366 14.5211 14.7678 14.9899C14.2989 15.4588 13.663 15.7222 13 15.7222H3C2.33696 15.7222 1.70107 15.4588 1.23223 14.9899C0.763392 14.5211 0.5 13.8852 0.5 13.2222V3.22217ZM8.83333 4.88883C8.83333 4.66782 8.74554 4.45586 8.58926 4.29958C8.43297 4.1433 8.22101 4.0555 8 4.0555C7.77899 4.0555 7.56702 4.1433 7.41074 4.29958C7.25446 4.45586 7.16667 4.66782 7.16667 4.88883V11.5555C7.16667 11.7765 7.25446 11.9885 7.41074 12.1448C7.56702 12.301 7.77899 12.3888 8 12.3888C8.22101 12.3888 8.43297 12.301 8.58926 12.1448C8.74554 11.9885 8.83333 11.7765 8.83333 11.5555V4.88883ZM5.5 7.38883C5.5 7.16782 5.4122 6.95586 5.25592 6.79958C5.09964 6.6433 4.88768 6.5555 4.66667 6.5555C4.44565 6.5555 4.23369 6.6433 4.07741 6.79958C3.92113 6.95586 3.83333 7.16782 3.83333 7.38883V11.5555C3.83333 11.7765 3.92113 11.9885 4.07741 12.1448C4.23369 12.301 4.44565 12.3888 4.66667 12.3888C4.88768 12.3888 5.09964 12.301 5.25592 12.1448C5.4122 11.9885 5.5 11.7765 5.5 11.5555V7.38883ZM12.1667 9.88883C12.1667 9.66782 12.0789 9.45586 11.9226 9.29958C11.7663 9.1433 11.5543 9.0555 11.3333 9.0555C11.1123 9.0555 10.9004 9.1433 10.7441 9.29958C10.5878 9.45586 10.5 9.66782 10.5 9.88883V11.5555C10.5 11.7765 10.5878 11.9885 10.7441 12.1448C10.9004 12.301 11.1123 12.3888 11.3333 12.3888C11.5543 12.3888 11.7663 12.301 11.9226 12.1448C12.0789 11.9885 12.1667 11.7765 12.1667 11.5555V9.88883Z" fill="#5D5D5D"/>
</svg>
