<svg width="14" height="14" viewBox="0 0 14 14" fill="none" xmlns="http://www.w3.org/2000/svg">
<path d="M9.146 4.64844L6.08936 7.71289L4.71045 6.33398L3.64697 7.39746L3.29248 7.75098L3.64697 8.10449L5.37646 9.83496L5.52295 9.98145H6.64697L10.9175 5.71094L9.49951 4.29297L9.146 4.64844ZM2.50049 8.87695L2.35693 8.73047L0.810059 7.15625V6.85449L2.35693 5.28125L2.50049 5.13574V2.71582L2.729 2.50098H5.21045L5.35791 2.35059L6.88135 0.791016H7.17432L8.74756 2.35547L8.89404 2.50098H11.3257L11.5298 2.7002V5.1377L11.6753 5.2832L13.2397 6.85742V7.15234L11.6489 8.72559L11.5005 8.87207V11.2939L11.2935 11.501H8.89307L7.17334 13.2207H6.88135L5.35889 11.6523L5.21143 11.501H2.729L2.50049 11.2852V8.87695Z" fill="#218DFF" stroke="black"/>
</svg>
