<svg width="24" height="24" viewBox="0 0 24 24" fill="none" xmlns="http://www.w3.org/2000/svg">
<g clip-path="url(#clip0_547_4169)">
<path d="M11.9997 1.33398C9.89001 1.33398 7.82772 1.95957 6.0736 3.13164C4.31947 4.30371 2.9523 5.96962 2.14496 7.91869C1.33763 9.86777 1.12639 12.0125 1.53797 14.0816C1.94955 16.1507 2.96545 18.0514 4.45721 19.5431C5.94897 21.0349 7.84959 22.0508 9.91872 22.4624C11.9878 22.8739 14.1326 22.6627 16.0816 21.8554C18.0307 21.048 19.6966 19.6809 20.8687 17.9267C22.0408 16.1726 22.6663 14.1103 22.6663 12.0007C22.6663 9.17167 21.5425 6.45857 19.5422 4.45818C17.5418 2.45779 14.8287 1.33398 11.9997 1.33398ZM17.0997 15.7273C16.433 17.7273 14.693 18.2873 13.1663 18.394V19.7273C13.1663 19.9483 13.0785 20.1603 12.9223 20.3166C12.766 20.4729 12.554 20.5606 12.333 20.5606C12.112 20.5606 11.9 20.4729 11.7438 20.3166C11.5875 20.1603 11.4997 19.9483 11.4997 19.7273V18.394C9.96878 18.2504 8.51671 17.6487 7.33301 16.6673C7.25291 16.5925 7.18833 16.5026 7.14296 16.4028C7.0976 16.3029 7.07234 16.1952 7.06863 16.0856C7.06491 15.976 7.08282 15.8668 7.12132 15.7641C7.15982 15.6615 7.21816 15.5674 7.29301 15.4873C7.36787 15.4072 7.45777 15.3426 7.55758 15.2973C7.65739 15.2519 7.76516 15.2266 7.87473 15.2229C7.9843 15.2192 8.09353 15.2371 8.19619 15.2756C8.29884 15.3141 8.39291 15.3725 8.47301 15.4473C9.34532 16.1502 10.3952 16.5979 11.5063 16.7407V12.554C10.6208 12.4182 9.77364 12.0979 9.01968 11.614C8.38566 11.2164 7.91107 10.6091 7.67843 9.89776C7.44579 9.18644 7.46982 8.41608 7.74635 7.72065C8.13968 6.71398 9.35968 5.56732 11.5063 5.38065V4.16732C11.5063 3.9463 11.5941 3.73434 11.7504 3.57806C11.9067 3.42178 12.1187 3.33398 12.3397 3.33398C12.5607 3.33398 12.7727 3.42178 12.9289 3.57806C13.0852 3.73434 13.173 3.9463 13.173 4.16732V5.40732C14.3647 5.53934 15.496 6.00108 16.4397 6.74065C16.5705 6.89454 16.6409 7.0907 16.638 7.29265C16.635 7.4946 16.5587 7.68859 16.4235 7.83855C16.2882 7.98851 16.103 8.08423 15.9024 8.10792C15.7019 8.1316 15.4995 8.08164 15.333 7.96732C14.6965 7.50177 13.9542 7.20167 13.173 7.09398V11.1807C13.573 11.2673 13.9997 11.3607 14.4463 11.5007C14.963 11.6295 15.4478 11.8627 15.8709 12.1861C16.294 12.5094 16.6464 12.9159 16.9063 13.3807C17.2776 14.1068 17.3471 14.9502 17.0997 15.7273Z" fill="#5D5D5D"/>
<path d="M13.947 13.0926C13.6803 13.0126 13.4203 12.9459 13.167 12.8926V16.7326C14.5003 16.5992 15.2137 16.1326 15.5203 15.1992C15.6225 14.8482 15.5868 14.4714 15.4203 14.1459C15.2573 13.881 15.043 13.6514 14.79 13.4705C14.537 13.2896 14.2504 13.1611 13.947 13.0926Z" fill="#5D5D5D"/>
<path d="M9.29303 8.31987C9.15392 8.66548 9.14481 9.0498 9.26739 9.40161C9.38997 9.75343 9.63593 10.0489 9.95969 10.2332C10.4308 10.5356 10.956 10.7439 11.5064 10.8465V7.0332C10.1064 7.19987 9.45969 7.8932 9.29303 8.31987Z" fill="#5D5D5D"/>
</g>
<defs>
<clipPath id="clip0_547_4169">
<rect width="24" height="24" fill="white"/>
</clipPath>
</defs>
</svg>
