<svg width="15" height="16" viewBox="0 0 15 16" fill="none" xmlns="http://www.w3.org/2000/svg">
<path d="M3.4375 2.375C3.68614 2.375 3.9246 2.47377 4.10041 2.64959C4.27623 2.8254 4.375 3.06386 4.375 3.3125V12.6875C4.375 12.9361 4.27623 13.1746 4.10041 13.3504C3.9246 13.5262 3.68614 13.625 3.4375 13.625H2.1875C1.93886 13.625 1.7004 13.5262 1.52459 13.3504C1.34877 13.1746 1.25 12.9361 1.25 12.6875V3.3125C1.25 3.06386 1.34877 2.8254 1.52459 2.64959C1.7004 2.47377 1.93886 2.375 2.1875 2.375H3.4375ZM7.1875 2.375C7.43614 2.375 7.6746 2.47377 7.85041 2.64959C8.02623 2.8254 8.125 3.06386 8.125 3.3125V12.6875C8.125 12.9361 8.02623 13.1746 7.85041 13.3504C7.6746 13.5262 7.43614 13.625 7.1875 13.625H5.9375C5.68886 13.625 5.4504 13.5262 5.27459 13.3504C5.09877 13.1746 5 12.9361 5 12.6875V3.3125C5 3.06386 5.09877 2.8254 5.27459 2.64959C5.4504 2.47377 5.68886 2.375 5.9375 2.375H7.1875ZM11.7381 4.3275L13.7469 12.1519C13.7775 12.2711 13.7843 12.3953 13.767 12.5172C13.7496 12.639 13.7084 12.7563 13.6458 12.8623C13.5831 12.9683 13.5001 13.0609 13.4017 13.1348C13.3032 13.2087 13.1911 13.2625 13.0719 13.2931L11.8994 13.5931C11.7801 13.6237 11.656 13.6306 11.5341 13.6132C11.4122 13.5959 11.2949 13.5547 11.1889 13.492C11.083 13.4293 10.9904 13.3464 10.9165 13.2479C10.8425 13.1495 10.7887 13.0374 10.7581 12.9181L8.74937 5.09625C8.71875 4.97699 8.71192 4.85287 8.72927 4.73097C8.74662 4.60908 8.78781 4.49179 8.85049 4.38581C8.91317 4.27984 8.99611 4.18724 9.09458 4.11332C9.19305 4.0394 9.30511 3.98561 9.42438 3.955L10.5969 3.65313C10.7161 3.6225 10.8403 3.61567 10.9622 3.63302C11.084 3.65037 11.2013 3.69156 11.3073 3.75424C11.4133 3.81692 11.5059 3.89986 11.5798 3.99833C11.6537 4.0968 11.7075 4.20824 11.7381 4.3275Z" fill="#888888"/>
</svg>
