<svg width="68" height="68" viewBox="0 0 68 68" fill="none" xmlns="http://www.w3.org/2000/svg">
<path d="M31.0001 2.40002C32.8565 1.32822 35.1437 1.32822 37.0001 2.40002L59.8676 15.6026C61.724 16.6744 62.8676 18.6551 62.8676 20.7987V47.2039C62.8676 49.3475 61.724 51.3282 59.8676 52.4L37.0001 65.6026C35.1437 66.6744 32.8565 66.6744 31.0001 65.6026L8.13257 52.4C6.27616 51.3282 5.13257 49.3475 5.13257 47.2039V20.7987C5.13257 18.6551 6.27616 16.6744 8.13257 15.6026L31.0001 2.40002Z" fill="#096CFF" fill-opacity="0.16" stroke="#0F3D99" stroke-width="2"/>
<path d="M12.9845 43.166V27.8877H16.922L21.1978 34.7988C21.4508 35.209 21.7071 35.6533 21.9669 36.1318C22.2266 36.6035 22.4864 37.1265 22.7462 37.7007C23.0059 38.2681 23.2657 38.9004 23.5255 39.5977L23.1666 39.8232C23.1256 39.2695 23.0846 38.6543 23.0435 37.9775C23.0094 37.3008 22.9786 36.6445 22.9513 36.0088C22.9239 35.373 22.9102 34.8433 22.9102 34.4194V27.8877H26.6119V43.166H22.6641L18.7369 36.8291C18.4224 36.3096 18.1217 35.7935 17.8346 35.2808C17.5474 34.7612 17.2535 34.1973 16.9527 33.5889C16.6588 32.9736 16.3238 32.273 15.9478 31.4868L16.4298 31.4253C16.4776 32.1499 16.5221 32.8574 16.5631 33.5479C16.6041 34.2383 16.6349 34.8672 16.6554 35.4346C16.6759 36.002 16.6861 36.4668 16.6861 36.8291V43.166H12.9845ZM44.0546 30.8818V27.8877H56.872V30.8818H52.2782V43.166H48.6484V30.8818H44.0546Z" fill="#096CFF"/>
<path d="M30.5857 43.166V27.8877H41.1062V30.8818H34.2156V34.6143H40.491V37.5366H34.2156V43.166H30.5857Z" fill="#0F3D99"/>
</svg>
