<svg width="60" height="60" viewBox="0 0 60 60" fill="none" xmlns="http://www.w3.org/2000/svg">
<rect x="20" y="14" width="26" height="20" fill="#0F265C"/>
<path fill-rule="evenodd" clip-rule="evenodd" d="M10 20C10 17.0163 11.1853 14.1548 13.295 12.045C15.4048 9.93526 18.2663 8.75 21.25 8.75H46.25C47.2446 8.75 48.1984 9.14509 48.9016 9.84835C49.6049 10.5516 50 11.5054 50 12.5V50C50 50.663 49.7366 51.2989 49.2678 51.7678C48.7989 52.2366 48.163 52.5 47.5 52.5H18.75C16.6455 52.5005 14.6114 51.7426 13.0204 50.3651C11.4294 48.9876 10.3881 47.0829 10.0875 45H10V20ZM46.25 38.75H18.75C17.4239 38.75 16.1521 39.2768 15.2145 40.2145C14.2768 41.1521 13.75 42.4239 13.75 43.75C13.75 45.0761 14.2768 46.3479 15.2145 47.2855C16.1521 48.2232 17.4239 48.75 18.75 48.75H46.25V38.75ZM20.625 20C20.625 19.5027 20.8225 19.0258 21.1742 18.6742C21.5258 18.3225 22.0027 18.125 22.5 18.125H40C40.4973 18.125 40.9742 18.3225 41.3258 18.6742C41.6775 19.0258 41.875 19.5027 41.875 20C41.875 20.4973 41.6775 20.9742 41.3258 21.3258C40.9742 21.6775 40.4973 21.875 40 21.875H22.5C22.0027 21.875 21.5258 21.6775 21.1742 21.3258C20.8225 20.9742 20.625 20.4973 20.625 20ZM22.5 25.625C22.0027 25.625 21.5258 25.8225 21.1742 26.1742C20.8225 26.5258 20.625 27.0027 20.625 27.5C20.625 27.9973 20.8225 28.4742 21.1742 28.8258C21.5258 29.1775 22.0027 29.375 22.5 29.375H35C35.4973 29.375 35.9742 29.1775 36.3258 28.8258C36.6775 28.4742 36.875 27.9973 36.875 27.5C36.875 27.0027 36.6775 26.5258 36.3258 26.1742C35.9742 25.8225 35.4973 25.625 35 25.625H22.5Z" fill="#096CFF"/>
</svg>
