<svg width="59" height="59" viewBox="0 0 59 59" fill="none" xmlns="http://www.w3.org/2000/svg">
<path d="M43.75 52.4999H8.74999C7.14999 52.4999 5.82999 51.1899 5.82999 49.5799V14.5899C5.82999 12.9899 4.51999 11.6699 2.90999 11.6699C1.29999 11.6699 -0.0100098 12.9799 -0.0100098 14.5899V52.5099C-0.0100098 55.7199 2.60999 58.3399 5.81999 58.3399H43.74C45.34 58.3399 46.66 57.0299 46.66 55.4199C46.66 53.8099 45.35 52.4999 43.74 52.4999H43.75Z" fill="#0F265C"/>
<path d="M52.4999 0H17.4999C14.2999 0 11.6699 2.63 11.6699 5.84V40.84C11.6699 44.05 14.2999 46.67 17.4999 46.67H52.4999C55.7099 46.67 58.3399 44.05 58.3399 40.84V5.84C58.3399 2.63 55.7099 0 52.4999 0ZM52.4999 29.17L45.2099 24.8L37.9199 29.17V5.84H52.4999V29.17Z" fill="#096CFF"/>
</svg>
