<svg width="14" height="15" viewBox="0 0 14 15" fill="none" xmlns="http://www.w3.org/2000/svg">
<path d="M6.27811 1.96767V4.75474C6.27811 4.98551 6.23254 5.21401 6.14401 5.42712C6.05548 5.64024 5.92574 5.83378 5.76222 5.99662C5.59871 6.15947 5.40465 6.28842 5.19117 6.37608C4.9777 6.46374 4.74901 6.50837 4.51824 6.50743H1.74554C1.5154 6.50882 1.28734 6.46373 1.07504 6.37486C0.862734 6.28599 0.670563 6.15517 0.510041 5.99024C0.347066 5.82862 0.218005 5.63609 0.130428 5.42393C0.0428504 5.21177 -0.00147955 4.98426 3.76687e-05 4.75474V1.97486C3.37752e-05 1.51126 0.183705 1.06654 0.510846 0.738051C0.837987 0.409564 1.28195 0.224068 1.74554 0.222168H4.52542C4.75533 0.222389 4.98291 0.268214 5.19499 0.35699C5.40706 0.445766 5.59942 0.575729 5.76092 0.739355C5.92433 0.899527 6.05422 1.09063 6.14302 1.30151C6.23181 1.5124 6.27774 1.73886 6.27811 1.96767ZM14 1.97486V4.75474C13.9963 5.21719 13.8114 5.65975 13.4851 5.98743C13.1587 6.31511 12.7169 6.5018 12.2545 6.50743H9.46743C9.00282 6.50458 8.5574 6.32178 8.22475 5.99742C8.0622 5.834 7.93348 5.64011 7.84597 5.42688C7.75846 5.21364 7.71386 4.98523 7.71474 4.75474V1.97486C7.71416 1.74483 7.75962 1.51701 7.84844 1.30483C7.93727 1.09264 8.06766 0.900374 8.23193 0.739355C8.39343 0.575729 8.58579 0.445766 8.79787 0.35699C9.00994 0.268214 9.23752 0.222389 9.46743 0.222168H12.2473C12.711 0.225923 13.1546 0.411786 13.4825 0.739668C13.8104 1.06755 13.9962 1.51118 14 1.97486ZM14 9.69674V12.4766C13.9963 12.9391 13.8114 13.3816 13.4851 13.7093C13.1587 14.037 12.7169 14.2237 12.2545 14.2293H9.46743C8.99987 14.2341 8.54889 14.0562 8.21038 13.7337C8.04719 13.5707 7.91805 13.3769 7.83049 13.1636C7.74294 12.9502 7.6987 12.7216 7.70038 12.491V9.71111C7.6998 9.48108 7.74526 9.25327 7.83408 9.04108C7.9229 8.82889 8.05329 8.63663 8.21756 8.47561C8.37907 8.31198 8.57143 8.18202 8.7835 8.09324C8.99558 8.00447 9.22316 7.95864 9.45306 7.95842H12.2329C12.6966 7.96218 13.1402 8.14804 13.4681 8.47592C13.796 8.80381 13.9819 9.24743 13.9856 9.71111L14 9.69674ZM6.27811 9.70393V12.4838C6.27246 12.9475 6.08478 13.3903 5.75555 13.7169C5.42633 14.0434 4.98194 14.2275 4.51824 14.2293H1.74554C1.51605 14.2303 1.28865 14.1858 1.07644 14.0984C0.864241 14.011 0.67144 13.8825 0.509166 13.7202C0.346891 13.5579 0.218354 13.3651 0.130971 13.1529C0.0435875 12.9407 -0.000912609 12.7133 3.76687e-05 12.4838V9.70393C0.00188819 9.24023 0.185932 8.79584 0.512472 8.46661C0.839011 8.13739 1.28188 7.94971 1.74554 7.94406H4.52542C4.99104 7.94882 5.4366 8.13426 5.76811 8.46124C6.09573 8.79175 6.2791 9.23856 6.27811 9.70393Z" fill="#5D5D5D"/>
</svg>
