<svg width="32" height="32" viewBox="0 0 32 32" fill="none" xmlns="http://www.w3.org/2000/svg">
<rect width="32" height="32" rx="16" fill="#822ECB" fill-opacity="0.16"/>
<g clip-path="url(#clip0_1_386)">
<path d="M15.378 13.0156V15.3022C14.9683 15.1912 14.6121 15.0207 14.3558 14.6872C14.0977 14.3519 14.1021 13.9515 14.3642 13.6199C14.6211 13.295 14.9726 13.1285 15.378 13.0156Z" fill="#822ECB" fill-opacity="0.8"/>
<path d="M17.8255 17.9377C17.785 18.2479 17.6006 18.4789 17.3483 18.6409C17.1335 18.7792 16.8938 18.8793 16.6232 19.0176V16.6895C16.9345 16.7676 17.2144 16.8906 17.4538 17.0997C17.7071 17.3211 17.8714 17.5873 17.8255 17.9377Z" fill="#822ECB" fill-opacity="0.8"/>
<path d="M16 8C11.5818 8 8 11.5816 8 16C8 20.4184 11.5818 24 16 24C20.4182 24 24 20.4182 24 16C24 11.5818 20.4184 8 16 8ZM18.3218 19.4222C17.8796 19.8303 17.3548 20.0771 16.771 20.1962C16.6341 20.2241 16.6021 20.278 16.609 20.4031C16.6182 20.5682 16.6152 20.7344 16.6103 20.9C16.6002 21.2474 16.3321 21.5098 15.9954 21.5073C15.6649 21.5049 15.402 21.2466 15.3908 20.9066C15.385 20.7355 15.3834 20.5639 15.3916 20.393C15.3971 20.2741 15.3648 20.2252 15.2358 20.1979C14.5727 20.0571 13.9846 19.7704 13.5218 19.2601C13.16 18.8614 12.9509 18.3975 12.9446 17.8531C12.9408 17.5123 13.1805 17.2455 13.5002 17.225C13.8389 17.2037 14.1398 17.427 14.1562 17.7648C14.183 18.3125 14.5164 18.6061 14.9589 18.8234C15.0858 18.8857 15.2232 18.9259 15.3886 18.9887V18.2065C15.3886 17.7093 15.3848 17.2119 15.3916 16.715C15.3935 16.5893 15.3528 16.5513 15.2303 16.5239C14.3713 16.3337 13.6465 15.93 13.2023 15.1401C12.7246 14.2904 12.914 13.2846 13.6558 12.5906C14.0991 12.176 14.6252 11.9218 15.215 11.7991C15.3451 11.7721 15.405 11.7305 15.3921 11.5862C15.3777 11.4217 15.3848 11.2547 15.3913 11.0893C15.405 10.7457 15.6644 10.4932 15.9973 10.4924C16.3324 10.4916 16.5936 10.74 16.609 11.0833C16.6169 11.2596 16.6232 11.4378 16.6081 11.613C16.5958 11.7557 16.6743 11.7737 16.78 11.7964C17.4923 11.9486 18.1084 12.2714 18.5746 12.8432C18.884 13.2225 19.0565 13.6579 19.056 14.1529C19.0557 14.4845 18.8072 14.7509 18.4855 14.772C18.171 14.7928 17.8597 14.5542 17.8446 14.2281C17.8197 13.6959 17.5024 13.401 17.073 13.1826C16.9375 13.1138 16.7893 13.0695 16.6234 13.0044C16.618 13.0829 16.6114 13.1351 16.6114 13.1873C16.6109 13.8722 16.6163 14.5574 16.6079 15.2421C16.6062 15.3941 16.654 15.4433 16.8005 15.4758C17.6492 15.6635 18.3595 16.0711 18.7966 16.8497C19.2801 17.7118 19.0844 18.7179 18.3218 19.4222Z" fill="#822ECB" fill-opacity="0.8"/>
</g>
<defs>
<clipPath id="clip0_1_386">
<rect width="16" height="16" fill="white" transform="translate(8 8)"/>
</clipPath>
</defs>
</svg>
