<svg width="24" height="24" viewBox="0 0 24 24" fill="none" xmlns="http://www.w3.org/2000/svg">
<g clip-path="url(#clip0_697_495)">
<path d="M12.0002 1.33398C9.8905 1.33398 7.82821 1.95957 6.07409 3.13164C4.31996 4.30371 2.95279 5.96962 2.14545 7.91869C1.33812 9.86777 1.12688 12.0125 1.53846 14.0816C1.95003 16.1507 2.96594 18.0514 4.4577 19.5431C5.94946 21.0349 7.85007 22.0508 9.9192 22.4624C11.9883 22.8739 14.133 22.6627 16.0821 21.8554C18.0312 21.048 19.6971 19.6809 20.8692 17.9267C22.0412 16.1726 22.6668 14.1103 22.6668 12.0007C22.6668 9.17167 21.543 6.45857 19.5426 4.45818C17.5423 2.45779 14.8291 1.33398 12.0002 1.33398ZM17.1002 15.7273C16.4335 17.7273 14.6935 18.2873 13.1668 18.394V19.7273C13.1668 19.9483 13.079 20.1603 12.9228 20.3166C12.7665 20.4729 12.5545 20.5606 12.3335 20.5606C12.1125 20.5606 11.9005 20.4729 11.7442 20.3166C11.588 20.1603 11.5002 19.9483 11.5002 19.7273V18.394C9.96927 18.2504 8.5172 17.6487 7.3335 16.6673C7.2534 16.5925 7.18882 16.5026 7.14345 16.4028C7.09809 16.3029 7.07283 16.1952 7.06912 16.0856C7.0654 15.976 7.08331 15.8668 7.12181 15.7641C7.16031 15.6615 7.21865 15.5674 7.2935 15.4873C7.36835 15.4072 7.45825 15.3426 7.55806 15.2973C7.65788 15.2519 7.76564 15.2266 7.87522 15.2229C7.98479 15.2192 8.09402 15.2371 8.19668 15.2756C8.29933 15.3141 8.39339 15.3725 8.4735 15.4473C9.34581 16.1502 10.3957 16.5979 11.5068 16.7407V12.554C10.6213 12.4182 9.77413 12.0979 9.02017 11.614C8.38615 11.2164 7.91155 10.6091 7.67891 9.89776C7.44628 9.18644 7.47031 8.41608 7.74683 7.72065C8.14017 6.71398 9.36017 5.56732 11.5068 5.38065V4.16732C11.5068 3.9463 11.5946 3.73434 11.7509 3.57806C11.9072 3.42178 12.1192 3.33398 12.3402 3.33398C12.5612 3.33398 12.7731 3.42178 12.9294 3.57806C13.0857 3.73434 13.1735 3.9463 13.1735 4.16732V5.40732C14.3652 5.53934 15.4965 6.00108 16.4402 6.74065C16.571 6.89454 16.6414 7.0907 16.6384 7.29265C16.6355 7.4946 16.5592 7.68859 16.4239 7.83855C16.2887 7.98851 16.1035 8.08423 15.9029 8.10792C15.7024 8.1316 15.5 8.08164 15.3335 7.96732C14.697 7.50177 13.9547 7.20167 13.1735 7.09398V11.1807C13.5735 11.2673 14.0002 11.3607 14.4468 11.5007C14.9635 11.6295 15.4483 11.8627 15.8714 12.1861C16.2945 12.5094 16.6469 12.9159 16.9068 13.3807C17.2781 14.1068 17.3476 14.9502 17.1002 15.7273Z" fill="#5D5D5D"/>
<path d="M13.9465 13.0926C13.6798 13.0126 13.4198 12.9459 13.1665 12.8926V16.7326C14.4998 16.5992 15.2132 16.1326 15.5198 15.1992C15.6221 14.8482 15.5863 14.4714 15.4198 14.1459C15.2569 13.881 15.0426 13.6514 14.7895 13.4705C14.5365 13.2896 14.2499 13.1611 13.9465 13.0926Z" fill="#5D5D5D"/>
<path d="M9.29352 8.31987C9.1544 8.66548 9.1453 9.0498 9.26788 9.40161C9.39046 9.75343 9.63642 10.0489 9.96018 10.2332C10.4313 10.5356 10.9565 10.7439 11.5069 10.8465V7.0332C10.1069 7.19987 9.46018 7.8932 9.29352 8.31987Z" fill="#5D5D5D"/>
</g>
<defs>
<clipPath id="clip0_697_495">
<rect width="24" height="24" fill="white"/>
</clipPath>
</defs>
</svg>
