<svg width="140" height="140" viewBox="0 0 140 140" fill="none" xmlns="http://www.w3.org/2000/svg">
<rect x="0.25" y="0.25" width="139.5" height="139.5" rx="69.75" fill="#B6E0FF"/>
<mask id="mask0_105_4734" style="mask-type:luminance" maskUnits="userSpaceOnUse" x="38" y="38" width="65" height="64">
<path d="M70.6973 99.0625C74.5145 99.0672 78.2951 98.3176 81.8217 96.8568C85.3483 95.396 88.5516 93.2527 91.2474 90.5501C93.95 87.8543 96.0932 84.6511 97.5541 81.1244C99.0149 77.5978 99.7645 73.8172 99.7598 70C99.7645 66.1828 99.0149 62.4023 97.5541 58.8756C96.0932 55.349 93.95 52.1457 91.2474 49.4499C88.5516 46.7473 85.3483 44.6041 81.8217 43.1432C78.2951 41.6824 74.5145 40.9328 70.6973 40.9375C66.8801 40.9328 63.0995 41.6824 59.5729 43.1432C56.0462 44.6041 52.843 46.7473 50.1472 49.4499C47.4446 52.1457 45.3013 55.349 43.8405 58.8756C42.3797 62.4023 41.6301 66.1828 41.6348 70C41.6301 73.8172 42.3797 77.5978 43.8405 81.1244C45.3013 84.6511 47.4446 87.8543 50.1472 90.5501C52.843 93.2527 56.0462 95.396 59.5729 96.8568C63.0995 98.3176 66.8801 99.0672 70.6973 99.0625Z" fill="white" stroke="white" stroke-width="5.8125" stroke-linejoin="round"/>
<path d="M59.0723 70L67.791 78.7188L85.2285 61.2812" stroke="black" stroke-width="5.8125" stroke-linecap="round" stroke-linejoin="round"/>
</mask>
<g mask="url(#mask0_105_4734)">
<path d="M35.8223 35.125H105.572V104.875H35.8223V35.125Z" fill="#096CFF"/>
</g>
</svg>
