<svg width="16" height="17" viewBox="0 0 16 17" fill="none" xmlns="http://www.w3.org/2000/svg">
<path d="M8.00174 1.11108C6.59529 1.11108 5.22043 1.52814 4.05102 2.30952C2.8816 3.0909 1.97015 4.2015 1.43193 5.50089C0.893706 6.80028 0.752882 8.23008 1.02727 9.6095C1.30165 10.9889 1.97892 12.256 2.97342 13.2505C3.96793 14.245 5.23501 14.9223 6.61443 15.1967C7.99385 15.4711 9.42366 15.3302 10.723 14.792C12.0224 14.2538 13.133 13.3423 13.9144 12.1729C14.6958 11.0035 15.1129 9.62864 15.1129 8.2222C15.1129 6.33621 14.3636 4.52747 13.0301 3.19388C11.6965 1.86029 9.88772 1.11108 8.00174 1.11108ZM11.4017 10.7066C10.9573 12.04 9.7973 12.4133 8.77952 12.4844V13.3733C8.77952 13.5206 8.72099 13.662 8.6168 13.7661C8.51261 13.8703 8.3713 13.9289 8.22396 13.9289C8.07662 13.9289 7.93531 13.8703 7.83112 13.7661C7.72694 13.662 7.66841 13.5206 7.66841 13.3733V12.4844C6.64781 12.3887 5.67976 11.9876 4.89063 11.3333C4.83722 11.2834 4.79417 11.2235 4.76393 11.1569C4.73369 11.0904 4.71685 11.0185 4.71437 10.9455C4.7119 10.8724 4.72383 10.7996 4.7495 10.7312C4.77516 10.6628 4.81406 10.6 4.86396 10.5466C4.91386 10.4932 4.9738 10.4502 5.04034 10.4199C5.10688 10.3897 5.17872 10.3729 5.25177 10.3704C5.32482 10.3679 5.39764 10.3798 5.46608 10.4055C5.53451 10.4312 5.59722 10.4701 5.65063 10.52C6.23216 10.9886 6.9321 11.287 7.67285 11.3822V8.59108C7.08249 8.50053 6.51771 8.28704 6.01507 7.96442C5.59239 7.69933 5.276 7.29448 5.1209 6.82026C4.96581 6.34605 4.98183 5.83248 5.16618 5.36886C5.42841 4.69775 6.24174 3.93331 7.67285 3.80886V2.99997C7.67285 2.85263 7.73138 2.71132 7.83557 2.60714C7.93976 2.50295 8.08106 2.44442 8.22841 2.44442C8.37575 2.44442 8.51706 2.50295 8.62124 2.60714C8.72543 2.71132 8.78396 2.85263 8.78396 2.99997V3.82664C9.57842 3.91465 10.3326 4.22248 10.9617 4.71553C11.0489 4.81812 11.0959 4.9489 11.0939 5.08353C11.0919 5.21816 11.0411 5.34749 10.9509 5.44746C10.8607 5.54743 10.7373 5.61125 10.6036 5.62704C10.4699 5.64283 10.335 5.60952 10.224 5.53331C9.7996 5.22294 9.30478 5.02288 8.78396 4.95108V7.67553C9.05063 7.73331 9.33507 7.79553 9.63285 7.88886C9.97729 7.97475 10.3005 8.13026 10.5826 8.34581C10.8646 8.56136 11.0995 8.83239 11.2729 9.14219C11.5204 9.6263 11.5667 10.1886 11.4017 10.7066Z" fill="#5D5D5D"/>
<path d="M9.29734 8.95108C9.11957 8.89775 8.94623 8.8533 8.77734 8.81775V11.3777C9.66623 11.2889 10.1418 10.9777 10.3462 10.3555C10.4144 10.1215 10.3905 9.87031 10.2796 9.6533C10.1709 9.4767 10.028 9.3236 9.85937 9.20301C9.69069 9.08241 9.4996 8.99676 9.29734 8.95108Z" fill="#5D5D5D"/>
<path d="M6.19535 5.76879C6.10261 5.99919 6.09654 6.25541 6.17826 6.48995C6.25998 6.72449 6.42396 6.92146 6.6398 7.04434C6.95386 7.24597 7.30402 7.38482 7.67091 7.45323V4.91101C6.73757 5.02212 6.30646 5.48434 6.19535 5.76879Z" fill="#5D5D5D"/>
</svg>
