<svg width="101" height="100" viewBox="0 0 101 100" fill="none" xmlns="http://www.w3.org/2000/svg">
<path fill-rule="evenodd" clip-rule="evenodd" d="M59.8752 10.4167C59.8752 10.1404 59.7654 9.87545 59.5701 9.6801C59.3747 9.48475 59.1098 9.375 58.8335 9.375H29.6668C26.6279 9.375 23.7134 10.5822 21.5646 12.7311C19.4157 14.8799 18.2085 17.7944 18.2085 20.8333V79.1667C18.2085 82.2056 19.4157 85.1201 21.5646 87.2689C23.7134 89.4178 26.6279 90.625 29.6668 90.625H71.3335C74.3724 90.625 77.2869 89.4178 79.4358 87.2689C81.5846 85.1201 82.7918 82.2056 82.7918 79.1667V38.1125C82.7918 37.8362 82.6821 37.5713 82.4867 37.3759C82.2914 37.1806 82.0264 37.0708 81.7502 37.0708H63.0002C62.1714 37.0708 61.3765 36.7416 60.7905 36.1555C60.2044 35.5695 59.8752 34.7746 59.8752 33.9458V10.4167ZM54.6668 47.9167C54.6668 46.2591 55.3253 44.6693 56.4974 43.4972C57.6695 42.3251 59.2592 41.6667 60.9168 41.6667C62.5744 41.6667 64.1642 42.3251 65.3363 43.4972C66.5084 44.6693 67.1668 46.2591 67.1668 47.9167C67.1668 49.5743 66.5084 51.164 65.3363 52.3361C64.1642 53.5082 62.5744 54.1667 60.9168 54.1667C59.2592 54.1667 57.6695 53.5082 56.4974 52.3361C55.3253 51.164 54.6668 49.5743 54.6668 47.9167ZM46.9002 54.5917C46.6193 54.1422 46.2286 53.7716 45.7651 53.5146C45.3015 53.2577 44.7802 53.1229 44.2502 53.1229C43.7201 53.1229 43.1988 53.2577 42.7353 53.5146C42.2717 53.7716 41.8811 54.1422 41.6002 54.5917L31.1835 71.2583C30.8873 71.7314 30.7232 72.2752 30.7083 72.8331C30.6934 73.3911 30.8282 73.9428 31.0986 74.4311C31.3691 74.9193 31.7654 75.3262 32.2464 75.6094C32.7273 75.8926 33.2753 76.0419 33.8335 76.0417H67.1668C67.7472 76.0417 68.3161 75.8801 68.8097 75.575C69.3034 75.2698 69.7024 74.8333 69.9619 74.3142C70.2215 73.7951 70.3313 73.214 70.2792 72.636C70.2271 72.058 70.015 71.5059 69.6668 71.0417L63.4168 62.7083C63.1258 62.3202 62.7483 62.0052 62.3144 61.7882C61.8805 61.5713 61.402 61.4583 60.9168 61.4583C60.4317 61.4583 59.9532 61.5713 59.5193 61.7882C59.0854 62.0052 58.7079 62.3202 58.4168 62.7083L54.9002 67.3958L46.9002 54.5917Z" fill="#218DFF"/>
<path d="M66.125 11.768C66.125 11.0014 66.9292 10.5139 67.525 10.993C68.0306 11.4014 68.4792 11.8764 68.8708 12.418L81.425 29.9055C81.7083 30.3055 81.4 30.8222 80.9083 30.8222H67.1667C66.8904 30.8222 66.6254 30.7125 66.4301 30.5171C66.2347 30.3218 66.125 30.0568 66.125 29.7805V11.768Z" fill="#218DFF"/>
</svg>
