<svg width="41" height="40" viewBox="0 0 41 40" fill="none" xmlns="http://www.w3.org/2000/svg">
<path d="M21.75 11.25V2.5H10.5C9.50544 2.5 8.55161 2.89509 7.84835 3.59835C7.14509 4.30161 6.75 5.25544 6.75 6.25V33.75C6.75 34.7446 7.14509 35.6984 7.84835 36.4016C8.55161 37.1049 9.50544 37.5 10.5 37.5H30.5C31.4946 37.5 32.4484 37.1049 33.1517 36.4016C33.8549 35.6984 34.25 34.7446 34.25 33.75V15H25.5C24.5054 15 23.5516 14.6049 22.8483 13.9017C22.1451 13.1984 21.75 12.2446 21.75 11.25ZM14.25 28.75H26.75C27.0815 28.75 27.3995 28.8817 27.6339 29.1161C27.8683 29.3505 28 29.6685 28 30C28 30.3315 27.8683 30.6495 27.6339 30.8839C27.3995 31.1183 27.0815 31.25 26.75 31.25H14.25C13.9185 31.25 13.6005 31.1183 13.3661 30.8839C13.1317 30.6495 13 30.3315 13 30C13 29.6685 13.1317 29.3505 13.3661 29.1161C13.6005 28.8817 13.9185 28.75 14.25 28.75ZM13 25C13 24.6685 13.1317 24.3505 13.3661 24.1161C13.6005 23.8817 13.9185 23.75 14.25 23.75H26.75C27.0815 23.75 27.3995 23.8817 27.6339 24.1161C27.8683 24.3505 28 24.6685 28 25C28 25.3315 27.8683 25.6495 27.6339 25.8839C27.3995 26.1183 27.0815 26.25 26.75 26.25H14.25C13.9185 26.25 13.6005 26.1183 13.3661 25.8839C13.1317 25.6495 13 25.3315 13 25ZM14.25 18.75H26.75C27.0815 18.75 27.3995 18.8817 27.6339 19.1161C27.8683 19.3505 28 19.6685 28 20C28 20.3315 27.8683 20.6495 27.6339 20.8839C27.3995 21.1183 27.0815 21.25 26.75 21.25H14.25C13.9185 21.25 13.6005 21.1183 13.3661 20.8839C13.1317 20.6495 13 20.3315 13 20C13 19.6685 13.1317 19.3505 13.3661 19.1161C13.6005 18.8817 13.9185 18.75 14.25 18.75ZM24.25 11.25V2.64625C24.8608 2.82168 25.4169 3.14944 25.8662 3.59875L33.1513 10.8837C33.6006 11.3331 33.9283 11.8892 34.1037 12.5H25.5C25.1685 12.5 24.8505 12.3683 24.6161 12.1339C24.3817 11.8995 24.25 11.5815 24.25 11.25Z" fill="#096CFF"/>
</svg>
