<svg width="29" height="36" viewBox="0 0 29 36" fill="none" xmlns="http://www.w3.org/2000/svg">
<path d="M15.75 9.25V0.5H4.5C3.50544 0.5 2.55161 0.895088 1.84835 1.59835C1.14509 2.30161 0.75 3.25544 0.75 4.25V31.75C0.75 32.7446 1.14509 33.6984 1.84835 34.4016C2.55161 35.1049 3.50544 35.5 4.5 35.5H24.5C25.4946 35.5 26.4484 35.1049 27.1517 34.4016C27.8549 33.6984 28.25 32.7446 28.25 31.75V13H19.5C18.5054 13 17.5516 12.6049 16.8483 11.9017C16.1451 11.1984 15.75 10.2446 15.75 9.25ZM8.25 26.75H20.75C21.0815 26.75 21.3995 26.8817 21.6339 27.1161C21.8683 27.3505 22 27.6685 22 28C22 28.3315 21.8683 28.6495 21.6339 28.8839C21.3995 29.1183 21.0815 29.25 20.75 29.25H8.25C7.91848 29.25 7.60054 29.1183 7.36612 28.8839C7.1317 28.6495 7 28.3315 7 28C7 27.6685 7.1317 27.3505 7.36612 27.1161C7.60054 26.8817 7.91848 26.75 8.25 26.75ZM7 23C7 22.6685 7.1317 22.3505 7.36612 22.1161C7.60054 21.8817 7.91848 21.75 8.25 21.75H20.75C21.0815 21.75 21.3995 21.8817 21.6339 22.1161C21.8683 22.3505 22 22.6685 22 23C22 23.3315 21.8683 23.6495 21.6339 23.8839C21.3995 24.1183 21.0815 24.25 20.75 24.25H8.25C7.91848 24.25 7.60054 24.1183 7.36612 23.8839C7.1317 23.6495 7 23.3315 7 23ZM8.25 16.75H20.75C21.0815 16.75 21.3995 16.8817 21.6339 17.1161C21.8683 17.3505 22 17.6685 22 18C22 18.3315 21.8683 18.6495 21.6339 18.8839C21.3995 19.1183 21.0815 19.25 20.75 19.25H8.25C7.91848 19.25 7.60054 19.1183 7.36612 18.8839C7.1317 18.6495 7 18.3315 7 18C7 17.6685 7.1317 17.3505 7.36612 17.1161C7.60054 16.8817 7.91848 16.75 8.25 16.75ZM18.25 9.25V0.64625C18.8608 0.821683 19.4169 1.14944 19.8662 1.59875L27.1513 8.88375C27.6006 9.3331 27.9283 9.88925 28.1037 10.5H19.5C19.1685 10.5 18.8505 10.3683 18.6161 10.1339C18.3817 9.89946 18.25 9.58152 18.25 9.25Z" fill="#096CFF"/>
</svg>
