<svg width="14" height="14" viewBox="0 0 14 14" fill="none" xmlns="http://www.w3.org/2000/svg">
<path d="M9.91669 11.668H2.91669C2.59585 11.668 2.33335 11.4055 2.33335 11.0846V4.08464C2.33335 3.7638 2.07085 3.5013 1.75002 3.5013C1.42919 3.5013 1.16669 3.7638 1.16669 4.08464V11.668C1.16669 12.3096 1.69169 12.8346 2.33335 12.8346H9.91669C10.2375 12.8346 10.5 12.5721 10.5 12.2513C10.5 11.9305 10.2375 11.668 9.91669 11.668ZM11.6667 1.16797H4.66669C4.02502 1.16797 3.50002 1.69297 3.50002 2.33464V9.33464C3.50002 9.9763 4.02502 10.5013 4.66669 10.5013H11.6667C12.3084 10.5013 12.8334 9.9763 12.8334 9.33464V2.33464C12.8334 1.69297 12.3084 1.16797 11.6667 1.16797ZM11.6667 7.0013L10.2084 6.1263L8.75002 7.0013V2.33464H11.6667V7.0013Z" fill="#888888"/>
</svg>
