<svg width="14" height="15" viewBox="0 0 14 15" fill="none" xmlns="http://www.w3.org/2000/svg">
<path d="M6.27811 1.96764V4.75471C6.27811 4.98548 6.23254 5.21398 6.14401 5.42709C6.05548 5.64021 5.92574 5.83375 5.76222 5.99659C5.59871 6.15944 5.40465 6.28839 5.19117 6.37605C4.9777 6.4637 4.74901 6.50834 4.51824 6.5074H1.74554C1.5154 6.50879 1.28734 6.4637 1.07504 6.37483C0.862734 6.28596 0.670563 6.15514 0.510041 5.99021C0.347066 5.82859 0.218005 5.63605 0.130428 5.4239C0.0428504 5.21174 -0.00147955 4.98423 3.76687e-05 4.75471V1.97483C3.37752e-05 1.51123 0.183705 1.06651 0.510846 0.738021C0.837987 0.409534 1.28195 0.224037 1.74554 0.222137H4.52542C4.75533 0.222358 4.98291 0.268183 5.19499 0.356959C5.40706 0.445735 5.59942 0.575698 5.76092 0.739324C5.92433 0.899497 6.05422 1.0906 6.14302 1.30148C6.23181 1.51237 6.27774 1.73883 6.27811 1.96764ZM14 1.97483V4.75471C13.9963 5.21716 13.8114 5.65972 13.4851 5.9874C13.1587 6.31508 12.7169 6.50177 12.2545 6.5074H9.46743C9.00282 6.50455 8.5574 6.32175 8.22475 5.99739C8.0622 5.83397 7.93348 5.64008 7.84597 5.42685C7.75846 5.21361 7.71386 4.9852 7.71474 4.75471V1.97483C7.71416 1.7448 7.75962 1.51698 7.84844 1.3048C7.93727 1.09261 8.06766 0.900343 8.23193 0.739324C8.39343 0.575698 8.58579 0.445735 8.79787 0.356959C9.00994 0.268183 9.23752 0.222358 9.46743 0.222137H12.2473C12.711 0.225892 13.1546 0.411755 13.4825 0.739638C13.8104 1.06752 13.9962 1.51115 14 1.97483ZM14 9.69671V12.4766C13.9963 12.939 13.8114 13.3816 13.4851 13.7093C13.1587 14.037 12.7169 14.2237 12.2545 14.2293H9.46743C8.99987 14.234 8.54889 14.0562 8.21038 13.7336C8.04719 13.5707 7.91805 13.3769 7.83049 13.1636C7.74294 12.9502 7.6987 12.7216 7.70038 12.491V9.71108C7.6998 9.48105 7.74526 9.25324 7.83408 9.04105C7.9229 8.82886 8.05329 8.6366 8.21756 8.47558C8.37907 8.31195 8.57143 8.18199 8.7835 8.09321C8.99558 8.00444 9.22316 7.95861 9.45306 7.95839H12.2329C12.6966 7.96215 13.1402 8.14801 13.4681 8.47589C13.796 8.80377 13.9819 9.2474 13.9856 9.71108L14 9.69671ZM6.27811 9.7039V12.4838C6.27246 12.9474 6.08478 13.3903 5.75555 13.7169C5.42633 14.0434 4.98194 14.2274 4.51824 14.2293H1.74554C1.51605 14.2302 1.28865 14.1857 1.07644 14.0984C0.864241 14.011 0.67144 13.8824 0.509166 13.7202C0.346891 13.5579 0.218354 13.3651 0.130971 13.1529C0.0435875 12.9407 -0.000912609 12.7133 3.76687e-05 12.4838V9.7039C0.00188819 9.2402 0.185932 8.79581 0.512472 8.46658C0.839011 8.13736 1.28188 7.94968 1.74554 7.94403H4.52542C4.99104 7.94879 5.4366 8.13423 5.76811 8.46121C6.09573 8.79172 6.2791 9.23853 6.27811 9.7039Z" fill="#5D5D5D"/>
</svg>
