<svg width="50" height="50" viewBox="0 0 50 50" fill="none" xmlns="http://www.w3.org/2000/svg">
<rect width="50" height="50" rx="10" fill="#F6F6F6"/>
<path d="M25 35C25.6193 35.0008 26.2235 34.8086 26.7285 34.4502C27.2335 34.0917 27.6143 33.5849 27.818 33H22.182C22.3857 33.5849 22.7665 34.0917 23.2715 34.4502C23.7765 34.8086 24.3807 35.0008 25 35ZM32 27.586V23C32 19.783 29.815 17.073 26.855 16.258C26.562 15.52 25.846 15 25 15C24.154 15 23.438 15.52 23.145 16.258C20.185 17.074 18 19.783 18 23V27.586L16.293 29.293C16.1055 29.4805 16.0001 29.7348 16 30V31C16 31.2652 16.1054 31.5196 16.2929 31.7071C16.4804 31.8946 16.7348 32 17 32H33C33.2652 32 33.5196 31.8946 33.7071 31.7071C33.8946 31.5196 34 31.2652 34 31V30C33.9999 29.7348 33.8946 29.4805 33.707 29.293L32 27.586Z" fill="#5D5D5D"/>
<rect x="27" y="27" width="11.5714" height="12" rx="5.78571" fill="#FF5C5C"/>
<path d="M33.7203 30.726V35.7148H32.8397V31.5329H32.8129L31.641 32.3532V31.5128L32.7694 30.726H33.7203Z" fill="white"/>
</svg>
