<svg width="41" height="40" viewBox="0 0 41 40" fill="none" xmlns="http://www.w3.org/2000/svg">
<rect x="0.25" width="40" height="40" rx="20" fill="#D6ECFF"/>
<path fill-rule="evenodd" clip-rule="evenodd" d="M27.2362 21.9875C27.9 20.9456 28.2517 19.7354 28.2497 18.5C28.2497 14.91 25.3397 12 21.7497 12C20.4662 12 19.2697 12.372 18.2622 13.0135C17.5917 13.0513 16.9281 13.1685 16.2852 13.3625C16.9858 12.6156 17.8323 12.0206 18.7722 11.6142C19.7122 11.2078 20.7256 10.9988 21.7497 11C25.8917 11 29.2497 14.358 29.2497 18.5C29.2509 19.5241 29.0419 20.5375 28.6355 21.4774C28.2291 22.4174 27.634 23.2639 26.8872 23.9645C27.0777 23.333 27.1977 22.671 27.2362 21.9875Z" fill="#096CFF"/>
<path fill-rule="evenodd" clip-rule="evenodd" d="M28.2162 22.3015C27.8545 22.9162 27.407 23.4762 26.8872 23.9645C27.0777 23.333 27.1972 22.671 27.2357 21.9875C27.8997 20.9457 28.2516 19.7355 28.2497 18.5C28.2497 14.91 25.3397 12 21.7497 12C20.4662 12 19.2697 12.372 18.2622 13.0135C17.5917 13.0513 16.9281 13.1685 16.2852 13.3625C16.7735 12.8427 17.3335 12.3952 17.9482 12.0335C19.0999 11.3548 20.4128 10.9979 21.7497 11C25.8917 11 29.2497 14.358 29.2497 18.5C29.2497 18.5753 29.2485 18.6505 29.2462 18.7255C29.2109 19.9854 28.8565 21.2158 28.2162 22.3015Z" fill="#096CFF"/>
<path fill-rule="evenodd" clip-rule="evenodd" d="M26.25 21.5C26.25 25.642 22.892 29 18.75 29C14.608 29 11.25 25.642 11.25 21.5C11.25 17.358 14.608 14 18.75 14C22.892 14 26.25 17.358 26.25 21.5ZM18.25 19C17.9848 19 17.7304 19.1054 17.5429 19.2929C17.3554 19.4804 17.25 19.7348 17.25 20C17.25 20.2652 17.3554 20.5196 17.5429 20.7071C17.7304 20.8946 17.9848 21 18.25 21V19ZM19.25 18V17.5H18.25V18C17.7196 18 17.2109 18.2107 16.8358 18.5858C16.4607 18.9609 16.25 19.4696 16.25 20C16.25 20.5304 16.4607 21.0391 16.8358 21.4142C17.2109 21.7893 17.7196 22 18.25 22V24C17.815 24 17.4445 23.7225 17.3065 23.3335C17.286 23.2699 17.253 23.211 17.2094 23.1603C17.1657 23.1097 17.1124 23.0683 17.0525 23.0386C16.9926 23.0089 16.9273 22.9916 16.8606 22.9875C16.7939 22.9835 16.727 22.9929 16.664 23.0152C16.6009 23.0375 16.543 23.0721 16.4936 23.1172C16.4442 23.1622 16.4043 23.2167 16.3764 23.2775C16.3484 23.3382 16.3329 23.4039 16.3308 23.4707C16.3287 23.5376 16.3399 23.6041 16.364 23.6665C16.5019 24.0565 16.7573 24.3942 17.095 24.633C17.4328 24.8719 17.8363 25.0001 18.25 25V25.5H19.25V25C19.7804 25 20.2891 24.7893 20.6642 24.4142C21.0393 24.0391 21.25 23.5304 21.25 23C21.25 22.4696 21.0393 21.9609 20.6642 21.5858C20.2891 21.2107 19.7804 21 19.25 21V19C19.685 19 20.0555 19.2775 20.1935 19.6665C20.214 19.7301 20.247 19.789 20.2906 19.8397C20.3343 19.8903 20.3876 19.9317 20.4475 19.9614C20.5074 19.9911 20.5727 20.0084 20.6394 20.0125C20.7061 20.0165 20.773 20.0071 20.836 19.9848C20.8991 19.9625 20.957 19.9279 21.0064 19.8828C21.0558 19.8378 21.0957 19.7833 21.1236 19.7225C21.1516 19.6618 21.1671 19.5961 21.1692 19.5293C21.1713 19.4624 21.1601 19.3959 21.136 19.3335C20.9981 18.9435 20.7427 18.6058 20.405 18.367C20.0672 18.1281 19.6637 17.9999 19.25 18ZM19.25 22V24C19.5152 24 19.7696 23.8946 19.9571 23.7071C20.1446 23.5196 20.25 23.2652 20.25 23C20.25 22.7348 20.1446 22.4804 19.9571 22.2929C19.7696 22.1054 19.5152 22 19.25 22Z" fill="#096CFF"/>
</svg>
