<svg width="41" height="40" viewBox="0 0 41 40" fill="none" xmlns="http://www.w3.org/2000/svg">
<rect x="0.75" width="40" height="40" rx="20" fill="#EDF7FF"/>
<path fill-rule="evenodd" clip-rule="evenodd" d="M24.4192 14.8976C23.4004 14.1644 22.1854 13.753 20.9308 13.7165C19.6761 13.6801 18.4393 14.0201 17.3796 14.693C16.32 15.3658 15.4861 16.3405 14.9855 17.4915C14.4848 18.6425 14.3403 19.9171 14.5706 21.151C14.6085 21.3727 14.5578 21.6004 14.4294 21.785C14.3009 21.9696 14.1051 22.0964 13.884 22.1379C13.663 22.1795 13.4345 22.1325 13.2478 22.0071C13.0611 21.8816 12.9312 21.6879 12.8861 21.4676C12.5883 19.8738 12.7819 18.2271 13.4412 16.7458C14.1005 15.2646 15.1945 14.0187 16.578 13.1733C17.9616 12.3279 19.5693 11.9229 21.1883 12.0121C22.8072 12.1013 24.3608 12.6803 25.6431 13.6725L26.3425 12.9731C26.4224 12.8931 26.5242 12.8385 26.635 12.8164C26.7459 12.7942 26.8608 12.8054 26.9653 12.8486C27.0698 12.8918 27.1591 12.965 27.222 13.059C27.2849 13.153 27.3184 13.2635 27.3185 13.3766V15.997C27.3185 16.1485 27.2583 16.2939 27.1511 16.401C27.0439 16.5082 26.8986 16.5684 26.7471 16.5684H24.1266C24.0138 16.5681 23.9036 16.5345 23.8098 16.4717C23.7161 16.4089 23.6431 16.3197 23.5999 16.2155C23.5568 16.1112 23.5455 15.9965 23.5674 15.8859C23.5893 15.7752 23.6436 15.6735 23.7232 15.5936L24.4192 14.8976ZM27.6087 17.8426C27.8321 17.8005 28.0631 17.8488 28.2508 17.977C28.4385 18.1051 28.5677 18.3026 28.6098 18.526C28.9079 20.12 28.7144 21.7669 28.055 23.2484C27.3957 24.7299 26.3016 25.976 24.9178 26.8215C23.534 27.6669 21.926 28.0718 20.3068 27.9824C18.6877 27.893 17.1339 27.3136 15.8516 26.321L15.1522 27.0215C15.0723 27.1017 14.9704 27.1562 14.8595 27.1784C14.7485 27.2005 14.6334 27.1892 14.5289 27.1459C14.4244 27.1025 14.335 27.0291 14.2723 26.935C14.2095 26.8408 14.1761 26.7302 14.1763 26.617V23.9966C14.1763 23.845 14.2365 23.6997 14.3437 23.5925C14.4508 23.4854 14.5962 23.4252 14.7477 23.4252H17.3681C17.4813 23.425 17.592 23.4584 17.6861 23.5211C17.7803 23.5839 17.8537 23.6732 17.897 23.7778C17.9403 23.8823 17.9516 23.9973 17.9295 24.1083C17.9074 24.2193 17.8528 24.3212 17.7727 24.4011L17.0756 25.0971C18.0943 25.8303 19.3093 26.2417 20.564 26.2782C21.8187 26.3146 23.0555 25.9745 24.1151 25.3017C25.1748 24.6289 26.0086 23.6542 26.5093 22.5032C27.01 21.3522 27.1545 20.0776 26.9242 18.8437C26.9034 18.7329 26.9046 18.6191 26.9278 18.5088C26.951 18.3985 26.9957 18.2939 27.0594 18.2009C27.1231 18.1079 27.2045 18.0284 27.2989 17.9669C27.3934 17.9055 27.4991 17.8632 27.6099 17.8426H27.6087ZM21.4639 16.1764C21.4639 15.9491 21.3736 15.7311 21.2129 15.5703C21.0521 15.4096 20.8341 15.3193 20.6068 15.3193C20.3795 15.3193 20.1615 15.4096 20.0008 15.5703C19.84 15.7311 19.7497 15.9491 19.7497 16.1764V16.5684C19.3029 16.6423 18.8959 16.8696 18.5986 17.2113C18.3013 17.5529 18.1324 17.9874 18.1209 18.4401C18.1094 18.8929 18.256 19.3354 18.5356 19.6917C18.8151 20.048 19.2101 20.2957 19.6526 20.3922L21.0925 20.7064C21.1779 20.7281 21.2526 20.7799 21.3029 20.8522C21.3532 20.9245 21.3756 21.0126 21.3662 21.1002C21.3567 21.1877 21.316 21.269 21.2514 21.3289C21.1869 21.3889 21.1028 21.4235 21.0148 21.4264H20.1988C20.1237 21.4261 20.0505 21.4027 19.9892 21.3594C19.9279 21.316 19.8813 21.2548 19.856 21.1841C19.8185 21.078 19.7604 20.9802 19.6851 20.8965C19.6098 20.8127 19.5188 20.7446 19.4172 20.6961C19.3156 20.6476 19.2054 20.6195 19.0929 20.6135C18.9805 20.6076 18.8679 20.6238 18.7618 20.6613C18.6556 20.6988 18.5578 20.7569 18.4741 20.8322C18.3904 20.9075 18.3223 20.9985 18.2737 21.1001C18.2252 21.2017 18.1971 21.3119 18.1912 21.4244C18.1852 21.5368 18.2014 21.6494 18.2389 21.7555C18.3565 22.0881 18.5568 22.3854 18.8209 22.6193C19.085 22.8532 19.4042 23.0161 19.7486 23.0926V23.5063C19.7486 23.7336 19.8389 23.9516 19.9996 24.1124C20.1603 24.2731 20.3784 24.3634 20.6057 24.3634C20.833 24.3634 21.051 24.2731 21.2117 24.1124C21.3725 23.9516 21.4628 23.7336 21.4628 23.5063V23.0926C21.9244 22.9891 22.337 22.7314 22.6324 22.3619C22.9278 21.9924 23.0885 21.5332 23.0878 21.0601C23.0871 20.5871 22.9252 20.1283 22.6287 19.7597C22.3323 19.391 21.919 19.1344 21.4571 19.0323L20.0171 18.7168C19.9613 18.7042 19.912 18.6715 19.8787 18.6249C19.8454 18.5783 19.8305 18.5211 19.8367 18.4641C19.8429 18.4072 19.8698 18.3545 19.9124 18.3162C19.955 18.2779 20.0101 18.2565 20.0674 18.2563H21.0136C21.0888 18.2566 21.162 18.28 21.2233 18.3233C21.2846 18.3667 21.3311 18.4279 21.3565 18.4986C21.4323 18.713 21.5901 18.8886 21.7953 18.9866C21.8969 19.0352 22.0071 19.0632 22.1196 19.0692C22.232 19.0752 22.3445 19.0589 22.4507 19.0214C22.5569 18.9839 22.6546 18.9258 22.7384 18.8505C22.8221 18.7752 22.8902 18.6842 22.9388 18.5826C22.9873 18.481 23.0154 18.3708 23.0213 18.2583C23.0273 18.1459 23.0111 18.0333 22.9735 17.9272C22.8559 17.5944 22.6554 17.2971 22.3911 17.0632C22.1268 16.8293 21.8074 16.6665 21.4628 16.5901V16.1787L21.4639 16.1764Z" fill="#096CFF"/>
</svg>
