<svg width="32" height="32" viewBox="0 0 32 32" fill="none" xmlns="http://www.w3.org/2000/svg">
<rect width="32" height="32" rx="16" fill="#EDF7FF"/>
<path fill-rule="evenodd" clip-rule="evenodd" d="M8 12C8 10.8065 8.47411 9.66193 9.31802 8.81802C10.1619 7.97411 11.3065 7.5 12.5 7.5H22.5C22.8978 7.5 23.2794 7.65804 23.5607 7.93934C23.842 8.22064 24 8.60218 24 9V24C24 24.2652 23.8946 24.5196 23.7071 24.7071C23.5196 24.8946 23.2652 25 23 25H11.5C10.6582 25.0002 9.84455 24.697 9.20815 24.146C8.57175 23.5951 8.15525 22.8331 8.035 22H8V12ZM22.5 19.5H11.5C10.9696 19.5 10.4609 19.7107 10.0858 20.0858C9.71071 20.4609 9.5 20.9696 9.5 21.5C9.5 22.0304 9.71071 22.5391 10.0858 22.9142C10.4609 23.2893 10.9696 23.5 11.5 23.5H22.5V19.5ZM12.25 12C12.25 11.8011 12.329 11.6103 12.4697 11.4697C12.6103 11.329 12.8011 11.25 13 11.25H20C20.1989 11.25 20.3897 11.329 20.5303 11.4697C20.671 11.6103 20.75 11.8011 20.75 12C20.75 12.1989 20.671 12.3897 20.5303 12.5303C20.3897 12.671 20.1989 12.75 20 12.75H13C12.8011 12.75 12.6103 12.671 12.4697 12.5303C12.329 12.3897 12.25 12.1989 12.25 12ZM13 14.25C12.8011 14.25 12.6103 14.329 12.4697 14.4697C12.329 14.6103 12.25 14.8011 12.25 15C12.25 15.1989 12.329 15.3897 12.4697 15.5303C12.6103 15.671 12.8011 15.75 13 15.75H18C18.1989 15.75 18.3897 15.671 18.5303 15.5303C18.671 15.3897 18.75 15.1989 18.75 15C18.75 14.8011 18.671 14.6103 18.5303 14.4697C18.3897 14.329 18.1989 14.25 18 14.25H13Z" fill="#096CFF"/>
</svg>
