<svg width="16" height="15" viewBox="0 0 16 15" fill="none" xmlns="http://www.w3.org/2000/svg">
<path d="M3.00976 12.2612L1.27915 13.9918C1.04088 14.2301 0.767991 14.2835 0.460494 14.1521C0.152997 14.0207 -0.000500401 13.7854 1.22547e-06 13.4463V1.72705C1.22547e-06 1.31321 0.147479 0.959057 0.442436 0.664603C0.737392 0.370148 1.09154 0.22267 1.50488 0.222168H13.5439C13.9578 0.222168 14.3122 0.369646 14.6071 0.664603C14.9021 0.959559 15.0493 1.31371 15.0488 1.72705V10.7563C15.0488 11.1702 14.9016 11.5246 14.6071 11.8195C14.3127 12.1145 13.9583 12.2617 13.5439 12.2612H3.00976ZM7.5244 10.0039C7.73759 10.0039 7.91642 9.93165 8.06089 9.78718C8.20536 9.64271 8.27734 9.46414 8.27684 9.25145C8.27634 9.03876 8.2041 8.86018 8.06014 8.71571C7.91617 8.57124 7.73759 8.49901 7.5244 8.49901C7.31121 8.49901 7.13263 8.57124 6.98866 8.71571C6.8447 8.86018 6.77246 9.03876 6.77196 9.25145C6.77146 9.46414 6.84369 9.64297 6.98866 9.78794C7.13363 9.93291 7.31221 10.0049 7.5244 10.0039ZM7.5244 6.99413C7.73759 6.99413 7.91642 6.92189 8.06089 6.77742C8.20536 6.63296 8.27734 6.45438 8.27684 6.24169V3.23193C8.27684 3.01874 8.20461 2.84016 8.06014 2.69619C7.91567 2.55222 7.73709 2.47999 7.5244 2.47949C7.31171 2.47899 7.13313 2.55122 6.98866 2.69619C6.84419 2.84116 6.77196 3.01974 6.77196 3.23193V6.24169C6.77196 6.45488 6.84419 6.63371 6.98866 6.77818C7.13313 6.92264 7.31171 6.99463 7.5244 6.99413Z" fill="#5D5D5D"/>
</svg>
