<svg width="32" height="32" viewBox="0 0 32 32" fill="none" xmlns="http://www.w3.org/2000/svg">
<rect width="32" height="32" rx="16" fill="#239641" fill-opacity="0.16"/>
<path d="M24.125 9.14453H19.6562C18.6973 9.14453 17.7598 9.41992 16.9531 9.93945L16 10.5508L15.0469 9.93945C14.241 9.42002 13.3025 9.14402 12.3438 9.14453H7.875C7.5293 9.14453 7.25 9.42383 7.25 9.76953V20.8633C7.25 21.209 7.5293 21.4883 7.875 21.4883H12.3438C13.3027 21.4883 14.2402 21.7637 15.0469 22.2832L15.9141 22.8418C15.9395 22.8574 15.9688 22.8672 15.998 22.8672C16.0273 22.8672 16.0566 22.8594 16.082 22.8418L16.9492 22.2832C17.7578 21.7637 18.6973 21.4883 19.6562 21.4883H24.125C24.4707 21.4883 24.75 21.209 24.75 20.8633V9.76953C24.75 9.42383 24.4707 9.14453 24.125 9.14453ZM13.8906 16.8105C13.8906 16.8906 13.8281 16.957 13.752 16.957H10.123C10.0469 16.957 9.98438 16.8906 9.98438 16.8105V15.9316C9.98438 15.8516 10.0469 15.7852 10.123 15.7852H13.75C13.8262 15.7852 13.8887 15.8516 13.8887 15.9316V16.8105H13.8906ZM13.8906 14.0762C13.8906 14.1562 13.8281 14.2227 13.752 14.2227H10.123C10.0469 14.2227 9.98438 14.1562 9.98438 14.0762V13.1973C9.98438 13.1172 10.0469 13.0508 10.123 13.0508H13.75C13.8262 13.0508 13.8887 13.1172 13.8887 13.1973V14.0762H13.8906ZM22.0156 16.8105C22.0156 16.8906 21.9531 16.957 21.877 16.957H18.248C18.1719 16.957 18.1094 16.8906 18.1094 16.8105V15.9316C18.1094 15.8516 18.1719 15.7852 18.248 15.7852H21.875C21.9512 15.7852 22.0137 15.8516 22.0137 15.9316V16.8105H22.0156ZM22.0156 14.0762C22.0156 14.1562 21.9531 14.2227 21.877 14.2227H18.248C18.1719 14.2227 18.1094 14.1562 18.1094 14.0762V13.1973C18.1094 13.1172 18.1719 13.0508 18.248 13.0508H21.875C21.9512 13.0508 22.0137 13.1172 22.0137 13.1973V14.0762H22.0156Z" fill="#239641" fill-opacity="0.8"/>
</svg>
