<svg width="32" height="32" viewBox="0 0 32 32" fill="none" xmlns="http://www.w3.org/2000/svg">
<rect width="32" height="32" rx="16" fill="#DBA736" fill-opacity="0.16"/>
<g clip-path="url(#clip0_1_416)">
<path d="M19.5626 15.6757C21.0444 15.6757 22.2457 14.4744 22.2457 12.9925C22.2457 11.5106 21.0444 10.3093 19.5626 10.3093C18.0807 10.3093 16.8794 11.5106 16.8794 12.9925C16.8794 14.4744 18.0807 15.6757 19.5626 15.6757Z" fill="#DBA736" fill-opacity="0.8"/>
<path d="M19.5626 16.0851C22.0117 16.0851 24 18.0734 24 20.5225V21.2453C24 21.8835 23.4825 22.401 22.8443 22.401H16.2808C15.6427 22.401 15.1251 21.8835 15.1251 21.2453V20.5225C15.1251 18.0734 17.1134 16.0851 19.5626 16.0851Z" fill="#DBA736" fill-opacity="0.8"/>
<path d="M12.4374 14.3654C13.9193 14.3654 15.1206 13.1641 15.1206 11.6822C15.1206 10.2003 13.9193 8.99902 12.4374 8.99902C10.9556 8.99902 9.75427 10.2003 9.75427 11.6822C9.75427 13.1641 10.9556 14.3654 12.4374 14.3654Z" fill="#DBA736" fill-opacity="0.8"/>
<path d="M13.685 20.5215V21.0903H9.15572C8.51755 21.0903 8 20.5728 8 19.9346V19.2119C8 16.7609 9.9865 14.7744 12.4374 14.7744C13.6985 14.7744 14.8362 15.3001 15.6445 16.1453C14.4419 17.2209 13.685 18.7843 13.685 20.5215Z" fill="#DBA736" fill-opacity="0.8"/>
<path d="M16.8749 19.2123V19.9351C16.8749 20.5733 16.3573 21.0908 15.7192 21.0908H15.1251V20.522C15.1251 19.2771 15.6373 18.152 16.4636 17.3464C16.7282 17.9135 16.8749 18.5463 16.8749 19.2123Z" fill="#DBA736" fill-opacity="0.8"/>
</g>
<defs>
<clipPath id="clip0_1_416">
<rect width="16" height="13.4005" fill="white" transform="translate(8 9)"/>
</clipPath>
</defs>
</svg>
