<svg width="20" height="21" viewBox="0 0 20 21" fill="none" xmlns="http://www.w3.org/2000/svg">
<path fill-rule="evenodd" clip-rule="evenodd" d="M5 1.88882C4.33696 1.88882 3.70107 2.15222 3.23223 2.62106C2.76339 3.0899 2.5 3.72578 2.5 4.38882V16.0555C2.5 16.7185 2.76339 17.3544 3.23223 17.8233C3.70107 18.2921 4.33696 18.5555 5 18.5555H10C10.663 18.5555 11.2989 18.2921 11.7678 17.8233C12.2366 17.3544 12.5 16.7185 12.5 16.0555V4.38882C12.5 3.72578 12.2366 3.0899 11.7678 2.62106C11.2989 2.15222 10.663 1.88882 10 1.88882H5ZM13.5775 6.29966C13.7338 6.14343 13.9457 6.05567 14.1667 6.05567C14.3876 6.05567 14.5996 6.14343 14.7558 6.29966L18.0892 9.63299C18.2454 9.78926 18.3332 10.0012 18.3332 10.2222C18.3332 10.4431 18.2454 10.6551 18.0892 10.8113L14.7558 14.1447C14.5987 14.2965 14.3882 14.3805 14.1697 14.3786C13.9512 14.3767 13.7422 14.289 13.5877 14.1345C13.4331 13.98 13.3455 13.771 13.3436 13.5525C13.3417 13.334 13.4257 13.1235 13.5775 12.9663L15.4883 11.0555H8.33333C8.11232 11.0555 7.90036 10.9677 7.74408 10.8114C7.5878 10.6551 7.5 10.4432 7.5 10.2222C7.5 10.0011 7.5878 9.78918 7.74408 9.6329C7.90036 9.47662 8.11232 9.38882 8.33333 9.38882H15.4883L13.5775 7.47799C13.4213 7.32172 13.3335 7.10979 13.3335 6.88882C13.3335 6.66785 13.4213 6.45593 13.5775 6.29966Z" fill="#5D5D5D"/>
</svg>
