<svg width="14" height="14" viewBox="0 0 14 14" fill="none" xmlns="http://www.w3.org/2000/svg">
<path d="M7.34179 1.50883C7.12305 1.29002 6.82635 1.16706 6.51696 1.16699H2.33329C2.02387 1.16699 1.72713 1.28991 1.50833 1.5087C1.28954 1.72749 1.16663 2.02424 1.16663 2.33366V6.51733C1.16669 6.82672 1.28965 7.12342 1.50846 7.34216L6.17513 12.0088C6.39391 12.2275 6.6906 12.3504 6.99996 12.3504C7.30932 12.3504 7.60601 12.2275 7.82479 12.0088L12.0085 7.82516C12.2272 7.60638 12.35 7.30968 12.35 7.00033C12.35 6.69097 12.2272 6.39428 12.0085 6.17549L7.34179 1.50883ZM4.08329 5.25033C3.7738 5.25025 3.47701 5.12723 3.25821 4.90833C3.03942 4.68942 2.91655 4.39257 2.91663 4.08308C2.9167 3.77358 3.03972 3.47679 3.25863 3.258C3.47753 3.0392 3.77438 2.91633 4.08388 2.91641C4.39337 2.91649 4.69016 3.03951 4.90895 3.25841C5.12775 3.47731 5.25062 3.77416 5.25054 4.08366C5.25047 4.39316 5.12744 4.68995 4.90854 4.90874C4.68964 5.12753 4.39279 5.2504 4.08329 5.25033Z" fill="#888888"/>
</svg>
