<svg width="65" height="82" viewBox="0 0 65 82" fill="none" xmlns="http://www.w3.org/2000/svg">
<path fill-rule="evenodd" clip-rule="evenodd" d="M41.8747 1.41667C41.8747 1.1404 41.7649 0.875448 41.5696 0.680097C41.3742 0.484747 41.1093 0.375 40.833 0.375H11.6663C8.6274 0.375 5.71293 1.58221 3.56408 3.73107C1.41522 5.87992 0.208008 8.79439 0.208008 11.8333V70.1667C0.208008 73.2056 1.41522 76.1201 3.56408 78.2689C5.71293 80.4178 8.6274 81.625 11.6663 81.625H53.333C56.372 81.625 59.2864 80.4178 61.4353 78.2689C63.5841 76.1201 64.7913 73.2056 64.7913 70.1667V29.1125C64.7913 28.8362 64.6816 28.5713 64.4863 28.3759C64.2909 28.1806 64.0259 28.0708 63.7497 28.0708H44.9997C44.1709 28.0708 43.376 27.7416 42.79 27.1555C42.2039 26.5695 41.8747 25.7746 41.8747 24.9458V1.41667ZM36.6663 38.9167C36.6663 37.2591 37.3248 35.6693 38.4969 34.4972C39.669 33.3251 41.2587 32.6667 42.9163 32.6667C44.5739 32.6667 46.1637 33.3251 47.3358 34.4972C48.5079 35.6693 49.1663 37.2591 49.1663 38.9167C49.1663 40.5743 48.5079 42.164 47.3358 43.3361C46.1637 44.5082 44.5739 45.1667 42.9163 45.1667C41.2587 45.1667 39.669 44.5082 38.4969 43.3361C37.3248 42.164 36.6663 40.5743 36.6663 38.9167ZM28.8997 45.5917C28.6188 45.1422 28.2282 44.7716 27.7646 44.5146C27.301 44.2577 26.7797 44.1229 26.2497 44.1229C25.7197 44.1229 25.1983 44.2577 24.7348 44.5146C24.2712 44.7716 23.8806 45.1422 23.5997 45.5917L13.183 62.2583C12.8868 62.7314 12.7227 63.2752 12.7078 63.8331C12.6929 64.3911 12.8277 64.9428 13.0982 65.4311C13.3686 65.9193 13.765 66.3262 14.2459 66.6094C14.7268 66.8926 15.2749 67.0419 15.833 67.0417H49.1663C49.7467 67.0417 50.3156 66.8801 50.8093 66.575C51.3029 66.2698 51.7019 65.8333 51.9614 65.3142C52.221 64.7951 52.3308 64.214 52.2787 63.636C52.2266 63.058 52.0146 62.5059 51.6663 62.0417L45.4163 53.7083C45.1253 53.3202 44.7478 53.0052 44.3139 52.7882C43.88 52.5713 43.4015 52.4583 42.9163 52.4583C42.4312 52.4583 41.9527 52.5713 41.5188 52.7882C41.0849 53.0052 40.7074 53.3202 40.4163 53.7083L36.8997 58.3958L28.8997 45.5917Z" fill="#218DFF"/>
</svg>
